<?xml version="1.0" standalone="no"?>
<!DOCTYPE svg PUBLIC "-//W3C//DTD SVG 1.1//EN" "http://www.w3.org/Graphics/SVG/1.1/DTD/svg11.dtd" >
<svg xmlns="http://www.w3.org/2000/svg" xmlns:xlink="http://www.w3.org/1999/xlink" version="1.1">
<metadata>
Created by FontForge 20161116 at Fri Apr  9 10:09:10 2010
 By Jimmy Wärting
Copyright (c) 2010 . All rights reserved. Created By ZakDesign Arabic Font Resource . For More Visit Us www.zakdesign.net
</metadata>
<defs>
<font id="ToyorAljanah" horiz-adv-x="500" >
  <font-face 
    font-family="ToyorAljanah"
    font-weight="400"
    font-stretch="normal"
    units-per-em="1000"
    panose-1="1 0 0 0 0 0 0 0 0 0"
    ascent="754"
    descent="-246"
    x-height="322"
    cap-height="602"
    bbox="-331.041 -544.311 1382 1389"
    underline-thickness="50"
    underline-position="-125"
    unicode-range="U+000D-FEFC"
  />
<missing-glyph horiz-adv-x="494" 
 />
    <glyph glyph-name="uniFEFB" unicode="&#xfedf;&#xfe8e;" horiz-adv-x="649" arabic-form="isolated" 
d="M598 94c5 -29 -10 -83 -35 -108c-108 -104 -377 -140 -414 50c-6 27 -3 55 8 83c13 34 56 90 98 135c-78 60 -223 196 -246 250c-21 48 -4 115 46 16c32 -45 156 -191 243 -243c5 -3 10 8 18 10c55 48 257 184 247 238c-11 52 -78 105 -207 119c-43 4 -85 -15 -121 -16
c-83 -2 -73 55 -9 57c93 3 173 -3 238 -19c83 -20 129 -53 138 -97c24 -123 -190 -244 -258 -313c151 -55 242 -103 254 -162zM298 229c-22 -9 -112 -136 -115 -175c-12 -155 406 -112 378 17c-5 25 -49 60 -133 102c-78 41 -120 60 -130 56z" />
    <glyph glyph-name="uniFEFC" unicode="&#xfee0;&#xfe8e;" horiz-adv-x="699" arabic-form="final" 
d="M568 -9c-104 -115 -379 -152 -419 45c-6 27 -3 55 8 83c13 34 56 90 98 135c-78 60 -223 196 -246 250c-21 48 -4 115 46 16c32 -45 156 -191 243 -243c5 -3 10 8 18 10c55 48 257 184 247 238c-11 52 -78 105 -207 119c-43 4 -85 -15 -121 -16c-83 -2 -73 55 -9 57
c93 3 173 -3 238 -19c83 -20 129 -53 138 -97c24 -123 -190 -244 -258 -313c151 -55 243 -103 254 -162c2 -12 2 -24 2 -35c0 -44 20 -101 78 -103h21c8 0 14 -9 14 -19c0 -9 -6 -18 -14 -18h-22c-51 0 -93 30 -109 72zM298 229c-22 -9 -112 -136 -115 -175
c-12 -155 406 -112 378 17c-5 25 -49 60 -133 102c-78 41 -120 60 -130 56z" />
    <glyph glyph-name="uniFEF5" unicode="&#xfedf;&#xfe82;" horiz-adv-x="642" arabic-form="isolated" 
d="M598 94c5 -29 -10 -83 -35 -108c-108 -104 -377 -140 -414 50c-6 27 -3 55 8 83c13 34 56 90 98 135c-78 60 -223 196 -246 250c-21 48 -4 115 46 16c32 -45 156 -191 243 -243c5 -3 10 8 18 10c55 48 257 184 247 238c-11 52 -78 105 -207 119c-43 4 -85 -15 -121 -16
c-83 -2 -73 55 -9 57c93 3 173 -3 238 -19c83 -20 129 -53 138 -97c24 -123 -190 -244 -258 -313c151 -55 242 -103 254 -162zM298 229c-22 -9 -112 -136 -115 -175c-12 -155 406 -112 378 17c-5 25 -49 60 -133 102c-78 41 -120 60 -130 56zM21 705c-21 9 -46 24 -70 24
c-22 0 -38 -12 -55 -24c-7 -5 -13 -7 -18 -7c-8 0 -13 3 -13 9c0 16 49 47 66 52c7 2 15 4 22 4c38 0 76 -42 112 -33c5 1 14 6 26 13c12 6 20 10 25 10c10 -1 18 -10 10 -18c-25 -24 -50 -36 -76 -36c-10 0 -20 2 -29 6z" />
    <glyph glyph-name="uniFEF6" unicode="&#xfee0;&#xfe82;" horiz-adv-x="699" arabic-form="final" 
d="M568 -9c-104 -115 -379 -152 -419 45c-6 27 -3 55 8 83c13 34 56 90 98 135c-78 60 -223 196 -246 250c-21 48 -4 115 46 16c32 -45 156 -191 243 -243c5 -3 10 8 18 10c55 48 257 184 247 238c-11 52 -78 105 -207 119c-43 4 -85 -15 -121 -16c-83 -2 -73 55 -9 57
c93 3 173 -3 238 -19c83 -20 129 -53 138 -97c24 -123 -190 -244 -258 -313c151 -55 243 -103 254 -162c2 -12 2 -24 2 -35c0 -44 20 -101 78 -103h21c8 0 14 -9 14 -19c0 -9 -6 -18 -14 -18h-22c-51 0 -93 30 -109 72zM298 229c-22 -9 -112 -136 -115 -175
c-12 -155 406 -112 378 17c-5 25 -49 60 -133 102c-78 41 -120 60 -130 56zM21 705c-21 9 -46 24 -70 24c-22 0 -38 -12 -55 -24c-7 -5 -13 -7 -18 -7c-8 0 -13 3 -13 9c0 16 49 47 66 52c7 2 15 4 22 4c38 0 76 -42 112 -33c5 1 14 6 26 13c12 6 20 10 25 10
c10 -1 18 -10 10 -18c-25 -24 -50 -36 -76 -36c-10 0 -20 2 -29 6z" />
    <glyph glyph-name="uniFEF7" unicode="&#xfedf;&#xfe84;" horiz-adv-x="643" arabic-form="isolated" 
d="M598 94c5 -29 -10 -83 -35 -108c-108 -104 -377 -140 -414 50c-6 27 -3 55 8 83c13 34 56 90 98 135c-78 60 -223 196 -246 250c-21 48 -4 115 46 16c32 -45 156 -191 243 -243c5 -3 10 8 18 10c55 48 257 184 247 238c-11 52 -78 105 -207 119c-43 4 -85 -15 -121 -16
c-83 -2 -73 55 -9 57c93 3 173 -3 238 -19c83 -20 129 -53 138 -97c24 -123 -190 -244 -258 -313c151 -55 242 -103 254 -162zM298 229c-22 -9 -112 -136 -115 -175c-12 -155 406 -112 378 17c-5 25 -49 60 -133 102c-78 41 -120 60 -130 56zM103 772
c-26 14 -80 -31 -80 -58c0 -20 94 7 94 -44c0 -35 -46 -61 -77 -61c-15 0 -32 11 -32 27c0 7 7 19 15 19h3c0 -6 -3 -12 -3 -17c0 -7 4 -10 11 -10c19 0 68 16 68 40c0 6 -3 10 -9 14c-23 15 -54 2 -79 12c-64 25 106 147 106 83c0 -13 -10 -9 -17 -5z" />
    <glyph glyph-name="uniFEF8" unicode="&#xfee0;&#xfe84;" horiz-adv-x="699" arabic-form="final" 
d="M568 -9c-104 -115 -379 -152 -419 45c-6 27 -3 55 8 83c13 34 56 90 98 135c-78 60 -223 196 -246 250c-21 48 -4 115 46 16c32 -45 156 -191 243 -243c5 -3 10 8 18 10c55 48 257 184 247 238c-11 52 -78 105 -207 119c-43 4 -85 -15 -121 -16c-83 -2 -73 55 -9 57
c93 3 173 -3 238 -19c83 -20 129 -53 138 -97c24 -123 -190 -244 -258 -313c151 -55 243 -103 254 -162c2 -12 2 -24 2 -35c0 -44 20 -101 78 -103h21c8 0 14 -9 14 -19c0 -9 -6 -18 -14 -18h-22c-51 0 -93 30 -109 72zM298 229c-22 -9 -112 -136 -115 -175
c-12 -155 406 -112 378 17c-5 25 -49 60 -133 102c-78 41 -120 60 -130 56zM103 772c-26 14 -80 -31 -80 -58c0 -20 94 7 94 -44c0 -35 -46 -61 -77 -61c-15 0 -32 11 -32 27c0 7 7 19 15 19h3c0 -6 -3 -12 -3 -17c0 -7 4 -10 11 -10c19 0 68 16 68 40c0 6 -3 10 -9 14
c-23 15 -54 2 -79 12c-64 25 106 147 106 83c0 -13 -10 -9 -17 -5z" />
    <glyph glyph-name="uniFEF9" unicode="&#xfedf;&#xfe88;" horiz-adv-x="648" arabic-form="isolated" 
d="M598 94c5 -29 -10 -83 -35 -108c-108 -104 -377 -140 -414 50c-6 27 -3 55 8 83c13 34 56 90 98 135c-78 60 -223 196 -246 250c-21 48 -4 115 46 16c32 -45 156 -191 243 -243c5 -3 10 8 18 10c55 48 257 184 247 238c-11 52 -78 105 -207 119c-43 4 -85 -15 -121 -16
c-83 -2 -73 55 -9 57c93 3 173 -3 238 -19c83 -20 129 -53 138 -97c24 -123 -190 -244 -258 -313c151 -55 242 -103 254 -162zM298 229c-22 -9 -112 -136 -115 -175c-12 -155 406 -112 378 17c-5 25 -49 60 -133 102c-78 41 -120 60 -130 56zM291 -154
c-27 14 -81 -31 -81 -58c0 -20 94 7 94 -44c0 -35 -46 -61 -77 -61c-15 0 -31 11 -31 27c0 7 7 19 15 19h3c-1 -6 -4 -12 -4 -17c0 -7 4 -10 12 -10c19 0 67 16 67 40c0 6 -3 10 -9 14c-22 15 -54 2 -79 12c-64 25 106 147 106 83c0 -13 -9 -9 -16 -5z" />
    <glyph glyph-name="uniFEFA" unicode="&#xfee0;&#xfe88;" horiz-adv-x="699" arabic-form="final" 
d="M568 -9c-104 -115 -379 -152 -419 45c-6 27 -3 55 8 83c13 34 56 90 98 135c-78 60 -223 196 -246 250c-21 48 -4 115 46 16c32 -45 156 -191 243 -243c5 -3 10 8 18 10c55 48 257 184 247 238c-11 52 -78 105 -207 119c-43 4 -85 -15 -121 -16c-83 -2 -73 55 -9 57
c93 3 173 -3 238 -19c83 -20 129 -53 138 -97c24 -123 -190 -244 -258 -313c151 -55 243 -103 254 -162c2 -12 2 -24 2 -35c0 -44 20 -101 78 -103h21c8 0 14 -9 14 -19c0 -9 -6 -18 -14 -18h-22c-51 0 -93 30 -109 72zM298 229c-22 -9 -112 -136 -115 -175
c-12 -155 406 -112 378 17c-5 25 -49 60 -133 102c-78 41 -120 60 -130 56zM291 -154c-27 14 -81 -31 -81 -58c0 -20 94 7 94 -44c0 -35 -46 -61 -77 -61c-15 0 -31 11 -31 27c0 7 7 19 15 19h3c-1 -6 -4 -12 -4 -17c0 -7 4 -10 12 -10c19 0 67 16 67 40c0 6 -3 10 -9 14
c-22 15 -54 2 -79 12c-64 25 106 147 106 83c0 -13 -9 -9 -16 -5z" />
    <glyph glyph-name="uni06440671" unicode="&#xfedf;&#xfb51;" horiz-adv-x="657" 
d="M9 683c-51 15 -74 168 -9 154c8 -1 26 -13 25 -22c17 3 23 -28 24 -38c6 -25 10 -70 -13 -89c-8 -6 -17 -8 -27 -5zM19 810c0 0 0 -1 -1 -1c-5 10 -13 16 -20 17c-11 2 -17 -7 -21 -26c-6 -27 8 -98 40 -105c39 -8 11 89 6 101c-3 6 -4 9 -4 12v2zM598 94
c5 -29 -10 -83 -35 -108c-108 -104 -377 -140 -414 50c-6 27 -3 55 8 83c13 34 56 90 98 135c-78 60 -223 196 -246 250c-21 48 -4 115 46 16c32 -45 156 -191 243 -243c5 -3 10 8 18 10c55 48 257 184 247 238c-11 52 -78 105 -207 119c-43 4 -85 -15 -121 -16
c-83 -2 -73 55 -9 57c93 3 173 -3 238 -19c83 -20 129 -53 138 -97c24 -123 -190 -244 -258 -313c151 -55 242 -103 254 -162zM298 229c-22 -9 -112 -136 -115 -175c-12 -155 406 -112 378 17c-5 25 -49 60 -133 102c-78 41 -120 60 -130 56z" />
    <glyph glyph-name="uni06440671.fina" unicode="&#xfee0;&#xfb51;" horiz-adv-x="699" 
d="M568 -9c-104 -115 -379 -152 -419 45c-6 27 -3 55 8 83c13 34 56 90 98 135c-78 60 -223 196 -246 250c-21 48 -4 115 46 16c32 -45 156 -191 243 -243c5 -3 10 8 18 10c55 48 257 184 247 238c-11 52 -78 105 -207 119c-43 4 -85 -15 -121 -16c-83 -2 -73 55 -9 57
c93 3 173 -3 238 -19c83 -20 129 -53 138 -97c24 -123 -190 -244 -258 -313c151 -55 243 -103 254 -162c2 -12 2 -24 2 -35c0 -44 20 -101 78 -103h21c8 0 14 -9 14 -19c0 -9 -6 -18 -14 -18h-22c-51 0 -93 30 -109 72zM298 229c-22 -9 -112 -136 -115 -175
c-12 -155 406 -112 378 17c-5 25 -49 60 -133 102c-78 41 -120 60 -130 56zM9 683c-51 15 -74 168 -9 154c8 -1 26 -13 25 -22c17 3 23 -28 24 -38c6 -25 10 -70 -13 -89c-8 -6 -17 -8 -27 -5zM19 810c0 0 0 -1 -1 -1c-5 10 -13 16 -20 17c-11 2 -17 -7 -21 -26
c-6 -27 8 -98 40 -105c39 -8 11 89 6 101c-3 6 -4 9 -4 12v2z" />
    <glyph glyph-name="uni0628.init_uni06D2.fina" unicode="&#xfe91;&#xfbaf;" horiz-adv-x="903" 
d="M743 -81c-107 0 -216 5 -318 -28c-28 -9 -41 -18 -38 -26c15 -48 226 -61 310 -64c63 -3 79 -28 6 -79c-132 -93 -260 -134 -435 -116c-112 11 -210 78 -221 173c-6 52 23 132 69 172c38 32 97 20 32 -21c-43 -33 -73 -91 -62 -147c14 -72 91 -121 171 -133
c158 -23 302 39 438 113c-113 19 -281 2 -336 79c-4 6 -7 11 -9 17c-30 94 215 97 257 97h136c131 0 20 314 20 376c0 21 9 31 27 31c22 0 40 -37 53 -111c14 -80 46 -333 -100 -333zM809 -200c24 0 36 15 36 44c0 18 -16 27 -49 27c-22 0 -33 -10 -33 -32
c0 -11 5 -20 15 -28c10 -7 20 -11 31 -11z" />
    <glyph glyph-name="aBeh.medi_aYehBarri.fina_" unicode="&#xfe92;&#xfbaf;" horiz-adv-x="873" 
d="M697 -81c-107 0 -216 5 -318 -28c-28 -9 -41 -18 -38 -26c15 -48 226 -61 310 -64c63 -3 79 -28 6 -79c-132 -93 -260 -134 -435 -116c-112 11 -210 78 -221 173c-6 52 23 132 69 172c38 32 97 20 32 -21c-43 -33 -73 -91 -62 -147c14 -72 91 -121 171 -133
c158 -23 302 39 438 113c-113 19 -281 2 -336 79c-4 6 -7 11 -9 17c-30 94 215 97 257 97h136c133 0 20 316 20 376c0 21 9 31 27 31c107 0 -3 -407 128 -407c8 0 14 -9 14 -19c0 -9 -6 -18 -14 -18c-43 0 -71 22 -88 54c-17 -32 -44 -54 -87 -54zM789 -202
c-11 0 -21 4 -31 11c-10 8 -15 17 -15 28c0 22 11 32 33 32c33 0 49 -9 49 -27c0 -29 -12 -44 -36 -44z" />
    <glyph glyph-name="uni064A.init_uni06D2.fina" unicode="&#xfef3;&#xfbaf;" horiz-adv-x="912" 
d="M743 -81c-107 0 -216 5 -318 -28c-28 -9 -41 -18 -38 -26c15 -48 226 -61 310 -64c63 -3 79 -28 6 -79c-132 -93 -260 -134 -435 -116c-112 11 -210 78 -221 173c-6 52 23 132 69 172c38 32 97 20 32 -21c-43 -33 -73 -91 -62 -147c14 -72 91 -121 171 -133
c158 -23 302 39 438 113c-113 19 -281 2 -336 79c-4 6 -7 11 -9 17c-30 94 215 97 257 97h136c131 0 20 314 20 376c0 21 9 31 27 31c22 0 40 -37 53 -111c14 -80 46 -333 -100 -333zM775 -188c25 0 37 15 37 44c0 18 -16 27 -50 27c-22 0 -33 -10 -33 -32
c0 -11 6 -20 16 -28c10 -7 20 -11 30 -11zM863 -188c24 0 36 15 36 44c0 18 -16 27 -49 27c-22 0 -33 -10 -33 -32c0 -11 5 -20 15 -28c11 -7 21 -11 31 -11z" />
    <glyph glyph-name="uni064A.medi_uni06D2.fina" unicode="&#xfef4;&#xfbaf;" horiz-adv-x="871" 
d="M697 -81c-107 0 -216 5 -318 -28c-28 -9 -41 -18 -38 -26c15 -48 226 -61 310 -64c63 -3 79 -28 6 -79c-132 -93 -260 -134 -435 -116c-112 11 -210 78 -221 173c-6 52 23 132 69 172c38 32 97 20 32 -21c-43 -33 -73 -91 -62 -147c14 -72 91 -121 171 -133
c158 -23 302 39 438 113c-113 19 -281 2 -336 79c-4 6 -7 11 -9 17c-30 94 215 97 257 97h136c133 0 20 316 20 376c0 21 9 31 27 31c107 0 -3 -407 128 -407c8 0 14 -9 14 -19c0 -9 -6 -18 -14 -18c-43 0 -71 22 -88 54c-17 -32 -44 -54 -87 -54zM748 -188
c-10 0 -20 4 -30 11c-10 8 -16 17 -16 28c0 22 11 32 33 32c34 0 50 -9 50 -27c0 -29 -12 -44 -37 -44zM836 -188c-10 0 -20 4 -31 11c-10 8 -15 17 -15 28c0 22 11 32 33 32c33 0 49 -9 49 -27c0 -29 -12 -44 -36 -44z" />
    <glyph glyph-name="uni067E.init_uni06D2.fina" unicode="&#xfb58;&#xfbaf;" horiz-adv-x="919" 
d="M743 -81c-107 0 -216 5 -318 -28c-28 -9 -41 -18 -38 -26c15 -48 226 -61 310 -64c63 -3 79 -28 6 -79c-132 -93 -260 -134 -435 -116c-112 11 -210 78 -221 173c-6 52 23 132 69 172c38 32 97 20 32 -21c-43 -33 -73 -91 -62 -147c14 -72 91 -121 171 -133
c158 -23 302 39 438 113c-113 19 -281 2 -336 79c-4 6 -7 11 -9 17c-30 94 215 97 257 97h136c131 0 20 314 20 376c0 21 9 31 27 31c22 0 40 -37 53 -111c14 -80 46 -333 -100 -333zM774 -129c-24 0 -36 -15 -36 -44c0 -18 16 -27 49 -27c22 0 33 10 33 32
c0 11 -5 20 -15 28c-10 7 -21 11 -31 11zM834 -225c-25 0 -37 -14 -37 -44c0 -18 17 -27 50 -27c22 0 33 11 33 32c0 11 -6 20 -16 28c-10 7 -20 11 -30 11zM875 -130c-25 0 -37 -15 -37 -44c0 -18 17 -27 50 -27c22 0 33 10 33 32c0 11 -6 20 -16 28c-10 7 -20 11 -30 11z
" />
    <glyph glyph-name="uni067E.medi_uni06D2.fina" unicode="&#xfb59;&#xfbaf;" horiz-adv-x="871" 
d="M697 -81c-107 0 -216 5 -318 -28c-28 -9 -41 -18 -38 -26c15 -48 226 -61 310 -64c63 -3 79 -28 6 -79c-132 -93 -260 -134 -435 -116c-112 11 -210 78 -221 173c-6 52 23 132 69 172c38 32 97 20 32 -21c-43 -33 -73 -91 -62 -147c14 -72 91 -121 171 -133
c158 -23 302 39 438 113c-113 19 -281 2 -336 79c-4 6 -7 11 -9 17c-30 94 215 97 257 97h136c133 0 20 316 20 376c0 21 9 31 27 31c107 0 -3 -407 128 -407c8 0 14 -9 14 -19c0 -9 -6 -18 -14 -18c-43 0 -71 22 -88 54c-17 -32 -44 -54 -87 -54zM728 -116
c10 0 21 -4 31 -11c10 -8 15 -17 15 -28c0 -22 -11 -32 -33 -32c-33 0 -49 9 -49 27c0 29 12 44 36 44zM788 -212c10 0 20 -4 30 -11c10 -8 16 -17 16 -28c0 -21 -11 -32 -33 -32c-33 0 -50 9 -50 27c0 30 12 44 37 44zM829 -117c10 0 20 -4 30 -11c10 -8 16 -17 16 -28
c0 -22 -11 -32 -33 -32c-33 0 -50 9 -50 27c0 29 12 44 37 44z" />
    <glyph glyph-name="uni06CC.init_uni06D2.fina" unicode="&#xfbfe;&#xfbaf;" horiz-adv-x="931" 
d="M743 -81c-107 0 -216 5 -318 -28c-28 -9 -41 -18 -38 -26c15 -48 226 -61 310 -64c63 -3 79 -28 6 -79c-132 -93 -260 -134 -435 -116c-112 11 -210 78 -221 173c-6 52 23 132 69 172c38 32 97 20 32 -21c-43 -33 -73 -91 -62 -147c14 -72 91 -121 171 -133
c158 -23 302 39 438 113c-113 19 -281 2 -336 79c-4 6 -7 11 -9 17c-30 94 215 97 257 97h136c131 0 20 314 20 376c0 21 9 31 27 31c22 0 40 -37 53 -111c14 -80 46 -333 -100 -333zM768 -192c25 0 37 15 37 44c0 18 -16 27 -50 27c-22 0 -33 -10 -33 -32
c0 -11 6 -20 16 -28c10 -7 20 -11 30 -11zM856 -192c24 0 36 15 36 44c0 18 -16 27 -49 27c-22 0 -33 -10 -33 -32c0 -11 5 -20 15 -28c11 -7 21 -11 31 -11z" />
    <glyph glyph-name="uni06CC.medi_uni06D2.fina" unicode="&#xfbff;&#xfbaf;" horiz-adv-x="874" 
d="M697 -81c-107 0 -216 5 -318 -28c-28 -9 -41 -18 -38 -26c15 -48 226 -61 310 -64c63 -3 79 -28 6 -79c-132 -93 -260 -134 -435 -116c-112 11 -210 78 -221 173c-6 52 23 132 69 172c38 32 97 20 32 -21c-43 -33 -73 -91 -62 -147c14 -72 91 -121 171 -133
c158 -23 302 39 438 113c-113 19 -281 2 -336 79c-4 6 -7 11 -9 17c-30 94 215 97 257 97h136c133 0 20 316 20 376c0 21 9 31 27 31c107 0 -3 -407 128 -407c8 0 14 -9 14 -19c0 -9 -6 -18 -14 -18c-43 0 -71 22 -88 54c-17 -32 -44 -54 -87 -54zM744 -188
c-10 0 -20 4 -30 11c-10 8 -16 17 -16 28c0 22 11 32 33 32c34 0 50 -9 50 -27c0 -29 -12 -44 -37 -44zM832 -188c-10 0 -20 4 -31 11c-10 8 -15 17 -15 28c0 22 11 32 33 32c33 0 49 -9 49 -27c0 -29 -12 -44 -36 -44z" />
    <glyph glyph-name="uni062C.init_uni06D2.fina" unicode="&#xfe9f;&#xfbaf;" horiz-adv-x="1381" 
d="M1291 133c-6 115 -309 229 -404 229c-50 0 -75 -20 -75 -60c0 -32 44 -97 44 -112c0 -17 -10 -25 -31 -25c-26 0 -54 99 -54 125c0 70 51 123 121 123c116 0 449 -143 449 -265c0 -159 -470 -229 -644 -229c-107 0 -216 5 -318 -28c-28 -9 -41 -18 -38 -26
c15 -48 226 -61 310 -64c63 -3 79 -28 6 -79c-132 -93 -260 -134 -435 -116c-112 11 -210 78 -221 173c-6 52 23 132 69 172c38 32 97 20 32 -21c-43 -33 -73 -91 -62 -147c14 -72 91 -121 171 -133c158 -23 302 39 438 113c-113 19 -281 2 -336 79c-4 6 -7 11 -9 17
c-30 94 215 97 257 97c65 0 119 3 136 2c158 -9 566 82 594 175zM1009 -215c-11 0 -21 4 -31 11c-10 8 -15 17 -15 28c0 22 11 32 33 32c33 0 49 -9 49 -27c0 -29 -12 -44 -36 -44z" />
    <glyph glyph-name="uni062C.medi_uni06D2.fina" unicode="&#xfea0;&#xfbaf;" horiz-adv-x="1368" 
d="M561 -44h136c131 0 286 56 406 101c110 42 165 67 165 76c0 115 -309 229 -404 229c-50 0 -75 -20 -75 -60c0 -32 44 -97 44 -112c0 -17 -10 -25 -31 -25c-25 0 -54 101 -54 125c0 70 52 123 121 123c116 0 449 -143 449 -265c0 -100 -190 -120 -263 -151
c43 -40 154 -41 193 -41h120c8 0 14 -9 14 -19c0 -9 -6 -18 -14 -18c-133 0 -267 -5 -368 61c-79 -27 -154 -54 -303 -61c-107 0 -216 5 -318 -28c-28 -9 -41 -18 -38 -26c15 -48 226 -61 310 -64c63 -3 79 -28 6 -79c-132 -93 -260 -134 -435 -116
c-112 11 -210 78 -221 173c-6 52 23 132 69 172c38 32 97 20 32 -21c-43 -33 -73 -91 -62 -147c14 -72 91 -121 171 -133c158 -23 302 39 438 113c-113 19 -281 2 -336 79c-4 6 -7 11 -9 17c-30 94 215 97 257 97zM1006 -207c-11 0 -21 4 -31 11c-10 8 -15 17 -15 28
c0 22 11 32 33 32c33 0 49 -9 49 -27c0 -29 -12 -44 -36 -44z" />
    <glyph glyph-name="uni0686.init_uni06D2.fina" unicode="&#xfb7c;&#xfbaf;" horiz-adv-x="1391" 
d="M1291 133c-6 115 -309 229 -404 229c-50 0 -75 -20 -75 -60c0 -32 44 -97 44 -112c0 -17 -10 -25 -31 -25c-26 0 -54 99 -54 125c0 70 51 123 121 123c116 0 449 -143 449 -265c0 -159 -470 -229 -644 -229c-107 0 -216 5 -318 -28c-28 -9 -41 -18 -38 -26
c15 -48 226 -61 310 -64c63 -3 79 -28 6 -79c-132 -93 -260 -134 -435 -116c-112 11 -210 78 -221 173c-6 52 23 132 69 172c38 32 97 20 32 -21c-43 -33 -73 -91 -62 -147c14 -72 91 -121 171 -133c158 -23 302 39 438 113c-113 19 -281 2 -336 79c-4 6 -7 11 -9 17
c-30 94 215 97 257 97c65 0 119 3 136 2c158 -9 566 82 594 175zM944 -153c10 0 21 -4 31 -11c10 -8 15 -17 15 -28c0 -22 -11 -32 -33 -32c-33 0 -49 9 -49 27c0 29 12 44 36 44zM1004 -249c10 0 20 -4 30 -11c10 -8 16 -17 16 -28c0 -21 -11 -32 -33 -32
c-33 0 -50 9 -50 27c0 30 12 44 37 44zM1045 -154c10 0 20 -4 30 -11c10 -8 16 -17 16 -28c0 -22 -11 -32 -33 -32c-33 0 -50 9 -50 27c0 29 12 44 37 44z" />
    <glyph glyph-name="uni0686.medi_uni06D2.fina" unicode="&#xfb7d;&#xfbaf;" horiz-adv-x="1369" 
d="M561 -44h136c131 0 286 56 406 101c110 42 165 67 165 76c0 115 -309 229 -404 229c-50 0 -75 -20 -75 -60c0 -32 44 -97 44 -112c0 -17 -10 -25 -31 -25c-25 0 -54 101 -54 125c0 70 52 123 121 123c116 0 449 -143 449 -265c0 -100 -190 -120 -263 -151
c43 -40 154 -41 193 -41h120c8 0 14 -9 14 -19c0 -9 -6 -18 -14 -18c-133 0 -267 -5 -368 61c-79 -27 -154 -54 -303 -61c-107 0 -216 5 -318 -28c-28 -9 -41 -18 -38 -26c15 -48 226 -61 310 -64c63 -3 79 -28 6 -79c-132 -93 -260 -134 -435 -116
c-112 11 -210 78 -221 173c-6 52 23 132 69 172c38 32 97 20 32 -21c-43 -33 -73 -91 -62 -147c14 -72 91 -121 171 -133c158 -23 302 39 438 113c-113 19 -281 2 -336 79c-4 6 -7 11 -9 17c-30 94 215 97 257 97zM945 -154c10 0 21 -4 31 -11c10 -8 15 -17 15 -28
c0 -22 -11 -32 -33 -32c-33 0 -49 9 -49 27c0 29 12 44 36 44zM1005 -250c10 0 20 -4 30 -11c10 -8 16 -17 16 -28c0 -21 -11 -32 -33 -32c-33 0 -50 9 -50 27c0 30 12 44 37 44zM1046 -155c10 0 20 -4 30 -11c10 -8 16 -17 16 -28c0 -22 -11 -32 -33 -32
c-33 0 -50 9 -50 27c0 29 12 44 37 44z" />
    <glyph glyph-name="uni0628.init_uni06D3.fina" unicode="&#xfe91;&#xfbb1;" horiz-adv-x="896" 
d="M743 -81c-107 0 -216 5 -318 -28c-28 -9 -41 -18 -38 -26c15 -48 226 -61 310 -64c63 -3 79 -28 6 -79c-132 -93 -260 -134 -435 -116c-112 11 -210 78 -221 173c-6 52 23 132 69 172c38 32 97 20 32 -21c-43 -33 -73 -91 -62 -147c14 -72 91 -121 171 -133
c158 -23 302 39 438 113c-113 19 -281 2 -336 79c-4 6 -7 11 -9 17c-30 94 215 97 257 97h136c131 0 20 314 20 376c0 21 9 31 27 31c22 0 40 -37 53 -111c14 -80 46 -333 -100 -333zM810 -198c24 0 36 15 36 44c0 18 -16 27 -49 27c-22 0 -33 -10 -33 -32
c0 -11 5 -20 15 -28c10 -7 20 -11 31 -11zM229 196c-26 14 -80 -31 -80 -58c0 -20 94 7 94 -44c0 -35 -46 -61 -77 -61c-15 0 -32 11 -32 27c0 7 7 19 15 19h3c0 -6 -3 -12 -3 -17c0 -7 4 -10 11 -10c19 0 68 16 68 40c0 6 -3 10 -9 14c-23 15 -54 2 -79 12
c-64 25 106 147 106 83c0 -13 -10 -9 -17 -5z" />
    <glyph glyph-name="uni0628.medi_uni06D3.fina" unicode="&#xfe92;&#xfbb1;" horiz-adv-x="871" 
d="M697 -81c-107 0 -216 5 -318 -28c-28 -9 -41 -18 -38 -26c15 -48 226 -61 310 -64c63 -3 79 -28 6 -79c-132 -93 -260 -134 -435 -116c-112 11 -210 78 -221 173c-6 52 23 132 69 172c38 32 97 20 32 -21c-43 -33 -73 -91 -62 -147c14 -72 91 -121 171 -133
c158 -23 302 39 438 113c-113 19 -281 2 -336 79c-4 6 -7 11 -9 17c-30 94 215 97 257 97h136c133 0 20 316 20 376c0 21 9 31 27 31c107 0 -3 -407 128 -407c8 0 14 -9 14 -19c0 -9 -6 -18 -14 -18c-43 0 -71 22 -88 54c-17 -32 -44 -54 -87 -54zM789 -216
c-11 0 -21 4 -31 11c-10 8 -15 17 -15 28c0 22 11 32 33 32c33 0 49 -9 49 -27c0 -29 -12 -44 -36 -44zM109 243c-26 14 -80 -31 -80 -58c0 -20 94 7 94 -44c0 -35 -46 -61 -77 -61c-15 0 -32 11 -32 27c0 7 7 19 15 19h3c0 -6 -3 -12 -3 -17c0 -7 4 -10 11 -10
c19 0 68 16 68 40c0 6 -3 10 -9 14c-23 15 -54 2 -79 12c-64 25 106 147 106 83c0 -13 -10 -9 -17 -5z" />
    <glyph glyph-name="uni064A.init_uni06D3.fina" unicode="&#xfef3;&#xfbb1;" horiz-adv-x="910" 
d="M743 -81c-107 0 -216 5 -318 -28c-28 -9 -41 -18 -38 -26c15 -48 226 -61 310 -64c63 -3 79 -28 6 -79c-132 -93 -260 -134 -435 -116c-112 11 -210 78 -221 173c-6 52 23 132 69 172c38 32 97 20 32 -21c-43 -33 -73 -91 -62 -147c14 -72 91 -121 171 -133
c158 -23 302 39 438 113c-113 19 -281 2 -336 79c-4 6 -7 11 -9 17c-30 94 215 97 257 97h136c131 0 20 314 20 376c0 21 9 31 27 31c22 0 40 -37 53 -111c14 -80 46 -333 -100 -333zM785 -196c25 0 37 15 37 44c0 18 -16 27 -50 27c-22 0 -33 -10 -33 -32
c0 -11 6 -20 16 -28c10 -7 20 -11 30 -11zM873 -196c24 0 36 15 36 44c0 18 -16 27 -49 27c-22 0 -33 -10 -33 -32c0 -11 5 -20 15 -28c11 -7 21 -11 31 -11zM209 181c-26 14 -80 -31 -80 -58c0 -20 94 7 94 -44c0 -35 -46 -61 -77 -61c-15 0 -32 11 -32 27c0 7 7 19 15 19
h3c0 -6 -3 -12 -3 -17c0 -7 4 -10 11 -10c19 0 68 16 68 40c0 6 -3 10 -9 14c-23 15 -54 2 -79 12c-64 25 106 147 106 83c0 -13 -10 -9 -17 -5z" />
    <glyph glyph-name="uni064A.medi_uni06D3.fina" unicode="&#xfef4;&#xfbb1;" horiz-adv-x="871" 
d="M697 -81c-107 0 -216 5 -318 -28c-28 -9 -41 -18 -38 -26c15 -48 226 -61 310 -64c63 -3 79 -28 6 -79c-132 -93 -260 -134 -435 -116c-112 11 -210 78 -221 173c-6 52 23 132 69 172c38 32 97 20 32 -21c-43 -33 -73 -91 -62 -147c14 -72 91 -121 171 -133
c158 -23 302 39 438 113c-113 19 -281 2 -336 79c-4 6 -7 11 -9 17c-30 94 215 97 257 97h136c133 0 20 316 20 376c0 21 9 31 27 31c107 0 -3 -407 128 -407c8 0 14 -9 14 -19c0 -9 -6 -18 -14 -18c-43 0 -71 22 -88 54c-17 -32 -44 -54 -87 -54zM745 -200
c-10 0 -20 4 -30 11c-10 8 -16 17 -16 28c0 22 11 32 33 32c34 0 50 -9 50 -27c0 -29 -12 -44 -37 -44zM833 -200c-10 0 -20 4 -31 11c-10 8 -15 17 -15 28c0 22 11 32 33 32c33 0 49 -9 49 -27c0 -29 -12 -44 -36 -44zM117 243c-26 14 -80 -31 -80 -58c0 -20 94 7 94 -44
c0 -35 -46 -61 -77 -61c-15 0 -32 11 -32 27c0 7 7 19 15 19h3c0 -6 -3 -12 -3 -17c0 -7 4 -10 11 -10c19 0 68 16 68 40c0 6 -3 10 -9 14c-23 15 -54 2 -79 12c-64 25 106 147 106 83c0 -13 -10 -9 -17 -5z" />
    <glyph glyph-name="uni067E.init_uni06D3.fina" unicode="&#xfb58;&#xfbb1;" horiz-adv-x="902" 
d="M743 -81c-107 0 -216 5 -318 -28c-28 -9 -41 -18 -38 -26c15 -48 226 -61 310 -64c63 -3 79 -28 6 -79c-132 -93 -260 -134 -435 -116c-112 11 -210 78 -221 173c-6 52 23 132 69 172c38 32 97 20 32 -21c-43 -33 -73 -91 -62 -147c14 -72 91 -121 171 -133
c158 -23 302 39 438 113c-113 19 -281 2 -336 79c-4 6 -7 11 -9 17c-30 94 215 97 257 97h136c131 0 20 314 20 376c0 21 9 31 27 31c22 0 40 -37 53 -111c14 -80 46 -333 -100 -333zM756 -112c-24 0 -36 -15 -36 -44c0 -18 16 -27 49 -27c22 0 33 10 33 32
c0 11 -5 20 -15 28c-10 7 -21 11 -31 11zM816 -208c-25 0 -37 -14 -37 -44c0 -18 17 -27 50 -27c22 0 33 11 33 32c0 11 -6 20 -16 28c-10 7 -20 11 -30 11zM857 -113c-25 0 -37 -15 -37 -44c0 -18 17 -27 50 -27c22 0 33 10 33 32c0 11 -6 20 -16 28c-10 7 -20 11 -30 11z
M224 197c-26 14 -80 -31 -80 -58c0 -20 94 7 94 -44c0 -35 -46 -61 -77 -61c-15 0 -32 11 -32 27c0 7 7 19 15 19h3c0 -6 -3 -12 -3 -17c0 -7 4 -10 11 -10c19 0 68 16 68 40c0 6 -3 10 -9 14c-23 15 -54 2 -79 12c-64 25 106 147 106 83c0 -13 -10 -9 -17 -5z" />
    <glyph glyph-name="uni067E.medi_uni06D3.fina" unicode="&#xfb59;&#xfbb1;" horiz-adv-x="873" 
d="M697 -81c-107 0 -216 5 -318 -28c-28 -9 -41 -18 -38 -26c15 -48 226 -61 310 -64c63 -3 79 -28 6 -79c-132 -93 -260 -134 -435 -116c-112 11 -210 78 -221 173c-6 52 23 132 69 172c38 32 97 20 32 -21c-43 -33 -73 -91 -62 -147c14 -72 91 -121 171 -133
c158 -23 302 39 438 113c-113 19 -281 2 -336 79c-4 6 -7 11 -9 17c-30 94 215 97 257 97h136c133 0 20 316 20 376c0 21 9 31 27 31c107 0 -3 -407 128 -407c8 0 14 -9 14 -19c0 -9 -6 -18 -14 -18c-43 0 -71 22 -88 54c-17 -32 -44 -54 -87 -54zM732 -120
c10 0 21 -4 31 -11c10 -8 15 -17 15 -28c0 -22 -11 -32 -33 -32c-33 0 -49 9 -49 27c0 29 12 44 36 44zM792 -216c10 0 20 -4 30 -11c10 -8 16 -17 16 -28c0 -21 -11 -32 -33 -32c-33 0 -50 9 -50 27c0 30 12 44 37 44zM833 -121c10 0 20 -4 30 -11c10 -8 16 -17 16 -28
c0 -22 -11 -32 -33 -32c-33 0 -50 9 -50 27c0 29 12 44 37 44zM129 243c-26 14 -80 -31 -80 -58c0 -20 94 7 94 -44c0 -35 -46 -61 -77 -61c-15 0 -32 11 -32 27c0 7 7 19 15 19h3c0 -6 -3 -12 -3 -17c0 -7 4 -10 11 -10c19 0 68 16 68 40c0 6 -3 10 -9 14
c-23 15 -54 2 -79 12c-64 25 106 147 106 83c0 -13 -10 -9 -17 -5z" />
    <glyph glyph-name="uni06CC.init_uni06D3.fina" unicode="&#xfbfe;&#xfbb1;" horiz-adv-x="908" 
d="M743 -81c-107 0 -216 5 -318 -28c-28 -9 -41 -18 -38 -26c15 -48 226 -61 310 -64c63 -3 79 -28 6 -79c-132 -93 -260 -134 -435 -116c-112 11 -210 78 -221 173c-6 52 23 132 69 172c38 32 97 20 32 -21c-43 -33 -73 -91 -62 -147c14 -72 91 -121 171 -133
c158 -23 302 39 438 113c-113 19 -281 2 -336 79c-4 6 -7 11 -9 17c-30 94 215 97 257 97h136c131 0 20 314 20 376c0 21 9 31 27 31c22 0 40 -37 53 -111c14 -80 46 -333 -100 -333zM772 -186c25 0 37 15 37 44c0 18 -16 27 -50 27c-22 0 -33 -10 -33 -32
c0 -11 6 -20 16 -28c10 -7 20 -11 30 -11zM860 -186c24 0 36 15 36 44c0 18 -16 27 -49 27c-22 0 -33 -10 -33 -32c0 -11 5 -20 15 -28c11 -7 21 -11 31 -11zM212 215c-26 14 -80 -31 -80 -58c0 -20 94 7 94 -44c0 -35 -46 -61 -77 -61c-15 0 -32 11 -32 27c0 7 7 19 15 19
h3c0 -6 -3 -12 -3 -17c0 -7 4 -10 11 -10c19 0 68 16 68 40c0 6 -3 10 -9 14c-23 15 -54 2 -79 12c-64 25 106 147 106 83c0 -13 -10 -9 -17 -5z" />
    <glyph glyph-name="uni06CC.medi_uni06D3.fina" unicode="&#xfbff;&#xfbb1;" horiz-adv-x="871" 
d="M697 -81c-107 0 -216 5 -318 -28c-28 -9 -41 -18 -38 -26c15 -48 226 -61 310 -64c63 -3 79 -28 6 -79c-132 -93 -260 -134 -435 -116c-112 11 -210 78 -221 173c-6 52 23 132 69 172c38 32 97 20 32 -21c-43 -33 -73 -91 -62 -147c14 -72 91 -121 171 -133
c158 -23 302 39 438 113c-113 19 -281 2 -336 79c-4 6 -7 11 -9 17c-30 94 215 97 257 97h136c133 0 20 316 20 376c0 21 9 31 27 31c107 0 -3 -407 128 -407c8 0 14 -9 14 -19c0 -9 -6 -18 -14 -18c-43 0 -71 22 -88 54c-17 -32 -44 -54 -87 -54zM745 -184
c-10 0 -20 4 -30 11c-10 8 -16 17 -16 28c0 22 11 32 33 32c34 0 50 -9 50 -27c0 -29 -12 -44 -37 -44zM833 -184c-10 0 -20 4 -31 11c-10 8 -15 17 -15 28c0 22 11 32 33 32c33 0 49 -9 49 -27c0 -29 -12 -44 -36 -44zM126 243c-26 14 -80 -31 -80 -58c0 -20 94 7 94 -44
c0 -35 -46 -61 -77 -61c-15 0 -32 11 -32 27c0 7 7 19 15 19h3c0 -6 -3 -12 -3 -17c0 -7 4 -10 11 -10c19 0 68 16 68 40c0 6 -3 10 -9 14c-23 15 -54 2 -79 12c-64 25 106 147 106 83c0 -13 -10 -9 -17 -5z" />
    <glyph glyph-name="uni062C.init_uni06D3.fina" unicode="&#xfe9f;&#xfbb1;" horiz-adv-x="1384" 
d="M1291 133c-6 115 -309 229 -404 229c-50 0 -75 -20 -75 -60c0 -32 44 -97 44 -112c0 -17 -10 -25 -31 -25c-26 0 -54 99 -54 125c0 70 51 123 121 123c116 0 449 -143 449 -265c0 -159 -470 -229 -644 -229c-107 0 -216 5 -318 -28c-28 -9 -41 -18 -38 -26
c15 -48 226 -61 310 -64c63 -3 79 -28 6 -79c-132 -93 -260 -134 -435 -116c-112 11 -210 78 -221 173c-6 52 23 132 69 172c38 32 97 20 32 -21c-43 -33 -73 -91 -62 -147c14 -72 91 -121 171 -133c158 -23 302 39 438 113c-113 19 -281 2 -336 79c-4 6 -7 11 -9 17
c-30 94 215 97 257 97c65 0 119 3 136 2c158 -9 566 82 594 175zM1038 -211c-11 0 -21 4 -31 11c-10 8 -15 17 -15 28c0 22 11 32 33 32c33 0 49 -9 49 -27c0 -29 -12 -44 -36 -44zM127 243c-26 14 -80 -31 -80 -58c0 -20 94 7 94 -44c0 -35 -46 -61 -77 -61
c-15 0 -32 11 -32 27c0 7 7 19 15 19h3c0 -6 -3 -12 -3 -17c0 -7 4 -10 11 -10c19 0 68 16 68 40c0 6 -3 10 -9 14c-23 15 -54 2 -79 12c-64 25 106 147 106 83c0 -13 -10 -9 -17 -5z" />
    <glyph glyph-name="uni062C.medi_uni06D3.fina" unicode="&#xfea0;&#xfbb1;" horiz-adv-x="1367" 
d="M561 -44h136c131 0 286 56 406 101c110 42 165 67 165 76c0 115 -309 229 -404 229c-50 0 -75 -20 -75 -60c0 -32 44 -97 44 -112c0 -17 -10 -25 -31 -25c-25 0 -54 101 -54 125c0 70 52 123 121 123c116 0 449 -143 449 -265c0 -100 -190 -120 -263 -151
c43 -40 154 -41 193 -41h120c8 0 14 -9 14 -19c0 -9 -6 -18 -14 -18c-133 0 -267 -5 -368 61c-79 -27 -154 -54 -303 -61c-107 0 -216 5 -318 -28c-28 -9 -41 -18 -38 -26c15 -48 226 -61 310 -64c63 -3 79 -28 6 -79c-132 -93 -260 -134 -435 -116
c-112 11 -210 78 -221 173c-6 52 23 132 69 172c38 32 97 20 32 -21c-43 -33 -73 -91 -62 -147c14 -72 91 -121 171 -133c158 -23 302 39 438 113c-113 19 -281 2 -336 79c-4 6 -7 11 -9 17c-30 94 215 97 257 97zM1006 -224c-11 0 -21 4 -31 11c-10 8 -15 17 -15 28
c0 22 11 32 33 32c33 0 49 -9 49 -27c0 -29 -12 -44 -36 -44zM135 243c-26 14 -80 -31 -80 -58c0 -20 94 7 94 -44c0 -35 -46 -61 -77 -61c-15 0 -32 11 -32 27c0 7 7 19 15 19h3c0 -6 -3 -12 -3 -17c0 -7 4 -10 11 -10c19 0 68 16 68 40c0 6 -3 10 -9 14
c-23 15 -54 2 -79 12c-64 25 106 147 106 83c0 -13 -10 -9 -17 -5z" />
    <glyph glyph-name="uni0686.init_uni06D3.fina" unicode="&#xfb7c;&#xfbb1;" horiz-adv-x="1384" 
d="M1291 133c-6 115 -309 229 -404 229c-50 0 -75 -20 -75 -60c0 -32 44 -97 44 -112c0 -17 -10 -25 -31 -25c-26 0 -54 99 -54 125c0 70 51 123 121 123c116 0 449 -143 449 -265c0 -159 -470 -229 -644 -229c-107 0 -216 5 -318 -28c-28 -9 -41 -18 -38 -26
c15 -48 226 -61 310 -64c63 -3 79 -28 6 -79c-132 -93 -260 -134 -435 -116c-112 11 -210 78 -221 173c-6 52 23 132 69 172c38 32 97 20 32 -21c-43 -33 -73 -91 -62 -147c14 -72 91 -121 171 -133c158 -23 302 39 438 113c-113 19 -281 2 -336 79c-4 6 -7 11 -9 17
c-30 94 215 97 257 97c65 0 119 3 136 2c158 -9 566 82 594 175zM958 -142c10 0 21 -4 31 -11c10 -8 15 -17 15 -28c0 -22 -11 -32 -33 -32c-33 0 -49 9 -49 27c0 29 12 44 36 44zM1018 -238c10 0 20 -4 30 -11c10 -8 16 -17 16 -28c0 -21 -11 -32 -33 -32
c-33 0 -50 9 -50 27c0 30 12 44 37 44zM1059 -143c10 0 20 -4 30 -11c10 -8 16 -17 16 -28c0 -22 -11 -32 -33 -32c-33 0 -50 9 -50 27c0 29 12 44 37 44zM134 243c-26 14 -80 -31 -80 -58c0 -20 94 7 94 -44c0 -35 -46 -61 -77 -61c-15 0 -32 11 -32 27c0 7 7 19 15 19h3
c0 -6 -3 -12 -3 -17c0 -7 4 -10 11 -10c19 0 68 16 68 40c0 6 -3 10 -9 14c-23 15 -54 2 -79 12c-64 25 106 147 106 83c0 -13 -10 -9 -17 -5z" />
    <glyph glyph-name="uni0686.medi_uni06D3.fina" unicode="&#xfb7d;&#xfbb1;" horiz-adv-x="1367" 
d="M561 -44h136c131 0 286 56 406 101c110 42 165 67 165 76c0 115 -309 229 -404 229c-50 0 -75 -20 -75 -60c0 -32 44 -97 44 -112c0 -17 -10 -25 -31 -25c-25 0 -54 101 -54 125c0 70 52 123 121 123c116 0 449 -143 449 -265c0 -100 -190 -120 -263 -151
c43 -40 154 -41 193 -41h120c8 0 14 -9 14 -19c0 -9 -6 -18 -14 -18c-133 0 -267 -5 -368 61c-79 -27 -154 -54 -303 -61c-107 0 -216 5 -318 -28c-28 -9 -41 -18 -38 -26c15 -48 226 -61 310 -64c63 -3 79 -28 6 -79c-132 -93 -260 -134 -435 -116
c-112 11 -210 78 -221 173c-6 52 23 132 69 172c38 32 97 20 32 -21c-43 -33 -73 -91 -62 -147c14 -72 91 -121 171 -133c158 -23 302 39 438 113c-113 19 -281 2 -336 79c-4 6 -7 11 -9 17c-30 94 215 97 257 97zM945 -172c10 0 21 -4 31 -11c10 -8 15 -17 15 -28
c0 -22 -11 -32 -33 -32c-33 0 -49 9 -49 27c0 29 12 44 36 44zM1005 -268c10 0 20 -4 30 -11c10 -8 16 -17 16 -28c0 -21 -11 -32 -33 -32c-33 0 -50 9 -50 27c0 30 12 44 37 44zM1046 -173c10 0 20 -4 30 -11c10 -8 16 -17 16 -28c0 -22 -11 -32 -33 -32
c-33 0 -50 9 -50 27c0 29 12 44 37 44zM136 243c-26 14 -80 -31 -80 -58c0 -20 94 7 94 -44c0 -35 -46 -61 -77 -61c-15 0 -32 11 -32 27c0 7 7 19 15 19h3c0 -6 -3 -12 -3 -17c0 -7 4 -10 11 -10c19 0 68 16 68 40c0 6 -3 10 -9 14c-23 15 -54 2 -79 12
c-64 25 106 147 106 83c0 -13 -10 -9 -17 -5z" />
    <glyph glyph-name="uni0621" unicode="&#x621;" horiz-adv-x="296" arabic-form="isolated" 
d="M247 253c-55 28 -165 -64 -165 -119c0 -41 192 15 192 -89c0 -72 -94 -125 -157 -125c-31 0 -64 22 -64 55c0 14 15 39 31 39h6c-2 -12 -8 -25 -8 -35c0 -14 8 -20 24 -20c39 0 137 32 137 81c0 13 -6 21 -18 29c-45 31 -110 4 -161 24c-131 52 216 301 216 170
c0 -27 -18 -18 -33 -10z" />
    <glyph glyph-name="uni0622" unicode="&#x622;" horiz-adv-x="283" arabic-form="isolated" 
d="M83 717c-21 9 -46 24 -70 24c-22 0 -38 -12 -55 -24c-7 -5 -13 -7 -18 -7c-8 0 -13 3 -13 9c0 16 49 47 66 52c7 2 15 4 22 4c38 0 76 -42 112 -33c5 1 14 6 26 13c12 6 20 10 25 10c10 -1 18 -10 10 -18c-25 -24 -50 -36 -76 -36c-10 0 -20 2 -29 6zM124 109
c-47 150 -88 343 -98 475c0 4 -1 9 -1 13c0 34 11 48 23 48c39 0 40 -144 48 -190c16 -98 71 -478 185 -536c-102 19 -125 92 -157 190z" />
    <glyph glyph-name="uniFE82" unicode="&#x622;" horiz-adv-x="260" arabic-form="final" 
d="M260 -44c8 0 14 -9 14 -19c0 -9 -6 -18 -14 -18c-144 0 -201 451 -219 558c-8 52 -14 93 -14 122c0 32 10 46 22 46c38 0 43 -145 48 -190c8 -81 51 -497 163 -499zM70 714c-21 9 -46 24 -70 24c-22 0 -38 -12 -55 -24c-7 -5 -13 -7 -18 -7c-8 0 -13 3 -13 9
c0 16 49 47 66 52c7 2 15 4 22 4c38 0 76 -42 112 -33c5 1 14 6 26 13c12 6 20 10 25 10c10 -1 18 -10 10 -18c-25 -24 -50 -36 -76 -36c-10 0 -20 2 -29 6z" />
    <glyph glyph-name="uni0623" unicode="&#x623;" horiz-adv-x="284" arabic-form="isolated" 
d="M95 851c-26 14 -80 -31 -80 -58c0 -20 94 7 94 -44c0 -35 -46 -61 -77 -61c-15 0 -32 11 -32 27c0 7 7 19 15 19h3c0 -6 -3 -12 -3 -17c0 -7 4 -10 11 -10c19 0 68 16 68 40c0 6 -3 10 -9 14c-23 15 -54 2 -79 12c-64 25 106 147 106 83c0 -13 -10 -9 -17 -5zM124 109
c32 -98 55 -171 157 -190c-114 58 -169 438 -185 536c-8 46 -9 190 -48 190c-12 0 -23 -14 -23 -48c0 -4 1 -9 1 -13c10 -132 51 -325 98 -475z" />
    <glyph glyph-name="uniFE84" unicode="&#x623;" horiz-adv-x="263" arabic-form="final" 
d="M263 -44c-112 2 -155 418 -163 499c-5 45 -10 190 -48 190c-12 0 -22 -14 -22 -46c0 -29 6 -70 14 -122c18 -107 75 -558 219 -558c8 0 14 9 14 18c0 10 -6 19 -14 19zM101 857c-26 14 -80 -31 -80 -58c0 -20 94 7 94 -44c0 -35 -46 -61 -77 -61c-15 0 -32 11 -32 27
c0 7 7 19 15 19h3c0 -6 -3 -12 -3 -17c0 -7 4 -10 11 -10c19 0 68 16 68 40c0 6 -3 10 -9 14c-23 15 -54 2 -79 12c-64 25 106 147 106 83c0 -13 -10 -9 -17 -5z" />
    <glyph glyph-name="uni0624" unicode="&#x624;" horiz-adv-x="455" arabic-form="isolated" 
d="M330 -62c-24 -24 -53 -32 -85 -25c-94 20 -145 151 -169 230c-10 32 -43 128 12 143c-16 24 19 88 38 104c47 39 94 28 134 -10c-1 32 32 50 50 10c10 -21 21 -57 33 -106c20 -84 34 -169 43 -256c1 -16 3 -32 4 -46c2 -51 -2 -155 -55 -205c-14 -13 -34 -21 -55 -25
c-20 -5 -39 -4 -36 15c2 12 16 19 29 15c4 -1 9 0 14 2c63 23 77 99 68 190c-7 -14 -15 -26 -25 -36zM112 281c1 -2 2 -3 4 -5c3 -4 6 -17 6 -39c2 -42 70 -358 168 -278c80 65 13 290 -42 357c-41 50 -73 65 -98 44c-19 -15 -30 -41 -35 -79h-3zM269 732
c-39 20 -116 -45 -116 -83c0 -29 135 10 135 -62c0 -51 -66 -88 -110 -88c-22 0 -45 15 -45 39c0 9 11 27 22 27h4c-1 -9 -6 -18 -6 -25c0 -9 6 -14 17 -14c27 0 96 23 96 57c0 9 -4 15 -12 20c-32 22 -78 3 -113 17c-92 37 151 211 151 119c0 -19 -13 -12 -23 -7z" />
    <glyph glyph-name="uniFE86" unicode="&#x624;" horiz-adv-x="444" arabic-form="final" 
d="M444 -81c-22 0 -40 6 -55 16c-2 -53 -14 -122 -54 -159c-15 -14 -35 -22 -55 -26c-21 -5 -39 -3 -36 15c2 12 16 19 29 16c4 -1 8 -1 13 1c64 23 77 99 68 190c-6 -13 -14 -25 -23 -34c-25 -24 -53 -32 -85 -25c-94 20 -145 151 -170 230c-9 32 -42 128 13 143
c-16 24 18 88 38 104c46 38 92 28 132 -9c2 31 33 46 51 8c10 -22 20 -57 32 -107c20 -84 35 -169 43 -255c2 -18 2 -32 12 -47s25 -24 47 -24c8 0 14 -9 14 -19c0 -9 -6 -18 -14 -18zM112 281l5 -5c3 -4 5 -17 6 -39c2 -42 70 -358 167 -278c80 65 14 290 -41 357
c-41 50 -73 65 -98 44c-19 -15 -31 -41 -36 -79h-3zM269 732c-39 20 -116 -45 -116 -83c0 -29 135 10 135 -62c0 -51 -66 -88 -110 -88c-22 0 -45 15 -45 39c0 9 11 27 22 27h4c-1 -9 -6 -18 -6 -25c0 -9 6 -14 17 -14c27 0 96 23 96 57c0 9 -4 15 -12 20
c-32 22 -78 3 -113 17c-92 37 151 211 151 119c0 -19 -13 -12 -23 -7z" />
    <glyph glyph-name="uni0625" unicode="&#x625;" horiz-adv-x="322" arabic-form="isolated" 
d="M307 -154c-27 14 -81 -31 -81 -58c0 -20 94 7 94 -44c0 -35 -46 -61 -77 -61c-15 0 -31 11 -31 27c0 7 7 19 15 19h3c-1 -6 -4 -12 -4 -17c0 -7 4 -10 12 -10c19 0 67 16 67 40c0 6 -3 10 -9 14c-22 15 -54 2 -79 12c-64 25 106 147 106 83c0 -13 -9 -9 -16 -5zM124 109
c-47 150 -88 343 -98 475c0 4 -1 9 -1 13c0 34 11 48 23 48c39 0 40 -144 48 -190c16 -98 71 -478 185 -536c-102 19 -125 92 -157 190z" />
    <glyph glyph-name="uniFE88" unicode="&#x625;" horiz-adv-x="260" arabic-form="final" 
d="M260 -44c8 0 14 -9 14 -19c0 -9 -6 -18 -14 -18c-144 0 -201 451 -219 558c-8 52 -14 93 -14 122c0 32 10 46 22 46c38 0 43 -145 48 -190c8 -81 51 -497 163 -499zM290 -154c-27 14 -81 -31 -81 -58c0 -20 94 7 94 -44c0 -35 -46 -61 -77 -61c-15 0 -31 11 -31 27
c0 7 7 19 15 19h3c-1 -6 -4 -12 -4 -17c0 -7 4 -10 12 -10c19 0 67 16 67 40c0 6 -3 10 -9 14c-22 15 -54 2 -79 12c-64 25 106 147 106 83c0 -13 -9 -9 -16 -5z" />
    <glyph glyph-name="uni0626" unicode="&#x626;" horiz-adv-x="818" arabic-form="isolated" 
d="M45 73c-31 167 292 228 319 162c9 -21 36 -14 44 -14c18 0 26 8 26 23c0 96 -405 83 -430 -176c-28 -286 721 -205 765 42c9 52 -48 79 -142 79c-49 0 -73 8 -73 21c0 25 21 57 63 94c40 34 73 51 96 49c5 0 14 -3 25 -10c12 -6 18 -9 20 -9c12 0 18 7 18 22
c0 12 -8 22 -26 31c-14 8 -27 12 -37 12c-36 0 -80 -25 -132 -77c-53 -50 -79 -93 -79 -125c0 -82 210 -7 223 -94c14 -99 -627 -306 -680 -30zM158 560c-39 20 -116 -45 -116 -83c0 -29 135 10 135 -62c0 -51 -66 -88 -110 -88c-22 0 -45 15 -45 39c0 9 11 27 22 27h4
c-1 -9 -6 -18 -6 -25c0 -9 6 -14 17 -14c27 0 96 23 96 57c0 9 -4 15 -12 20c-32 22 -78 3 -113 17c-92 37 151 211 151 119c0 -19 -13 -12 -23 -7z" />
    <glyph glyph-name="uniFE8B" unicode="&#x626;" horiz-adv-x="158" arabic-form="initial" 
d="M0 -81c-8 0 -14 9 -14 18c0 10 6 19 14 19c131 0 20 314 20 376c0 21 9 31 27 31c22 0 40 -37 53 -111c14 -80 46 -333 -100 -333zM119 654c-39 20 -116 -45 -116 -83c0 -29 135 10 135 -62c0 -51 -66 -88 -110 -88c-22 0 -45 15 -45 39c0 9 11 27 22 27h4
c-1 -9 -6 -18 -6 -25c0 -9 6 -14 17 -14c27 0 96 23 96 57c0 9 -4 15 -12 20c-32 22 -78 3 -113 17c-92 37 151 211 151 119c0 -19 -13 -12 -23 -7z" />
    <glyph glyph-name="uniFE8C" unicode="&#x626;" horiz-adv-x="175" arabic-form="medial" 
d="M175 -81c8 0 14 9 14 18c0 10 -6 19 -14 19c-131 0 -21 407 -128 407c-18 0 -27 -10 -27 -31c0 -60 113 -376 -20 -376c-8 0 -14 -9 -14 -19c0 -9 6 -18 14 -18c43 0 70 22 87 54c17 -32 45 -54 88 -54zM119 656c-39 20 -116 -45 -116 -83c0 -29 135 10 135 -62
c0 -51 -66 -88 -110 -88c-22 0 -45 15 -45 39c0 9 11 27 22 27h4c-1 -9 -6 -18 -6 -25c0 -9 6 -14 17 -14c27 0 96 23 96 57c0 9 -4 15 -12 20c-32 22 -78 3 -113 17c-92 37 151 211 151 119c0 -19 -13 -12 -23 -7z" />
    <glyph glyph-name="uniFE8A" unicode="&#x626;" horiz-adv-x="709" arabic-form="final" 
d="M708 -44h-136c-42 0 -287 -3 -257 -97c2 -6 5 -11 9 -17c55 -77 223 -60 336 -79c-136 -74 -280 -136 -438 -113c-80 12 -157 61 -171 133c-11 56 19 114 62 147c65 41 6 53 -32 21c-46 -40 -75 -120 -69 -172c11 -95 109 -162 221 -173c175 -18 303 23 435 116
c73 51 57 76 -6 79c-84 3 -295 16 -310 64c-3 8 10 17 38 26c102 33 211 28 318 28c8 0 14 9 14 18c0 10 -6 19 -14 19zM220 280c-39 20 -116 -45 -116 -83c0 -29 135 10 135 -62c0 -51 -66 -88 -110 -88c-22 0 -45 15 -45 39c0 9 11 27 22 27h4c-1 -9 -6 -18 -6 -25
c0 -9 6 -14 17 -14c27 0 96 23 96 57c0 9 -4 15 -12 20c-32 22 -78 3 -113 17c-92 37 151 211 151 119c0 -19 -13 -12 -23 -7z" />
    <glyph glyph-name="uni0627" unicode="&#x627;" horiz-adv-x="281" arabic-form="isolated" 
d="M124 109c-47 150 -88 343 -98 475c0 4 -1 9 -1 13c0 34 11 48 23 48c39 0 40 -144 48 -190c16 -98 71 -478 185 -536c-102 19 -125 92 -157 190z" />
    <glyph glyph-name="uniFE8E" unicode="&#x627;" horiz-adv-x="260" arabic-form="final" 
d="M260 -44c8 0 14 -9 14 -19c0 -9 -6 -18 -14 -18c-144 0 -201 451 -219 558c-8 52 -14 93 -14 122c0 32 10 46 22 46c38 0 43 -145 48 -190c8 -81 51 -497 163 -499z" />
    <glyph glyph-name="uni0628" unicode="&#x628;" horiz-adv-x="787" arabic-form="isolated" 
d="M3 125c13 73 74 158 146 164c25 3 32 -22 9 -32c-63 -23 -117 -72 -116 -145c0 -75 46 -129 138 -165c89 -34 433 -65 493 36c45 78 -29 299 -29 349c0 21 9 31 26 31c23 0 40 -37 53 -111c11 -61 32 -223 -24 -296c-63 -83 -305 -89 -393 -81c-39 3 -81 12 -124 26
c-98 33 -200 108 -179 224zM388 -246c24 0 36 15 36 44c0 18 -16 27 -49 27c-22 0 -33 -10 -33 -32c0 -11 5 -20 15 -28c10 -7 20 -11 31 -11z" />
    <glyph glyph-name="uniFE91" unicode="&#x628;" horiz-adv-x="159" arabic-form="initial" 
d="M0 -81c-8 0 -14 9 -14 18c0 10 6 19 14 19c131 0 20 314 20 376c0 21 9 31 27 31c22 0 40 -37 53 -111c14 -80 46 -333 -100 -333zM47 -188c24 0 36 15 36 44c0 18 -16 27 -49 27c-22 0 -33 -10 -33 -32c0 -11 5 -20 15 -28c10 -7 20 -11 31 -11z" />
    <glyph glyph-name="uniFE92" unicode="&#x628;" horiz-adv-x="175" arabic-form="medial" 
d="M175 -81c-43 0 -71 22 -88 54c-17 -32 -44 -54 -87 -54c-8 0 -14 9 -14 18c0 10 6 19 14 19c133 0 20 316 20 376c0 21 9 31 27 31c107 0 -3 -407 128 -407c8 0 14 -9 14 -19c0 -9 -6 -18 -14 -18zM92 -188c-11 0 -21 4 -31 11c-10 8 -15 17 -15 28c0 22 11 32 33 32
c33 0 49 -9 49 -27c0 -29 -12 -44 -36 -44z" />
    <glyph glyph-name="uniFE90" unicode="&#x628;" horiz-adv-x="800" arabic-form="final" 
d="M800 -44c8 0 14 -9 14 -19c0 -9 -6 -18 -14 -18c-41 2 -69 21 -87 55c-8 -16 -19 -29 -32 -39c-84 -59 -282 -69 -375 -60c-39 3 -81 12 -124 26c-98 33 -200 108 -179 224c13 73 74 158 146 164c25 3 32 -22 9 -32c-63 -23 -117 -72 -116 -145c0 -75 46 -129 138 -165
c98 -37 393 -61 485 22c67 62 -19 311 -19 363c0 21 9 31 26 31c108 0 -3 -407 128 -407zM390 -253c-11 0 -21 4 -31 11c-10 8 -15 17 -15 28c0 22 11 32 33 32c33 0 49 -9 49 -27c0 -29 -12 -44 -36 -44z" />
    <glyph glyph-name="uni0629" unicode="&#x629;" horiz-adv-x="338" arabic-form="isolated" 
d="M157 -86c-164 49 -237 538 -29 495c24 -5 85 -46 81 -74c56 12 72 -89 78 -121c15 -81 30 -221 -43 -283c-26 -21 -55 -27 -87 -17zM191 319c-1 0 -2 -1 -3 -1c-21 31 -44 49 -68 54c-31 6 -53 -22 -66 -85c-18 -85 28 -315 129 -336c124 -25 37 286 19 324
c-9 20 -13 32 -12 38c0 2 1 4 1 6zM61 462c-10 0 -20 4 -30 11c-10 8 -16 17 -16 28c0 22 11 32 33 32c34 0 50 -9 50 -27c0 -29 -12 -44 -37 -44zM154 462c-10 0 -20 4 -31 11c-10 8 -15 17 -15 28c0 22 11 32 33 32c33 0 49 -9 49 -27c0 -29 -12 -44 -36 -44z" />
    <glyph glyph-name="uniFE94" unicode="&#x629;" horiz-adv-x="362" arabic-form="final" 
d="M362 -81c-42 0 -69 22 -86 53c-8 -15 -19 -29 -32 -41c-26 -21 -55 -27 -88 -17c-163 49 -236 538 -28 495c24 -5 85 -46 81 -74c7 1 14 1 20 -1c-6 55 -3 83 9 82c68 -3 42 -124 42 -169c3 -13 5 -25 7 -33c8 -43 16 -102 11 -157c0 -42 9 -101 64 -101
c8 0 14 -9 14 -19c0 -9 -6 -18 -14 -18zM191 319c-1 0 -2 -1 -3 -1c-21 31 -44 49 -68 54c-31 6 -53 -22 -66 -85c-18 -85 28 -315 129 -336c124 -25 37 286 19 324c-9 20 -14 32 -12 38c0 2 1 4 1 6zM75 463c-10 0 -20 4 -30 11c-10 8 -16 17 -16 28c0 22 11 32 33 32
c34 0 50 -9 50 -27c0 -29 -12 -44 -37 -44zM168 463c-10 0 -20 4 -31 11c-10 8 -15 17 -15 28c0 22 11 32 33 32c33 0 49 -9 49 -27c0 -29 -12 -44 -36 -44z" />
    <glyph glyph-name="uni062A" unicode="&#x62a;" horiz-adv-x="785" arabic-form="isolated" 
d="M3 125c13 73 74 158 146 164c25 3 32 -22 9 -32c-63 -23 -117 -72 -116 -145c0 -75 46 -129 138 -165c89 -34 433 -65 493 36c45 78 -29 299 -29 349c0 21 9 31 26 31c23 0 40 -37 53 -111c11 -61 32 -223 -24 -296c-63 -83 -305 -89 -393 -81c-39 3 -81 12 -124 26
c-98 33 -200 108 -179 224zM347 364c-10 0 -20 4 -30 11c-10 8 -16 17 -16 28c0 22 11 32 33 32c34 0 50 -9 50 -27c0 -29 -12 -44 -37 -44zM440 364c-10 0 -20 4 -31 11c-10 8 -15 17 -15 28c0 22 11 32 33 32c33 0 49 -9 49 -27c0 -29 -12 -44 -36 -44z" />
    <glyph glyph-name="uniFE97" unicode="&#x62a;" horiz-adv-x="162" arabic-form="initial" 
d="M0 -81c-8 0 -14 9 -14 18c0 10 6 19 14 19c131 0 20 314 20 376c0 21 9 31 27 31c22 0 40 -37 53 -111c14 -80 46 -333 -100 -333zM10 427c-10 0 -20 4 -30 11c-10 8 -16 17 -16 28c0 22 11 32 33 32c34 0 50 -9 50 -27c0 -29 -12 -44 -37 -44zM103 427
c-10 0 -20 4 -31 11c-10 8 -15 17 -15 28c0 22 11 32 33 32c33 0 49 -9 49 -27c0 -29 -12 -44 -36 -44z" />
    <glyph glyph-name="uniFE98" unicode="&#x62a;" horiz-adv-x="175" arabic-form="medial" 
d="M175 -81c-43 0 -71 22 -88 54c-17 -32 -44 -54 -87 -54c-8 0 -14 9 -14 18c0 10 6 19 14 19c133 0 20 316 20 376c0 21 9 31 27 31c107 0 -3 -407 128 -407c8 0 14 -9 14 -19c0 -9 -6 -18 -14 -18zM18 427c-10 0 -20 4 -30 11c-10 8 -16 17 -16 28c0 22 11 32 33 32
c34 0 50 -9 50 -27c0 -29 -12 -44 -37 -44zM111 427c-10 0 -20 4 -31 11c-10 8 -15 17 -15 28c0 22 11 32 33 32c33 0 49 -9 49 -27c0 -29 -12 -44 -36 -44z" />
    <glyph glyph-name="uniFE96" unicode="&#x62a;" horiz-adv-x="800" arabic-form="final" 
d="M800 -44c8 0 14 -9 14 -19c0 -9 -6 -18 -14 -18c-41 2 -69 21 -87 55c-8 -16 -19 -29 -32 -39c-84 -59 -282 -69 -375 -60c-39 3 -81 12 -124 26c-98 33 -200 108 -179 224c13 73 74 158 146 164c25 3 32 -22 9 -32c-63 -23 -117 -72 -116 -145c0 -75 46 -129 138 -165
c98 -37 393 -61 485 22c67 62 -19 311 -19 363c0 21 9 31 26 31c108 0 -3 -407 128 -407zM358 369c-10 0 -20 4 -30 11c-10 8 -16 17 -16 28c0 22 11 32 33 32c34 0 50 -9 50 -27c0 -29 -12 -44 -37 -44zM451 369c-10 0 -20 4 -31 11c-10 8 -15 17 -15 28c0 22 11 32 33 32
c33 0 49 -9 49 -27c0 -29 -12 -44 -36 -44z" />
    <glyph glyph-name="uni062B" unicode="&#x62b;" horiz-adv-x="781" arabic-form="isolated" 
d="M3 125c13 73 74 158 146 164c25 3 32 -22 9 -32c-63 -23 -117 -72 -116 -145c0 -75 46 -129 138 -165c89 -34 433 -65 493 36c45 78 -29 299 -29 349c0 21 9 31 26 31c23 0 40 -37 53 -111c11 -61 32 -223 -24 -296c-63 -83 -305 -89 -393 -81c-39 3 -81 12 -124 26
c-98 33 -200 108 -179 224zM405 427c-10 0 -20 4 -30 11c-10 8 -16 17 -16 28c0 21 11 32 33 32c33 0 50 -9 50 -27c0 -30 -12 -44 -37 -44zM364 332c-10 0 -20 4 -30 11c-10 8 -16 17 -16 28c0 22 11 32 33 32c33 0 50 -9 50 -27c0 -29 -12 -44 -37 -44zM454 332
c-10 0 -21 4 -31 11c-10 8 -15 17 -15 28c0 22 11 32 33 32c33 0 49 -9 49 -27c0 -29 -12 -44 -36 -44z" />
    <glyph glyph-name="uniFE9B" unicode="&#x62b;" horiz-adv-x="162" arabic-form="initial" 
d="M0 -81c-8 0 -14 9 -14 18c0 10 6 19 14 19c131 0 20 314 20 376c0 21 9 31 27 31c22 0 40 -37 53 -111c14 -80 46 -333 -100 -333zM46 500c-10 0 -20 4 -30 11c-10 8 -16 17 -16 28c0 21 11 32 33 32c33 0 50 -9 50 -27c0 -30 -12 -44 -37 -44zM5 405c-10 0 -20 4 -30 11
c-10 8 -16 17 -16 28c0 22 11 32 33 32c33 0 50 -9 50 -27c0 -29 -12 -44 -37 -44zM95 405c-10 0 -21 4 -31 11c-10 8 -15 17 -15 28c0 22 11 32 33 32c33 0 49 -9 49 -27c0 -29 -12 -44 -36 -44z" />
    <glyph glyph-name="uniFE9C" unicode="&#x62b;" horiz-adv-x="175" arabic-form="medial" 
d="M175 -81c-43 0 -71 22 -88 54c-17 -32 -44 -54 -87 -54c-8 0 -14 9 -14 18c0 10 6 19 14 19c133 0 20 316 20 376c0 21 9 31 27 31c107 0 -3 -407 128 -407c8 0 14 -9 14 -19c0 -9 -6 -18 -14 -18zM51 497c-10 0 -20 4 -30 11c-10 8 -16 17 -16 28c0 21 11 32 33 32
c33 0 50 -9 50 -27c0 -30 -12 -44 -37 -44zM10 402c-10 0 -20 4 -30 11c-10 8 -16 17 -16 28c0 22 11 32 33 32c33 0 50 -9 50 -27c0 -29 -12 -44 -37 -44zM100 402c-10 0 -21 4 -31 11c-10 8 -15 17 -15 28c0 22 11 32 33 32c33 0 49 -9 49 -27c0 -29 -12 -44 -36 -44z" />
    <glyph glyph-name="uniFE9A" unicode="&#x62b;" horiz-adv-x="800" arabic-form="final" 
d="M800 -44c8 0 14 -9 14 -19c0 -9 -6 -18 -14 -18c-41 2 -69 21 -87 55c-8 -16 -19 -29 -32 -39c-84 -59 -282 -69 -375 -60c-39 3 -81 12 -124 26c-98 33 -200 108 -179 224c13 73 74 158 146 164c25 3 32 -22 9 -32c-63 -23 -117 -72 -116 -145c0 -75 46 -129 138 -165
c98 -37 393 -61 485 22c67 62 -19 311 -19 363c0 21 9 31 26 31c108 0 -3 -407 128 -407zM390 427c-10 0 -20 4 -30 11c-10 8 -16 17 -16 28c0 21 11 32 33 32c33 0 50 -9 50 -27c0 -30 -12 -44 -37 -44zM349 332c-10 0 -20 4 -30 11c-10 8 -16 17 -16 28c0 22 11 32 33 32
c33 0 50 -9 50 -27c0 -29 -12 -44 -37 -44zM439 332c-10 0 -21 4 -31 11c-10 8 -15 17 -15 28c0 22 11 32 33 32c33 0 49 -9 49 -27c0 -29 -12 -44 -36 -44z" />
    <glyph glyph-name="uni062C" unicode="&#x62c;" horiz-adv-x="652" arabic-form="isolated" 
d="M600 148c0 -40 -22 -60 -61 -82c-127 -71 -487 -107 -487 -258c0 -95 127 -147 263 -150c127 0 272 49 272 107c0 38 -53 33 -53 57c0 6 6 15 17 15c55 0 85 -54 85 -80c0 -75 -163 -148 -315 -148c-163 0 -321 83 -321 197c0 200 550 275 550 327
c0 115 -309 229 -404 229c-50 0 -75 -20 -75 -60c0 -32 44 -97 44 -112c0 -17 -10 -25 -31 -25c-26 0 -54 99 -54 125c0 70 51 123 121 123c116 0 449 -143 449 -265zM288 -220c24 0 36 15 36 44c0 18 -16 27 -49 27c-22 0 -33 -10 -33 -32c0 -11 5 -20 15 -28
c10 -7 20 -11 31 -11z" />
    <glyph glyph-name="uniFE9F" unicode="&#x62c;" horiz-adv-x="684" arabic-form="initial" 
d="M0 -44c154 14 562 70 594 177c-6 115 -309 229 -404 229c-50 0 -75 -20 -75 -60c0 -32 44 -97 44 -112c0 -17 -10 -25 -31 -25c-26 0 -54 99 -54 125c0 70 51 123 121 123c116 0 449 -143 449 -265c0 -159 -470 -217 -644 -229c-8 0 -14 9 -14 18c0 10 6 19 14 19z
M388 -189c24 0 36 15 36 44c0 18 -16 27 -49 27c-22 0 -33 -10 -33 -32c0 -11 5 -20 15 -28c10 -7 20 -11 31 -11z" />
    <glyph glyph-name="uniFEA0" unicode="&#x62c;" horiz-adv-x="671" arabic-form="medial" 
d="M0 -81c-8 0 -14 9 -14 18c0 10 6 19 14 19c130 13 286 56 406 101c110 42 165 67 165 76c0 115 -309 229 -404 229c-50 0 -75 -20 -75 -60c0 -32 44 -97 44 -112c0 -17 -10 -25 -31 -25c-25 0 -54 101 -54 125c0 70 52 123 121 123c116 0 449 -143 449 -265
c0 -100 -190 -120 -263 -151c43 -40 154 -41 193 -41h120c8 0 14 -9 14 -19c0 -9 -6 -18 -14 -18c-133 0 -267 -5 -368 61c-79 -27 -154 -54 -303 -61zM388 -189c-11 0 -21 4 -31 11c-10 8 -15 17 -15 28c0 22 11 32 33 32c33 0 49 -9 49 -27c0 -29 -12 -44 -36 -44z" />
    <glyph glyph-name="uniFE9E" unicode="&#x62c;" horiz-adv-x="647" arabic-form="final" 
d="M530 -44h117c8 0 14 -9 14 -19c0 -9 -6 -18 -14 -18c-53 0 -105 -1 -160 -1c-56 0 -123 10 -167 40c-14 9 -32 22 -38 22c-5 0 -12 -3 -15 -4c-75 -26 -215 -68 -215 -168c0 -95 129 -147 263 -150c127 0 272 49 272 107c0 5 -2 11 -5 16c-20 30 -48 20 -48 42
c0 5 6 14 18 14c54 0 84 -54 84 -80c0 -75 -163 -148 -315 -148c-163 0 -321 82 -321 197c-1 151 254 218 383 254c111 31 167 56 167 73c0 115 -308 229 -404 229c-50 0 -75 -20 -75 -60c0 -32 44 -97 44 -112c0 -17 -10 -25 -31 -25c-25 0 -54 101 -54 125
c0 70 52 123 122 123c116 0 448 -143 448 -265c0 -100 -190 -120 -263 -151c44 -40 154 -41 193 -41zM288 -220c-11 0 -21 4 -31 11c-10 8 -15 17 -15 28c0 22 11 32 33 32c33 0 49 -9 49 -27c0 -29 -12 -44 -36 -44z" />
    <glyph glyph-name="uni062D" unicode="&#x62d;" horiz-adv-x="657" arabic-form="isolated" 
d="M600 148c0 -40 -22 -60 -61 -82c-127 -71 -487 -107 -487 -258c0 -95 127 -147 263 -150c127 0 272 49 272 107c0 38 -53 33 -53 57c0 6 6 15 17 15c55 0 85 -54 85 -80c0 -75 -163 -148 -315 -148c-163 0 -321 83 -321 197c0 200 550 275 550 327
c0 115 -309 229 -404 229c-50 0 -75 -20 -75 -60c0 -32 44 -97 44 -112c0 -17 -10 -25 -31 -25c-26 0 -54 99 -54 125c0 70 51 123 121 123c116 0 449 -143 449 -265z" />
    <glyph glyph-name="uniFEA3" unicode="&#x62d;" horiz-adv-x="682" arabic-form="initial" 
d="M0 -44c154 14 562 70 594 177c-6 115 -309 229 -404 229c-50 0 -75 -20 -75 -60c0 -32 44 -97 44 -112c0 -17 -10 -25 -31 -25c-26 0 -54 99 -54 125c0 70 51 123 121 123c116 0 449 -143 449 -265c0 -159 -470 -217 -644 -229c-8 0 -14 9 -14 18c0 10 6 19 14 19z" />
    <glyph glyph-name="uniFEA4" unicode="&#x62d;" horiz-adv-x="671" arabic-form="medial" 
d="M0 -81c-8 0 -14 9 -14 18c0 10 6 19 14 19c130 13 286 56 406 101c110 42 165 67 165 76c0 115 -309 229 -404 229c-50 0 -75 -20 -75 -60c0 -32 44 -97 44 -112c0 -17 -10 -25 -31 -25c-25 0 -54 101 -54 125c0 70 52 123 121 123c116 0 449 -143 449 -265
c0 -100 -190 -120 -263 -151c43 -40 154 -41 193 -41h120c8 0 14 -9 14 -19c0 -9 -6 -18 -14 -18c-133 0 -267 -5 -368 61c-79 -27 -154 -54 -303 -61z" />
    <glyph glyph-name="uniFEA2" unicode="&#x62d;" horiz-adv-x="647" arabic-form="final" 
d="M530 -44h117c8 0 14 -9 14 -19c0 -9 -6 -18 -14 -18c-53 0 -105 -1 -160 -1c-56 0 -123 10 -167 40c-14 9 -32 22 -38 22c-5 0 -12 -3 -15 -4c-75 -26 -215 -68 -215 -168c0 -95 129 -147 263 -150c127 0 272 49 272 107c0 5 -2 11 -5 16c-20 30 -48 20 -48 42
c0 5 6 14 18 14c54 0 84 -54 84 -80c0 -75 -163 -148 -315 -148c-163 0 -321 82 -321 197c-1 151 254 218 383 254c111 31 167 56 167 73c0 115 -308 229 -404 229c-50 0 -75 -20 -75 -60c0 -32 44 -97 44 -112c0 -17 -10 -25 -31 -25c-25 0 -54 101 -54 125
c0 70 52 123 122 123c116 0 448 -143 448 -265c0 -100 -190 -120 -263 -151c44 -40 154 -41 193 -41z" />
    <glyph glyph-name="uni062E" unicode="&#x62e;" horiz-adv-x="663" arabic-form="isolated" 
d="M600 148c0 -40 -22 -60 -61 -82c-127 -71 -487 -107 -487 -258c0 -95 127 -147 263 -150c127 0 272 49 272 107c0 38 -53 33 -53 57c0 6 6 15 17 15c55 0 85 -54 85 -80c0 -75 -163 -148 -315 -148c-163 0 -321 83 -321 197c0 200 550 275 550 327
c0 115 -309 229 -404 229c-50 0 -75 -20 -75 -60c0 -32 44 -97 44 -112c0 -17 -10 -25 -31 -25c-26 0 -54 99 -54 125c0 70 51 123 121 123c116 0 449 -143 449 -265zM229 465c-11 0 -21 4 -31 11c-10 8 -15 17 -15 28c0 22 11 32 33 32c33 0 49 -9 49 -27
c0 -29 -12 -44 -36 -44z" />
    <glyph glyph-name="uniFEA7" unicode="&#x62e;" horiz-adv-x="681" arabic-form="initial" 
d="M0 -44c154 14 562 70 594 177c-6 115 -309 229 -404 229c-50 0 -75 -20 -75 -60c0 -32 44 -97 44 -112c0 -17 -10 -25 -31 -25c-26 0 -54 99 -54 125c0 70 51 123 121 123c116 0 449 -143 449 -265c0 -159 -470 -217 -644 -229c-8 0 -14 9 -14 18c0 10 6 19 14 19z
M388 462c-11 0 -21 4 -31 11c-10 8 -15 17 -15 28c0 22 11 32 33 32c33 0 49 -9 49 -27c0 -29 -12 -44 -36 -44z" />
    <glyph glyph-name="uniFEA8" unicode="&#x62e;" horiz-adv-x="671" arabic-form="medial" 
d="M0 -81c-8 0 -14 9 -14 18c0 10 6 19 14 19c130 13 286 56 406 101c110 42 165 67 165 76c0 115 -309 229 -404 229c-50 0 -75 -20 -75 -60c0 -32 44 -97 44 -112c0 -17 -10 -25 -31 -25c-25 0 -54 101 -54 125c0 70 52 123 121 123c116 0 449 -143 449 -265
c0 -100 -190 -120 -263 -151c43 -40 154 -41 193 -41h120c8 0 14 -9 14 -19c0 -9 -6 -18 -14 -18c-133 0 -267 -5 -368 61c-79 -27 -154 -54 -303 -61zM370 463c-11 0 -21 4 -31 11c-10 8 -15 17 -15 28c0 22 11 32 33 32c33 0 49 -9 49 -27c0 -29 -12 -44 -36 -44z" />
    <glyph glyph-name="uniFEA6" unicode="&#x62e;" horiz-adv-x="647" arabic-form="final" 
d="M530 -44h117c8 0 14 -9 14 -19c0 -9 -6 -18 -14 -18c-53 0 -105 -1 -160 -1c-56 0 -123 10 -167 40c-14 9 -32 22 -38 22c-5 0 -12 -3 -15 -4c-75 -26 -215 -68 -215 -168c0 -95 129 -147 263 -150c127 0 272 49 272 107c0 5 -2 11 -5 16c-20 30 -48 20 -48 42
c0 5 6 14 18 14c54 0 84 -54 84 -80c0 -75 -163 -148 -315 -148c-163 0 -321 82 -321 197c-1 151 254 218 383 254c111 31 167 56 167 73c0 115 -308 229 -404 229c-50 0 -75 -20 -75 -60c0 -32 44 -97 44 -112c0 -17 -10 -25 -31 -25c-25 0 -54 101 -54 125
c0 70 52 123 122 123c116 0 448 -143 448 -265c0 -100 -190 -120 -263 -151c44 -40 154 -41 193 -41zM215 462c-11 0 -21 4 -31 11c-10 8 -15 17 -15 28c0 22 11 32 33 32c33 0 49 -9 49 -27c0 -29 -12 -44 -36 -44z" />
    <glyph glyph-name="uni062F" unicode="&#x62f;" horiz-adv-x="554" arabic-form="isolated" 
d="M132 -90c-27 10 -44 21 -52 35c-2 2 -2 5 -2 8c3 7 15 12 22 7c17 -10 26 -16 26 -16c58 -21 125 -13 201 26c74 38 122 87 144 146c18 48 13 94 -15 138c-26 41 -65 71 -117 91c-35 13 -75 21 -118 24c-45 4 -84 1 -119 -7c-34 -9 -53 -13 -57 -11c-15 5 -20 15 -15 30
c4 9 20 16 49 21c94 17 185 8 274 -25c57 -21 101 -56 133 -106c34 -55 41 -110 20 -167c-26 -68 -76 -123 -152 -166c-80 -44 -154 -53 -222 -28z" />
    <glyph glyph-name="uniFEAA" unicode="&#x62f;" horiz-adv-x="570" arabic-form="final" 
d="M570 -81c-64 0 -94 50 -106 112c-27 -36 -64 -67 -111 -93c-79 -44 -153 -53 -222 -28c-27 10 -44 21 -52 35c-2 2 -2 5 -1 8c3 7 14 12 21 7c17 -10 26 -16 26 -16c59 -21 126 -13 201 26c74 38 122 87 144 146c18 48 13 94 -15 138c-26 41 -65 71 -117 91
c-35 13 -74 21 -118 24c-44 4 -84 1 -118 -7c-35 -9 -54 -13 -57 -11c-16 5 -21 15 -15 30c3 9 19 16 48 21c94 17 186 8 274 -25c57 -21 102 -56 133 -106c30 -47 39 -95 27 -143c-12 -89 -9 -172 58 -172c8 0 14 -9 14 -19c0 -9 -6 -18 -14 -18z" />
    <glyph glyph-name="uni0630" unicode="&#x630;" horiz-adv-x="559" arabic-form="isolated" 
d="M132 -90c-27 10 -44 21 -52 35c-2 2 -2 5 -2 8c3 7 15 12 22 7c17 -10 26 -16 26 -16c58 -21 125 -13 201 26c74 38 122 87 144 146c18 48 13 94 -15 138c-26 41 -65 71 -117 91c-35 13 -75 21 -118 24c-45 4 -84 1 -119 -7c-34 -9 -53 -13 -57 -11c-15 5 -20 15 -15 30
c4 9 20 16 49 21c94 17 185 8 274 -25c57 -21 101 -56 133 -106c34 -55 41 -110 20 -167c-26 -68 -76 -123 -152 -166c-80 -44 -154 -53 -222 -28zM181 462c-11 0 -21 4 -31 11c-10 8 -15 17 -15 28c0 22 11 32 33 32c33 0 49 -9 49 -27c0 -29 -12 -44 -36 -44z" />
    <glyph glyph-name="uniFEAC" unicode="&#x630;" horiz-adv-x="570" arabic-form="final" 
d="M570 -81c-64 0 -94 50 -106 112c-27 -36 -64 -67 -111 -93c-79 -44 -153 -53 -222 -28c-27 10 -44 21 -52 35c-2 2 -2 5 -1 8c3 7 14 12 21 7c17 -10 26 -16 26 -16c59 -21 126 -13 201 26c74 38 122 87 144 146c18 48 13 94 -15 138c-26 41 -65 71 -117 91
c-35 13 -74 21 -118 24c-44 4 -84 1 -118 -7c-35 -9 -54 -13 -57 -11c-16 5 -21 15 -15 30c3 9 19 16 48 21c94 17 186 8 274 -25c57 -21 102 -56 133 -106c30 -47 39 -95 27 -143c-12 -89 -9 -172 58 -172c8 0 14 -9 14 -19c0 -9 -6 -18 -14 -18zM184 463
c-11 0 -21 4 -31 11c-10 8 -15 17 -15 28c0 22 11 32 33 32c33 0 49 -9 49 -27c0 -29 -12 -44 -36 -44z" />
    <glyph glyph-name="uni0631" unicode="&#x631;" horiz-adv-x="181" arabic-form="isolated" 
d="M145 -20c2 -51 -2 -154 -55 -204c-14 -14 -34 -22 -55 -26c-20 -5 -39 -3 -36 15c3 12 16 19 29 16c4 -1 9 -1 14 1c163 59 -5 465 -27 593c-4 34 31 55 50 14c10 -22 21 -57 33 -107c20 -84 34 -169 43 -255c1 -17 3 -33 4 -47z" />
    <glyph glyph-name="uniFEAE" unicode="&#x631;" horiz-adv-x="200" arabic-form="final" 
d="M200 -81c-23 0 -41 6 -55 16c-3 -53 -15 -122 -55 -159c-14 -14 -34 -22 -55 -26c-20 -5 -39 -3 -36 15c2 12 16 19 29 16c4 -1 9 -1 14 1c163 59 -5 465 -27 593c-4 34 31 55 50 14c10 -22 21 -57 33 -107c20 -84 38 -169 43 -255c1 -18 1 -32 11 -47s26 -24 48 -24
c8 0 14 -9 14 -19c0 -9 -6 -18 -14 -18z" />
    <glyph glyph-name="uni0632" unicode="&#x632;" horiz-adv-x="182" arabic-form="isolated" 
d="M145 -20c2 -51 -2 -154 -55 -204c-14 -14 -34 -22 -55 -26c-20 -5 -39 -3 -36 15c3 12 16 19 29 16c4 -1 9 -1 14 1c163 59 -5 465 -27 593c-4 34 31 55 50 14c10 -22 21 -57 33 -107c20 -84 34 -169 43 -255c1 -17 3 -33 4 -47zM38 472c-11 0 -21 4 -31 11
c-10 8 -15 17 -15 28c0 22 11 32 33 32c33 0 49 -9 49 -27c0 -29 -12 -44 -36 -44z" />
    <glyph glyph-name="uniFEB0" unicode="&#x632;" horiz-adv-x="200" arabic-form="final" 
d="M200 -81c-23 0 -41 6 -55 16c-3 -53 -15 -122 -55 -159c-14 -14 -34 -22 -55 -26c-20 -5 -39 -3 -36 15c2 12 16 19 29 16c4 -1 9 -1 14 1c163 59 -5 465 -27 593c-4 34 31 55 50 14c10 -22 21 -57 33 -107c20 -84 38 -169 43 -255c1 -18 1 -32 11 -47s26 -24 48 -24
c8 0 14 -9 14 -19c0 -9 -6 -18 -14 -18zM42 472c-11 0 -21 4 -31 11c-10 8 -15 17 -15 28c0 22 11 32 33 32c33 0 49 -9 49 -27c0 -29 -12 -44 -36 -44z" />
    <glyph glyph-name="uni0633" unicode="&#x633;" horiz-adv-x="1277" arabic-form="isolated" 
d="M30 126c9 18 20 29 31 36c1 1 3 2 4 2c-8 14 -11 25 -8 33c51 138 426 -45 491 -91c14 -9 24 -18 29 -27c1 -6 2 -12 4 -18v-4v-1c-7 -14 -37 -14 -70 9c-70 49 -381 214 -424 97c-2 -5 -3 -11 -4 -17c0 -3 0 -6 -2 -9c-58 -93 -36 -197 13 -291
c50 -95 112 -157 188 -185c117 -43 220 29 274 127c41 76 57 145 57 214v0v6v1v0v18c0 108 -5 208 -15 301c-5 41 -7 61 -7 60c0 16 7 25 22 25s24 -7 27 -21c5 -34 8 -59 9 -77c10 -64 40 -153 89 -267c28 -62 49 -92 65 -92s28 36 35 110c4 39 6 87 6 144
c0 18 -1 44 -3 79c-3 35 -4 61 -4 79c0 5 1 10 5 15c4 7 10 10 15 10c10 0 17 -6 21 -18c4 -10 6 -19 5 -29c-1 -38 9 -96 32 -174c17 -62 35 -115 53 -159c34 -81 62 -122 84 -122c23 0 35 47 37 142c4 198 16 316 36 355c11 22 29 33 53 33c7 0 16 -2 27 -8
c13 -6 21 -13 23 -22c3 -8 1 -15 -5 -19c-3 -2 -6 -3 -8 -3c-4 0 -9 4 -16 11c-6 7 -12 10 -17 10c-19 0 -33 -34 -41 -103c0 -1 -3 -44 -8 -129l-9 -169c-5 -87 -28 -130 -69 -130c-33 0 -67 32 -103 98c-24 46 -43 94 -56 142c-5 18 -11 44 -19 79c0 -72 -2 -122 -5 -149
c-10 -71 -31 -107 -63 -107c-48 0 -102 86 -160 259c6 -136 28 -265 -34 -395c-64 -134 -190 -230 -348 -169c-146 54 -271 226 -267 388c1 42 10 85 30 122z" />
    <glyph glyph-name="uniFEB3" unicode="&#x633;" horiz-adv-x="719" arabic-form="initial" 
d="M0 -44c49 0 64 44 63 103c-1 95 -6 185 -15 268c-5 41 -7 61 -7 60c0 16 7 25 22 25s24 -7 27 -21c5 -34 8 -59 9 -77c10 -64 40 -153 90 -267c27 -62 49 -92 64 -92c17 0 28 36 36 110c4 39 6 87 6 144c0 18 -2 44 -4 79c-3 35 -4 61 -4 79c0 5 2 10 5 15
c5 7 10 10 16 10c9 0 16 -6 21 -18c4 -10 5 -19 5 -29c-2 -38 9 -96 31 -174c17 -62 35 -115 54 -159c34 -81 61 -122 83 -122c23 0 36 47 38 142c4 198 15 316 35 355c12 22 29 33 53 33c7 0 16 -2 28 -8c13 -6 20 -13 23 -22c2 -8 0 -15 -6 -19c-3 -2 -5 -3 -8 -3
c-4 0 -9 4 -15 11c-7 7 -13 10 -18 10c-19 0 -33 -34 -41 -103c0 -1 -3 -44 -7 -129l-10 -169c-5 -87 -28 -130 -68 -130c-33 0 -68 32 -103 98c-25 46 -44 94 -57 142c-5 18 -11 44 -18 79c0 -72 -2 -122 -6 -149c-9 -71 -30 -107 -63 -107c-48 0 -101 86 -160 259
c2 -50 4 -83 4 -99c0 -70 -9 -162 -103 -162c-8 0 -14 9 -14 18c0 10 6 19 14 19z" />
    <glyph glyph-name="uniFEB4" unicode="&#x633;" horiz-adv-x="641" arabic-form="medial" 
d="M0 -44c49 0 64 44 63 103c0 95 -6 185 -15 268c-5 41 -7 61 -7 60c0 16 7 25 22 25s24 -7 27 -21c5 -34 8 -59 9 -77c10 -64 40 -153 90 -267c27 -62 49 -92 64 -92c17 0 28 36 36 110c4 39 6 87 6 144c0 18 -2 44 -4 79c-3 35 -4 61 -4 79c0 5 2 10 5 15
c5 7 10 10 16 10c9 0 16 -6 21 -18c4 -10 5 -19 5 -29c-2 -38 9 -96 31 -174c17 -62 35 -115 54 -159c34 -81 61 -122 83 -122c23 0 36 47 38 142v12l-7 113c-4 85 -7 128 -7 129c-8 69 -22 103 -41 103c-5 0 -11 -3 -18 -10c-6 -7 -11 -11 -15 -11c-3 0 -5 1 -8 3
c-6 4 -8 11 -6 19c3 9 10 16 23 22c12 6 21 8 28 8c24 0 41 -11 53 -33c43 -85 33 -256 35 -345c3 -50 19 -86 64 -86c8 0 14 -9 14 -19c0 -9 -6 -18 -14 -18c-29 1 -52 10 -71 30c-9 -61 -30 -91 -64 -91c-33 0 -68 32 -103 98c-25 46 -44 94 -57 142c-5 18 -11 44 -18 79
c0 -72 -2 -122 -6 -149c-9 -71 -30 -107 -63 -107c-48 0 -101 86 -160 259c2 -50 4 -83 4 -99c0 -70 -9 -162 -103 -162c-8 0 -14 9 -14 18c0 10 6 19 14 19z" />
    <glyph glyph-name="uniFEB2" unicode="&#x633;" horiz-adv-x="1191" arabic-form="final" 
d="M1191 -81c-31 0 -54 11 -70 30c-9 -61 -31 -91 -65 -91c-33 0 -68 32 -103 98c-25 46 -44 94 -57 142c-4 18 -11 44 -18 79c0 -72 -2 -122 -6 -149c-9 -71 -30 -107 -63 -107c-48 0 -101 86 -160 259c2 -33 3 -59 4 -77c15 -108 11 -216 -37 -318
c-64 -134 -191 -230 -348 -169c-147 54 -272 226 -268 388c1 42 11 85 31 122c9 18 19 29 30 36c2 1 3 2 5 2c-9 14 -11 25 -8 33c50 138 425 -45 491 -91c14 -9 23 -18 29 -27c1 -6 2 -12 4 -18v-4v-1c-7 -14 -38 -14 -71 9c-69 49 -380 214 -423 97c-2 -5 -4 -11 -4 -17
c0 -3 -1 -6 -2 -9c-58 -93 -36 -197 13 -291c49 -95 112 -157 188 -185c116 -43 220 29 273 127c43 79 58 150 57 221h1v18c0 108 -5 208 -15 301c-5 41 -8 61 -8 60c0 16 8 25 23 25s23 -7 27 -21c4 -34 7 -59 8 -77c11 -64 40 -153 90 -267c28 -62 49 -92 65 -92
s28 36 35 110c4 39 6 87 6 144c0 18 -1 44 -4 79c-2 35 -3 61 -3 79c0 5 1 10 5 15c4 7 9 10 15 10c9 0 16 -6 21 -18c4 -10 6 -19 5 -29c-1 -38 9 -96 31 -174c18 -62 36 -115 54 -159c34 -81 62 -122 84 -122c23 0 35 47 37 142v12l-6 113c-5 85 -8 128 -8 129
c-8 69 -21 103 -41 103c-5 0 -10 -3 -17 -10s-12 -11 -16 -11c-2 0 -5 1 -8 3c-6 4 -8 11 -5 19c2 9 10 16 23 22c11 6 20 8 28 8c23 0 41 -11 52 -33c45 -87 -9 -431 99 -431c8 0 14 -9 14 -19c0 -9 -6 -18 -14 -18z" />
    <glyph glyph-name="uni0634" unicode="&#x634;" horiz-adv-x="1288" arabic-form="isolated" 
d="M30 126c9 18 20 29 31 36c1 1 3 2 4 2c-8 14 -11 25 -8 33c51 138 426 -45 491 -91c14 -9 24 -18 29 -27c1 -6 2 -12 4 -18v-4v-1c-7 -14 -37 -14 -70 9c-70 49 -381 214 -424 97c-2 -5 -3 -11 -4 -17c0 -3 0 -6 -2 -9c-58 -93 -36 -197 13 -291
c50 -95 112 -157 188 -185c117 -43 220 29 274 127c41 76 57 145 57 214v0v6v1v0v18c0 108 -5 208 -15 301c-5 41 -7 61 -7 60c0 16 7 25 22 25s24 -7 27 -21c5 -34 8 -59 9 -77c10 -64 40 -153 89 -267c28 -62 49 -92 65 -92s28 36 35 110c4 39 6 87 6 144
c0 18 -1 44 -3 79c-3 35 -4 61 -4 79c0 5 1 10 5 15c4 7 10 10 15 10c10 0 17 -6 21 -18c4 -10 6 -19 5 -29c-1 -38 9 -96 32 -174c17 -62 35 -115 53 -159c34 -81 62 -122 84 -122c23 0 35 47 37 142c4 198 16 316 36 355c11 22 29 33 53 33c7 0 16 -2 27 -8
c13 -6 21 -13 23 -22c3 -8 1 -15 -5 -19c-3 -2 -6 -3 -8 -3c-4 0 -9 4 -16 11c-6 7 -12 10 -17 10c-19 0 -33 -34 -41 -103c0 -1 -3 -44 -8 -129l-9 -169c-5 -87 -28 -130 -69 -130c-33 0 -67 32 -103 98c-24 46 -43 94 -56 142c-5 18 -11 44 -19 79c0 -72 -2 -122 -5 -149
c-10 -71 -31 -107 -63 -107c-48 0 -102 86 -160 259c6 -136 28 -265 -34 -395c-64 -134 -190 -230 -348 -169c-146 54 -271 226 -267 388c1 42 10 85 30 122zM860 536c-10 0 -20 4 -30 11c-10 8 -16 17 -16 28c0 21 11 32 33 32c33 0 50 -9 50 -27c0 -30 -12 -44 -37 -44z
M819 441c-10 0 -20 4 -30 11c-10 8 -16 17 -16 28c0 22 11 32 33 32c33 0 50 -9 50 -27c0 -29 -12 -44 -37 -44zM909 441c-10 0 -21 4 -31 11c-10 8 -15 17 -15 28c0 22 11 32 33 32c33 0 49 -9 49 -27c0 -29 -12 -44 -36 -44z" />
    <glyph glyph-name="uniFEB7" unicode="&#x634;" horiz-adv-x="726" arabic-form="initial" 
d="M0 -44c49 0 64 44 63 103c-1 95 -6 185 -15 268c-5 41 -7 61 -7 60c0 16 7 25 22 25s24 -7 27 -21c5 -34 8 -59 9 -77c10 -64 40 -153 90 -267c27 -62 49 -92 64 -92c17 0 28 36 36 110c4 39 6 87 6 144c0 18 -2 44 -4 79c-3 35 -4 61 -4 79c0 5 2 10 5 15
c5 7 10 10 16 10c9 0 16 -6 21 -18c4 -10 5 -19 5 -29c-2 -38 9 -96 31 -174c17 -62 35 -115 54 -159c34 -81 61 -122 83 -122c23 0 36 47 38 142c4 198 15 316 35 355c12 22 29 33 53 33c7 0 16 -2 28 -8c13 -6 20 -13 23 -22c2 -8 0 -15 -6 -19c-3 -2 -5 -3 -8 -3
c-4 0 -9 4 -15 11c-7 7 -13 10 -18 10c-19 0 -33 -34 -41 -103c0 -1 -3 -44 -7 -129l-10 -169c-5 -87 -28 -130 -68 -130c-33 0 -68 32 -103 98c-25 46 -44 94 -57 142c-5 18 -11 44 -18 79c0 -72 -2 -122 -6 -149c-9 -71 -30 -107 -63 -107c-48 0 -101 86 -160 259
c2 -50 4 -83 4 -99c0 -70 -9 -162 -103 -162c-8 0 -14 9 -14 18c0 10 6 19 14 19zM321 522c-10 0 -20 4 -30 11c-10 8 -16 17 -16 28c0 21 11 32 33 32c33 0 50 -9 50 -27c0 -30 -12 -44 -37 -44zM280 427c-10 0 -20 4 -30 11c-10 8 -16 17 -16 28c0 22 11 32 33 32
c33 0 50 -9 50 -27c0 -29 -12 -44 -37 -44zM370 427c-10 0 -21 4 -31 11c-10 8 -15 17 -15 28c0 22 11 32 33 32c33 0 49 -9 49 -27c0 -29 -12 -44 -36 -44z" />
    <glyph glyph-name="uniFEB8" unicode="&#x634;" horiz-adv-x="641" arabic-form="medial" 
d="M0 -44c49 0 64 44 63 103c0 95 -6 185 -15 268c-5 41 -7 61 -7 60c0 16 7 25 22 25s24 -7 27 -21c5 -34 8 -59 9 -77c10 -64 40 -153 90 -267c27 -62 49 -92 64 -92c17 0 28 36 36 110c4 39 6 87 6 144c0 18 -2 44 -4 79c-3 35 -4 61 -4 79c0 5 2 10 5 15
c5 7 10 10 16 10c9 0 16 -6 21 -18c4 -10 5 -19 5 -29c-2 -38 9 -96 31 -174c17 -62 35 -115 54 -159c34 -81 61 -122 83 -122c23 0 36 47 38 142v12l-7 113c-4 85 -7 128 -7 129c-8 69 -22 103 -41 103c-5 0 -11 -3 -18 -10c-6 -7 -11 -11 -15 -11c-3 0 -5 1 -8 3
c-6 4 -8 11 -6 19c3 9 10 16 23 22c12 6 21 8 28 8c24 0 41 -11 53 -33c43 -85 33 -256 35 -345c3 -50 19 -86 64 -86c8 0 14 -9 14 -19c0 -9 -6 -18 -14 -18c-29 1 -52 10 -71 30c-9 -61 -30 -91 -64 -91c-33 0 -68 32 -103 98c-25 46 -44 94 -57 142c-5 18 -11 44 -18 79
c0 -72 -2 -122 -6 -149c-9 -71 -30 -107 -63 -107c-48 0 -101 86 -160 259c2 -50 4 -83 4 -99c0 -70 -9 -162 -103 -162c-8 0 -14 9 -14 18c0 10 6 19 14 19zM307 521c-10 0 -20 4 -30 11c-10 8 -16 17 -16 28c0 21 11 32 33 32c33 0 50 -9 50 -27c0 -30 -12 -44 -37 -44z
M266 426c-10 0 -20 4 -30 11c-10 8 -16 17 -16 28c0 22 11 32 33 32c33 0 50 -9 50 -27c0 -29 -12 -44 -37 -44zM356 426c-10 0 -21 4 -31 11c-10 8 -15 17 -15 28c0 22 11 32 33 32c33 0 49 -9 49 -27c0 -29 -12 -44 -36 -44z" />
    <glyph glyph-name="uniFEB6" unicode="&#x634;" horiz-adv-x="1191" arabic-form="final" 
d="M1191 -81c-31 0 -54 11 -70 30c-9 -61 -31 -91 -65 -91c-33 0 -68 32 -103 98c-25 46 -44 94 -57 142c-4 18 -11 44 -18 79c0 -72 -2 -122 -6 -149c-9 -71 -30 -107 -63 -107c-48 0 -101 86 -160 259c2 -33 3 -59 4 -77c15 -108 11 -216 -37 -318
c-64 -134 -191 -230 -348 -169c-147 54 -272 226 -268 388c1 42 11 85 31 122c9 18 19 29 30 36c2 1 3 2 5 2c-9 14 -11 25 -8 33c50 138 425 -45 491 -91c14 -9 23 -18 29 -27c1 -6 2 -12 4 -18v-4v-1c-7 -14 -38 -14 -71 9c-69 49 -380 214 -423 97c-2 -5 -4 -11 -4 -17
c0 -3 -1 -6 -2 -9c-58 -93 -36 -197 13 -291c49 -95 112 -157 188 -185c116 -43 220 29 273 127c43 79 58 150 57 221h1v18c0 108 -5 208 -15 301c-5 41 -8 61 -8 60c0 16 8 25 23 25s23 -7 27 -21c4 -34 7 -59 8 -77c11 -64 40 -153 90 -267c28 -62 49 -92 65 -92
s28 36 35 110c4 39 6 87 6 144c0 18 -1 44 -4 79c-2 35 -3 61 -3 79c0 5 1 10 5 15c4 7 9 10 15 10c9 0 16 -6 21 -18c4 -10 6 -19 5 -29c-1 -38 9 -96 31 -174c18 -62 36 -115 54 -159c34 -81 62 -122 84 -122c23 0 35 47 37 142v12l-6 113c-5 85 -8 128 -8 129
c-8 69 -21 103 -41 103c-5 0 -10 -3 -17 -10s-12 -11 -16 -11c-2 0 -5 1 -8 3c-6 4 -8 11 -5 19c2 9 10 16 23 22c11 6 20 8 28 8c23 0 41 -11 52 -33c45 -87 -9 -431 99 -431c8 0 14 -9 14 -19c0 -9 -6 -18 -14 -18zM863 531c-10 0 -20 4 -30 11c-10 8 -16 17 -16 28
c0 21 11 32 33 32c33 0 50 -9 50 -27c0 -30 -12 -44 -37 -44zM822 436c-10 0 -20 4 -30 11c-10 8 -16 17 -16 28c0 22 11 32 33 32c33 0 50 -9 50 -27c0 -29 -12 -44 -37 -44zM912 436c-10 0 -21 4 -31 11c-10 8 -15 17 -15 28c0 22 11 32 33 32c33 0 49 -9 49 -27
c0 -29 -12 -44 -36 -44z" />
    <glyph glyph-name="uni0635" unicode="&#x635;" horiz-adv-x="1257" arabic-form="isolated" 
d="M715 -81c6 -9 11 -18 18 -26c23 -30 35 -48 35 -52c1 -18 -7 -27 -24 -28c-11 -1 -25 12 -42 39c-15 23 -28 45 -39 69h-6c-6 -46 -19 -91 -40 -136c-64 -134 -191 -230 -348 -169c-147 54 -272 226 -268 388c1 42 11 85 31 122c9 18 19 29 30 36c1 1 3 2 4 2
c-8 14 -11 25 -8 33c51 138 426 -45 492 -91c71 -49 20 -83 -38 -41c-69 49 -380 214 -423 97c-2 -5 -4 -11 -4 -17c0 -3 -1 -6 -3 -9c-57 -93 -35 -197 14 -291c49 -95 112 -157 188 -185c116 -43 220 29 273 127c84 154 63 279 19 436c-6 21 -16 52 -29 91
c-5 13 -9 27 -14 40c-22 59 21 100 53 15c10 -25 20 -60 32 -103c2 -8 5 -16 7 -24c8 33 21 64 39 89c76 106 205 89 306 37c120 -62 239 -182 230 -292c-16 -203 -355 -160 -485 -157zM691 -34c97 -4 359 -33 435 42c108 107 -75 284 -218 343c-85 35 -185 22 -231 -69
c-46 -92 -24 -232 14 -316z" />
    <glyph glyph-name="uniFEBB" unicode="&#x635;" horiz-adv-x="711" arabic-form="initial" 
d="M0 -81c-8 0 -14 9 -14 18c0 10 6 19 14 19c111 0 47 274 31 346c-8 38 -15 69 -15 85c0 20 9 30 27 30c22 0 40 -37 53 -111c1 -8 3 -18 4 -28c8 19 17 37 29 53c76 106 204 89 305 37c121 -62 239 -182 230 -292c-16 -203 -354 -160 -485 -157c6 -9 12 -18 18 -26
c24 -30 35 -48 36 -52c1 -18 -7 -27 -24 -28c-11 -1 -25 12 -43 39c-12 18 -22 37 -32 56c-14 28 -25 56 -38 84c-16 -43 -46 -73 -96 -73zM206 -37c118 -7 319 -19 385 45c108 107 -76 284 -219 343c-85 35 -185 22 -230 -69c-24 -47 -29 -106 -25 -164
c4 -49 11 -121 58 -147c10 -5 20 -7 31 -8z" />
    <glyph glyph-name="uniFEBC" unicode="&#x635;" horiz-adv-x="727" arabic-form="medial" 
d="M0 -81c-8 0 -14 9 -14 18c0 10 6 19 14 19c112 0 47 274 32 346c-9 38 -16 69 -16 85c0 20 9 30 27 30c22 0 40 -37 53 -111c1 -8 3 -18 5 -28c7 19 17 37 28 53c76 106 204 89 306 37c120 -62 239 -182 230 -292c-4 -46 -2 -120 62 -120c8 0 14 -9 14 -19
c0 -9 -6 -18 -14 -18c-50 0 -80 29 -96 73c-92 -106 -343 -76 -451 -73c5 -9 11 -18 17 -26c24 -30 36 -48 36 -52c1 -18 -7 -27 -24 -28c-11 -1 -25 12 -42 39c-12 18 -23 37 -33 56c-14 28 -25 56 -38 84c-16 -43 -46 -73 -96 -73zM207 -37c117 -7 319 -19 384 45
c108 107 -75 284 -218 343c-86 35 -185 22 -231 -69c-23 -47 -29 -106 -24 -164c4 -49 10 -121 57 -147c10 -5 20 -7 32 -8z" />
    <glyph glyph-name="uniFEBA" unicode="&#x635;" horiz-adv-x="1261" arabic-form="final" 
d="M1261 -81c-48 1 -80 30 -96 73c-92 -106 -343 -76 -451 -73c5 -9 11 -18 17 -26c24 -30 36 -48 36 -52c1 -18 -7 -27 -24 -28c-11 -1 -25 12 -42 39c-15 23 -28 45 -39 69h-6c-7 -46 -19 -91 -41 -136c-64 -134 -190 -230 -347 -169c-147 54 -272 226 -268 388
c1 42 11 85 30 122c10 18 20 29 31 36c1 1 3 2 4 2c-8 14 -11 25 -8 33c51 138 426 -45 492 -91c70 -49 20 -83 -38 -41c-70 49 -380 214 -424 97c-2 -5 -3 -11 -4 -17c1 -3 0 -6 -2 -9c-58 -93 -35 -197 13 -291c50 -95 112 -157 188 -185c117 -43 220 29 274 127
c83 154 63 279 19 436c-6 21 -16 52 -30 91c-4 13 -8 27 -13 40c-22 59 21 100 53 15c9 -25 20 -60 32 -103l6 -24c9 33 22 64 40 89c76 106 204 89 306 37c120 -62 239 -182 230 -292c-1 -6 -1 -12 -2 -17c-1 -59 15 -103 64 -103c8 0 14 -9 14 -19c0 -9 -6 -18 -14 -18z
M689 -34c98 -4 359 -33 436 42c108 107 -75 284 -218 343c-86 35 -185 22 -231 -69c-46 -92 -24 -232 13 -316z" />
    <glyph glyph-name="uni0636" unicode="&#x636;" horiz-adv-x="1269" arabic-form="isolated" 
d="M715 -81c6 -9 11 -18 18 -26c23 -30 35 -48 35 -52c1 -18 -7 -27 -24 -28c-11 -1 -25 12 -42 39c-15 23 -28 45 -39 69h-6c-6 -46 -19 -91 -40 -136c-64 -134 -191 -230 -348 -169c-147 54 -272 226 -268 388c1 42 11 85 31 122c9 18 19 29 30 36c1 1 3 2 4 2
c-8 14 -11 25 -8 33c51 138 426 -45 492 -91c71 -49 20 -83 -38 -41c-69 49 -380 214 -423 97c-2 -5 -4 -11 -4 -17c0 -3 -1 -6 -3 -9c-57 -93 -35 -197 14 -291c49 -95 112 -157 188 -185c116 -43 220 29 273 127c84 154 63 279 19 436c-6 21 -16 52 -29 91
c-5 13 -9 27 -14 40c-22 59 21 100 53 15c10 -25 20 -60 32 -103c2 -8 5 -16 7 -24c8 33 21 64 39 89c76 106 205 89 306 37c120 -62 239 -182 230 -292c-16 -203 -355 -160 -485 -157zM691 -34c97 -4 359 -33 435 42c108 107 -75 284 -218 343c-85 35 -185 22 -231 -69
c-46 -92 -24 -232 14 -316zM828 462c-11 0 -21 4 -31 11c-10 8 -15 17 -15 28c0 22 11 32 33 32c33 0 49 -9 49 -27c0 -29 -12 -44 -36 -44z" />
    <glyph glyph-name="uniFEBF" unicode="&#x636;" horiz-adv-x="710" arabic-form="initial" 
d="M0 -81c-8 0 -14 9 -14 18c0 10 6 19 14 19c111 0 47 274 31 346c-8 38 -15 69 -15 85c0 20 9 30 27 30c22 0 40 -37 53 -111c1 -8 3 -18 4 -28c8 19 17 37 29 53c76 106 204 89 305 37c121 -62 239 -182 230 -292c-16 -203 -354 -160 -485 -157c6 -9 12 -18 18 -26
c24 -30 35 -48 36 -52c1 -18 -7 -27 -24 -28c-11 -1 -25 12 -43 39c-12 18 -22 37 -32 56c-14 28 -25 56 -38 84c-16 -43 -46 -73 -96 -73zM206 -37c118 -7 319 -19 385 45c108 107 -76 284 -219 343c-85 35 -185 22 -230 -69c-24 -47 -29 -106 -25 -164
c4 -49 11 -121 58 -147c10 -5 20 -7 31 -8zM264 462c-11 0 -21 4 -31 11c-10 8 -15 17 -15 28c0 22 11 32 33 32c33 0 49 -9 49 -27c0 -29 -12 -44 -36 -44z" />
    <glyph glyph-name="uniFEC0" unicode="&#x636;" horiz-adv-x="727" arabic-form="medial" 
d="M0 -81c-8 0 -14 9 -14 18c0 10 6 19 14 19c112 0 47 274 32 346c-9 38 -16 69 -16 85c0 20 9 30 27 30c22 0 40 -37 53 -111c1 -8 3 -18 5 -28c7 19 17 37 28 53c76 106 204 89 306 37c120 -62 239 -182 230 -292c-4 -46 -2 -120 62 -120c8 0 14 -9 14 -19
c0 -9 -6 -18 -14 -18c-50 0 -80 29 -96 73c-92 -106 -343 -76 -451 -73c5 -9 11 -18 17 -26c24 -30 36 -48 36 -52c1 -18 -7 -27 -24 -28c-11 -1 -25 12 -42 39c-12 18 -23 37 -33 56c-14 28 -25 56 -38 84c-16 -43 -46 -73 -96 -73zM207 -37c117 -7 319 -19 384 45
c108 107 -75 284 -218 343c-86 35 -185 22 -231 -69c-23 -47 -29 -106 -24 -164c4 -49 10 -121 57 -147c10 -5 20 -7 32 -8zM259 464c-11 0 -21 4 -31 11c-10 8 -15 17 -15 28c0 22 11 32 33 32c33 0 49 -9 49 -27c0 -29 -12 -44 -36 -44z" />
    <glyph glyph-name="uniFEBE" unicode="&#x636;" horiz-adv-x="1261" arabic-form="final" 
d="M1261 -81c-48 1 -80 30 -96 73c-92 -106 -343 -76 -451 -73c5 -9 11 -18 17 -26c24 -30 36 -48 36 -52c1 -18 -7 -27 -24 -28c-11 -1 -25 12 -42 39c-15 23 -28 45 -39 69h-6c-7 -46 -19 -91 -41 -136c-64 -134 -190 -230 -347 -169c-147 54 -272 226 -268 388
c1 42 11 85 30 122c10 18 20 29 31 36c1 1 3 2 4 2c-8 14 -11 25 -8 33c51 138 426 -45 492 -91c70 -49 20 -83 -38 -41c-70 49 -380 214 -424 97c-2 -5 -3 -11 -4 -17c1 -3 0 -6 -2 -9c-58 -93 -35 -197 13 -291c50 -95 112 -157 188 -185c117 -43 220 29 274 127
c83 154 63 279 19 436c-6 21 -16 52 -30 91c-4 13 -8 27 -13 40c-22 59 21 100 53 15c9 -25 20 -60 32 -103l6 -24c9 33 22 64 40 89c76 106 204 89 306 37c120 -62 239 -182 230 -292c-1 -6 -1 -12 -2 -17c-1 -59 15 -103 64 -103c8 0 14 -9 14 -19c0 -9 -6 -18 -14 -18z
M689 -34c98 -4 359 -33 436 42c108 107 -75 284 -218 343c-86 35 -185 22 -231 -69c-46 -92 -24 -232 13 -316zM825 462c-11 0 -21 4 -31 11c-10 8 -15 17 -15 28c0 22 11 32 33 32c33 0 49 -9 49 -27c0 -29 -12 -44 -36 -44z" />
    <glyph glyph-name="uni0637" unicode="&#x637;" horiz-adv-x="716" arabic-form="isolated" 
d="M180 -80c6 -9 12 -18 18 -26c23 -31 35 -48 35 -52c1 -18 -7 -28 -23 -29c-11 0 -26 13 -43 40c-15 22 -28 45 -39 68c-73 6 -163 76 -103 60c7 -2 84 -16 82 -11c-78 162 -118 330 -146 507c-8 45 -12 81 -14 108c-6 90 50 71 54 8c2 -14 3 -28 5 -42
c4 -41 7 -73 11 -95c8 -52 27 -184 61 -304c1 66 17 131 52 180c75 105 204 89 305 37c120 -62 239 -183 230 -293c-16 -203 -355 -160 -485 -156zM156 -34c97 -3 359 -33 436 43c108 107 -76 284 -219 342c-85 36 -185 23 -231 -68c-45 -92 -24 -233 14 -317z" />
    <glyph glyph-name="uniFEC3" unicode="&#x637;" horiz-adv-x="707" arabic-form="initial" 
d="M133 -81h-133c-8 0 -14 9 -14 18c0 10 6 19 14 19h118c-79 162 -124 344 -153 521c-7 45 -12 81 -14 108c-6 90 50 71 54 8c2 -14 3 -28 5 -42c4 -41 7 -73 11 -95c8 -52 28 -184 61 -304c2 66 17 131 52 180c76 105 204 89 305 37c121 -62 239 -183 231 -293
c-17 -203 -355 -160 -485 -156c5 -9 11 -18 17 -26c24 -31 36 -48 36 -52c1 -18 -7 -28 -24 -29c-11 0 -25 13 -43 40c-14 22 -27 43 -38 66zM165 -44c114 0 343 -34 431 53c108 107 -76 284 -218 342c-86 36 -185 23 -231 -68c-46 -92 -20 -243 18 -327z" />
    <glyph glyph-name="uniFEC4" unicode="&#x637;" horiz-adv-x="727" arabic-form="medial" 
d="M130 -81h-130c-8 0 -14 9 -14 18c0 10 6 19 14 19h114c-78 162 -124 344 -153 521c-7 45 -12 81 -14 108c-6 90 50 71 55 8c1 -14 3 -28 4 -42c4 -41 8 -73 11 -95c8 -52 28 -184 62 -304c1 66 16 131 51 180c76 105 204 89 305 37c121 -62 240 -183 231 -293
c-1 -6 -2 -11 -3 -16c0 -59 15 -104 64 -104c8 0 14 -9 14 -19c0 -9 -6 -18 -14 -18c-50 0 -79 31 -95 74c-92 -106 -343 -77 -451 -74c5 -9 11 -17 17 -25c24 -31 36 -48 36 -52c1 -18 -7 -28 -24 -29c-11 0 -25 13 -43 40c-14 22 -26 43 -37 66zM161 -44
c114 0 343 -34 431 53c108 107 -75 284 -218 342c-86 36 -185 23 -231 -68c-46 -92 -19 -243 18 -327z" />
    <glyph glyph-name="uniFEC2" unicode="&#x637;" horiz-adv-x="727" arabic-form="final" 
d="M727 -81c-50 0 -79 31 -95 74c-92 -106 -343 -76 -451 -73c5 -9 11 -18 17 -26c24 -31 36 -48 36 -52c1 -18 -7 -28 -24 -29c-11 0 -25 13 -43 40c-14 22 -27 45 -38 68c-73 6 -164 76 -104 60c7 -2 85 -16 83 -11c-79 162 -118 330 -147 507c-7 45 -12 81 -14 108
c-6 90 50 71 55 8c1 -14 2 -28 4 -42c4 -41 7 -73 11 -95c8 -52 28 -184 61 -304c2 66 17 131 52 180c76 105 204 89 305 37c121 -62 240 -183 231 -293c-1 -6 -2 -11 -3 -16c0 -59 15 -104 64 -104c8 0 14 -9 14 -19c0 -9 -6 -18 -14 -18zM156 -34c97 -3 359 -33 436 43
c108 107 -75 284 -218 342c-86 36 -185 23 -231 -68c-46 -92 -24 -233 13 -317z" />
    <glyph glyph-name="uni0638" unicode="&#x638;" horiz-adv-x="716" arabic-form="isolated" 
d="M180 -80c6 -9 12 -18 18 -26c23 -31 35 -48 35 -52c1 -18 -7 -28 -23 -29c-11 0 -26 13 -43 40c-15 22 -28 45 -39 68c-73 6 -163 76 -103 60c7 -2 84 -16 82 -11c-78 162 -118 330 -146 507c-8 45 -12 81 -14 108c-6 90 50 71 54 8c2 -14 3 -28 5 -42
c4 -41 7 -73 11 -95c8 -52 27 -184 61 -304c1 66 17 131 52 180c75 105 204 89 305 37c120 -62 239 -183 230 -293c-16 -203 -355 -160 -485 -156zM156 -34c97 -3 359 -33 436 43c108 107 -76 284 -219 342c-85 36 -185 23 -231 -68c-45 -92 -24 -233 14 -317zM229 462
c24 0 36 15 36 44c0 18 -16 27 -49 27c-22 0 -33 -10 -33 -32c0 -11 5 -20 15 -28c10 -7 20 -11 31 -11z" />
    <glyph glyph-name="uniFEC7" unicode="&#x638;" horiz-adv-x="714" arabic-form="initial" 
d="M133 -81h-133c-8 0 -14 9 -14 18c0 10 6 19 14 19h118c-79 162 -124 344 -153 521c-7 45 -12 81 -14 108c-6 90 50 71 54 8c2 -14 3 -28 5 -42c4 -41 7 -73 11 -95c8 -52 28 -184 61 -304c2 66 17 131 52 180c76 105 204 89 305 37c121 -62 239 -183 231 -293
c-17 -203 -355 -160 -485 -156c5 -9 11 -18 17 -26c24 -31 36 -48 36 -52c1 -18 -7 -28 -24 -29c-11 0 -25 13 -43 40c-14 22 -27 43 -38 66zM165 -44c114 0 343 -34 431 53c108 107 -76 284 -218 342c-86 36 -185 23 -231 -68c-46 -92 -20 -243 18 -327zM217 462
c24 0 36 15 36 44c0 18 -16 27 -49 27c-22 0 -33 -10 -33 -32c0 -11 5 -20 15 -28c10 -7 20 -11 31 -11z" />
    <glyph glyph-name="uniFEC8" unicode="&#x638;" horiz-adv-x="727" arabic-form="medial" 
d="M130 -81h-130c-8 0 -14 9 -14 18c0 10 6 19 14 19h114c-78 162 -124 344 -153 521c-7 45 -12 81 -14 108c-6 90 50 71 55 8c1 -14 3 -28 4 -42c4 -41 8 -73 11 -95c8 -52 28 -184 62 -304c1 66 16 131 51 180c76 105 204 89 305 37c121 -62 240 -183 231 -293
c-1 -6 -2 -11 -3 -16c0 -59 15 -104 64 -104c8 0 14 -9 14 -19c0 -9 -6 -18 -14 -18c-50 0 -79 31 -95 74c-92 -106 -343 -77 -451 -74c5 -9 11 -17 17 -25c24 -31 36 -48 36 -52c1 -18 -7 -28 -24 -29c-11 0 -25 13 -43 40c-14 22 -26 43 -37 66zM161 -44
c114 0 343 -34 431 53c108 107 -75 284 -218 342c-86 36 -185 23 -231 -68c-46 -92 -19 -243 18 -327zM240 463c24 0 36 15 36 44c0 18 -16 27 -49 27c-22 0 -33 -10 -33 -32c0 -11 5 -20 15 -28c10 -7 20 -11 31 -11z" />
    <glyph glyph-name="uniFEC6" unicode="&#x638;" horiz-adv-x="727" arabic-form="final" 
d="M727 -81c-50 0 -79 31 -95 74c-92 -106 -343 -76 -451 -73c5 -9 11 -18 17 -26c24 -31 36 -48 36 -52c1 -18 -7 -28 -24 -29c-11 0 -25 13 -43 40c-14 22 -27 45 -38 68c-73 6 -164 76 -104 60c7 -2 85 -16 83 -11c-79 162 -118 330 -147 507c-7 45 -12 81 -14 108
c-6 90 50 71 55 8c1 -14 2 -28 4 -42c4 -41 7 -73 11 -95c8 -52 28 -184 61 -304c2 66 17 131 52 180c76 105 204 89 305 37c121 -62 240 -183 231 -293c-1 -6 -2 -11 -3 -16c0 -59 15 -104 64 -104c8 0 14 -9 14 -19c0 -9 -6 -18 -14 -18zM156 -34c97 -3 359 -33 436 43
c108 107 -75 284 -218 342c-86 36 -185 23 -231 -68c-46 -92 -24 -233 13 -317zM229 463c24 0 36 15 36 44c0 18 -16 27 -49 27c-22 0 -33 -10 -33 -32c0 -11 5 -20 15 -28c10 -7 20 -11 31 -11z" />
    <glyph glyph-name="uni0639" unicode="&#x639;" horiz-adv-x="669" arabic-form="isolated" 
d="M619 1c2 -17 -9 -26 -23 -36c-24 -17 -52 -28 -85 -35c-63 -15 -129 -13 -193 -12c-62 2 -100 -24 -127 -81c-9 -28 -5 -55 12 -81c6 -9 13 -18 22 -26c50 -46 124 -70 224 -72c94 -1 170 17 228 54c39 25 52 48 39 69c-2 3 -4 6 -7 9c-9 8 -18 12 -27 13
c-16 13 -18 24 -5 32c6 4 16 3 33 -4c14 -5 24 -11 30 -16c7 -7 13 -13 18 -21c26 -41 9 -80 -52 -119c-67 -43 -150 -65 -251 -66c-112 -1 -200 28 -265 88c-14 13 -25 27 -34 41c-26 39 -29 79 -10 120c18 36 54 68 101 95c-128 40 -238 115 -246 195
c-12 122 333 265 449 265c70 0 121 -53 121 -123c0 -11 -5 -32 -14 -65c-13 -40 -26 -60 -40 -60c-21 0 -31 8 -31 25c0 9 7 26 22 49c15 24 22 45 22 63c0 40 -25 60 -75 60c-95 0 -398 -114 -404 -229c-3 -75 351 -234 540 -120c18 10 24 18 28 -12z" />
    <glyph glyph-name="uniFECB" unicode="&#x639;" horiz-adv-x="663" arabic-form="initial" 
d="M284 -81h-284c-8 0 -14 9 -14 18c0 10 6 19 14 19h240c-125 40 -231 114 -239 192c-12 122 333 265 449 265c70 0 121 -53 121 -123c0 -11 -5 -32 -14 -65c-13 -40 -26 -60 -40 -60c-21 0 -31 8 -31 25c0 9 7 26 22 49c15 24 22 45 22 63c0 40 -25 60 -75 60
c-95 0 -398 -114 -403 -229c-4 -75 350 -234 540 -120c18 10 23 18 27 -12c2 -17 -9 -26 -23 -36c-24 -17 -52 -28 -84 -35c-74 -18 -153 -12 -228 -11z" />
    <glyph glyph-name="uniFECC" unicode="&#x639;" horiz-adv-x="674" arabic-form="medial" 
d="M674 -81c-150 3 -208 19 -313 61c-6 1 -25 -12 -39 -22c-52 -35 -134 -39 -196 -39h-126c-8 0 -14 9 -14 18c0 10 6 19 14 19c169 0 266 4 306 41c-74 31 -264 51 -264 151c0 122 333 265 449 265c70 0 121 -53 121 -123c0 -11 -5 -32 -14 -65c-13 -40 -26 -60 -40 -60
c-21 0 -31 8 -31 25c0 9 7 26 22 49c15 24 22 45 22 63c0 40 -25 60 -75 60c-95 0 -404 -114 -404 -229c0 -17 56 -41 168 -73c14 -4 42 -13 84 -27l6 -3c25 0 136 101 137 130c-1 0 -1 4 -3 14c-6 29 24 34 36 10c5 -10 7 -19 7 -27c0 -28 -36 -73 -109 -134l-9 -9
c108 -48 171 -58 265 -58c8 0 14 -9 14 -19c0 -9 -6 -18 -14 -18z" />
    <glyph glyph-name="uniFECA" unicode="&#x639;" horiz-adv-x="647" arabic-form="final" 
d="M647 -44c8 0 14 -9 14 -19c0 -9 -6 -18 -14 -18c-73 1 -147 4 -218 24c-20 8 -49 19 -91 33c-4 2 -9 2 -14 4c-6 1 -25 -12 -39 -22c-55 -37 -127 -36 -183 -74c-24 -17 -41 -38 -49 -62c-8 -26 -4 -52 11 -76c6 -9 13 -17 21 -24c46 -43 116 -66 208 -67
c88 -1 159 16 213 50c37 23 49 45 36 64c-1 3 -4 6 -6 9c-9 7 -17 11 -26 12c-14 12 -16 22 -4 30c5 3 15 2 31 -4c13 -5 22 -10 28 -15c7 -6 12 -13 16 -19c25 -38 9 -76 -48 -112c-62 -39 -140 -60 -233 -61c-105 -1 -187 26 -247 82c-14 12 -24 25 -33 38
c-23 37 -26 74 -8 112c12 27 34 52 65 75c57 43 142 36 192 81c-74 31 -264 51 -264 151c0 122 333 265 449 265c70 0 121 -53 121 -123c0 -11 -5 -32 -14 -65c-13 -40 -26 -60 -40 -60c-21 0 -31 8 -31 25c0 9 7 26 22 49c15 24 22 45 22 63c0 40 -25 60 -75 60
c-95 0 -404 -114 -404 -229c0 -17 56 -41 168 -73c14 -4 42 -13 84 -27l6 -3c25 0 136 101 137 130c0 0 -1 4 -3 14c-6 29 24 34 36 10c5 -10 7 -19 7 -27c0 -28 -36 -73 -109 -134l-9 -9c65 -28 133 -52 275 -58z" />
    <glyph glyph-name="uni063A" unicode="&#x63a;" horiz-adv-x="671" arabic-form="isolated" 
d="M619 1c2 -17 -9 -26 -23 -36c-24 -17 -52 -28 -85 -35c-63 -15 -129 -13 -193 -12c-62 2 -100 -24 -127 -81c-9 -28 -5 -55 12 -81c6 -9 13 -18 22 -26c50 -46 124 -70 224 -72c94 -1 170 17 228 54c39 25 52 48 39 69c-2 3 -4 6 -7 9c-9 8 -18 12 -27 13
c-16 13 -18 24 -5 32c6 4 16 3 33 -4c14 -5 24 -11 30 -16c7 -7 13 -13 18 -21c26 -41 9 -80 -52 -119c-67 -43 -150 -65 -251 -66c-112 -1 -200 28 -265 88c-14 13 -25 27 -34 41c-26 39 -29 79 -10 120c18 36 54 68 101 95c-128 40 -238 115 -246 195
c-12 122 333 265 449 265c70 0 121 -53 121 -123c0 -11 -5 -32 -14 -65c-13 -40 -26 -60 -40 -60c-21 0 -31 8 -31 25c0 9 7 26 22 49c15 24 22 45 22 63c0 40 -25 60 -75 60c-95 0 -398 -114 -404 -229c-3 -75 351 -234 540 -120c18 10 24 18 28 -12zM379 461
c-11 0 -21 4 -31 11c-10 8 -15 17 -15 28c0 22 11 32 33 32c33 0 49 -9 49 -27c0 -29 -12 -44 -36 -44z" />
    <glyph glyph-name="uniFECF" unicode="&#x63a;" horiz-adv-x="661" arabic-form="initial" 
d="M284 -81h-284c-8 0 -14 9 -14 18c0 10 6 19 14 19h240c-125 40 -231 114 -239 192c-12 122 333 265 449 265c70 0 121 -53 121 -123c0 -11 -5 -32 -14 -65c-13 -40 -26 -60 -40 -60c-21 0 -31 8 -31 25c0 9 7 26 22 49c15 24 22 45 22 63c0 40 -25 60 -75 60
c-95 0 -398 -114 -403 -229c-4 -75 350 -234 540 -120c18 10 23 18 27 -12c2 -17 -9 -26 -23 -36c-24 -17 -52 -28 -84 -35c-74 -18 -153 -12 -228 -11zM433 464c-11 0 -21 4 -31 11c-10 8 -15 17 -15 28c0 22 11 32 33 32c33 0 49 -9 49 -27c0 -29 -12 -44 -36 -44z" />
    <glyph glyph-name="uniFED0" unicode="&#x63a;" horiz-adv-x="674" arabic-form="medial" 
d="M674 -81c-150 3 -208 19 -313 61c-6 1 -25 -12 -39 -22c-52 -35 -134 -39 -196 -39h-126c-8 0 -14 9 -14 18c0 10 6 19 14 19c169 0 266 4 306 41c-74 31 -264 51 -264 151c0 122 333 265 449 265c70 0 121 -53 121 -123c0 -11 -5 -32 -14 -65c-13 -40 -26 -60 -40 -60
c-21 0 -31 8 -31 25c0 9 7 26 22 49c15 24 22 45 22 63c0 40 -25 60 -75 60c-95 0 -404 -114 -404 -229c0 -17 56 -41 168 -73c14 -4 42 -13 84 -27l6 -3c25 0 136 101 137 130c-1 0 -1 4 -3 14c-6 29 24 34 36 10c5 -10 7 -19 7 -27c0 -28 -36 -73 -109 -134l-9 -9
c108 -48 171 -58 265 -58c8 0 14 -9 14 -19c0 -9 -6 -18 -14 -18zM348 428c-11 0 -21 4 -31 11c-10 8 -15 17 -15 28c0 22 11 32 33 32c33 0 49 -9 49 -27c0 -29 -12 -44 -36 -44z" />
    <glyph glyph-name="uniFECE" unicode="&#x63a;" horiz-adv-x="647" arabic-form="final" 
d="M647 -44c8 0 14 -9 14 -19c0 -9 -6 -18 -14 -18c-73 1 -147 4 -218 24c-20 8 -49 19 -91 33c-4 2 -9 2 -14 4c-6 1 -25 -12 -39 -22c-55 -37 -127 -36 -183 -74c-24 -17 -41 -38 -49 -62c-8 -26 -4 -52 11 -76c6 -9 13 -17 21 -24c46 -43 116 -66 208 -67
c88 -1 159 16 213 50c37 23 49 45 36 64c-1 3 -4 6 -6 9c-9 7 -17 11 -26 12c-14 12 -16 22 -4 30c5 3 15 2 31 -4c13 -5 22 -10 28 -15c7 -6 12 -13 16 -19c25 -38 9 -76 -48 -112c-62 -39 -140 -60 -233 -61c-105 -1 -187 26 -247 82c-14 12 -24 25 -33 38
c-23 37 -26 74 -8 112c12 27 34 52 65 75c57 43 142 36 192 81c-74 31 -264 51 -264 151c0 122 333 265 449 265c70 0 121 -53 121 -123c0 -11 -5 -32 -14 -65c-13 -40 -26 -60 -40 -60c-21 0 -31 8 -31 25c0 9 7 26 22 49c15 24 22 45 22 63c0 40 -25 60 -75 60
c-95 0 -404 -114 -404 -229c0 -17 56 -41 168 -73c14 -4 42 -13 84 -27l6 -3c25 0 136 101 137 130c0 0 -1 4 -3 14c-6 29 24 34 36 10c5 -10 7 -19 7 -27c0 -28 -36 -73 -109 -134l-9 -9c65 -28 133 -52 275 -58zM258 429c-11 0 -21 4 -31 11c-10 8 -15 17 -15 28
c0 22 11 32 33 32c33 0 49 -9 49 -27c0 -29 -12 -44 -36 -44z" />
    <glyph glyph-name="uni0641" unicode="&#x641;" horiz-adv-x="780" arabic-form="isolated" 
d="M690 -54c-6 -5 -12 -10 -18 -14c-166 -111 -720 -90 -669 195c13 73 74 157 146 164c25 2 32 -22 9 -32c-63 -23 -117 -73 -116 -145c0 -75 46 -130 138 -165c66 -25 272 -49 399 -19c-78 36 -122 150 -144 222c-10 31 -42 127 13 143c-17 23 18 88 38 103
c164 135 326 -333 204 -452zM471 289c2 -1 3 -3 5 -5c3 -4 5 -17 6 -39c2 -42 70 -358 167 -278c80 66 14 290 -41 358c-41 49 -74 64 -98 44c-19 -16 -31 -42 -36 -80h-3zM420 428c-11 0 -21 4 -31 11c-10 8 -15 17 -15 28c0 22 11 32 33 32c33 0 49 -9 49 -27
c0 -29 -12 -44 -36 -44z" />
    <glyph glyph-name="uniFED3" unicode="&#x641;" horiz-adv-x="395" arabic-form="initial" 
d="M135 462c-11 0 -21 4 -31 11c-10 8 -15 17 -15 28c0 22 11 32 33 32c33 0 49 -9 49 -27c0 -29 -12 -44 -36 -44zM0 -81c-8 0 -14 9 -14 18c0 10 6 19 14 19h161c-54 49 -88 137 -106 196c-10 31 -42 127 13 143c-17 23 18 88 38 103c164 135 326 -333 204 -452
c-20 -19 -42 -28 -67 -27c-103 0 187 0 -243 0zM91 289c2 -1 3 -3 5 -5c3 -4 5 -17 6 -39c1 -21 66 -362 167 -278c80 66 14 290 -41 358c-41 49 -74 64 -98 44c-19 -16 -31 -42 -36 -80h-3z" />
    <glyph glyph-name="uniFED4" unicode="&#x641;" horiz-adv-x="431" arabic-form="medial" 
d="M183 462c-11 0 -21 4 -31 11c-10 8 -15 17 -15 28c0 22 11 32 33 32c33 0 49 -9 49 -27c0 -29 -12 -44 -36 -44zM0 -44c1 0 -24 0 187 0c-55 49 -88 137 -106 196c-10 31 -42 127 13 143c-17 23 18 88 37 103c161 132 319 -310 213 -442h87c8 0 14 -9 14 -19
c0 -9 -6 -18 -14 -18h-139v2c-6 -1 -11 -2 -23 -2c-292 0 -60 0 -3 0h-266c-8 0 -14 9 -14 19c0 9 6 18 14 18zM128 245c1 -21 66 -364 167 -278c80 66 14 290 -41 358c-41 49 -74 64 -98 44c-19 -16 -31 -42 -36 -80h-3c2 -1 3 -3 4 -5c4 -4 6 -17 7 -39z" />
    <glyph glyph-name="uniFED2" unicode="&#x641;" horiz-adv-x="816" arabic-form="final" 
d="M816 -81h-166c-172 -92 -697 -71 -647 208c13 73 74 157 146 164c25 2 32 -22 9 -32c-63 -23 -117 -73 -116 -145c0 -75 46 -130 138 -165c65 -25 269 -49 396 -19c-78 35 -123 150 -145 222c-10 31 -42 127 13 143c-17 23 18 88 38 103c160 132 318 -310 212 -442h122
c8 0 14 -9 14 -19c0 -9 -6 -18 -14 -18zM467 289c2 -1 3 -3 5 -5c3 -4 5 -17 6 -39c2 -42 70 -358 167 -278c80 66 14 290 -41 358c-41 49 -74 64 -98 44c-19 -16 -31 -42 -36 -80h-3zM409 428c-11 0 -21 4 -31 11c-10 8 -15 17 -15 28c0 22 11 32 33 32c33 0 49 -9 49 -27
c0 -29 -12 -44 -36 -44z" />
    <glyph glyph-name="uni0642" unicode="&#x642;" horiz-adv-x="712" arabic-form="isolated" 
d="M605 -5c-24 -23 -53 -32 -85 -25c-94 20 -145 152 -169 231c-10 31 -43 127 12 143c-16 23 19 88 38 103c44 37 88 29 126 -3c6 31 35 36 58 -26c10 -25 21 -60 32 -103c44 -159 72 -327 -1 -481c-64 -134 -191 -230 -348 -169c-146 54 -272 226 -268 388
c1 42 11 85 31 122c35 65 84 61 51 10c-58 -93 -36 -197 13 -291c49 -95 112 -157 188 -185c116 -43 220 29 273 127c29 54 45 108 52 162zM387 338c1 -1 2 -3 4 -5c3 -4 6 -17 6 -39c2 -42 70 -358 168 -278c80 66 13 290 -42 358c-41 49 -73 64 -98 44
c-19 -16 -30 -42 -35 -80h-3zM171 427c-10 0 -20 4 -30 11c-10 8 -16 17 -16 28c0 22 11 32 33 32c34 0 50 -9 50 -27c0 -29 -12 -44 -37 -44zM264 427c-10 0 -20 4 -31 11c-10 8 -15 17 -15 28c0 22 11 32 33 32c33 0 49 -9 49 -27c0 -29 -12 -44 -36 -44z" />
    <glyph glyph-name="uniFED7" unicode="&#x642;" horiz-adv-x="390" arabic-form="initial" 
d="M110 469c-10 0 -20 4 -30 11c-10 8 -16 17 -16 28c0 22 11 32 33 32c34 0 50 -9 50 -27c0 -29 -12 -44 -37 -44zM203 469c-10 0 -20 4 -31 11c-10 8 -15 17 -15 28c0 22 11 32 33 32c33 0 49 -9 49 -27c0 -29 -12 -44 -36 -44zM0 -81c-8 0 -14 9 -14 18c0 10 6 19 14 19
h161c-54 49 -88 137 -106 196c-10 31 -42 127 13 143c-17 23 18 88 38 103c164 135 326 -333 204 -452c-20 -19 -42 -28 -67 -27c-103 0 187 0 -243 0zM91 289c2 -1 3 -3 5 -5c3 -4 5 -17 6 -39c1 -21 66 -362 167 -278c80 66 14 290 -41 358c-41 49 -74 64 -98 44
c-19 -16 -31 -42 -36 -80h-3z" />
    <glyph glyph-name="uniFED8" unicode="&#x642;" horiz-adv-x="431" arabic-form="medial" 
d="M141 462c-10 0 -20 4 -30 11c-10 8 -16 17 -16 28c0 22 11 32 33 32c34 0 50 -9 50 -27c0 -29 -12 -44 -37 -44zM234 462c-10 0 -20 4 -31 11c-10 8 -15 17 -15 28c0 22 11 32 33 32c33 0 49 -9 49 -27c0 -29 -12 -44 -36 -44zM0 -44c1 0 -24 0 187 0
c-55 49 -88 137 -106 196c-10 31 -42 127 13 143c-17 23 18 88 37 103c161 132 319 -310 213 -442h87c8 0 14 -9 14 -19c0 -9 -6 -18 -14 -18h-139v2c-6 -1 -11 -2 -23 -2c-292 0 -60 0 -3 0h-266c-8 0 -14 9 -14 19c0 9 6 18 14 18zM128 245c1 -21 66 -364 167 -278
c80 66 14 290 -41 358c-41 49 -74 64 -98 44c-19 -16 -31 -42 -36 -80h-3c2 -1 3 -3 4 -5c4 -4 6 -17 7 -39z" />
    <glyph glyph-name="uniFED6" unicode="&#x642;" horiz-adv-x="723" arabic-form="final" 
d="M722 -81c-27 0 -48 9 -64 24c-5 -54 -18 -107 -42 -158c-64 -134 -191 -230 -348 -169c-147 54 -272 226 -268 388c1 42 11 85 31 122c34 65 84 61 50 10c-57 -93 -35 -197 14 -291c49 -95 112 -157 188 -185c116 -43 219 29 273 127c30 55 46 110 52 165l-6 -6
c-24 -23 -53 -32 -85 -25c-94 20 -145 152 -169 231c-10 31 -43 127 12 143c-16 23 19 88 38 103c45 37 90 29 129 -5c4 33 34 40 58 -24c10 -25 20 -60 32 -103c19 -68 34 -137 41 -207h1v-10c0 -7 1 -13 1 -20c5 -43 22 -73 62 -73c8 0 14 -9 14 -19c0 -9 -6 -18 -14 -18
v0zM384 289c1 -1 2 -3 4 -5c3 -4 6 -17 6 -39c2 -42 70 -358 168 -278c80 66 13 290 -42 358c-41 49 -73 64 -98 44c-19 -16 -30 -42 -35 -80h-3zM147 428c-10 0 -20 4 -30 11c-10 8 -16 17 -16 28c0 22 11 32 33 32c34 0 50 -9 50 -27c0 -29 -12 -44 -37 -44zM240 428
c-10 0 -20 4 -31 11c-10 8 -15 17 -15 28c0 22 11 32 33 32c33 0 49 -9 49 -27c0 -29 -12 -44 -36 -44z" />
    <glyph glyph-name="uni0643" unicode="&#x643;" horiz-adv-x="777" arabic-form="isolated" 
d="M486 330c-3 0 -6 2 -9 4c-3 3 -4 5 -3 8c1 10 2 15 2 15c0 13 -5 19 -16 19c-19 0 -49 -14 -89 -42c-40 -29 -60 -51 -60 -67c0 -6 7 -12 23 -16c8 -2 28 -6 61 -10c29 -5 50 -10 63 -15c21 -8 31 -20 31 -36c0 -18 -12 -35 -36 -51c-23 -16 -46 -23 -67 -23h-11
c-14 0 -27 4 -39 11c-14 8 -22 18 -22 30c0 3 2 8 4 13c3 6 5 10 8 10h1c5 0 8 -3 8 -8c0 -2 0 -4 -1 -7s-2 -5 -2 -6c0 -7 5 -13 13 -17s17 -6 27 -6c22 0 43 5 62 16c22 12 33 26 33 43c0 9 -9 16 -27 21c-8 2 -28 5 -58 10c-14 1 -35 5 -63 11c-21 6 -32 15 -32 26
c0 29 23 58 68 89c42 28 78 42 109 42v0c25 0 38 -13 38 -40c0 -4 -1 -9 -4 -14c-4 -6 -7 -10 -12 -10zM153 289c23 0 28 -23 6 -32c-63 -23 -117 -73 -116 -145c0 -75 47 -130 138 -165c104 -40 341 -49 442 -4c61 26 69 74 68 139c-4 137 -71 341 -85 390
c-6 22 -16 52 -30 92c-4 13 -8 26 -13 39c-13 36 -3 64 14 64c11 0 26 -14 39 -48c10 -26 20 -60 32 -104c28 -102 51 -207 68 -313c6 -42 13 -81 13 -121c3 -86 -13 -136 -89 -168c-134 -59 -326 -58 -457 -12c-98 33 -200 108 -179 224c13 73 74 158 146 164h3z" />
    <glyph glyph-name="uniFEDB" unicode="&#x643;" horiz-adv-x="490" arabic-form="initial" 
d="M0 -81c-8 0 -14 9 -14 18c0 10 6 19 14 19c112 2 374 -20 374 143c0 22 -18 38 -54 50c-18 6 -59 14 -121 24c-29 5 -72 14 -128 27c-44 15 -66 37 -66 64c0 145 228 315 363 315c52 0 78 -32 78 -96c0 -11 -3 -22 -9 -35c-7 -15 -15 -23 -24 -23c-6 0 -12 3 -18 9
s-8 12 -7 19c3 25 5 37 5 36c0 31 -11 46 -33 46c-85 0 -307 -173 -307 -262c0 -16 16 -29 49 -39c15 -5 57 -13 124 -25c60 -10 103 -22 130 -35c42 -20 64 -49 64 -86c0 -44 -21 -92 -76 -124c-98 -57 -234 -45 -344 -45z" />
    <glyph glyph-name="uniFEDC" unicode="&#x643;" horiz-adv-x="564" arabic-form="medial" 
d="M0 -81c-8 0 -14 9 -14 18c0 10 6 19 14 19c112 2 374 -20 374 143c0 22 -18 38 -55 50c-18 6 -58 14 -120 24c-29 5 -72 14 -129 27c-44 15 -66 37 -66 64c0 145 228 315 364 315c52 0 78 -32 78 -96c0 -11 -3 -22 -9 -35c-7 -15 -15 -23 -24 -23c-6 0 -12 3 -18 9
s-8 12 -7 19c3 25 5 37 5 36c0 31 -11 46 -33 46c-85 0 -308 -173 -308 -262c0 -16 17 -29 49 -39c16 -5 58 -13 125 -25c59 -10 103 -22 130 -35c42 -20 64 -49 64 -86c0 -10 -1 -19 -4 -29c0 -59 15 -103 64 -103h84c8 0 14 -9 14 -19c0 -9 -6 -18 -14 -18h-84
c-51 0 -81 32 -96 77c-11 -12 -24 -23 -40 -32c-98 -57 -234 -45 -344 -45z" />
    <glyph glyph-name="uniFEDA" unicode="&#x643;" horiz-adv-x="827" arabic-form="final" 
d="M485 330c-2 0 -5 2 -8 4c-3 3 -4 5 -4 8l3 15c0 13 -6 19 -16 19c-19 0 -49 -14 -89 -42c-41 -29 -61 -51 -61 -67c0 -6 8 -12 24 -16c8 -2 28 -6 61 -10c29 -5 50 -10 63 -15c20 -8 31 -20 31 -36c0 -18 -12 -35 -37 -51c-23 -16 -45 -23 -67 -23h-11
c-13 0 -26 4 -39 11c-14 8 -21 18 -21 30c0 3 1 8 4 13c2 6 5 10 8 10c6 0 9 -3 9 -8c0 -2 -1 -4 -2 -7s-1 -5 -1 -6c0 -7 4 -13 13 -17c7 -4 16 -6 27 -6c22 0 43 5 62 16c22 12 32 26 32 43c0 9 -8 16 -26 21c-9 2 -28 5 -59 10c-14 1 -35 5 -62 11c-22 6 -32 15 -32 26
c0 29 22 58 67 89c43 28 79 42 110 42c25 0 38 -13 38 -40c0 -4 -2 -9 -5 -14c-3 -6 -7 -10 -12 -10zM827 -81h-38c-38 1 -64 20 -80 49c-14 -23 -36 -41 -69 -55c-100 -42 -214 -46 -333 -39c-40 3 -81 12 -125 27c-98 33 -199 108 -178 224c13 73 74 158 146 164h2h1v0h1
c22 -1 26 -23 5 -32c-63 -23 -117 -73 -116 -145c0 -75 46 -130 138 -165c40 -15 138 -33 279 -32c62 0 121 10 163 28c60 26 69 74 67 139c-4 149 -62 333 -114 482c-4 13 -9 26 -13 39c-13 36 -3 64 13 64c12 0 27 -14 40 -48c9 -26 20 -60 32 -104
c38 -139 81 -288 81 -464c1 -54 16 -94 61 -95h37c8 0 14 -9 14 -19c0 -9 -6 -18 -14 -18z" />
    <glyph glyph-name="uni0644" unicode="&#x644;" horiz-adv-x="701" arabic-form="isolated" 
d="M29 126c9 18 25 38 35 38c-6 10 -9 19 -9 26c0 42 56 57 98 57c131 0 345 -107 394 -141c25 -17 35 -33 35 -43c0 -11 -9 -17 -23 -17s-32 6 -50 19c-52 37 -239 138 -348 138c-44 0 -72 -16 -79 -58c0 -3 0 -6 -2 -9c-25 -39 -35 -80 -35 -122c0 -201 188 -367 305 -367
c186 0 260 223 260 404c0 149 -47 283 -85 421c-8 27 -22 75 -43 131c-4 11 -6 22 -6 31c0 20 8 33 19 33c58 0 155 -471 155 -643c0 -72 -10 -145 -34 -211c-42 -114 -149 -212 -270 -212c-180 0 -348 216 -348 403c0 42 12 85 31 122z" />
    <glyph glyph-name="uniFEDF" unicode="&#x644;" horiz-adv-x="137" arabic-form="initial" 
d="M0 -44c48 2 65 47 65 113c0 137 -71 352 -85 403c-6 22 -17 52 -30 92c-8 23 -19 51 -19 70c0 20 8 33 19 33c51 0 128 -348 148 -522c2 -22 5 -50 5 -78c0 -72 -18 -148 -103 -148c-8 0 -14 9 -14 18c0 10 6 19 14 19z" />
    <glyph glyph-name="uniFEE0" unicode="&#x644;" horiz-adv-x="169" arabic-form="medial" 
d="M0 -81c-8 0 -14 9 -14 18c0 10 6 19 14 19c48 2 65 47 65 113c0 136 -70 353 -84 403c-7 22 -16 52 -30 92c-8 24 -19 51 -19 70c0 20 8 33 19 33c12 0 26 -14 39 -48c66 -176 105 -379 114 -565c2 -58 20 -98 65 -98c8 0 14 -9 14 -19c0 -9 -6 -18 -14 -18
c-43 0 -69 20 -84 48c-16 -28 -42 -48 -85 -48z" />
    <glyph glyph-name="uniFEDE" unicode="&#x644;" horiz-adv-x="715" arabic-form="final" 
d="M715 -81c-29 0 -50 10 -67 27c-5 -46 -14 -90 -30 -133c-42 -114 -149 -212 -270 -212c-180 0 -348 216 -348 403c0 42 12 85 31 122c9 18 25 38 35 38c-6 10 -9 19 -9 26c0 42 56 57 98 57c131 0 345 -107 394 -141c25 -17 35 -33 35 -43c0 -11 -9 -17 -23 -17
s-31 6 -50 19c-52 37 -239 138 -348 138c-44 0 -72 -16 -79 -58c0 -3 0 -6 -2 -9c-25 -39 -35 -80 -35 -122c0 -156 128 -314 236 -354c24 -9 47 -13 69 -13c186 0 260 223 260 404c0 149 -47 283 -85 421c-8 27 -22 75 -43 131c-4 11 -6 22 -6 31c0 20 8 33 19 33
c56 0 152 -456 155 -631c3 -47 20 -80 63 -80c8 0 14 -9 14 -19c0 -9 -6 -18 -14 -18z" />
    <glyph glyph-name="uni0645" unicode="&#x645;" horiz-adv-x="414" arabic-form="isolated" 
d="M329 -62c-19 -19 -40 -28 -64 -28c-54 0 -97 42 -129 91c5 -55 10 -101 10 -143c0 -86 -21 -255 -123 -255c-12 0 -23 4 -23 17c0 15 11 24 22 24c4 0 8 -2 12 -2c52 0 70 101 70 188c0 142 -37 323 -50 385c-6 30 -38 133 -38 158c0 15 10 41 28 41c12 0 26 -32 41 -95
c16 71 68 95 100 95c101 0 187 -193 187 -340c0 -57 -13 -107 -43 -136zM110 281c6 -7 9 -11 11 -44c2 -37 56 -291 136 -291c45 0 68 61 68 120c0 174 -103 303 -152 303c-31 0 -54 -38 -60 -88h-3z" />
    <glyph glyph-name="uniFEE3" unicode="&#x645;" horiz-adv-x="369" arabic-form="initial" 
d="M0 -81c-8 0 -14 9 -14 18c0 10 6 19 14 19c49 2 64 43 64 103c-13 30 -24 60 -31 84c-6 18 -19 57 -19 90c0 25 8 46 32 53c-3 4 -5 10 -5 17c0 29 26 74 42 87c20 17 41 24 61 24c101 0 187 -193 187 -340c0 -57 -13 -107 -43 -136c-19 -19 -41 -28 -64 -28
c-53 0 -96 40 -127 87c-15 -45 -45 -78 -97 -78zM69 281c4 -9 10 -12 11 -44c1 -37 54 -291 135 -291c46 0 69 61 69 119c0 174 -104 304 -153 304c-30 0 -53 -38 -59 -88h-3z" />
    <glyph glyph-name="uniFEE4" unicode="&#x645;" horiz-adv-x="392" arabic-form="medial" 
d="M0 -44c49 2 64 43 64 103c-14 30 -25 60 -32 84c-6 18 -18 57 -18 90c0 25 7 46 31 53c-3 4 -4 10 -4 16c0 75 69 112 102 112c101 0 187 -194 187 -341c0 -9 0 -18 -1 -27c2 -53 18 -88 63 -90c8 0 14 -9 14 -19c0 -9 -6 -18 -14 -18c-40 0 -66 19 -84 49
c-15 -37 -52 -58 -84 -58c-55 0 -96 40 -127 87c-16 -45 -45 -78 -97 -78c-8 0 -14 9 -14 18c0 10 6 19 14 19zM68 281c6 -7 9 -11 11 -44c2 -37 56 -291 136 -291c45 0 68 60 68 119c0 174 -103 304 -152 304c-30 0 -54 -38 -59 -88h-4z" />
    <glyph glyph-name="uniFEE2" unicode="&#x645;" horiz-adv-x="435" arabic-form="final" 
d="M435 -81c-41 0 -68 20 -85 49c-21 -39 -52 -58 -85 -58c-55 0 -99 42 -129 91c4 -41 7 -83 9 -115c0 -11 1 -22 1 -34c0 -84 -23 -249 -123 -249c-12 0 -23 4 -23 17c0 15 11 24 22 24c4 0 8 -2 11 -2c53 0 70 102 70 187c0 143 -38 323 -50 386c-6 29 -29 116 -38 152
c0 15 6 47 29 47c12 0 25 -32 40 -95c19 72 67 95 101 95c101 0 186 -194 186 -341c0 -68 8 -115 64 -117c8 0 14 -9 14 -19c0 -9 -6 -18 -14 -18zM110 281c4 -9 10 -12 11 -44c1 -37 54 -291 135 -291c46 0 69 61 69 119c0 174 -104 304 -153 304c-30 0 -52 -37 -59 -88h-3
z" />
    <glyph glyph-name="uni0646" unicode="&#x646;" horiz-adv-x="711" arabic-form="isolated" 
d="M31 126c9 18 19 29 30 36c2 1 3 2 5 2c-8 14 -11 25 -8 33c51 138 425 -45 491 -91c71 -49 21 -83 -37 -41c-70 49 -381 214 -424 97c-2 -5 -3 -11 -4 -17c0 -3 0 -6 -2 -9c-58 -93 -36 -197 13 -291c49 -95 112 -157 188 -185c117 -43 220 29 274 127
c83 154 62 279 19 436c-6 21 -16 52 -30 91c-4 13 -9 27 -13 40c-22 59 21 100 52 15c10 -25 21 -60 33 -103c43 -159 72 -327 -2 -481c-64 -134 -191 -230 -348 -169c-146 54 -271 226 -268 388c1 42 11 85 31 122zM350 334c-11 0 -21 4 -31 11c-10 8 -15 17 -15 28
c0 22 11 32 33 32c33 0 49 -9 49 -27c0 -29 -12 -44 -36 -44z" />
    <glyph glyph-name="uniFEE7" unicode="&#x646;" horiz-adv-x="151" arabic-form="initial" 
d="M46 428c-11 0 -21 4 -31 11c-10 8 -15 17 -15 28c0 22 11 32 33 32c33 0 49 -9 49 -27c0 -29 -12 -44 -36 -44zM0 -81c-8 0 -14 9 -14 18c0 10 6 19 14 19c131 0 20 314 20 376c0 21 9 31 27 31c22 0 40 -37 53 -111c14 -80 46 -333 -100 -333z" />
    <glyph glyph-name="uniFEE8" unicode="&#x646;" horiz-adv-x="175" arabic-form="medial" 
d="M175 -81c-43 0 -71 22 -88 54c-17 -32 -44 -54 -87 -54c-8 0 -14 9 -14 18c0 10 6 19 14 19c133 0 20 316 20 376c0 21 9 31 27 31c107 0 -3 -407 128 -407c8 0 14 -9 14 -19c0 -9 -6 -18 -14 -18zM51 427c-11 0 -21 4 -31 11c-10 8 -15 17 -15 28c0 22 11 32 33 32
c33 0 49 -9 49 -27c0 -29 -12 -44 -36 -44z" />
    <glyph glyph-name="uniFEE6" unicode="&#x646;" horiz-adv-x="722" arabic-form="final" 
d="M722 -81c-27 0 -48 9 -64 23c-5 -53 -18 -106 -43 -157c-64 -134 -190 -230 -347 -169c-147 54 -272 226 -268 388c1 42 10 85 30 122c10 18 20 29 31 36c1 1 3 2 4 2c-8 14 -11 25 -8 33c51 138 426 -45 492 -91c70 -49 20 -83 -38 -41c-70 49 -381 214 -424 97
c-2 -5 -3 -11 -4 -17c1 -3 0 -6 -2 -9c-58 -93 -36 -197 13 -291c50 -95 112 -157 188 -185c117 -43 220 29 274 127c83 154 63 279 19 436c-6 21 -16 52 -30 91c-4 13 -9 27 -13 40c-22 59 21 100 53 15c9 -25 20 -60 32 -103c18 -68 34 -138 43 -244c6 -40 23 -66 62 -66
c8 0 14 -9 14 -19c0 -9 -6 -18 -14 -18zM350 334c-11 0 -21 4 -31 11c-10 8 -15 17 -15 28c0 22 11 32 33 32c33 0 49 -9 49 -27c0 -29 -12 -44 -36 -44z" />
    <glyph glyph-name="uniFEE9" unicode="&#x647;" horiz-adv-x="435" arabic-form="isolated" 
d="M251 -86c-6 2 -11 4 -17 6c-4 -2 -9 -5 -13 -8c-17 -8 -35 -11 -55 -9c-19 1 -37 7 -53 19c-13 10 -26 21 -38 34c-17 -23 -41 -37 -75 -37v37v0c42 0 59 33 63 80c-14 31 -19 66 -16 104c4 44 20 78 47 100c-1 104 37 188 128 169c25 -5 85 -46 81 -74
c56 12 72 -89 78 -121c15 -81 31 -221 -43 -283c-25 -21 -55 -27 -87 -17zM97 195c-8 -17 -13 -38 -14 -64c-3 -49 6 -89 28 -119c5 -7 14 -15 25 -21c12 -7 18 -11 19 -12c5 -8 3 -14 -6 -18c-8 -4 -20 0 -37 13c-7 5 -13 10 -18 15c-1 -2 -2 -5 -3 -7
c39 -47 75 -63 108 -46c3 1 5 2 7 4c-58 50 -98 156 -109 255zM232 -24c3 7 6 15 9 24c9 30 12 57 10 81c-4 53 -17 94 -36 122c-22 30 -45 41 -71 33c2 -83 32 -206 88 -260zM145 265c16 3 32 1 47 -5c22 -8 40 -23 56 -45c30 -43 44 -96 43 -161c-1 -42 -9 -75 -24 -100
c3 -1 6 -2 10 -3c124 -25 37 286 19 324c-9 20 -13 32 -12 38c0 2 1 4 2 6c-1 0 -2 -1 -3 -1c-22 31 -45 49 -69 54c-31 6 -53 -22 -66 -85c-1 -6 -2 -14 -3 -22z" />
    <glyph glyph-name="uniFEEB" unicode="&#x647;" horiz-adv-x="433" arabic-form="initial" 
d="M0 -44c42 0 59 33 63 80c-14 31 -19 66 -16 104c4 44 20 78 47 100c-1 104 37 188 128 169c25 -5 85 -46 81 -74c56 12 72 -89 78 -121c15 -81 31 -221 -43 -283c-25 -21 -55 -27 -87 -17c-6 2 -11 4 -17 6c-62 -31 -113 -13 -159 36c-17 -23 -41 -37 -75 -37
c-8 0 -14 9 -14 18c0 10 6 19 14 19zM91 -18c93 -112 170 -17 160 99c-4 53 -17 94 -36 122c-22 30 -45 41 -71 33c-2 -54 -11 -136 -47 -41c-8 -17 -13 -38 -14 -64c-3 -49 6 -89 28 -119c5 -7 14 -15 25 -21c12 -7 18 -11 19 -12c5 -8 3 -14 -6 -18c-8 -4 -20 0 -37 13
c-7 5 -13 10 -18 15c-1 -2 -2 -5 -3 -7zM145 265c16 3 32 1 47 -5c22 -8 40 -23 56 -45c30 -43 44 -96 43 -161c-1 -42 -9 -75 -24 -100c3 -1 6 -2 10 -3c124 -25 37 286 19 324c-9 20 -13 32 -12 38c0 2 1 4 2 6c-1 0 -2 -1 -3 -1c-22 31 -45 49 -69 54
c-31 6 -53 -22 -66 -85c-1 -6 -2 -14 -3 -22z" />
    <glyph glyph-name="uniFEEC" unicode="&#x647;" horiz-adv-x="403" arabic-form="medial" 
d="M0 -81c-8 0 -14 9 -14 18c0 10 6 19 14 19c21 0 43 7 67 15c-40 187 -18 403 110 370c60 -16 109 -108 111 -168c4 -106 -71 -189 -166 -227c22 -86 60 -165 110 -177c69 -18 62 97 86 138c18 30 44 49 85 49c8 0 14 -9 14 -19c0 -9 -6 -18 -14 -18c-20 0 -35 -7 -45 -19
c-23 -30 -23 -65 -33 -100c-16 -52 -61 -99 -120 -78c-75 28 -110 143 -129 211c-24 -6 -51 -14 -76 -14zM103 188c-6 -45 -4 -121 10 -197c69 34 140 93 136 169c-6 112 -122 222 -146 28z" />
    <glyph glyph-name="uniFEEA" unicode="&#x647;" horiz-adv-x="362" arabic-form="final" 
d="M362 -81c-42 0 -69 22 -86 53c-8 -15 -19 -29 -32 -41c-26 -21 -55 -27 -88 -17c-163 49 -236 538 -28 495c24 -5 85 -46 81 -74c7 1 14 1 20 -1c-6 55 -3 83 9 82c68 -3 42 -124 42 -169c3 -13 5 -25 7 -33c8 -43 16 -102 11 -157c0 -42 9 -101 64 -101
c8 0 14 -9 14 -19c0 -9 -6 -18 -14 -18zM191 319c-1 0 -2 -1 -3 -1c-21 31 -44 49 -68 54c-31 6 -53 -22 -66 -85c-18 -85 28 -315 129 -336c124 -25 37 286 19 324c-9 20 -14 32 -12 38c0 2 1 4 1 6z" />
    <glyph glyph-name="uni0648" unicode="&#x648;" horiz-adv-x="429" arabic-form="isolated" 
d="M330 -62c-24 -24 -53 -32 -85 -25c-94 20 -145 151 -169 230c-10 32 -43 128 12 143c-16 24 19 88 38 104c47 39 94 28 134 -10c-1 32 32 50 50 10c10 -21 21 -57 33 -106c20 -84 34 -169 43 -256c1 -16 3 -32 4 -46c2 -51 -2 -155 -55 -205c-14 -13 -34 -21 -55 -25
c-20 -5 -39 -4 -36 15c2 12 16 19 29 15c4 -1 9 0 14 2c63 23 77 99 68 190c-7 -14 -15 -26 -25 -36zM112 281c1 -2 2 -3 4 -5c3 -4 6 -17 6 -39c2 -42 70 -358 168 -278c80 65 13 290 -42 357c-41 50 -73 65 -98 44c-19 -15 -30 -41 -35 -79h-3z" />
    <glyph glyph-name="uniFEEE" unicode="&#x648;" horiz-adv-x="444" arabic-form="final" 
d="M444 -81c-22 0 -40 6 -55 16c-2 -53 -14 -122 -54 -159c-15 -14 -35 -22 -55 -26c-21 -5 -39 -3 -36 15c2 12 16 19 29 16c4 -1 8 -1 13 1c64 23 77 99 68 190c-6 -13 -14 -25 -23 -34c-25 -24 -53 -32 -85 -25c-94 20 -145 151 -170 230c-9 32 -42 128 13 143
c-16 24 18 88 38 104c46 38 92 28 132 -9c2 31 33 46 51 8c10 -22 20 -57 32 -107c20 -84 35 -169 43 -255c2 -18 2 -32 12 -47s25 -24 47 -24c8 0 14 -9 14 -19c0 -9 -6 -18 -14 -18zM112 281l5 -5c3 -4 5 -17 6 -39c2 -42 70 -358 167 -278c80 65 14 290 -41 357
c-41 50 -73 65 -98 44c-19 -15 -31 -41 -36 -79h-3z" />
    <glyph glyph-name="uni0649" unicode="&#x649;" horiz-adv-x="801" arabic-form="isolated" 
d="M44 73c53 -276 694 -69 680 30c-13 87 -223 12 -223 94c0 32 26 75 79 125c52 52 96 77 132 77c10 0 23 -4 37 -12c18 -9 26 -19 26 -31c0 -15 -6 -22 -18 -22c-2 0 -8 3 -20 9c-11 7 -20 10 -25 10c-23 2 -56 -15 -96 -49c-42 -37 -63 -69 -63 -94c0 -13 24 -21 73 -21
c94 0 151 -27 142 -79c-44 -247 -793 -328 -765 -42c25 259 430 272 430 176c0 -15 -8 -23 -26 -23c-8 0 -35 -7 -44 14c-27 66 -350 5 -319 -162z" />
    <glyph glyph-name="uniFBE8" unicode="&#x649;" horiz-adv-x="154" arabic-form="initial" 
d="M0 -81c-8 0 -14 9 -14 18c0 10 6 19 14 19c131 0 20 314 20 376c0 21 9 31 27 31c22 0 40 -37 53 -111c14 -80 46 -333 -100 -333z" />
    <glyph glyph-name="uniFBE9" unicode="&#x649;" horiz-adv-x="175" arabic-form="medial" 
d="M175 -81c-43 0 -71 22 -88 54c-17 -32 -44 -54 -87 -54c-8 0 -14 9 -14 18c0 10 6 19 14 19c133 0 20 316 20 376c0 21 9 31 27 31c107 0 -3 -407 128 -407c8 0 14 -9 14 -19c0 -9 -6 -18 -14 -18z" />
    <glyph glyph-name="uniFEF0" unicode="&#x649;" horiz-adv-x="697" arabic-form="final" 
d="M697 -44c8 0 14 -9 14 -19c0 -9 -6 -18 -14 -18c-107 0 -216 5 -318 -28c-28 -9 -41 -18 -38 -26c15 -48 226 -61 310 -64c63 -3 79 -28 6 -79c-132 -93 -260 -134 -435 -116c-112 11 -210 78 -221 173c-6 52 23 132 69 172c38 32 97 20 32 -21c-43 -33 -73 -91 -62 -147
c14 -72 91 -121 171 -133c158 -23 302 39 438 113c-113 19 -281 2 -336 79c-4 6 -7 11 -9 17c-30 94 215 97 257 97h136z" />
    <glyph glyph-name="uni064A" unicode="&#x64a;" horiz-adv-x="814" arabic-form="isolated" 
d="M47 148c53 -276 694 -69 680 30c-13 87 -223 12 -223 94c0 32 26 75 79 125c52 52 96 77 132 77c10 0 23 -4 37 -12c18 -9 26 -19 26 -31c0 -15 -6 -22 -18 -22c-2 0 -8 3 -20 9c-11 7 -20 10 -25 10c-23 2 -56 -15 -96 -49c-42 -37 -63 -69 -63 -94c0 -13 24 -21 73 -21
c94 0 151 -27 142 -79c-44 -247 -793 -328 -765 -42c25 259 430 272 430 176c0 -15 -8 -23 -26 -23c-8 0 -35 -7 -44 14c-27 66 -350 5 -319 -162zM276 -159c-10 0 -20 4 -30 11c-10 8 -16 17 -16 28c0 22 11 32 33 32c34 0 50 -9 50 -27c0 -29 -12 -44 -37 -44zM364 -159
c-10 0 -20 4 -31 11c-10 8 -15 17 -15 28c0 22 11 32 33 32c33 0 49 -9 49 -27c0 -29 -12 -44 -36 -44z" />
    <glyph glyph-name="uniFEF3" unicode="&#x64a;" horiz-adv-x="155" arabic-form="initial" 
d="M0 -81c-8 0 -14 9 -14 18c0 10 6 19 14 19c131 0 20 314 20 376c0 21 9 31 27 31c22 0 40 -37 53 -111c14 -80 46 -333 -100 -333zM33 -189c25 0 37 15 37 44c0 18 -16 27 -50 27c-22 0 -33 -10 -33 -32c0 -11 6 -20 16 -28c10 -7 20 -11 30 -11zM121 -189
c24 0 36 15 36 44c0 18 -16 27 -49 27c-22 0 -33 -10 -33 -32c0 -11 5 -20 15 -28c11 -7 21 -11 31 -11z" />
    <glyph glyph-name="uniFEF4" unicode="&#x64a;" horiz-adv-x="175" arabic-form="medial" 
d="M175 -81c-43 0 -71 22 -88 54c-17 -32 -44 -54 -87 -54c-8 0 -14 9 -14 18c0 10 6 19 14 19c133 0 20 316 20 376c0 21 9 31 27 31c107 0 -3 -407 128 -407c8 0 14 -9 14 -19c0 -9 -6 -18 -14 -18zM48 -188c-10 0 -20 4 -30 11c-10 8 -16 17 -16 28c0 22 11 32 33 32
c34 0 50 -9 50 -27c0 -29 -12 -44 -37 -44zM136 -188c-10 0 -20 4 -31 11c-10 8 -15 17 -15 28c0 22 11 32 33 32c33 0 49 -9 49 -27c0 -29 -12 -44 -36 -44z" />
    <glyph glyph-name="uniFEF2" unicode="&#x64a;" horiz-adv-x="699" arabic-form="final" 
d="M698 -44c8 0 14 -9 14 -19c0 -9 -6 -18 -14 -18c-107 0 -216 5 -318 -28c-28 -9 -41 -18 -38 -26c15 -48 226 -61 310 -64c63 -3 79 -28 6 -79c-132 -93 -260 -134 -435 -116c-112 11 -210 78 -221 173c-6 52 23 132 69 172c38 32 97 20 32 -21c-43 -33 -73 -91 -62 -147
c14 -72 91 -121 171 -133c158 -23 302 39 438 113c-113 19 -281 2 -336 79c-4 6 -7 11 -9 17c-30 94 215 97 257 97h136zM235 -534c-10 0 -20 4 -30 11c-10 8 -16 17 -16 28c0 22 11 32 33 32c34 0 50 -9 50 -27c0 -29 -12 -44 -37 -44zM323 -534c-10 0 -20 4 -31 11
c-10 8 -15 17 -15 28c0 22 11 32 33 32c33 0 49 -9 49 -27c0 -29 -12 -44 -36 -44z" />
    <glyph glyph-name="uni0671" unicode="&#x671;" horiz-adv-x="281" arabic-form="isolated" 
d="M9 683c-51 15 -74 168 -9 154c8 -1 26 -13 25 -22c17 3 23 -28 24 -38c6 -25 10 -70 -13 -89c-8 -6 -17 -8 -27 -5zM19 810c0 0 0 -1 -1 -1c-5 10 -13 16 -20 17c-11 2 -17 -7 -21 -26c-6 -27 8 -98 40 -105c39 -8 11 89 6 101c-3 6 -4 9 -4 12v2zM124 109
c32 -98 55 -171 157 -190c-114 58 -169 438 -185 536c-8 46 -9 190 -48 190c-12 0 -23 -14 -23 -48c0 -4 1 -9 1 -13c10 -132 51 -325 98 -475z" />
    <glyph glyph-name="uniFB51" unicode="&#x671;" horiz-adv-x="260" arabic-form="final" 
d="M260 -44c-112 2 -155 418 -163 499c-5 45 -10 190 -48 190c-12 0 -22 -14 -22 -46c0 -29 6 -70 14 -122c18 -107 75 -558 219 -558c8 0 14 9 14 18c0 10 -6 19 -14 19zM9 683c-51 15 -74 168 -9 154c8 -1 26 -13 25 -22c17 3 23 -28 24 -38c6 -25 10 -70 -13 -89
c-8 -6 -17 -8 -27 -5zM23 796c-3 6 -4 9 -4 12v1h-1c-5 10 -13 16 -20 17c-11 2 -17 -7 -21 -26c-6 -27 8 -98 40 -105c39 -8 11 89 6 101z" />
    <glyph glyph-name="uni0679" unicode="&#x679;" horiz-adv-x="783" arabic-form="isolated" 
d="M3 125c13 73 74 158 146 164c25 3 32 -22 9 -32c-63 -23 -117 -72 -116 -145c0 -75 46 -129 138 -165c89 -34 433 -65 493 36c45 78 -29 299 -29 349c0 21 9 31 26 31c23 0 40 -37 53 -111c11 -61 32 -223 -24 -296c-63 -83 -305 -89 -393 -81c-39 3 -81 12 -124 26
c-98 33 -200 108 -179 224zM393 448c2 -3 3 -6 5 -8c6 -7 9 -12 9 -13c0 -5 -1 -8 -6 -8c-3 0 -6 3 -11 11c-4 6 -7 12 -10 18c-19 1 -43 20 -26 15c1 0 21 -4 21 -3c-21 43 -32 87 -38 133c-3 12 -3 21 -4 27c-2 24 13 20 15 3v-11c1 -10 3 -19 3 -25c3 -14 7 -48 17 -80
c0 19 4 35 13 48c19 27 54 22 79 9c31 -16 63 -48 60 -76c-3 -52 -93 -42 -127 -40zM387 459c26 0 95 -8 115 12c27 27 -20 73 -58 88c-22 11 -48 6 -60 -17c-12 -24 -6 -61 3 -83z" />
    <glyph glyph-name="uniFB68" unicode="&#x679;" horiz-adv-x="177" arabic-form="initial" 
d="M0 -81c-8 0 -14 9 -14 18c0 10 6 19 14 19c131 0 20 314 20 376c0 21 9 31 27 31c22 0 40 -37 53 -111c14 -80 46 -333 -100 -333zM29 452c2 -3 3 -6 5 -8c6 -7 9 -12 9 -13c0 -5 -1 -8 -6 -8c-3 0 -6 3 -11 11c-4 6 -7 12 -10 18c-19 1 -43 20 -26 15c1 0 21 -4 21 -3
c-21 43 -32 87 -38 133c-3 12 -3 21 -4 27c-2 24 13 20 15 3v-11c1 -10 3 -19 3 -25c3 -14 7 -48 17 -80c0 19 4 35 13 48c19 27 54 22 79 9c31 -16 63 -48 60 -76c-3 -52 -93 -42 -127 -40zM23 463c26 0 95 -8 115 12c27 27 -20 73 -58 88c-22 11 -48 6 -60 -17
c-12 -24 -6 -61 3 -83z" />
    <glyph glyph-name="uniFB69" unicode="&#x679;" horiz-adv-x="176" arabic-form="medial" 
d="M175 -81c8 0 14 9 14 18c0 10 -6 19 -14 19c-131 0 -21 407 -128 407c-18 0 -27 -10 -27 -31c0 -60 113 -376 -20 -376c-8 0 -14 -9 -14 -19c0 -9 6 -18 14 -18c43 0 70 22 87 54c17 -32 45 -54 88 -54zM40 427c2 -3 3 -6 5 -8c6 -7 9 -12 9 -13c0 -5 -1 -8 -6 -8
c-3 0 -6 3 -11 11c-4 6 -7 12 -10 18c-19 1 -43 20 -26 15c1 0 21 -4 21 -3c-21 43 -32 87 -38 133c-3 12 -3 21 -4 27c-2 24 13 20 15 3v-11c1 -10 3 -19 3 -25c3 -14 7 -48 17 -80c0 19 4 35 13 48c19 27 54 22 79 9c31 -16 63 -48 60 -76c-3 -52 -93 -42 -127 -40z
M34 438c26 0 95 -8 115 12c27 27 -20 73 -58 88c-22 11 -48 6 -60 -17c-12 -24 -6 -61 3 -83z" />
    <glyph glyph-name="uniFB67" unicode="&#x679;" horiz-adv-x="802" arabic-form="final" 
d="M800 -44c-131 0 -20 407 -128 407c-17 0 -26 -10 -26 -31c0 -52 86 -301 19 -363c-92 -83 -387 -59 -485 -22c-92 36 -138 90 -138 165c-1 73 53 122 116 145c23 10 16 35 -9 32c-72 -6 -133 -91 -146 -164c-21 -116 81 -191 179 -224c43 -14 85 -23 124 -26
c93 -9 291 1 375 60c13 10 24 23 32 39c18 -34 46 -53 87 -55c8 0 14 9 14 18c0 10 -6 19 -14 19zM369 448c2 -3 3 -6 5 -8c6 -7 9 -12 9 -13c0 -5 -1 -8 -6 -8c-3 0 -6 3 -11 11c-4 6 -7 12 -10 18c-19 1 -43 20 -26 15c1 0 21 -4 21 -3c-21 43 -32 87 -38 133
c-3 12 -3 21 -4 27c-2 24 13 20 15 3v-11c1 -10 3 -19 3 -25c3 -14 7 -48 17 -80c0 19 4 35 13 48c19 27 54 22 79 9c31 -16 63 -48 60 -76c-3 -52 -93 -42 -127 -40zM363 459c26 0 95 -8 115 12c27 27 -20 73 -58 88c-22 11 -48 6 -60 -17c-12 -24 -6 -61 3 -83z" />
    <glyph glyph-name="uni067E" unicode="&#x67e;" horiz-adv-x="780" arabic-form="isolated" 
d="M3 125c13 73 74 158 146 164c25 3 32 -22 9 -32c-63 -23 -117 -72 -116 -145c0 -75 46 -129 138 -165c89 -34 433 -65 493 36c45 78 -29 299 -29 349c0 21 9 31 26 31c23 0 40 -37 53 -111c11 -61 32 -223 -24 -296c-63 -83 -305 -89 -393 -81c-39 3 -81 12 -124 26
c-98 33 -200 108 -179 224zM296 -153c-24 0 -36 -15 -36 -44c0 -18 16 -27 49 -27c22 0 33 10 33 32c0 11 -5 20 -15 28c-10 7 -21 11 -31 11zM356 -249c-25 0 -37 -14 -37 -44c0 -18 17 -27 50 -27c22 0 33 11 33 32c0 11 -6 20 -16 28c-10 7 -20 11 -30 11zM397 -154
c-25 0 -37 -15 -37 -44c0 -18 17 -27 50 -27c22 0 33 10 33 32c0 11 -6 20 -16 28c-10 7 -20 11 -30 11z" />
    <glyph glyph-name="uniFB58" unicode="&#x67e;" horiz-adv-x="164" arabic-form="initial" 
d="M0 -81c-8 0 -14 9 -14 18c0 10 6 19 14 19c131 0 20 314 20 376c0 21 9 31 27 31c22 0 40 -37 53 -111c14 -80 46 -333 -100 -333zM15 -131c-24 0 -36 -15 -36 -44c0 -18 16 -27 49 -27c22 0 33 10 33 32c0 11 -5 20 -15 28c-10 7 -21 11 -31 11zM75 -227
c-25 0 -37 -14 -37 -44c0 -18 17 -27 50 -27c22 0 33 11 33 32c0 11 -6 20 -16 28c-10 7 -20 11 -30 11zM116 -132c-25 0 -37 -15 -37 -44c0 -18 17 -27 50 -27c22 0 33 10 33 32c0 11 -6 20 -16 28c-10 7 -20 11 -30 11z" />
    <glyph glyph-name="uniFB59" unicode="&#x67e;" horiz-adv-x="176" arabic-form="medial" 
d="M175 -81c-43 0 -71 22 -88 54c-17 -32 -44 -54 -87 -54c-8 0 -14 9 -14 18c0 10 6 19 14 19c133 0 20 316 20 376c0 21 9 31 27 31c107 0 -3 -407 128 -407c8 0 14 -9 14 -19c0 -9 -6 -18 -14 -18zM30 -119c10 0 21 -4 31 -11c10 -8 15 -17 15 -28c0 -22 -11 -32 -33 -32
c-33 0 -49 9 -49 27c0 29 12 44 36 44zM90 -215c10 0 20 -4 30 -11c10 -8 16 -17 16 -28c0 -21 -11 -32 -33 -32c-33 0 -50 9 -50 27c0 30 12 44 37 44zM131 -120c10 0 20 -4 30 -11c10 -8 16 -17 16 -28c0 -22 -11 -32 -33 -32c-33 0 -50 9 -50 27c0 29 12 44 37 44z" />
    <glyph glyph-name="uniFB57" unicode="&#x67e;" horiz-adv-x="803" arabic-form="final" 
d="M800 -44c8 0 14 -9 14 -19c0 -9 -6 -18 -14 -18c-41 2 -69 21 -87 55c-8 -16 -19 -29 -32 -39c-84 -59 -282 -69 -375 -60c-39 3 -81 12 -124 26c-98 33 -200 108 -179 224c13 73 74 158 146 164c25 3 32 -22 9 -32c-63 -23 -117 -72 -116 -145c0 -75 46 -129 138 -165
c98 -37 393 -61 485 22c67 62 -19 311 -19 363c0 21 9 31 26 31c108 0 -3 -407 128 -407zM359 -149c10 0 21 -4 31 -11c10 -8 15 -17 15 -28c0 -22 -11 -32 -33 -32c-33 0 -49 9 -49 27c0 29 12 44 36 44zM419 -245c10 0 20 -4 30 -11c10 -8 16 -17 16 -28
c0 -21 -11 -32 -33 -32c-33 0 -50 9 -50 27c0 30 12 44 37 44zM460 -150c10 0 20 -4 30 -11c10 -8 16 -17 16 -28c0 -22 -11 -32 -33 -32c-33 0 -50 9 -50 27c0 29 12 44 37 44z" />
    <glyph glyph-name="uni0686" unicode="&#x686;" horiz-adv-x="677" arabic-form="isolated" 
d="M274 -80c-24 0 -36 -15 -36 -44c0 -18 16 -27 49 -27c22 0 33 10 33 32c0 11 -5 20 -15 28c-10 7 -21 11 -31 11zM334 -176c-25 0 -37 -14 -37 -44c0 -18 17 -27 50 -27c22 0 33 11 33 32c0 11 -6 20 -16 28c-10 7 -20 11 -30 11zM375 -81c-25 0 -37 -15 -37 -44
c0 -18 17 -27 50 -27c22 0 33 10 33 32c0 11 -6 20 -16 28c-10 7 -20 11 -30 11zM600 148c0 -40 -22 -60 -61 -82c-127 -71 -487 -107 -487 -258c0 -95 127 -147 263 -150c127 0 272 49 272 107c0 38 -53 33 -53 57c0 6 6 15 17 15c55 0 85 -54 85 -80
c0 -75 -163 -148 -315 -148c-163 0 -321 83 -321 197c0 200 550 275 550 327c0 115 -309 229 -404 229c-50 0 -75 -20 -75 -60c0 -32 44 -97 44 -112c0 -17 -10 -25 -31 -25c-26 0 -54 99 -54 125c0 70 51 123 121 123c116 0 449 -143 449 -265z" />
    <glyph glyph-name="uniFB7C" unicode="&#x686;" horiz-adv-x="679" arabic-form="initial" 
d="M0 -44c154 14 562 70 594 177c-6 115 -309 229 -404 229c-50 0 -75 -20 -75 -60c0 -32 44 -97 44 -112c0 -17 -10 -25 -31 -25c-26 0 -54 99 -54 125c0 70 51 123 121 123c116 0 449 -143 449 -265c0 -159 -470 -217 -644 -229c-8 0 -14 9 -14 18c0 10 6 19 14 19z
M237 -102c-24 0 -36 -15 -36 -44c0 -18 16 -27 49 -27c22 0 33 10 33 32c0 11 -5 20 -15 28c-10 7 -21 11 -31 11zM297 -198c-25 0 -37 -14 -37 -44c0 -18 17 -27 50 -27c22 0 33 11 33 32c0 11 -6 20 -16 28c-10 7 -20 11 -30 11zM338 -103c-25 0 -37 -15 -37 -44
c0 -18 17 -27 50 -27c22 0 33 10 33 32c0 11 -6 20 -16 28c-10 7 -20 11 -30 11z" />
    <glyph glyph-name="uniFB7D" unicode="&#x686;" horiz-adv-x="672" arabic-form="medial" 
d="M0 -81c-8 0 -14 9 -14 18c0 10 6 19 14 19c130 13 286 56 406 101c110 42 165 67 165 76c0 115 -309 229 -404 229c-50 0 -75 -20 -75 -60c0 -32 44 -97 44 -112c0 -17 -10 -25 -31 -25c-25 0 -54 101 -54 125c0 70 52 123 121 123c116 0 449 -143 449 -265
c0 -100 -190 -120 -263 -151c43 -40 154 -41 193 -41h120c8 0 14 -9 14 -19c0 -9 -6 -18 -14 -18c-133 0 -267 -5 -368 61c-79 -27 -154 -54 -303 -61zM230 -107c10 0 21 -4 31 -11c10 -8 15 -17 15 -28c0 -22 -11 -32 -33 -32c-33 0 -49 9 -49 27c0 29 12 44 36 44z
M290 -203c10 0 20 -4 30 -11c10 -8 16 -17 16 -28c0 -21 -11 -32 -33 -32c-33 0 -50 9 -50 27c0 30 12 44 37 44zM331 -108c10 0 20 -4 30 -11c10 -8 16 -17 16 -28c0 -22 -11 -32 -33 -32c-33 0 -50 9 -50 27c0 29 12 44 37 44z" />
    <glyph glyph-name="uniFB7B" unicode="&#x686;" horiz-adv-x="648" arabic-form="final" 
d="M530 -44h117c8 0 14 -9 14 -19c0 -9 -6 -18 -14 -18c-53 0 -105 -1 -160 -1c-56 0 -123 10 -167 40c-14 9 -32 22 -38 22c-5 0 -12 -3 -15 -4c-75 -26 -215 -68 -215 -168c0 -95 129 -147 263 -150c127 0 272 49 272 107c0 5 -2 11 -5 16c-20 30 -48 20 -48 42
c0 5 6 14 18 14c54 0 84 -54 84 -80c0 -75 -163 -148 -315 -148c-163 0 -321 82 -321 197c-1 151 254 218 383 254c111 31 167 56 167 73c0 115 -308 229 -404 229c-50 0 -75 -20 -75 -60c0 -32 44 -97 44 -112c0 -17 -10 -25 -31 -25c-25 0 -54 101 -54 125
c0 70 52 123 122 123c116 0 448 -143 448 -265c0 -100 -190 -120 -263 -151c44 -40 154 -41 193 -41zM245 -104c10 0 21 -4 31 -11c10 -8 15 -17 15 -28c0 -22 -11 -32 -33 -32c-33 0 -49 9 -49 27c0 29 12 44 36 44zM305 -200c10 0 20 -4 30 -11c10 -8 16 -17 16 -28
c0 -21 -11 -32 -33 -32c-33 0 -50 9 -50 27c0 30 12 44 37 44zM346 -105c10 0 20 -4 30 -11c10 -8 16 -17 16 -28c0 -22 -11 -32 -33 -32c-33 0 -50 9 -50 27c0 29 12 44 37 44z" />
    <glyph glyph-name="uni0688" unicode="&#x688;" horiz-adv-x="559" arabic-form="isolated" 
d="M131 -90c-27 10 -44 21 -52 35c-2 2 -2 5 -2 8c3 7 15 12 22 7c17 -10 26 -16 26 -16c58 -21 125 -13 201 26c74 38 122 87 144 146c18 48 13 94 -15 138c-26 41 -65 71 -117 91c-35 13 -75 21 -118 24c-45 4 -84 1 -119 -7c-34 -9 -53 -13 -57 -11c-15 5 -20 15 -15 30
c4 9 20 16 49 21c94 17 185 8 274 -25c57 -21 101 -56 133 -106c34 -55 41 -110 20 -167c-26 -68 -76 -123 -152 -166c-80 -44 -154 -53 -222 -28zM82 507c2 -3 3 -6 5 -8c6 -7 9 -12 9 -13c0 -5 -1 -8 -6 -8c-3 0 -6 3 -11 11c-4 6 -7 12 -10 18c-19 1 -43 20 -26 15
c1 0 21 -4 21 -3c-21 43 -32 87 -38 133c-3 12 -3 21 -4 27c-2 24 13 20 15 3v-11c1 -10 3 -19 3 -25c3 -14 7 -48 17 -80c0 19 4 35 13 48c19 27 54 22 79 9c31 -16 63 -48 60 -76c-3 -52 -93 -42 -127 -40zM76 518c26 0 95 -8 115 12c27 27 -20 73 -58 88
c-22 11 -48 6 -60 -17c-12 -24 -6 -61 3 -83z" />
    <glyph glyph-name="uniFB89" unicode="&#x688;" horiz-adv-x="574" arabic-form="final" 
d="M570 -81c8 0 14 9 14 18c0 10 -6 19 -14 19c-67 0 -70 83 -58 172c12 48 3 96 -27 143c-31 50 -76 85 -133 106c-88 33 -180 42 -274 25c-29 -5 -45 -12 -48 -21c-6 -15 -1 -25 15 -30c3 -2 22 2 57 11c34 8 74 11 118 7c44 -3 83 -11 118 -24c52 -20 91 -50 117 -91
c28 -44 33 -90 15 -138c-22 -59 -70 -108 -144 -146c-75 -39 -142 -47 -201 -26c0 0 -9 6 -26 16c-7 5 -18 0 -21 -7c-1 -3 -1 -6 1 -8c8 -14 25 -25 52 -35c69 -25 143 -16 222 28c47 26 84 57 111 93c12 -62 42 -112 106 -112zM80 507c2 -3 3 -6 5 -8c6 -7 9 -12 9 -13
c0 -5 -1 -8 -6 -8c-3 0 -6 3 -11 11c-4 6 -7 12 -10 18c-19 1 -43 20 -26 15c1 0 21 -4 21 -3c-21 43 -32 87 -38 133c-3 12 -3 21 -4 27c-2 24 13 20 15 3v-11c1 -10 3 -19 3 -25c3 -14 7 -48 17 -80c0 19 4 35 13 48c19 27 54 22 79 9c31 -16 63 -48 60 -76
c-3 -52 -93 -42 -127 -40zM74 518c26 0 95 -8 115 12c27 27 -20 73 -58 88c-22 11 -48 6 -60 -17c-12 -24 -6 -61 3 -83z" />
    <glyph glyph-name="uni0691" unicode="&#x691;" horiz-adv-x="198" arabic-form="isolated" 
d="M145 -20c2 -51 -2 -154 -55 -204c-14 -14 -34 -22 -55 -26c-20 -5 -39 -3 -36 15c3 12 16 19 29 16c4 -1 9 -1 14 1c163 59 -5 465 -27 593c-4 34 31 55 50 14c10 -22 21 -57 33 -107c20 -84 34 -169 43 -255c1 -17 3 -33 4 -47zM27 482c2 -3 3 -6 5 -8c6 -7 9 -12 9 -13
c0 -5 -1 -8 -6 -8c-3 0 -6 3 -11 11c-4 6 -7 12 -10 18c-19 1 -43 20 -26 15c1 0 21 -4 21 -3c-21 43 -32 87 -38 133c-3 12 -3 21 -4 27c-2 24 13 20 15 3v-11c1 -10 3 -19 3 -25c3 -14 7 -48 17 -80c0 19 4 35 13 48c19 27 54 22 79 9c31 -16 63 -48 60 -76
c-3 -52 -93 -42 -127 -40zM21 493c26 0 95 -8 115 12c27 27 -20 73 -58 88c-22 11 -48 6 -60 -17c-12 -24 -6 -61 3 -83z" />
    <glyph glyph-name="uniFB8D" unicode="&#x691;" horiz-adv-x="200" arabic-form="final" 
d="M200 -81c8 0 14 9 14 18c0 10 -6 19 -14 19c-22 0 -38 9 -48 24s-10 29 -11 47c-5 86 -23 171 -43 255c-12 50 -23 85 -33 107c-19 41 -54 20 -50 -14c22 -128 190 -534 27 -593c-5 -2 -10 -2 -14 -1c-13 3 -27 -4 -29 -16c-3 -18 16 -20 36 -15c21 4 41 12 55 26
c40 37 52 106 55 159c14 -10 32 -16 55 -16zM10 450c2 -3 3 -6 5 -8c6 -7 9 -12 9 -13c0 -5 -1 -8 -6 -8c-3 0 -6 3 -11 11c-4 6 -7 12 -10 18c-19 1 -43 20 -26 15c1 0 21 -4 21 -3c-21 43 -32 87 -38 133c-3 12 -3 21 -4 27c-2 24 13 20 15 3v-11c1 -10 3 -19 3 -25
c3 -14 7 -48 17 -80c0 19 4 35 13 48c19 27 54 22 79 9c31 -16 63 -48 60 -76c-3 -52 -93 -42 -127 -40zM4 461c26 0 95 -8 115 12c27 27 -20 73 -58 88c-22 11 -48 6 -60 -17c-12 -24 -6 -61 3 -83z" />
    <glyph glyph-name="uni0698" unicode="&#x698;" horiz-adv-x="193" arabic-form="isolated" 
d="M145 -20c2 -51 -2 -154 -55 -204c-14 -14 -34 -22 -55 -26c-20 -5 -39 -3 -36 15c3 12 16 19 29 16c4 -1 9 -1 14 1c163 59 -5 465 -27 593c-4 34 31 55 50 14c10 -22 21 -57 33 -107c20 -84 34 -169 43 -255c1 -17 3 -33 4 -47zM73 548c-10 0 -20 4 -30 11
c-10 8 -16 17 -16 28c0 21 11 32 33 32c33 0 50 -9 50 -27c0 -30 -12 -44 -37 -44zM32 453c-10 0 -20 4 -30 11c-10 8 -16 17 -16 28c0 22 11 32 33 32c33 0 50 -9 50 -27c0 -29 -12 -44 -37 -44zM122 453c-10 0 -21 4 -31 11c-10 8 -15 17 -15 28c0 22 11 32 33 32
c33 0 49 -9 49 -27c0 -29 -12 -44 -36 -44z" />
    <glyph glyph-name="uniFB8B" unicode="&#x698;" horiz-adv-x="200" arabic-form="final" 
d="M200 -81c-23 0 -41 6 -55 16c-3 -53 -15 -122 -55 -159c-14 -14 -34 -22 -55 -26c-20 -5 -39 -3 -36 15c2 12 16 19 29 16c4 -1 9 -1 14 1c163 59 -5 465 -27 593c-4 34 31 55 50 14c10 -22 21 -57 33 -107c20 -84 38 -169 43 -255c1 -18 1 -32 11 -47s26 -24 48 -24
c8 0 14 -9 14 -19c0 -9 -6 -18 -14 -18zM32 560c-10 0 -20 4 -30 11c-10 8 -16 17 -16 28c0 21 11 32 33 32c33 0 50 -9 50 -27c0 -30 -12 -44 -37 -44zM-9 465c-10 0 -20 4 -30 11c-10 8 -16 17 -16 28c0 22 11 32 33 32c33 0 50 -9 50 -27c0 -29 -12 -44 -37 -44zM81 465
c-10 0 -21 4 -31 11c-10 8 -15 17 -15 28c0 22 11 32 33 32c33 0 49 -9 49 -27c0 -29 -12 -44 -36 -44z" />
    <glyph glyph-name="uni06A4" unicode="&#x6a4;" horiz-adv-x="787" arabic-form="isolated" 
d="M690 -54c-6 -5 -12 -10 -18 -14c-166 -111 -720 -90 -669 195c13 73 74 157 146 164c25 2 32 -22 9 -32c-63 -23 -117 -73 -116 -145c0 -75 46 -130 138 -165c66 -25 272 -49 399 -19c-78 36 -122 150 -144 222c-10 31 -42 127 13 143c-17 23 18 88 38 103
c164 135 326 -333 204 -452zM471 289c2 -1 3 -3 5 -5c3 -4 5 -17 6 -39c2 -42 70 -358 167 -278c80 66 14 290 -41 358c-41 49 -74 64 -98 44c-19 -16 -31 -42 -36 -80h-3zM416 592c-10 0 -20 4 -30 11c-10 8 -16 17 -16 28c0 21 11 32 33 32c33 0 50 -9 50 -27
c0 -30 -12 -44 -37 -44zM375 497c-10 0 -20 4 -30 11c-10 8 -16 17 -16 28c0 22 11 32 33 32c33 0 50 -9 50 -27c0 -29 -12 -44 -37 -44zM465 497c-10 0 -21 4 -31 11c-10 8 -15 17 -15 28c0 22 11 32 33 32c33 0 49 -9 49 -27c0 -29 -12 -44 -36 -44z" />
    <glyph glyph-name="uniFB6C" unicode="&#x6a4;" horiz-adv-x="387" arabic-form="initial" 
d="M155 595c-10 0 -20 4 -30 11c-10 8 -16 17 -16 28c0 21 11 32 33 32c33 0 50 -9 50 -27c0 -30 -12 -44 -37 -44zM114 500c-10 0 -20 4 -30 11c-10 8 -16 17 -16 28c0 22 11 32 33 32c33 0 50 -9 50 -27c0 -29 -12 -44 -37 -44zM204 500c-10 0 -21 4 -31 11
c-10 8 -15 17 -15 28c0 22 11 32 33 32c33 0 49 -9 49 -27c0 -29 -12 -44 -36 -44zM0 -81c-8 0 -14 9 -14 18c0 10 6 19 14 19h161c-54 49 -88 137 -106 196c-10 31 -42 127 13 143c-17 23 18 88 38 103c164 135 326 -333 204 -452c-20 -19 -42 -28 -67 -27
c-103 0 187 0 -243 0zM91 289c2 -1 3 -3 5 -5c3 -4 5 -17 6 -39c1 -21 66 -362 167 -278c80 66 14 290 -41 358c-41 49 -74 64 -98 44c-19 -16 -31 -42 -36 -80h-3z" />
    <glyph glyph-name="uniFB6D" unicode="&#x6a4;" horiz-adv-x="417" arabic-form="medial" 
d="M192 576c-10 0 -20 4 -30 11c-10 8 -16 17 -16 28c0 21 11 32 33 32c33 0 50 -9 50 -27c0 -30 -12 -44 -37 -44zM151 481c-10 0 -20 4 -30 11c-10 8 -16 17 -16 28c0 22 11 32 33 32c33 0 50 -9 50 -27c0 -29 -12 -44 -37 -44zM241 481c-10 0 -21 4 -31 11
c-10 8 -15 17 -15 28c0 22 11 32 33 32c33 0 49 -9 49 -27c0 -29 -12 -44 -36 -44zM-13 -44c1 0 -24 0 187 0c-55 49 -88 137 -106 196c-10 31 -42 127 13 143c-17 23 18 88 37 103c161 132 319 -310 213 -442h87c8 0 14 -9 14 -19c0 -9 -6 -18 -14 -18h-139v2
c-6 -1 -11 -2 -23 -2c-292 0 -60 0 -3 0h-266c-8 0 -14 9 -14 19c0 9 6 18 14 18zM115 245c1 -21 66 -364 167 -278c80 66 14 290 -41 358c-41 49 -74 64 -98 44c-19 -16 -31 -42 -36 -80h-3c2 -1 3 -3 4 -5c4 -4 6 -17 7 -39z" />
    <glyph glyph-name="uniFB6B" unicode="&#x6a4;" horiz-adv-x="819" arabic-form="final" 
d="M816 -81h-166c-172 -92 -697 -71 -647 208c13 73 74 157 146 164c25 2 32 -22 9 -32c-63 -23 -117 -73 -116 -145c0 -75 46 -130 138 -165c65 -25 269 -49 396 -19c-78 35 -123 150 -145 222c-10 31 -42 127 13 143c-17 23 18 88 38 103c160 132 318 -310 212 -442h122
c8 0 14 -9 14 -19c0 -9 -6 -18 -14 -18zM467 289c2 -1 3 -3 5 -5c3 -4 5 -17 6 -39c2 -42 70 -358 167 -278c80 66 14 290 -41 358c-41 49 -74 64 -98 44c-19 -16 -31 -42 -36 -80h-3zM497 582c-10 0 -20 4 -30 11c-10 8 -16 17 -16 28c0 21 11 32 33 32c33 0 50 -9 50 -27
c0 -30 -12 -44 -37 -44zM456 487c-10 0 -20 4 -30 11c-10 8 -16 17 -16 28c0 22 11 32 33 32c33 0 50 -9 50 -27c0 -29 -12 -44 -37 -44zM546 487c-10 0 -21 4 -31 11c-10 8 -15 17 -15 28c0 22 11 32 33 32c33 0 49 -9 49 -27c0 -29 -12 -44 -36 -44z" />
    <glyph glyph-name="uni06A9" unicode="&#x6a9;" horiz-adv-x="769" arabic-form="isolated" 
d="M486 330c-3 0 -6 2 -9 4c-3 3 -4 5 -3 8c1 10 2 15 2 15c0 13 -5 19 -16 19c-19 0 -49 -14 -89 -42c-40 -29 -60 -51 -60 -67c0 -6 7 -12 23 -16c8 -2 28 -6 61 -10c29 -5 50 -10 63 -15c21 -8 31 -20 31 -36c0 -18 -12 -35 -36 -51c-23 -16 -46 -23 -67 -23h-11
c-14 0 -27 4 -39 11c-14 8 -22 18 -22 30c0 3 2 8 4 13c3 6 5 10 8 10h1c5 0 8 -3 8 -8c0 -2 0 -4 -1 -7s-2 -5 -2 -6c0 -7 5 -13 13 -17s17 -6 27 -6c22 0 43 5 62 16c22 12 33 26 33 43c0 9 -9 16 -27 21c-8 2 -28 5 -58 10c-14 1 -35 5 -63 11c-21 6 -32 15 -32 26
c0 29 23 58 68 89c42 28 78 42 109 42v0c25 0 38 -13 38 -40c0 -4 -1 -9 -4 -14c-4 -6 -7 -10 -12 -10zM153 289c23 0 28 -23 6 -32c-63 -23 -117 -73 -116 -145c0 -75 47 -130 138 -165c104 -40 341 -49 442 -4c61 26 69 74 68 139c-4 137 -71 341 -85 390
c-6 22 -16 52 -30 92c-4 13 -8 26 -13 39c-13 36 -3 64 14 64c11 0 26 -14 39 -48c10 -26 20 -60 32 -104c28 -102 51 -207 68 -313c6 -42 13 -81 13 -121c3 -86 -13 -136 -89 -168c-134 -59 -326 -58 -457 -12c-98 33 -200 108 -179 224c13 73 74 158 146 164h3z" />
    <glyph glyph-name="uniFB90" unicode="&#x6a9;" horiz-adv-x="506" arabic-form="initial" 
d="M0 -81c-8 0 -14 9 -14 18c0 10 6 19 14 19c112 2 374 -20 374 143c0 22 -18 38 -54 50c-18 6 -59 14 -121 24c-29 5 -72 14 -128 27c-44 15 -66 37 -66 64c0 145 228 315 363 315c52 0 78 -32 78 -96c0 -11 -3 -22 -9 -35c-7 -15 -15 -23 -24 -23c-6 0 -12 3 -18 9
s-8 12 -7 19c3 25 5 37 5 36c0 31 -11 46 -33 46c-85 0 -307 -173 -307 -262c0 -16 16 -29 49 -39c15 -5 57 -13 124 -25c60 -10 103 -22 130 -35c42 -20 64 -49 64 -86c0 -44 -21 -92 -76 -124c-98 -57 -234 -45 -344 -45z" />
    <glyph glyph-name="uniFB91" unicode="&#x6a9;" horiz-adv-x="565" arabic-form="medial" 
d="M0 -81c-8 0 -14 9 -14 18c0 10 6 19 14 19c112 2 374 -20 374 143c0 22 -18 38 -55 50c-18 6 -58 14 -120 24c-29 5 -72 14 -129 27c-44 15 -66 37 -66 64c0 145 228 315 364 315c52 0 78 -32 78 -96c0 -11 -3 -22 -9 -35c-7 -15 -15 -23 -24 -23c-6 0 -12 3 -18 9
s-8 12 -7 19c3 25 5 37 5 36c0 31 -11 46 -33 46c-85 0 -308 -173 -308 -262c0 -16 17 -29 49 -39c16 -5 58 -13 125 -25c59 -10 103 -22 130 -35c42 -20 64 -49 64 -86c0 -10 -1 -19 -4 -29c0 -59 15 -103 64 -103h84c8 0 14 -9 14 -19c0 -9 -6 -18 -14 -18h-84
c-51 0 -81 32 -96 77c-11 -12 -24 -23 -40 -32c-98 -57 -234 -45 -344 -45z" />
    <glyph glyph-name="uniFB8F" unicode="&#x6a9;" horiz-adv-x="827" arabic-form="final" 
d="M485 330c-2 0 -5 2 -8 4c-3 3 -4 5 -4 8l3 15c0 13 -6 19 -16 19c-19 0 -49 -14 -89 -42c-41 -29 -61 -51 -61 -67c0 -6 8 -12 24 -16c8 -2 28 -6 61 -10c29 -5 50 -10 63 -15c20 -8 31 -20 31 -36c0 -18 -12 -35 -37 -51c-23 -16 -45 -23 -67 -23h-11
c-13 0 -26 4 -39 11c-14 8 -21 18 -21 30c0 3 1 8 4 13c2 6 5 10 8 10c6 0 9 -3 9 -8c0 -2 -1 -4 -2 -7s-1 -5 -1 -6c0 -7 4 -13 13 -17c7 -4 16 -6 27 -6c22 0 43 5 62 16c22 12 32 26 32 43c0 9 -8 16 -26 21c-9 2 -28 5 -59 10c-14 1 -35 5 -62 11c-22 6 -32 15 -32 26
c0 29 22 58 67 89c43 28 79 42 110 42c25 0 38 -13 38 -40c0 -4 -2 -9 -5 -14c-3 -6 -7 -10 -12 -10zM827 -81h-38c-38 1 -64 20 -80 49c-14 -23 -36 -41 -69 -55c-100 -42 -214 -46 -333 -39c-40 3 -81 12 -125 27c-98 33 -199 108 -178 224c13 73 74 158 146 164h2h1v0h1
c22 -1 26 -23 5 -32c-63 -23 -117 -73 -116 -145c0 -75 46 -130 138 -165c40 -15 138 -33 279 -32c62 0 121 10 163 28c60 26 69 74 67 139c-4 149 -62 333 -114 482c-4 13 -9 26 -13 39c-13 36 -3 64 13 64c12 0 27 -14 40 -48c9 -26 20 -60 32 -104
c38 -139 81 -288 81 -464c1 -54 16 -94 61 -95h37c8 0 14 -9 14 -19c0 -9 -6 -18 -14 -18z" />
    <glyph glyph-name="uni06AF" unicode="&#x6af;" horiz-adv-x="770" arabic-form="isolated" 
d="M486 330c-3 0 -6 2 -9 4c-3 3 -4 5 -3 8c1 10 2 15 2 15c0 13 -5 19 -16 19c-19 0 -49 -14 -89 -42c-40 -29 -60 -51 -60 -67c0 -6 7 -12 23 -16c8 -2 28 -6 61 -10c29 -5 50 -10 63 -15c21 -8 31 -20 31 -36c0 -18 -12 -35 -36 -51c-23 -16 -46 -23 -67 -23h-11
c-14 0 -27 4 -39 11c-14 8 -22 18 -22 30c0 3 2 8 4 13c3 6 5 10 8 10h1c5 0 8 -3 8 -8c0 -2 0 -4 -1 -7s-2 -5 -2 -6c0 -7 5 -13 13 -17s17 -6 27 -6c22 0 43 5 62 16c22 12 33 26 33 43c0 9 -9 16 -27 21c-8 2 -28 5 -58 10c-14 1 -35 5 -63 11c-21 6 -32 15 -32 26
c0 29 23 58 68 89c42 28 78 42 109 42v0c25 0 38 -13 38 -40c0 -4 -1 -9 -4 -14c-4 -6 -7 -10 -12 -10zM153 289c23 0 28 -23 6 -32c-63 -23 -117 -73 -116 -145c0 -75 47 -130 138 -165c104 -40 341 -49 442 -4c61 26 69 74 68 139c-4 137 -71 341 -85 390
c-6 22 -16 52 -30 92c-4 13 -8 26 -13 39c-13 36 -3 64 14 64c11 0 26 -14 39 -48c10 -26 20 -60 32 -104c28 -102 51 -207 68 -313c6 -42 13 -81 13 -121c3 -86 -13 -136 -89 -168c-134 -59 -326 -58 -457 -12c-98 33 -200 108 -179 224c13 73 74 158 146 164h3zM805 743
c-108 14 -213 -27 -336 -107c-44 -28 -66 21 -23 51c30 20 79 42 131 60c71 25 144 48 232 40c60 -6 59 -52 -4 -44z" />
    <glyph glyph-name="uniFB94" unicode="&#x6af;" horiz-adv-x="506" arabic-form="initial" 
d="M0 -81c-8 0 -14 9 -14 18c0 10 6 19 14 19c112 2 374 -20 374 143c0 22 -18 38 -54 50c-18 6 -59 14 -121 24c-29 5 -72 14 -128 27c-44 15 -66 37 -66 64c0 145 228 315 363 315c52 0 78 -32 78 -96c0 -11 -3 -22 -9 -35c-7 -15 -15 -23 -24 -23c-6 0 -12 3 -18 9
s-8 12 -7 19c3 25 5 37 5 36c0 31 -11 46 -33 46c-85 0 -307 -173 -307 -262c0 -16 16 -29 49 -39c15 -5 57 -13 124 -25c60 -10 103 -22 130 -35c42 -20 64 -49 64 -86c0 -44 -21 -92 -76 -124c-98 -57 -234 -45 -344 -45zM428 667c-108 14 -213 -27 -336 -107
c-44 -28 -66 21 -23 51c30 20 79 42 131 60c71 25 144 48 232 40c60 -6 59 -52 -4 -44z" />
    <glyph glyph-name="uniFB95" unicode="&#x6af;" horiz-adv-x="564" arabic-form="medial" 
d="M0 -81c-8 0 -14 9 -14 18c0 10 6 19 14 19c112 2 374 -20 374 143c0 22 -18 38 -55 50c-18 6 -58 14 -120 24c-29 5 -72 14 -129 27c-44 15 -66 37 -66 64c0 145 228 315 364 315c52 0 78 -32 78 -96c0 -11 -3 -22 -9 -35c-7 -15 -15 -23 -24 -23c-6 0 -12 3 -18 9
s-8 12 -7 19c3 25 5 37 5 36c0 31 -11 46 -33 46c-85 0 -308 -173 -308 -262c0 -16 17 -29 49 -39c16 -5 58 -13 125 -25c59 -10 103 -22 130 -35c42 -20 64 -49 64 -86c0 -10 -1 -19 -4 -29c0 -59 15 -103 64 -103h84c8 0 14 -9 14 -19c0 -9 -6 -18 -14 -18h-84
c-51 0 -81 32 -96 77c-11 -12 -24 -23 -40 -32c-98 -57 -234 -45 -344 -45zM414 647c-108 14 -213 -27 -336 -107c-44 -28 -66 21 -23 51c30 20 79 42 131 60c71 25 144 48 232 40c60 -6 59 -52 -4 -44z" />
    <glyph glyph-name="uniFB93" unicode="&#x6af;" horiz-adv-x="825" arabic-form="final" 
d="M485 330c-2 0 -5 2 -8 4c-3 3 -4 5 -4 8l3 15c0 13 -6 19 -16 19c-19 0 -49 -14 -89 -42c-41 -29 -61 -51 -61 -67c0 -6 8 -12 24 -16c8 -2 28 -6 61 -10c29 -5 50 -10 63 -15c20 -8 31 -20 31 -36c0 -18 -12 -35 -37 -51c-23 -16 -45 -23 -67 -23h-11
c-13 0 -26 4 -39 11c-14 8 -21 18 -21 30c0 3 1 8 4 13c2 6 5 10 8 10c6 0 9 -3 9 -8c0 -2 -1 -4 -2 -7s-1 -5 -1 -6c0 -7 4 -13 13 -17c7 -4 16 -6 27 -6c22 0 43 5 62 16c22 12 32 26 32 43c0 9 -8 16 -26 21c-9 2 -28 5 -59 10c-14 1 -35 5 -62 11c-22 6 -32 15 -32 26
c0 29 22 58 67 89c43 28 79 42 110 42c25 0 38 -13 38 -40c0 -4 -2 -9 -5 -14c-3 -6 -7 -10 -12 -10zM827 -81h-38c-38 1 -64 20 -80 49c-14 -23 -36 -41 -69 -55c-100 -42 -214 -46 -333 -39c-40 3 -81 12 -125 27c-98 33 -199 108 -178 224c13 73 74 158 146 164h2h1v0h1
c22 -1 26 -23 5 -32c-63 -23 -117 -73 -116 -145c0 -75 46 -130 138 -165c40 -15 138 -33 279 -32c62 0 121 10 163 28c60 26 69 74 67 139c-4 149 -62 333 -114 482c-4 13 -9 26 -13 39c-13 36 -3 64 13 64c12 0 27 -14 40 -48c9 -26 20 -60 32 -104
c38 -139 81 -288 81 -464c1 -54 16 -94 61 -95h37c8 0 14 -9 14 -19c0 -9 -6 -18 -14 -18zM814 731c-108 14 -213 -27 -336 -107c-44 -28 -66 21 -23 51c30 20 79 42 131 60c71 25 144 48 232 40c60 -6 59 -52 -4 -44z" />
    <glyph glyph-name="uni06BA" unicode="&#x6ba;" horiz-adv-x="709" arabic-form="isolated" 
d="M31 126c9 18 19 29 30 36c2 1 3 2 5 2c-8 14 -11 25 -8 33c51 138 425 -45 491 -91c71 -49 21 -83 -37 -41c-70 49 -381 214 -424 97c-2 -5 -3 -11 -4 -17c0 -3 0 -6 -2 -9c-58 -93 -36 -197 13 -291c49 -95 112 -157 188 -185c117 -43 220 29 274 127
c83 154 62 279 19 436c-6 21 -16 52 -30 91c-4 13 -9 27 -13 40c-22 59 21 100 52 15c10 -25 21 -60 33 -103c43 -159 72 -327 -2 -481c-64 -134 -191 -230 -348 -169c-146 54 -271 226 -268 388c1 42 11 85 31 122z" />
    <glyph glyph-name="uniFB9F" unicode="&#x6ba;" horiz-adv-x="722" arabic-form="final" 
d="M722 -81c-27 0 -48 9 -64 23c-5 -53 -18 -106 -43 -157c-64 -134 -190 -230 -347 -169c-147 54 -272 226 -268 388c1 42 10 85 30 122c10 18 20 29 31 36c1 1 3 2 4 2c-8 14 -11 25 -8 33c51 138 426 -45 492 -91c70 -49 20 -83 -38 -41c-70 49 -381 214 -424 97
c-2 -5 -3 -11 -4 -17c1 -3 0 -6 -2 -9c-58 -93 -36 -197 13 -291c50 -95 112 -157 188 -185c117 -43 220 29 274 127c83 154 63 279 19 436c-6 21 -16 52 -30 91c-4 13 -9 27 -13 40c-22 59 21 100 53 15c9 -25 20 -60 32 -103c18 -68 34 -138 43 -244c6 -40 23 -66 62 -66
c8 0 14 -9 14 -19c0 -9 -6 -18 -14 -18z" />
    <glyph glyph-name="uni06BE" unicode="&#x6be;" horiz-adv-x="426" arabic-form="isolated" 
d="M251 -86c-6 2 -11 4 -17 6c-4 -2 -9 -5 -13 -8c-17 -8 -35 -11 -55 -9c-19 1 -37 7 -53 19c-13 10 -26 21 -38 34c-17 -23 -41 -37 -75 -37v37v0c42 0 59 33 63 80c-14 31 -19 66 -16 104c4 44 20 78 47 100c-1 104 37 188 128 169c25 -5 85 -46 81 -74
c56 12 72 -89 78 -121c15 -81 31 -221 -43 -283c-25 -21 -55 -27 -87 -17zM97 195c-8 -17 -13 -38 -14 -64c-3 -49 6 -89 28 -119c5 -7 14 -15 25 -21c12 -7 18 -11 19 -12c5 -8 3 -14 -6 -18c-8 -4 -20 0 -37 13c-7 5 -13 10 -18 15c-1 -2 -2 -5 -3 -7
c39 -47 75 -63 108 -46c3 1 5 2 7 4c-58 50 -98 156 -109 255zM232 -24c3 7 6 15 9 24c9 30 12 57 10 81c-4 53 -17 94 -36 122c-22 30 -45 41 -71 33c2 -83 32 -206 88 -260zM145 265c16 3 32 1 47 -5c22 -8 40 -23 56 -45c30 -43 44 -96 43 -161c-1 -42 -9 -75 -24 -100
c3 -1 6 -2 10 -3c124 -25 37 286 19 324c-9 20 -13 32 -12 38c0 2 1 4 2 6c-1 0 -2 -1 -3 -1c-22 31 -45 49 -69 54c-31 6 -53 -22 -66 -85c-1 -6 -2 -14 -3 -22z" />
    <glyph glyph-name="uniFBAC" unicode="&#x6be;" horiz-adv-x="431" arabic-form="initial" 
d="M0 -44c42 0 59 33 63 80c-14 31 -19 66 -16 104c4 44 20 78 47 100c-1 104 37 188 128 169c25 -5 85 -46 81 -74c56 12 72 -89 78 -121c15 -81 31 -221 -43 -283c-25 -21 -55 -27 -87 -17c-6 2 -11 4 -17 6c-62 -31 -113 -13 -159 36c-17 -23 -41 -37 -75 -37
c-8 0 -14 9 -14 18c0 10 6 19 14 19zM91 -18c93 -112 170 -17 160 99c-4 53 -17 94 -36 122c-22 30 -45 41 -71 33c-2 -54 -11 -136 -47 -41c-8 -17 -13 -38 -14 -64c-3 -49 6 -89 28 -119c5 -7 14 -15 25 -21c12 -7 18 -11 19 -12c5 -8 3 -14 -6 -18c-8 -4 -20 0 -37 13
c-7 5 -13 10 -18 15c-1 -2 -2 -5 -3 -7zM145 265c16 3 32 1 47 -5c22 -8 40 -23 56 -45c30 -43 44 -96 43 -161c-1 -42 -9 -75 -24 -100c3 -1 6 -2 10 -3c124 -25 37 286 19 324c-9 20 -13 32 -12 38c0 2 1 4 2 6c-1 0 -2 -1 -3 -1c-22 31 -45 49 -69 54
c-31 6 -53 -22 -66 -85c-1 -6 -2 -14 -3 -22z" />
    <glyph glyph-name="uniFBAD" unicode="&#x6be;" horiz-adv-x="404" arabic-form="medial" 
d="M0 -81c-8 0 -14 9 -14 18c0 10 6 19 14 19c21 0 43 7 67 15c-40 187 -18 403 110 370c60 -16 109 -108 111 -168c4 -106 -71 -189 -166 -227c22 -86 60 -165 110 -177c69 -18 62 97 86 138c18 30 44 49 85 49c8 0 14 -9 14 -19c0 -9 -6 -18 -14 -18c-20 0 -35 -7 -45 -19
c-23 -30 -23 -65 -33 -100c-16 -52 -61 -99 -120 -78c-75 28 -110 143 -129 211c-24 -6 -51 -14 -76 -14zM103 188c-6 -45 -4 -121 10 -197c69 34 140 93 136 169c-6 112 -122 222 -146 28z" />
    <glyph glyph-name="uniFBAB" unicode="&#x6be;" horiz-adv-x="403" arabic-form="final" 
d="M0 -81c-8 0 -14 9 -14 18c0 10 6 19 14 19c21 0 43 7 67 15c-40 187 -18 403 110 370c60 -16 109 -108 111 -168c4 -106 -71 -189 -166 -227c22 -86 60 -165 110 -177c69 -18 62 97 86 138c18 30 44 49 85 49c8 0 14 -9 14 -19c0 -9 -6 -18 -14 -18c-20 0 -35 -7 -45 -19
c-23 -30 -23 -65 -33 -100c-16 -52 -61 -99 -120 -78c-75 28 -110 143 -129 211c-24 -6 -51 -14 -76 -14zM103 188c-6 -45 -4 -121 10 -197c69 34 140 93 136 169c-6 112 -122 222 -146 28z" />
    <glyph glyph-name="uniFBA5" unicode="&#x6c0;" horiz-adv-x="384" arabic-form="final" 
d="M382 -81c-42 0 -69 22 -86 53c-8 -15 -19 -29 -32 -41c-26 -21 -55 -27 -88 -17c-163 49 -236 538 -28 495c24 -5 85 -46 81 -74c7 1 14 1 20 -1c-6 55 -3 83 9 82c68 -3 42 -124 42 -169c3 -13 5 -25 7 -33c8 -43 16 -102 11 -157c0 -42 9 -101 64 -101
c8 0 14 -9 14 -19c0 -9 -6 -18 -14 -18zM211 319c-1 0 -2 -1 -3 -1c-21 31 -44 49 -68 54c-31 6 -53 -22 -66 -85c-18 -85 28 -315 129 -336c124 -25 37 286 19 324c-9 20 -14 32 -12 38c0 2 1 4 1 6zM158 593c-26 14 -80 -31 -80 -58c0 -20 94 7 94 -44
c0 -35 -46 -61 -77 -61c-15 0 -32 11 -32 27c0 7 7 19 15 19h3c0 -6 -3 -12 -3 -17c0 -7 4 -10 11 -10c19 0 68 16 68 40c0 6 -3 10 -9 14c-23 15 -54 2 -79 12c-64 25 106 147 106 83c0 -13 -10 -9 -17 -5z" />
    <glyph glyph-name="uni06C1" unicode="&#x6c1;" horiz-adv-x="339" arabic-form="isolated" 
d="M157 -86c-164 49 -237 538 -29 495c24 -5 85 -46 81 -74c56 12 72 -89 78 -121c15 -81 30 -221 -43 -283c-26 -21 -55 -27 -87 -17zM191 319c-1 0 -2 -1 -3 -1c-21 31 -44 49 -68 54c-31 6 -53 -22 -66 -85c-18 -85 28 -315 129 -336c124 -25 37 286 19 324
c-9 20 -13 32 -12 38c0 2 1 4 1 6z" />
    <glyph glyph-name="uniFBA8" unicode="&#x6c1;" horiz-adv-x="149" arabic-form="initial" 
d="M0 -81c-8 0 -14 9 -14 18c0 10 6 19 14 19c131 0 20 314 20 376c0 21 9 31 27 31c22 0 40 -37 53 -111c14 -80 46 -333 -100 -333z" />
    <glyph glyph-name="uniFBA9" unicode="&#x6c1;" horiz-adv-x="403" arabic-form="medial" 
d="M0 -81c-8 0 -14 9 -14 18c0 10 6 19 14 19c21 0 43 7 67 15c-40 187 -18 403 110 370c60 -16 109 -108 111 -168c4 -106 -71 -189 -166 -227c22 -86 60 -165 110 -177c69 -18 62 97 86 138c18 30 44 49 85 49c8 0 14 -9 14 -19c0 -9 -6 -18 -14 -18c-20 0 -35 -7 -45 -19
c-23 -30 -23 -65 -33 -100c-16 -52 -61 -99 -120 -78c-75 28 -110 143 -129 211c-24 -6 -51 -14 -76 -14zM103 188c-6 -45 -4 -121 10 -197c69 34 140 93 136 169c-6 112 -122 222 -146 28z" />
    <glyph glyph-name="uniFBA7" unicode="&#x6c1;" horiz-adv-x="362" arabic-form="final" 
d="M362 -81c-42 0 -69 22 -86 53c-8 -15 -19 -29 -32 -41c-26 -21 -55 -27 -88 -17c-163 49 -236 538 -28 495c24 -5 85 -46 81 -74c7 1 14 1 20 -1c-6 55 -3 83 9 82c68 -3 42 -124 42 -169c3 -13 5 -25 7 -33c8 -43 16 -102 11 -157c0 -42 9 -101 64 -101
c8 0 14 -9 14 -19c0 -9 -6 -18 -14 -18zM191 319c-1 0 -2 -1 -3 -1c-21 31 -44 49 -68 54c-31 6 -53 -22 -66 -85c-18 -85 28 -315 129 -336c124 -25 37 286 19 324c-9 20 -14 32 -12 38c0 2 1 4 1 6z" />
    <glyph glyph-name="uni06C2.fina" unicode="&#x6c2;" horiz-adv-x="291" 
d="M362 -81c-42 0 -69 22 -86 53c-8 -15 -19 -29 -32 -41c-26 -21 -55 -27 -88 -17c-163 49 -236 538 -28 495c24 -5 85 -46 81 -74c7 1 14 1 20 -1c-6 55 -3 83 9 82c68 -3 42 -124 42 -169c3 -13 5 -25 7 -33c8 -43 16 -102 11 -157c0 -42 9 -101 64 -101
c8 0 14 -9 14 -19c0 -9 -6 -18 -14 -18zM191 319c-1 0 -2 -1 -3 -1c-21 31 -44 49 -68 54c-31 6 -53 -22 -66 -85c-18 -85 28 -315 129 -336c124 -25 37 286 19 324c-9 20 -14 32 -12 38c0 2 1 4 1 6zM133 622c-26 14 -80 -31 -80 -58c0 -20 94 7 94 -44
c0 -35 -46 -61 -77 -61c-15 0 -32 11 -32 27c0 7 7 19 15 19h3c0 -6 -3 -12 -3 -17c0 -7 4 -10 11 -10c19 0 68 16 68 40c0 6 -3 10 -9 14c-23 15 -54 2 -79 12c-64 25 106 147 106 83c0 -13 -10 -9 -17 -5z" />
    <glyph glyph-name="uni06C3.fina" unicode="&#x6c3;" horiz-adv-x="363" 
d="M362 -81c-42 0 -69 22 -86 53c-8 -15 -19 -29 -32 -41c-26 -21 -55 -27 -88 -17c-163 49 -236 538 -28 495c24 -5 85 -46 81 -74c7 1 14 1 20 -1c-6 55 -3 83 9 82c68 -3 42 -124 42 -169c3 -13 5 -25 7 -33c8 -43 16 -102 11 -157c0 -42 9 -101 64 -101
c8 0 14 -9 14 -19c0 -9 -6 -18 -14 -18zM191 319c-1 0 -2 -1 -3 -1c-21 31 -44 49 -68 54c-31 6 -53 -22 -66 -85c-18 -85 28 -315 129 -336c124 -25 37 286 19 324c-9 20 -14 32 -12 38c0 2 1 4 1 6zM55 427c-10 0 -20 4 -30 11c-10 8 -16 17 -16 28c0 22 11 32 33 32
c34 0 50 -9 50 -27c0 -29 -12 -44 -37 -44zM148 427c-10 0 -20 4 -31 11c-10 8 -15 17 -15 28c0 22 11 32 33 32c33 0 49 -9 49 -27c0 -29 -12 -44 -36 -44z" />
    <glyph glyph-name="uni06CC" unicode="&#x6cc;" horiz-adv-x="812" arabic-form="isolated" 
d="M47 73c53 -276 694 -69 680 30c-13 87 -223 12 -223 94c0 32 26 75 79 125c52 52 96 77 132 77c10 0 23 -4 37 -12c18 -9 26 -19 26 -31c0 -15 -6 -22 -18 -22c-2 0 -8 3 -20 9c-11 7 -20 10 -25 10c-23 2 -56 -15 -96 -49c-42 -37 -63 -69 -63 -94c0 -13 24 -21 73 -21
c94 0 151 -27 142 -79c-44 -247 -793 -328 -765 -42c25 259 430 272 430 176c0 -15 -8 -23 -26 -23c-8 0 -35 -7 -44 14c-27 66 -350 5 -319 -162z" />
    <glyph glyph-name="uniFBFE" unicode="&#x6cc;" horiz-adv-x="147" arabic-form="initial" 
d="M0 -81c-8 0 -14 9 -14 18c0 10 6 19 14 19c131 0 20 314 20 376c0 21 9 31 27 31c22 0 40 -37 53 -111c14 -80 46 -333 -100 -333zM51 -188c25 0 37 15 37 44c0 18 -16 27 -50 27c-22 0 -33 -10 -33 -32c0 -11 6 -20 16 -28c10 -7 20 -11 30 -11zM139 -188
c24 0 36 15 36 44c0 18 -16 27 -49 27c-22 0 -33 -10 -33 -32c0 -11 5 -20 15 -28c11 -7 21 -11 31 -11z" />
    <glyph glyph-name="uniFBFF" unicode="&#x6cc;" horiz-adv-x="173" arabic-form="medial" 
d="M173 -81c-43 0 -71 22 -88 54c-17 -32 -44 -54 -87 -54c-8 0 -14 9 -14 18c0 10 6 19 14 19c133 0 20 316 20 376c0 21 9 31 27 31c107 0 -3 -407 128 -407c8 0 14 -9 14 -19c0 -9 -6 -18 -14 -18zM78 -188c-10 0 -20 4 -30 11c-10 8 -16 17 -16 28c0 22 11 32 33 32
c34 0 50 -9 50 -27c0 -29 -12 -44 -37 -44zM166 -188c-10 0 -20 4 -31 11c-10 8 -15 17 -15 28c0 22 11 32 33 32c33 0 49 -9 49 -27c0 -29 -12 -44 -36 -44z" />
    <glyph glyph-name="uniFBFD" unicode="&#x6cc;" horiz-adv-x="703" arabic-form="final" 
d="M698 -44c8 0 14 -9 14 -19c0 -9 -6 -18 -14 -18c-107 0 -216 5 -318 -28c-28 -9 -41 -18 -38 -26c15 -48 226 -61 310 -64c63 -3 79 -28 6 -79c-132 -93 -260 -134 -435 -116c-112 11 -210 78 -221 173c-6 52 23 132 69 172c38 32 97 20 32 -21c-43 -33 -73 -91 -62 -147
c14 -72 91 -121 171 -133c158 -23 302 39 438 113c-113 19 -281 2 -336 79c-4 6 -7 11 -9 17c-30 94 215 97 257 97h136z" />
    <glyph glyph-name="uni06D2" unicode="&#x6d2;" horiz-adv-x="812" arabic-form="isolated" 
d="M44 73c53 -276 694 -69 680 30c-13 87 -223 12 -223 94c0 32 26 75 79 125c52 52 96 77 132 77c10 0 23 -4 37 -12c18 -9 26 -19 26 -31c0 -15 -6 -22 -18 -22c-2 0 -8 3 -20 9c-11 7 -20 10 -25 10c-23 2 -56 -15 -96 -49c-42 -37 -63 -69 -63 -94c0 -13 24 -21 73 -21
c94 0 151 -27 142 -79c-44 -247 -793 -328 -765 -42c25 259 430 272 430 176c0 -15 -8 -23 -26 -23c-8 0 -35 -7 -44 14c-27 66 -350 5 -319 -162z" />
    <glyph glyph-name="uniFBAF" unicode="&#x6d2;" horiz-adv-x="697" arabic-form="final" 
d="M697 -44c8 0 14 -9 14 -19c0 -9 -6 -18 -14 -18c-107 0 -216 5 -318 -28c-28 -9 -41 -18 -38 -26c15 -48 226 -61 310 -64c63 -3 79 -28 6 -79c-132 -93 -260 -134 -435 -116c-112 11 -210 78 -221 173c-6 52 23 132 69 172c38 32 97 20 32 -21c-43 -33 -73 -91 -62 -147
c14 -72 91 -121 171 -133c158 -23 302 39 438 113c-113 19 -281 2 -336 79c-4 6 -7 11 -9 17c-30 94 215 97 257 97h136z" />
    <glyph glyph-name="uni06D3" unicode="&#x6d3;" horiz-adv-x="828" arabic-form="isolated" 
d="M44 73c-31 167 292 228 319 162c9 -21 36 -14 44 -14c18 0 26 8 26 23c0 96 -405 83 -430 -176c-28 -286 721 -205 765 42c9 52 -48 79 -142 79c-49 0 -73 8 -73 21c0 25 21 57 63 94c40 34 73 51 96 49c5 0 14 -3 25 -10c12 -6 18 -9 20 -9c12 0 18 7 18 22
c0 12 -8 22 -26 31c-14 8 -27 12 -37 12c-36 0 -80 -25 -132 -77c-53 -50 -79 -93 -79 -125c0 -82 210 -7 223 -94c14 -99 -627 -306 -680 -30zM117 463c-26 14 -80 -31 -80 -58c0 -20 94 7 94 -44c0 -35 -46 -61 -77 -61c-15 0 -32 11 -32 27c0 7 7 19 15 19h3
c0 -6 -3 -12 -3 -17c0 -7 4 -10 11 -10c19 0 68 16 68 40c0 6 -3 10 -9 14c-23 15 -54 2 -79 12c-64 25 106 147 106 83c0 -13 -10 -9 -17 -5z" />
    <glyph glyph-name="uniFBB1" unicode="&#x6d3;" horiz-adv-x="697" arabic-form="final" 
d="M697 -44h-136c-42 0 -287 -3 -257 -97c2 -6 5 -11 9 -17c55 -77 223 -60 336 -79c-136 -74 -280 -136 -438 -113c-80 12 -157 61 -171 133c-11 56 19 114 62 147c65 41 6 53 -32 21c-46 -40 -75 -120 -69 -172c11 -95 109 -162 221 -173c175 -18 303 23 435 116
c73 51 57 76 -6 79c-84 3 -295 16 -310 64c-3 8 10 17 38 26c102 33 211 28 318 28c8 0 14 9 14 18c0 10 -6 19 -14 19zM72 243c-26 14 -80 -31 -80 -58c0 -20 94 7 94 -44c0 -35 -46 -61 -77 -61c-15 0 -32 11 -32 27c0 7 7 19 15 19h3c0 -6 -3 -12 -3 -17
c0 -7 4 -10 11 -10c19 0 68 16 68 40c0 6 -3 10 -9 14c-23 15 -54 2 -79 12c-64 25 106 147 106 83c0 -13 -10 -9 -17 -5z" />
    <glyph glyph-name="uni06D5.fina" unicode="&#x6d5;" horiz-adv-x="380" 
d="M382 -81c-42 0 -69 22 -86 53c-8 -15 -19 -29 -32 -41c-26 -21 -55 -27 -88 -17c-163 49 -236 538 -28 495c24 -5 85 -46 81 -74c7 1 14 1 20 -1c-6 55 -3 83 9 82c68 -3 42 -124 42 -169c3 -13 5 -25 7 -33c8 -43 16 -102 11 -157c0 -42 9 -101 64 -101
c8 0 14 -9 14 -19c0 -9 -6 -18 -14 -18zM211 319c-1 0 -2 -1 -3 -1c-21 31 -44 49 -68 54c-31 6 -53 -22 -66 -85c-18 -85 28 -315 129 -336c124 -25 37 286 19 324c-9 20 -14 32 -12 38c0 2 1 4 1 6z" />
    <glyph glyph-name="uni064C0651" unicode="&#xfc5e;" horiz-adv-x="0" arabic-form="isolated" 
d="M-187 785c8 -12 5 -95 55 -73c51 23 -17 74 -25 86c-2 5 -1 8 6 11c42 18 36 -89 86 -67c51 22 -32 67 -39 79c-3 4 -2 7 5 11c8 3 20 0 35 -14c15 -13 61 -59 4 -83c-17 -8 -30 -9 -42 -5c-1 -12 -13 -19 -26 -25c-56 -25 -75 32 -80 50c-5 17 -3 27 6 31
c7 3 13 3 15 -1zM-151 839c-25 -14 -46 -16 -63 -4c-2 3 -5 6 -8 13s-4 11 -1 15c1 3 2 4 4 2c1 -1 2 -2 3 -4c1 -8 4 -14 7 -17c16 -12 38 -6 66 15c20 16 35 32 45 47c5 8 9 17 12 26c4 17 3 27 -6 33c-2 2 -9 3 -18 3c-12 0 -23 -5 -35 -14c-11 -8 -19 -18 -25 -29
c-9 -14 -10 -25 -2 -32c8 -6 21 -6 37 1c15 7 25 17 33 28c4 8 5 14 3 19c-1 1 -2 2 0 4v0c1 1 2 2 4 2s3 0 4 -2c3 -5 3 -11 1 -17c-2 -4 -4 -9 -8 -17c-8 -11 -19 -20 -35 -27c-18 -8 -33 -8 -45 2l-1 1v1c-8 6 -11 14 -8 27c1 7 4 17 9 24c9 14 22 24 42 34
c21 11 38 11 48 2c12 -8 16 -22 12 -39c-2 -13 -8 -27 -17 -43l-6 -6c-14 -19 -31 -36 -52 -48zM-257 873c-25 -15 -46 -17 -63 -5c-2 3 -5 7 -8 13c-3 7 -4 12 -2 16c2 2 3 3 5 1c1 0 2 -1 3 -3c1 -8 4 -15 7 -18c16 -11 38 -6 66 16c20 15 35 31 45 46c5 9 9 18 12 27
c4 16 2 26 -6 33c-2 2 -9 2 -19 2c-11 0 -22 -4 -34 -13c-11 -8 -19 -18 -25 -29c-9 -15 -10 -26 -2 -32c8 -7 21 -7 37 1c15 7 25 16 33 27c4 8 5 15 3 19c-1 2 -2 3 0 5v0c1 1 2 2 4 2s2 0 4 -2c3 -6 3 -11 1 -18c-2 -3 -4 -9 -8 -17c-8 -11 -19 -20 -35 -26
c-18 -9 -33 -9 -45 1c0 0 -1 0 -1 1v1c-8 7 -11 15 -8 28c1 7 4 16 9 23c8 14 22 25 42 34c21 11 38 11 48 3c12 -8 16 -22 12 -39c-2 -13 -8 -28 -17 -43c-2 -2 -4 -5 -6 -7c-14 -19 -31 -35 -52 -47z" />
    <glyph glyph-name="uni064D0651" unicode="&#xfc5f;" horiz-adv-x="0" arabic-form="isolated" 
d="M-222 903c8 -12 5 -95 55 -73c51 23 -17 74 -25 86c-2 5 -1 8 6 11c42 18 36 -89 86 -67c51 22 -32 67 -39 79c-3 4 -2 7 5 11c8 3 20 0 35 -14c15 -13 61 -59 4 -83c-17 -8 -30 -9 -42 -5c-1 -12 -13 -19 -26 -25c-56 -25 -75 32 -80 50c-5 17 -3 27 6 31
c7 3 13 3 15 -1zM-95 706c33 17 57 29 73 77c-28 -54 -150 -86 -182 -95c-15 -5 -60 -7 -63 -26c-1 -6 3 -11 13 -10c0 0 3 0 4 1c41 6 104 29 155 53zM-95 774c33 17 57 29 73 77c-28 -54 -150 -86 -182 -95c-15 -5 -60 -7 -63 -26c-1 -6 3 -11 13 -10c0 0 3 0 4 1
c41 6 104 29 155 53z" />
    <glyph glyph-name="uni064E0651" unicode="&#xfc60;" horiz-adv-x="0" arabic-form="isolated" 
d="M-163 809c8 -12 5 -95 55 -73c51 23 -17 74 -25 86c-2 5 -1 8 6 11c42 18 36 -89 86 -67c51 22 -32 67 -39 79c-3 4 -2 7 5 11c8 3 20 0 35 -14c15 -13 61 -59 4 -83c-17 -8 -30 -9 -42 -5c-1 -12 -13 -19 -26 -25c-56 -25 -75 32 -80 50c-5 17 -3 27 6 31
c7 3 13 3 15 -1zM-101 891c-51 -24 -114 -47 -155 -53c-1 -1 -4 -1 -4 -1c-10 -1 -14 4 -13 10c3 19 48 21 63 26c32 9 154 41 182 95c-16 -48 -40 -60 -73 -77z" />
    <glyph glyph-name="uni064F0651" unicode="&#xfc61;" horiz-adv-x="0" arabic-form="isolated" 
d="M-183 786c8 -12 5 -95 55 -73c51 23 -17 74 -25 86c-2 5 -1 8 6 11c42 18 36 -89 86 -67c51 22 -32 67 -39 79c-3 4 -2 7 5 11c8 3 20 0 35 -14c15 -13 61 -59 4 -83c-17 -8 -30 -9 -42 -5c-1 -12 -13 -19 -26 -25c-56 -25 -75 32 -80 50c-5 17 -3 27 6 31
c7 3 13 3 15 -1zM-162 834c-17 -9 -33 -14 -47 -14c-13 0 -44 6 -44 35c0 4 3 8 5 8c10 0 6 -31 37 -31c56 0 118 78 128 104c2 6 3 12 3 16c0 14 -4 23 -33 23c-32 0 -82 -41 -82 -69c0 -11 11 -18 25 -18c33 0 72 33 72 51c0 4 -2 7 -2 9c0 1 1 4 6 4c6 0 7 -7 7 -12
s-18 -64 -83 -64c-9 0 -21 3 -27 10v1c-7 5 -11 11 -11 20c0 21 32 82 100 82c24 0 39 -16 39 -35c0 -37 -39 -92 -93 -120z" />
    <glyph glyph-name="uni06500651" unicode="&#xfc62;" horiz-adv-x="0" arabic-form="isolated" 
d="M-249 839c8 -12 5 -95 55 -73c51 23 -17 74 -25 86c-2 5 -1 8 6 11c42 18 36 -89 86 -67c51 22 -32 67 -39 79c-3 4 -2 7 5 11c8 3 20 0 35 -14c15 -13 61 -59 4 -83c-17 -8 -30 -9 -42 -5c-1 -12 -13 -19 -26 -25c-56 -25 -75 32 -80 50c-5 17 -3 27 6 31
c7 3 13 3 15 -1zM-102 706c33 17 57 29 73 77c-28 -54 -150 -86 -182 -95c-15 -5 -60 -7 -63 -26c-1 -6 3 -11 13 -10c0 0 3 0 4 1c41 6 104 29 155 53z" />
    <glyph glyph-name="uni06510670" unicode="&#xfc63;" horiz-adv-x="0" arabic-form="isolated" 
d="M-183 786c8 -12 5 -95 55 -73c51 23 -17 74 -25 86c-2 5 -1 8 6 11c42 18 36 -89 86 -67c51 22 -32 67 -39 79c-3 4 -2 7 5 11c8 3 20 0 35 -14c15 -13 61 -59 4 -83c-17 -8 -30 -9 -42 -5c-1 -12 -13 -19 -26 -25c-56 -25 -75 32 -80 50c-5 17 -3 27 6 31
c7 3 13 3 15 -1zM-170 878c-12 27 -19 62 -17 85v1c1 6 6 7 11 6c14 -4 8 -27 10 -34c1 -17 6 -85 46 -104c-37 13 -42 26 -50 46z" />
    <glyph glyph-name="uniFDF2" unicode="&#xfdf2;" horiz-adv-x="692" arabic-form="isolated" 
d="M629 146c11 -75 23 -227 -99 -227c-43 0 -69 20 -84 49c-17 -33 -48 -49 -84 -49c-42 0 -69 22 -86 53c-8 -15 -19 -29 -32 -41c-26 -21 -55 -27 -88 -17c-163 49 -237 538 -28 495c24 -5 85 -46 81 -74c7 1 14 1 19 -1c-5 55 -2 83 10 82c21 -1 34 -13 41 -35
c0 -3 1 -10 2 -20c4 -37 -3 -78 -1 -114c3 -13 5 -25 7 -33c8 -43 16 -102 11 -157c0 -41 8 -101 64 -101c148 0 1 442 -20 517c-6 22 -16 52 -30 91c-4 14 -8 27 -13 40c-22 59 21 100 53 15c66 -175 105 -378 113 -565c2 -40 12 -98 65 -98c148 0 2 442 -19 517
c-6 22 -16 52 -30 91c-4 14 -9 27 -13 40c-22 59 21 100 53 15c9 -25 20 -60 32 -103c33 -121 54 -243 76 -370zM191 319c-1 0 -2 -1 -3 -1c-21 31 -44 49 -68 54c-31 6 -53 -22 -66 -85c-18 -85 27 -315 129 -336c123 -25 37 286 19 324c-9 20 -14 32 -13 38c1 2 2 4 2 6z
" />
    <glyph glyph-name="uniFDFA" unicode="&#xfdfa;" horiz-adv-x="1057" arabic-form="isolated" 
d="M1017 437c0 -9 -5 -22 -16 -39c-10 -16 -20 -26 -31 -31c-31 -14 -70 -21 -116 -21c-15 0 -31 1 -48 2c-16 -31 -29 -47 -38 -47c-3 0 -4 2 -4 6c0 11 7 26 22 47c-29 11 -45 19 -48 26c-27 -17 -44 -26 -50 -26c5 -95 14 -153 25 -176c13 -24 41 -37 84 -40l2 2
c-14 11 -21 25 -21 43c0 21 11 47 32 76c16 21 36 32 61 32c18 0 36 -6 53 -17c16 -11 24 -22 24 -31c-17 6 -35 9 -52 9c-23 0 -44 -5 -65 -14c-17 -9 -26 -18 -26 -27s8 -22 25 -39c15 -16 30 -26 44 -29c12 1 35 7 68 18s56 18 67 25l-17 -37c-67 -35 -131 -53 -191 -53
c-65 0 -104 24 -119 73c-20 -43 -39 -65 -57 -65c-17 0 -40 15 -67 44c-43 -37 -109 -56 -197 -56c-27 0 -50 2 -70 5c3 -23 6 -40 9 -52c6 -24 14 -41 23 -50c29 -29 88 -44 176 -44c75 0 130 11 165 32c10 25 19 37 28 37c3 0 4 -3 4 -8c0 -9 -4 -24 -12 -44
c4 -9 13 -13 27 -13c17 0 34 4 49 12c14 44 25 66 33 66c3 0 4 -4 4 -11c0 -13 -3 -28 -10 -43c19 -9 34 -13 44 -13c4 0 7 1 8 3c1 1 -2 14 -8 39l17 36c8 -24 12 -41 12 -52c0 -45 -15 -67 -44 -67c-15 0 -31 6 -48 19c-10 -17 -30 -26 -59 -26c-32 0 -48 9 -48 26
c-13 -9 -34 -17 -64 -24c-37 -7 -77 -11 -121 -11c-65 0 -112 9 -143 28c-39 23 -59 65 -60 126l-22 -32c-11 -17 -20 -25 -26 -26c8 -14 12 -28 12 -41c0 -17 -5 -31 -16 -42c-5 -5 -12 -8 -21 -8c-13 0 -34 8 -61 23c-9 -21 -23 -36 -42 -47c-8 -5 -38 -5 -45 -7l-11 -4
c-4 0 -6 2 -6 5s8 8 24 15c21 8 34 14 39 19l34 26c-7 11 -10 24 -10 40c0 14 6 28 18 41c12 14 23 21 34 21l6 -2c11 -7 20 -10 29 -10c12 0 24 8 36 23l23 42c-25 8 -44 17 -55 27c-20 18 -33 46 -39 85h-2c-19 -33 -46 -50 -79 -50c-11 0 -24 3 -39 8c-11 5 -16 9 -16 12
c0 17 14 36 43 58c27 21 56 35 85 44l-2 17l20 33c5 -72 12 -119 21 -141c9 -21 28 -36 56 -45l-13 132l19 43l17 -180c35 -4 66 -6 95 -6c69 0 128 13 177 40c9 25 16 38 19 38s4 -3 4 -9c0 -8 -1 -16 -4 -25c25 -23 45 -35 59 -35c17 0 31 14 42 43l-13 161
c-49 -2 -79 23 -88 74h-2l-7 -25c-2 -7 -4 -12 -7 -17c-7 -17 -16 -27 -27 -30l2 -2c47 3 70 -10 70 -39c0 -20 -8 -35 -25 -46c-57 -39 -111 -59 -160 -59c-61 0 -102 33 -102 89c0 23 5 45 16 67c-19 5 -31 20 -38 43h-2c-10 -34 -28 -51 -55 -51c-33 0 -48 26 -47 77
l-27 -24c-5 -5 -18 -7 -39 -7c-33 0 -49 6 -49 18c0 8 4 18 13 31c9 15 18 24 25 27l76 37v10l17 36l4 -120c1 -28 11 -42 32 -42c20 0 43 17 46 33l-16 114l18 39l28 -161c6 -14 17 -21 33 -21c15 0 23 4 23 13c0 15 -5 40 -16 74l-10 32c-3 11 -7 22 -10 33l13 33
c27 -82 40 -134 40 -157c0 -15 -3 -30 -10 -44c-7 -19 -15 -28 -25 -28c-3 0 -6 1 -9 3c-5 -12 -7 -25 -7 -39c0 -50 30 -75 91 -75c47 0 95 16 142 48c1 1 2 2 2 3c0 4 -13 8 -38 12c-40 6 -60 9 -61 10c-8 6 -4 19 13 40c40 17 61 34 64 53c1 1 1 6 1 14
c0 65 -7 142 -20 231l17 56c16 -141 29 -225 38 -256c12 -38 36 -60 72 -66l-5 96l21 45l8 -140c19 7 39 19 60 36l30 -21c13 -8 26 -13 39 -15c15 16 37 34 65 55c35 25 59 38 70 38c12 0 26 -5 41 -14c17 -10 26 -21 26 -33zM1008 2c0 -33 -13 -69 -39 -108
c-28 -43 -58 -64 -89 -64c-16 0 -36 5 -59 16c-25 11 -37 18 -37 23c0 3 2 4 5 4c5 0 14 -2 27 -7c17 -5 29 -8 35 -8c45 -1 92 34 140 106l-7 22c-12 -17 -24 -26 -37 -26c-19 0 -35 21 -36 41c-1 15 4 33 15 54s20 31 28 31s19 -8 32 -24c15 -17 22 -37 22 -60zM979 664
l-9 -25c-25 -9 -64 -26 -116 -51c-64 -31 -96 -52 -96 -61c0 -7 9 -16 26 -25l-9 -24c-22 7 -33 20 -33 40s9 35 26 44c84 49 154 83 211 102zM460 673l16 -226c-2 -44 -6 -68 -13 -73l-25 242zM553 74l49 -37l-26 -31l-48 35l-28 -36l-50 36l29 35l47 -35zM989 420
c0 5 -6 10 -18 16c-11 6 -20 9 -26 9c-14 0 -34 -8 -60 -24l-27 -18c-8 -5 -15 -11 -20 -16c2 -1 9 -1 20 -1c27 0 53 3 82 8c33 7 49 15 49 26zM632 -121c0 -13 -1 -23 -2 -30c-4 -9 -12 -13 -25 -13c-7 0 -11 1 -14 4c-10 -11 -20 -16 -30 -16c-11 0 -24 17 -29 17
s-18 -6 -37 -17c-19 -12 -43 -18 -70 -18c-29 0 -44 3 -44 8s11 7 32 7c23 0 39 1 46 2c11 2 23 7 35 16c19 13 32 19 40 19c11 0 29 -16 32 -16c10 0 16 6 18 17c1 9 4 13 11 13c3 0 4 -2 4 -6c0 -5 0 -8 -1 -9c1 -3 5 -5 11 -6c8 0 12 4 12 12c0 11 4 16 11 16zM618 612
l197 93l-6 -22l-195 -96zM171 225l-2 38c-59 -23 -88 -40 -88 -52c0 -7 10 -10 31 -10c22 0 42 8 59 24zM324 665c0 -21 -7 -32 -21 -32c-9 0 -16 3 -21 8c-12 -10 -22 -15 -30 -15c-14 0 -21 9 -21 27c0 13 1 22 3 27l6 6c-1 -25 5 -37 17 -37c8 0 14 5 19 16l-2 23l9 14
l4 -30c1 -11 6 -16 15 -16c8 0 12 5 11 15l-3 22l7 10c5 -11 7 -24 7 -38zM190 448l-1 39c-13 -7 -26 -12 -41 -17c-22 -11 -33 -19 -34 -24c-1 -7 7 -11 25 -11c19 0 36 4 51 13zM214 -38c-3 13 -11 25 -24 34s-25 14 -34 14s-14 -4 -14 -12c0 -9 9 -18 26 -27
c16 -10 29 -15 39 -15c5 0 8 2 7 6zM979 10c-4 21 -13 32 -26 32c-11 0 -17 -8 -20 -25c3 -12 13 -18 31 -18c9 0 14 4 15 11z" />
    <glyph glyph-name=".notdef" horiz-adv-x="494" 
 />
    <glyph glyph-name=".null" 
 />
    <glyph glyph-name=".null" 
 />
    <glyph glyph-name="CR" unicode="&#xd;" horiz-adv-x="200" 
 />
    <glyph glyph-name="space" unicode=" " horiz-adv-x="200" 
 />
    <glyph glyph-name="space" unicode="&#xa0;" horiz-adv-x="200" 
 />
    <glyph glyph-name="exclam" unicode="!" horiz-adv-x="334" 
d="M126 47c-8 6 -7 14 3 26c31 28 43 85 34 171c-14 143 -43 260 -88 353c-1 2 -1 4 -1 6c-1 7 1 14 7 21s13 11 20 12c62 6 113 -337 117 -385c7 -59 -6 -166 -68 -199c-11 -6 -19 -8 -24 -5zM177 -82c-6 -1 -15 1 -26 7c-10 5 -16 11 -17 18c-2 20 10 32 36 34
c25 3 39 -7 41 -29c2 -18 -9 -28 -34 -30z" />
    <glyph glyph-name="quotedbl" unicode="&#x22;" horiz-adv-x="241" 
d="M139 456c-5 -3 -9 -5 -13 -5c-8 0 -12 4 -12 12c0 5 3 11 9 16c19 14 28 42 28 84c0 9 -1 17 -2 24c-1 11 19 26 35 26c13 0 19 -9 19 -27c0 -20 -6 -43 -19 -69c-13 -27 -28 -48 -45 -61zM72 456c-4 -3 -8 -5 -12 -5c-9 0 -13 4 -13 12c0 5 3 11 10 16
c19 14 28 42 28 84c0 9 -1 17 -2 24c-1 11 18 26 34 26c13 0 19 -9 19 -27c0 -20 -6 -43 -18 -69c-13 -27 -29 -48 -46 -61z" />
    <glyph glyph-name="numbersign" unicode="#" horiz-adv-x="741" 
d="M372 56c-1 -10 -6 -15 -14 -15c-11 0 -16 8 -14 23c9 79 40 179 92 299c53 125 107 215 160 272c4 4 9 6 15 6c9 0 15 -3 20 -10c6 -7 6 -14 -1 -21c-51 -55 -105 -143 -161 -263s-88 -217 -97 -291zM693 442c-1 -13 -6 -19 -16 -19h-5c-47 12 -111 18 -192 18
c-77 0 -154 -5 -231 -16c-80 -11 -142 -26 -187 -44c-3 -1 -5 -2 -8 -2c-9 0 -13 4 -13 12s5 14 14 18c51 21 120 38 206 51c86 14 169 21 248 21c69 0 125 -5 168 -16c11 -3 16 -10 16 -23zM697 285c0 -13 -5 -19 -16 -19h-5c-47 12 -111 18 -191 18
c-77 0 -154 -5 -231 -16c-80 -11 -142 -26 -187 -44c-3 -1 -6 -2 -9 -2c-9 0 -13 4 -13 13c0 8 5 14 15 17c51 21 119 39 205 52c87 14 170 21 249 21c69 0 125 -6 168 -17c11 -3 16 -10 15 -23zM172 22c-1 -11 -5 -16 -13 -16c-12 0 -17 8 -15 23c9 80 40 180 92 299
c54 125 108 215 161 272c3 5 8 7 14 7c9 0 16 -4 21 -11s5 -14 -1 -21c-52 -55 -106 -143 -162 -263c-55 -120 -88 -217 -97 -290z" />
    <glyph glyph-name="dollar" unicode="$" horiz-adv-x="361" 
d="M300 364c-4 0 -33 17 -45 18c-5 1 -13 -1 -22 -4c-12 -48 -22 -101 -29 -160c71 -6 107 -32 107 -77c0 -28 -13 -55 -38 -80c-23 -21 -50 -38 -82 -49c1 -30 3 -56 6 -77c2 -12 -2 -18 -11 -18s-14 6 -16 17c-3 20 -6 43 -7 70c-10 -1 -19 -2 -28 -2c-17 0 -32 5 -46 15
c-17 12 -25 27 -25 46c0 7 3 16 10 27s15 17 24 17c3 0 5 0 8 -1c-2 -11 -4 -20 -7 -27c-2 -3 -3 -7 -3 -11c0 -15 9 -23 28 -23c10 0 23 2 38 6c-1 42 0 86 3 132l-41 2c-16 1 -32 4 -47 9c-20 9 -30 20 -30 33c0 25 17 56 50 95c32 37 66 66 101 86c7 30 15 56 24 77
c3 7 9 11 19 11c13 0 26 -10 21 -23s-11 -29 -16 -46h10c10 0 22 -4 36 -11c17 -9 26 -20 26 -31c0 -14 -6 -21 -18 -21zM168 220c5 47 11 92 18 133c-24 -17 -44 -36 -61 -57c-19 -22 -28 -41 -28 -56c0 -14 24 -21 71 -20zM220 181l-20 1c-5 -43 -8 -83 -9 -122
c58 22 87 47 87 75c0 14 -7 25 -21 34c-11 7 -24 11 -37 12z" />
    <glyph glyph-name="percent" unicode="%" horiz-adv-x="625" 
d="M391 470c9 -1 26 -2 50 -2c8 0 15 0 22 1c22 19 42 35 61 48c4 3 9 4 14 4c11 0 18 -4 22 -13s0 -19 -13 -29c-11 -8 -26 -20 -47 -36c-77 -62 -160 -148 -248 -258c-86 -109 -145 -199 -176 -272c-4 -9 -9 -13 -16 -13c-9 0 -13 6 -13 17c0 4 1 8 3 12
c29 68 81 152 154 251s147 184 220 253c-14 1 -27 3 -38 6c-16 -53 -40 -84 -71 -91c-5 -1 -10 -1 -15 -1c-29 0 -44 17 -44 51c0 21 7 44 20 69s25 38 36 38s17 -5 17 -15c0 -3 -3 -8 -8 -15c-20 -27 -30 -51 -30 -74c0 -17 3 -26 10 -26c22 0 41 24 56 73
c-27 11 -39 28 -38 49c1 19 11 28 30 28c27 0 41 -18 42 -55zM289 -31c-6 -1 -11 -2 -16 -2c-29 0 -43 17 -43 51c0 21 6 45 19 70s26 38 37 38s17 -5 17 -16c0 -1 -7 -11 -20 -31s-19 -39 -19 -58c0 -17 4 -26 11 -26c13 0 27 13 41 40c13 24 19 43 19 58
c0 18 -4 27 -11 27s-15 -5 -25 -15l-7 4c-3 2 -5 5 -5 10s6 11 17 17c9 5 16 7 20 7c27 0 40 -18 41 -54c0 -17 -7 -38 -20 -65c-16 -32 -35 -50 -56 -55zM362 477c-1 15 -5 23 -11 23c-3 1 -5 0 -5 -1c0 -10 5 -17 16 -22z" />
    <glyph glyph-name="ampersand" unicode="&#x26;" horiz-adv-x="524" 
d="M354 161c-19 -4 -47 -11 -84 -22c-22 -9 -33 -20 -33 -34c0 -7 14 -30 14 -38c0 -9 -5 -14 -14 -14c-3 0 -8 6 -15 19c-10 17 -15 29 -15 36c0 30 21 53 62 70c39 12 77 24 116 36c41 17 62 40 62 69c0 19 -10 35 -29 46s-29 19 -29 23c0 9 6 14 18 14c15 0 32 -9 50 -27
c19 -20 29 -41 29 -63c0 -34 -14 -61 -43 -81c-19 -13 -49 -25 -89 -34zM181 -58c-35 5 -68 20 -99 47c-35 30 -52 63 -52 99c0 15 3 30 10 45c15 32 38 61 68 86c28 23 56 39 85 46c-59 27 -88 62 -88 104c0 15 4 30 11 45c27 58 78 87 155 87c7 0 14 0 21 -1
c19 -2 41 -10 67 -25c32 -18 48 -36 48 -55c0 -12 -16 -25 -29 -25c-7 0 -13 3 -17 10c-22 41 -56 62 -102 62c-52 0 -87 -19 -106 -58c-4 -9 -6 -17 -6 -26c0 -23 16 -45 49 -66c2 -1 29 -15 80 -41c4 -2 14 -3 30 -3c17 0 28 -1 34 -4c13 -5 19 -13 19 -25s-7 -18 -22 -18
c-3 0 -5 0 -8 1c-24 4 -41 6 -50 6c-27 -1 -42 -1 -44 0c-23 1 -51 -9 -85 -29c-38 -22 -64 -47 -78 -76c-6 -13 -9 -25 -9 -37c0 -27 15 -51 46 -72c26 -19 56 -30 91 -35c11 -1 21 -2 31 -2c56 0 99 17 129 52c33 38 40 88 21 150c-1 2 -1 4 -1 6c0 8 4 12 11 11
s13 -8 17 -20c9 -27 14 -51 14 -74c0 -59 -27 -104 -81 -135c-48 -27 -101 -37 -160 -30z" />
    <glyph glyph-name="quotesingle" unicode="'" horiz-adv-x="152" 
d="M53 296c-4 -3 -8 -5 -13 -5c-8 0 -12 4 -12 12c0 5 3 11 9 16c19 14 28 42 28 84c0 9 0 17 -1 24c-3 11 18 26 34 26c13 0 19 -9 19 -27c0 -20 -6 -43 -18 -69c-13 -27 -29 -48 -46 -61z" />
    <glyph glyph-name="parenleft" unicode="(" horiz-adv-x="301" 
d="M103 254c-9 -39 -14 -80 -14 -122c0 -108 33 -172 100 -192c5 -7 7 -14 7 -20c0 -15 -10 -21 -30 -16c-43 10 -74 42 -95 96c-16 43 -24 97 -24 161c0 47 4 89 12 124c13 55 32 107 59 156c31 57 65 97 103 122c3 2 6 3 9 3c9 0 15 -5 19 -16c5 -11 4 -19 -2 -26
c-75 -88 -123 -178 -144 -270z" />
    <glyph glyph-name="parenright" unicode=")" horiz-adv-x="256" 
d="M45 -95c-7 -5 -14 -7 -21 -7c-10 0 -15 4 -15 11c0 3 1 7 4 10c75 87 125 186 150 295c9 39 14 80 14 122c0 108 -33 172 -100 192c-5 7 -7 14 -7 20c0 15 10 21 30 16c43 -9 74 -41 95 -96c16 -43 24 -97 24 -161c0 -47 -4 -89 -12 -124c-13 -55 -32 -107 -59 -156
c-31 -57 -65 -97 -103 -122z" />
    <glyph glyph-name="asterisk" unicode="*" horiz-adv-x="369" 
d="M199 391c35 -46 110 -107 110 -109c0 -7 -7 -10 -11 -10c-2 0 -4 1 -5 2c-32 21 -69 58 -111 111c-35 -43 -72 -113 -76 -113c-3 0 -5 2 -5 7c0 24 37 73 67 111c-61 0 -146 8 -146 25c0 6 2 9 7 9h3c35 -11 78 -16 134 -17c-25 33 -67 105 -67 110s2 7 6 7
s42 -71 77 -114c37 45 93 114 117 114c7 0 11 -3 11 -9c0 -2 -1 -4 -4 -6c-31 -21 -67 -55 -106 -103h14c51 0 91 5 120 13h2c5 0 7 -2 7 -5c0 -15 -91 -23 -144 -23z" />
    <glyph glyph-name="plus" unicode="+" horiz-adv-x="553" 
d="M450 119c-41 16 -83 24 -129 24c3 -60 0 -122 -24 -188c-21 -56 -65 -43 -41 16c21 53 28 109 23 171c-55 -5 -115 -19 -180 -40c-51 -17 -59 37 -10 55c34 12 87 20 142 24l42 3c-7 43 -18 89 -34 138c-17 51 37 59 55 9c12 -33 20 -87 24 -141v-5c48 0 97 -6 148 -25
c56 -21 43 -65 -16 -41z" />
    <glyph glyph-name="comma" unicode="," horiz-adv-x="205" 
d="M58 -75c-15 -5 -22 -2 -22 10c0 7 5 13 14 16c24 9 49 53 56 96c2 11 13 16 32 16c15 0 22 -6 22 -19c-1 -18 -12 -40 -33 -66c-23 -27 -46 -44 -69 -53z" />
    <glyph glyph-name="hyphen" unicode="-" horiz-adv-x="533" 
d="M433 61c-100 41 -212 28 -352 -17c-50 -16 -58 37 -9 55c34 12 87 20 142 24c75 6 152 10 235 -21c56 -21 43 -65 -16 -41z" />
    <glyph glyph-name="hyphen" unicode="&#x2010;" horiz-adv-x="533" 
d="M433 61c-100 41 -212 28 -352 -17c-50 -16 -58 37 -9 55c34 12 87 20 142 24c75 6 152 10 235 -21c56 -21 43 -65 -16 -41z" />
    <glyph glyph-name="hyphen" unicode="&#xad;" horiz-adv-x="533" 
d="M433 61c-100 41 -212 28 -352 -17c-50 -16 -58 37 -9 55c34 12 87 20 142 24c75 6 152 10 235 -21c56 -21 43 -65 -16 -41z" />
    <glyph glyph-name="period" unicode="." horiz-adv-x="115" 
d="M62 -10c-8 0 -16 3 -24 8c-9 7 -13 14 -13 23c0 17 9 26 27 26c26 0 39 -7 39 -22c0 -23 -10 -35 -29 -35z" />
    <glyph glyph-name="slash" unicode="/" horiz-adv-x="705" 
d="M79 -66c-5 -10 -11 -15 -19 -15c-10 0 -16 6 -16 19c0 5 2 10 4 15c44 102 125 226 240 372c121 151 227 258 319 321c5 3 10 4 16 4v0c11 0 20 -5 26 -15c6 -12 4 -21 -7 -28c-91 -62 -197 -165 -319 -312c-122 -145 -203 -265 -244 -361z" />
    <glyph glyph-name="zero" unicode="0" horiz-adv-x="520" 
d="M227 -81c-51 0 -95 32 -131 97c-29 51 -44 98 -46 141c-2 84 8 159 30 226c31 98 85 158 160 183c4 1 10 0 18 -3c9 -4 14 -10 14 -17c0 -15 -13 -26 -38 -33c-46 -12 -85 -62 -116 -149c-17 -49 -26 -104 -26 -165c0 -47 10 -94 29 -142c27 -69 67 -104 119 -104
c55 0 101 40 139 119c29 60 46 121 50 182c1 10 1 19 1 30c0 59 -9 110 -27 155c-24 55 -56 82 -98 82c-20 0 -36 -19 -47 -57c-4 -4 -8 -7 -13 -7s-9 3 -12 9c-3 5 -4 11 -2 17c4 22 17 41 37 54c17 12 34 17 51 17c49 0 88 -32 119 -98c24 -53 37 -109 37 -165
c0 -82 -20 -160 -59 -234c-47 -92 -110 -138 -189 -138z" />
    <glyph glyph-name="one" unicode="1" horiz-adv-x="401" 
d="M217 518c-10 -2 -23 -15 -39 -39c-15 -23 -28 -34 -38 -34c-15 0 -23 6 -23 20s17 35 51 64c33 27 56 40 69 40c10 0 19 -3 27 -9c10 -7 15 -16 15 -27c0 -8 -9 -44 -27 -109c-31 -112 -47 -215 -47 -311c0 -65 12 -98 36 -98c65 0 101 -25 99 -62
c-78 39 -112 27 -212 -24c-14 -7 -23 -10 -26 -10c-15 0 -22 7 -22 22c0 16 36 38 108 66c-15 24 -22 54 -22 88v64c0 78 11 164 33 260c12 49 18 82 18 99z" />
    <glyph glyph-name="two" unicode="2" horiz-adv-x="604" 
d="M339 162c-35 -25 -84 -61 -145 -109c-42 -34 -63 -60 -63 -76c0 -3 5 -4 15 -4c17 0 57 10 120 31c65 21 113 32 143 32c20 0 40 -5 61 -16c26 -13 40 -30 40 -51c0 -14 -8 -26 -23 -38h-26c9 22 14 34 14 36c0 17 -25 25 -75 25c-32 0 -67 -7 -107 -21
c-33 -13 -67 -27 -101 -40c-22 -8 -39 -12 -52 -12c-14 0 -26 6 -38 17c-11 11 -17 23 -17 36c0 26 23 60 70 102c19 16 68 55 147 115c67 52 115 93 146 124c42 44 63 82 63 114c0 48 -27 72 -81 72c-82 0 -175 -33 -281 -97c-21 -13 -34 -20 -37 -20c-19 0 -29 9 -29 27
c0 12 6 22 18 30c11 6 22 11 33 17c106 54 195 81 269 81c44 0 80 -10 107 -30c30 -22 46 -55 46 -100c0 -35 -24 -77 -70 -124c-31 -31 -80 -71 -147 -121z" />
    <glyph glyph-name="three" unicode="3" horiz-adv-x="713" 
d="M559 320c-22 -15 -63 -38 -123 -68c103 -7 154 -49 154 -124c0 -53 -33 -102 -97 -147c-59 -41 -116 -62 -169 -62c-122 0 -200 46 -236 137c-2 4 -4 8 -4 12v0c0 8 4 14 10 16c7 2 13 -1 18 -9c14 -35 39 -62 75 -82c33 -18 70 -28 110 -28c54 0 109 16 163 46
c62 34 93 74 93 121c0 54 -57 81 -170 81c-9 0 -39 -5 -92 -13c-10 -2 -18 -2 -22 -2c-14 0 -20 5 -20 15c0 16 11 27 34 34c15 3 37 9 67 17c58 20 113 47 165 80c69 44 103 86 103 124c0 25 -13 44 -38 57c-23 12 -50 16 -80 14c-63 -4 -122 -18 -176 -42
c-36 -15 -63 -31 -81 -48c-5 -5 -12 -8 -21 -8c-18 0 -27 8 -27 23c0 22 33 47 100 73c69 28 136 41 202 41c111 0 166 -38 166 -114c0 -50 -34 -98 -104 -144z" />
    <glyph glyph-name="four" unicode="4" horiz-adv-x="589" 
d="M437 308l4 1c41 9 82 -17 102 -51l-9 -30c-29 29 -71 45 -108 28c-8 -57 -13 -95 -13 -115c0 -96 -9 -142 63 -216c-98 -19 -114 83 -114 157c0 19 3 47 9 83c6 37 10 64 10 81c-97 -24 -177 -55 -260 -90c-26 -12 -43 -18 -49 -18c-21 0 -32 9 -32 26c0 4 7 19 20 47
c16 33 24 51 25 53c42 105 64 187 78 274c9 45 21 68 36 68c18 0 27 -12 27 -35c0 -29 -15 -88 -45 -177c-29 -85 -55 -149 -78 -193c97 27 203 59 286 100c7 45 19 99 35 161c22 84 39 125 52 125c18 0 27 -8 27 -26c0 -13 -11 -53 -33 -120c-19 -61 -30 -105 -33 -133z
" />
    <glyph glyph-name="five" unicode="5" horiz-adv-x="597" 
d="M136 276c94 54 174 81 239 81c49 0 89 -10 119 -29c34 -21 51 -53 51 -95c0 -15 -2 -31 -7 -48c-20 -76 -73 -141 -158 -194c-77 -48 -151 -72 -222 -72c-64 0 -97 22 -97 66c0 7 2 15 4 24c2 6 7 15 15 26c9 13 17 20 23 20c13 0 17 -9 12 -27c-7 -5 -12 -13 -15 -23
c0 -4 -1 -7 -1 -10c0 -23 21 -34 63 -34c62 0 129 24 199 70c75 49 120 103 135 163c3 10 4 20 4 30c0 28 -10 50 -30 67c-21 17 -47 25 -78 25c-60 0 -145 -32 -256 -95c-23 -14 -37 -20 -43 -20c-17 0 -26 6 -26 17c0 8 8 25 23 49c32 51 57 113 76 185c1 3 2 8 4 15
l-7 -4c-12 -7 -22 -11 -28 -11c-17 0 -25 7 -25 21v6c4 13 36 32 95 57c49 20 86 32 111 38c42 9 85 14 132 14c21 0 38 -7 52 -20c11 -11 17 -24 17 -39s-7 -24 -19 -27c-6 -1 -11 1 -14 6c-2 4 -3 10 -1 15v6c0 13 -17 20 -51 20c-51 0 -121 -20 -209 -60
c-17 -67 -43 -131 -77 -193c-4 -8 -8 -15 -10 -20z" />
    <glyph glyph-name="six" unicode="6" horiz-adv-x="472" 
d="M399 517c-4 0 -15 3 -35 8c-18 6 -33 9 -44 9c-29 0 -64 -23 -104 -67c-35 -39 -60 -76 -76 -112c-48 -109 -72 -193 -70 -252c2 -97 30 -146 83 -146c24 0 54 16 88 48c30 29 53 57 68 85c32 62 48 114 47 156c-2 51 -23 77 -65 77s-83 -28 -123 -84
c-37 -53 -55 -103 -54 -148c0 -12 4 -25 12 -38c7 -14 11 -22 11 -24c0 -11 -6 -17 -18 -17c-11 0 -21 12 -30 35c-8 19 -11 35 -12 49c-1 59 19 116 60 172c45 60 97 90 156 90c34 0 61 -12 79 -36c17 -21 25 -48 27 -81c1 -64 -21 -132 -68 -203
c-51 -79 -109 -119 -172 -119c-23 0 -44 6 -63 19c-20 12 -34 29 -42 51c-15 37 -22 79 -22 127c0 87 21 172 62 253c26 50 60 95 101 136c52 53 101 79 148 79c15 0 32 -3 49 -10c22 -9 33 -21 34 -35c1 -15 -9 -22 -27 -22z" />
    <glyph glyph-name="seven" unicode="7" horiz-adv-x="556" 
d="M400 511h-4c-32 -4 -89 -8 -172 -12c-104 -3 -157 10 -157 39c0 15 10 23 28 23c10 0 24 -2 42 -8c18 -5 32 -7 41 -8c109 -4 204 0 285 12c18 3 27 -3 27 -19c0 -5 -2 -10 -4 -16c-7 -3 -17 -8 -29 -14c-25 -14 -57 -48 -98 -103c-32 -42 -60 -84 -84 -126
c-63 -108 -102 -205 -115 -290c-2 -12 -5 -31 -8 -57c-8 -9 -16 -13 -23 -13c-16 0 -24 13 -24 39c0 72 35 169 106 293c63 109 126 196 189 260z" />
    <glyph glyph-name="eight" unicode="8" horiz-adv-x="613" 
d="M392 212l-8 -8c38 -17 65 -36 80 -55c13 -16 19 -35 19 -56c0 -54 -28 -98 -84 -132c-46 -28 -94 -42 -143 -42c-80 0 -119 25 -119 76c0 44 52 109 157 194c-16 7 -42 15 -76 25c-35 10 -60 19 -77 26c-52 23 -78 50 -78 82c0 33 30 70 89 109c47 31 106 60 176 87
c62 24 105 35 128 35c31 0 56 -10 76 -30c20 -21 30 -46 30 -77c0 -10 -4 -28 -13 -57c-11 -35 -22 -53 -34 -53c-19 0 -28 7 -28 22c0 8 7 23 20 43c13 21 19 39 19 55c0 35 -22 53 -66 53c-52 0 -122 -23 -211 -69c-95 -49 -142 -93 -142 -132c0 -15 49 -36 146 -64
c13 -3 37 -11 74 -24c2 0 4 -1 6 -2c6 0 25 15 57 45c29 26 47 44 54 53c6 6 8 12 8 17v0c0 -2 -1 2 -2 11c-1 6 0 11 3 17c4 4 8 7 12 7c6 0 12 -5 17 -15c4 -9 6 -17 6 -24c0 -24 -32 -63 -96 -117zM342 174c-8 0 -37 -25 -87 -74c-54 -53 -80 -88 -80 -106
c0 -25 29 -38 88 -38c29 0 66 14 109 41c50 31 75 63 75 96c0 15 -16 32 -46 53c-29 19 -48 28 -59 28z" />
    <glyph glyph-name="nine" unicode="9" horiz-adv-x="473" 
d="M350 71c-54 -101 -118 -152 -193 -152c-14 0 -32 5 -53 15c-26 13 -39 27 -39 44c0 11 4 16 12 16c5 0 11 -2 16 -7c22 -21 42 -32 60 -32c74 0 134 63 181 189c34 93 51 173 51 239c0 36 -5 71 -15 105c-17 56 -45 83 -81 83c-13 0 -36 -12 -69 -37
c-35 -26 -63 -65 -83 -116c-17 -46 -25 -93 -25 -142c0 -63 20 -95 61 -95c42 0 81 29 117 86c32 53 49 104 49 153c0 32 -9 52 -27 61c-6 2 -8 6 -8 11v0c0 6 3 11 9 16s11 6 16 4c20 -10 33 -26 40 -48c4 -14 6 -37 6 -69c0 -47 -19 -98 -56 -154
c-43 -65 -92 -97 -149 -97c-2 0 -5 1 -8 2l-2 1c-36 0 -63 20 -80 61c-12 28 -18 58 -18 90c0 60 22 125 67 195c48 77 100 116 153 116s92 -30 116 -89c18 -43 27 -97 27 -161c0 -12 -1 -23 -1 -33c-6 -89 -30 -174 -74 -255z" />
    <glyph glyph-name="colon" unicode=":" horiz-adv-x="184" 
d="M115 195c-10 0 -19 3 -28 10c-10 7 -15 16 -15 26c0 20 10 31 31 31c31 0 46 -9 46 -27c0 -27 -11 -40 -34 -40zM77 -81c-10 0 -19 3 -28 10c-10 7 -15 16 -15 26c0 21 10 31 31 31c31 0 46 -8 46 -26c0 -27 -11 -41 -34 -41z" />
    <glyph glyph-name="semicolon" unicode=";" horiz-adv-x="274" 
d="M190 287c-10 0 -19 4 -28 10c-10 7 -15 16 -15 27c0 20 10 31 31 31c31 0 47 -9 47 -27c0 -27 -12 -41 -35 -41zM54 -78c-18 -7 -27 -2 -27 12c0 9 6 15 17 19c14 6 28 20 41 42s22 46 26 71c2 13 14 19 37 19c17 0 26 -7 25 -23c0 -21 -13 -46 -39 -77
c-26 -32 -53 -53 -80 -63z" />
    <glyph glyph-name="less" unicode="&#x3c;" horiz-adv-x="501" 
d="M59 148c2 9 6 18 15 27c24 26 68 57 115 86c64 39 131 78 219 88c59 7 68 -38 4 -44c-104 -9 -195 -66 -296 -165c96 -101 192 -157 296 -166c64 -6 55 -51 -4 -44c-88 10 -155 49 -219 88c-47 29 -91 60 -115 86c-14 15 -18 33 -15 44z" />
    <glyph glyph-name="equal" unicode="=" horiz-adv-x="523" 
d="M434 36c-100 41 -212 28 -352 -17c-50 -16 -58 37 -9 55c34 12 87 20 142 24c75 6 152 10 235 -21c56 -21 43 -65 -16 -41zM434 185c-100 41 -212 28 -352 -17c-50 -16 -58 37 -9 55c34 12 87 20 142 24c75 6 152 10 235 -21c56 -21 43 -65 -16 -41z" />
    <glyph glyph-name="greater" unicode="&#x3e;" horiz-adv-x="483" 
d="M438 148c3 -11 -1 -29 -15 -44c-24 -26 -68 -57 -115 -86c-64 -39 -131 -78 -219 -88c-59 -7 -68 38 -4 44c104 9 200 65 296 166c-101 99 -192 156 -296 165c-64 6 -55 51 4 44c88 -10 155 -49 219 -88c47 -29 91 -60 115 -86c9 -9 13 -18 15 -27z" />
    <glyph glyph-name="question" unicode="?" horiz-adv-x="453" 
d="M309 290c-16 -13 -43 -33 -81 -60c-71 -50 -106 -87 -106 -110c0 -11 5 -17 15 -18c18 -3 27 -8 27 -17c0 -13 -8 -19 -24 -19c-32 0 -56 27 -56 59c0 27 25 62 74 103c46 35 92 71 138 106c49 40 74 72 74 97c0 45 -34 67 -102 67c-36 0 -77 -11 -123 -34
c-31 -15 -65 -35 -103 -62c-32 -22 -49 -33 -51 -33c-15 0 -22 8 -22 24c0 17 28 41 84 73c48 28 84 45 108 52c37 10 73 15 108 15c93 0 140 -35 140 -104c0 -40 -33 -86 -100 -139zM127 -68c-21 0 -31 8 -31 23c0 19 11 28 32 28c23 0 34 -9 34 -26c0 -5 -5 -11 -14 -17
c-8 -5 -15 -8 -21 -8z" />
    <glyph glyph-name="at" unicode="@" horiz-adv-x="771" 
d="M429 -81c-188 0 -388 128 -388 333c0 183 184 355 364 355c60 0 115 -19 166 -58c57 -43 91 -99 104 -168c3 -16 4 -33 4 -50v0c0 -68 -18 -125 -55 -171c-39 -50 -87 -65 -143 -45c-32 12 -48 49 -47 113c-90 -112 -161 -167 -212 -167c-29 0 -43 17 -43 51
c0 66 43 149 129 250c86 102 150 139 191 112c13 -9 20 -26 20 -51c0 -103 -104 4 -47 17c-29 -6 -78 -53 -147 -142c-69 -88 -103 -148 -103 -180c0 -11 4 -16 14 -16c22 0 63 35 121 105c19 22 38 45 57 68c23 30 35 56 38 79c2 16 11 24 28 24c23 0 32 -11 28 -33
c-16 -82 -24 -131 -24 -147c0 -28 6 -44 18 -47c5 -1 10 -2 15 -2v0c33 0 61 24 83 73c22 48 28 100 17 155c-12 59 -39 105 -80 140c-38 31 -82 46 -131 46c-158 0 -310 -154 -310 -311c0 -178 168 -289 333 -289c71 0 131 19 180 57c48 39 72 86 72 142c0 20 -3 41 -10 61
c-1 4 -2 7 -2 10v0c0 11 4 17 13 18c9 2 16 -2 22 -13c92 -194 -106 -319 -275 -319z" />
    <glyph glyph-name="A" unicode="A" horiz-adv-x="548" 
d="M494 -62c-61 1 -100 91 -119 272c-6 1 -13 1 -22 1c-31 0 -77 -7 -140 -21c-57 -13 -87 -22 -89 -26c-11 -28 -29 -70 -53 -126c-10 -26 -24 -60 -41 -103c-13 -32 -27 -48 -42 -48c-17 0 -26 10 -26 29c0 9 26 64 79 167c13 27 23 47 28 60c-18 -7 -34 -15 -47 -24
c-5 -4 -12 -6 -20 -6c-17 0 -25 8 -25 25c0 12 16 24 49 36c22 7 44 14 65 21c8 17 18 38 29 61c19 43 48 106 89 189c40 78 79 117 117 117c17 0 33 -11 46 -34c9 -15 15 -30 19 -47c9 -44 18 -120 25 -228c65 -6 98 -29 98 -69c0 -14 -6 -24 -17 -30c-15 -7 -23 -3 -23 14
c0 2 2 7 5 16c0 18 -22 27 -65 27c4 0 7 -4 8 -11c22 -151 46 -227 71 -227c5 0 10 2 15 5c15 12 17 12 22 12c12 1 18 -6 18 -21c0 -9 -7 -17 -22 -23c-12 -5 -23 -8 -32 -8zM357 413c-11 72 -25 108 -42 108s-47 -47 -91 -140c-15 -32 -40 -87 -73 -166
c80 23 154 37 221 42c-2 33 -7 85 -15 156z" />
    <glyph glyph-name="B" unicode="B" horiz-adv-x="654" 
d="M269 -71c-73 -9 -115 -14 -127 -14c-67 0 -101 23 -101 68c0 29 11 50 34 64c10 0 16 -1 18 -2c1 -1 3 -6 6 -17c-15 -17 -22 -32 -22 -45c0 -15 22 -23 66 -23c66 0 138 16 216 49c38 15 81 43 128 84c55 46 82 83 82 111c0 34 -34 51 -102 51c-49 0 -100 -9 -151 -27
c-2 -1 -22 -10 -61 -27c-31 -14 -49 -21 -56 -21c-19 0 -29 4 -29 11c0 9 15 23 46 41c161 91 241 170 241 236c0 16 -9 29 -27 38c-16 8 -35 12 -58 12c-95 0 -198 -52 -311 -157c-23 -21 -38 -32 -43 -32c-17 0 -25 9 -25 27c0 13 20 35 61 67c110 87 214 131 313 131
c93 0 139 -32 139 -96c0 -44 -40 -99 -119 -165c25 5 51 7 77 7c32 0 62 -7 90 -20c36 -18 54 -43 54 -75c0 -56 -44 -116 -132 -179c-79 -57 -148 -89 -207 -97zM176 376c-33 -64 -50 -153 -50 -266c0 -49 17 -78 52 -88c5 -5 8 -10 8 -15c0 -10 -8 -15 -24 -15
c-25 0 -45 19 -60 58c-13 30 -19 59 -19 86c0 35 8 90 23 163c17 87 35 131 54 131c17 0 25 -9 25 -26c0 -8 -3 -17 -9 -28z" />
    <glyph glyph-name="C" unicode="C" horiz-adv-x="543" 
d="M426 34c-26 -33 -58 -61 -97 -83c-43 -24 -84 -36 -124 -36c-46 0 -84 19 -115 58c-28 35 -42 75 -42 121v36c0 50 16 110 48 179c33 73 74 133 121 181c55 55 110 83 164 83c12 0 27 -4 45 -13c21 -10 31 -21 31 -33c0 -17 -16 -30 -31 -30c-2 0 -11 4 -28 11
c-17 8 -31 12 -42 12c-55 0 -113 -51 -176 -154c-58 -96 -87 -176 -87 -241c0 -46 7 -84 22 -114c18 -37 45 -56 82 -56c31 0 66 12 107 35c61 35 113 94 156 175c7 13 14 20 22 20s14 -7 17 -21c-2 -10 -13 -32 -33 -67c-18 -31 -31 -52 -40 -63z" />
    <glyph glyph-name="D" unicode="D" horiz-adv-x="620" 
d="M245 -75c-33 0 -57 6 -71 17c-3 2 -4 5 -4 8c0 9 11 20 20 17c23 -5 34 -7 35 -7c73 0 142 37 209 110c65 71 98 144 98 217c0 60 -24 108 -73 145c-45 34 -100 51 -164 51c-44 0 -90 -7 -139 -21c-50 -14 -92 -33 -126 -56s-53 -35 -58 -35c-19 0 -29 9 -29 27
c0 11 15 26 45 43c96 56 199 84 309 84c71 0 133 -21 188 -63c59 -45 89 -103 89 -173c0 -85 -33 -166 -98 -243c-69 -81 -146 -121 -231 -121zM146 -72c-34 0 -60 33 -78 100c-13 47 -20 94 -20 139v67c0 24 4 59 13 104c11 55 22 83 34 83c18 0 27 -10 27 -30
c0 -9 -2 -21 -6 -36c-5 -21 -8 -33 -9 -36c-10 -52 -15 -100 -15 -143c0 -141 25 -212 74 -212c7 0 13 1 20 4c-15 -27 -28 -40 -40 -40z" />
    <glyph glyph-name="E" unicode="E" horiz-adv-x="493" 
d="M379 450c-9 -1 -13 8 -13 17c1 4 1 8 1 12c0 12 -4 20 -12 24c-7 3 -20 4 -40 4c-54 0 -130 -17 -229 -52c-4 -1 -22 -13 -53 -34s-49 -32 -53 -32c-18 0 -27 9 -27 27c0 15 36 38 107 69c49 21 96 38 140 52c15 5 52 11 109 19c5 1 11 1 17 1c23 0 42 -5 57 -14
c17 -11 26 -25 26 -42c0 -12 -4 -25 -13 -39c-5 -8 -10 -12 -17 -12zM103 255c8 1 29 8 63 20c26 9 47 13 62 13c50 0 79 -12 86 -36l-4 -23c-13 -1 -24 4 -31 13c-4 6 -16 9 -35 9c-15 0 -41 -5 -78 -14c-41 -10 -63 -19 -65 -27c-4 -15 -5 -40 -4 -75c1 -27 3 -53 4 -80
c1 -25 3 -42 7 -53c7 -17 21 -26 42 -26c22 0 57 6 106 19c51 13 90 20 117 20c22 0 42 -7 61 -21c21 -16 31 -37 31 -62l-22 -12c-16 35 -45 53 -86 53c-24 0 -60 -6 -107 -18s-82 -18 -107 -18c-37 0 -63 13 -76 39c-9 17 -14 45 -14 82c0 15 1 36 3 64c1 30 2 52 3 65
c-17 -10 -29 -15 -34 -15c-15 0 -22 10 -22 29c0 11 19 25 57 42c2 25 6 65 11 122c8 71 21 106 40 106c18 0 27 -11 27 -32c0 1 -4 -17 -12 -54c-7 -31 -15 -75 -23 -130z" />
    <glyph glyph-name="F" unicode="F" 
d="M433 467c-9 5 -13 13 -13 26c0 19 -27 29 -80 29c-25 0 -63 -6 -114 -19c-47 -12 -84 -24 -113 -36c-5 -3 -27 -15 -65 -36l-37 -21c-11 -6 -19 -10 -24 -11c-16 0 -24 9 -24 26s17 33 52 46c161 64 273 96 335 96c25 0 47 -4 66 -13c26 -12 39 -29 39 -52
c0 -20 -7 -32 -22 -35zM82 240c6 0 18 3 37 8c23 5 42 8 57 8c16 0 32 -2 48 -7c22 -7 33 -18 33 -33l-13 -13c-11 1 -23 5 -36 11c-10 5 -18 7 -24 7c-13 0 -32 -2 -57 -6c-31 -5 -47 -11 -47 -17c0 -182 20 -270 61 -263h6c14 0 21 -6 21 -17c0 -5 -4 -10 -11 -14
c-5 -3 -11 -5 -16 -5c-69 0 -105 92 -106 275l-7 -4c-19 -11 -30 -16 -32 -16c-17 0 -25 7 -25 22c0 14 8 25 25 33c14 5 28 10 43 15c3 21 6 47 9 79c5 59 8 90 8 93c8 47 21 70 40 70c15 0 23 -9 23 -26c0 -3 -2 -14 -6 -31c-12 -47 -19 -75 -21 -84
c-7 -32 -10 -60 -10 -85z" />
    <glyph glyph-name="G" unicode="G" horiz-adv-x="627" 
d="M563 -134c-50 0 -75 46 -75 138c0 30 5 75 16 135c-41 -73 -80 -124 -116 -153c-49 -42 -111 -63 -184 -63c-51 0 -91 27 -120 80c-23 43 -35 90 -35 141c0 97 30 194 91 293c69 113 150 170 243 170c14 0 29 -4 45 -12c20 -9 30 -20 30 -33c0 -15 -12 -28 -24 -28
c-3 0 -5 1 -8 2c-21 13 -41 19 -62 19c-35 0 -73 -19 -113 -58c-47 -46 -85 -101 -114 -166c-30 -67 -45 -132 -45 -195c0 -41 9 -79 28 -114c21 -41 49 -61 83 -61c73 0 146 45 218 136c65 83 101 160 108 232c2 24 -2 36 -12 36c-12 0 -75 -34 -188 -103
c-23 -14 -37 -21 -42 -21c-15 0 -23 8 -23 25s39 45 117 83c75 36 122 54 143 54c33 0 50 -20 50 -60c0 -13 -2 -28 -5 -47c-2 -9 -4 -21 -7 -36c-17 -121 -26 -213 -26 -275c0 -57 10 -84 29 -81c17 2 26 -4 26 -17c0 -14 -9 -21 -28 -21z" />
    <glyph glyph-name="H" unicode="H" horiz-adv-x="684" 
d="M184 259l1 -5c74 23 132 37 175 42c72 7 108 10 109 10c5 0 12 -1 22 -2c11 -1 19 -1 22 -1c5 50 15 103 30 158c20 73 39 109 58 109c15 0 22 -10 22 -29c0 -9 -2 -20 -5 -32c-7 -18 -15 -39 -24 -64c-7 -25 -13 -49 -20 -74c-7 -29 -11 -54 -12 -75
c21 -9 35 -17 42 -24c13 -11 19 -25 19 -43c0 -19 -16 -38 -29 -38c-9 0 -14 7 -17 20l10 21c-2 10 -12 17 -29 21c-3 -9 -3 -37 0 -83c2 -36 4 -61 5 -74c9 -72 26 -108 49 -108c7 0 12 3 17 10h24c3 -11 4 -16 4 -17c0 -9 -6 -16 -17 -22c-10 -5 -19 -8 -28 -8
c-48 0 -79 42 -93 127c-4 21 -8 81 -11 180c-12 2 -34 3 -67 3c-55 0 -141 -17 -257 -50c-3 -41 -12 -98 -27 -170c-19 -92 -54 -138 -103 -138c-8 0 -17 3 -28 9c-14 7 -21 16 -21 27c0 1 2 6 5 16h20c7 -11 14 -16 20 -16c31 0 54 38 71 115c9 45 15 92 17 140
c-29 -15 -49 -22 -59 -22c-14 0 -21 8 -21 23c0 12 10 22 29 30c4 2 19 6 45 13c2 -1 4 -1 6 -1c1 26 2 44 2 54c-1 13 -2 47 -4 104c-1 35 -8 80 -22 134c-2 9 -3 18 -3 25c0 21 9 31 28 31c14 0 26 -33 35 -100c7 -50 10 -92 10 -127v-23v-39v-37z" />
    <glyph glyph-name="I" unicode="I" horiz-adv-x="470" 
d="M391 540c-6 17 -32 25 -77 25c-48 0 -95 -9 -142 -26c-51 -19 -91 -36 -118 -52c-2 -1 -4 -2 -7 -2c-13 0 -20 8 -20 23c0 20 40 41 121 64c71 20 121 30 152 30c23 0 47 -4 74 -13c35 -11 52 -26 52 -44c0 -17 -4 -26 -13 -26s-17 7 -22 21zM422 -55
c-3 -1 -10 -2 -22 -2c-5 29 -34 43 -86 43c-59 0 -129 -17 -209 -52c-17 -7 -27 -11 -30 -11c-17 0 -26 9 -26 27c0 19 54 40 162 62c-27 35 -40 105 -40 210c0 71 5 144 16 218c1 21 5 53 10 94c1 5 5 12 10 19c7 8 15 12 22 12c19 0 27 -12 24 -35
c-25 -159 -38 -269 -38 -330c0 -29 1 -56 4 -82c7 -64 21 -96 42 -96c8 0 30 2 38 2c27 0 54 -4 79 -12c35 -11 52 -28 52 -49c0 -9 -3 -15 -8 -18z" />
    <glyph glyph-name="J" unicode="J" horiz-adv-x="333" 
d="M366 541c-9 -11 -17 -12 -26 -1c1 3 1 5 1 8c0 17 -8 29 -24 34c-8 3 -23 4 -44 4c-49 0 -120 -20 -214 -61c-17 -7 -26 -11 -29 -11c-18 0 -27 7 -27 22c0 21 42 41 126 61c71 17 123 26 158 26c19 0 38 -5 55 -15c21 -12 32 -29 32 -50c0 -5 -3 -10 -8 -17zM162 -87
c-18 -41 -43 -77 -75 -110c-39 -41 -79 -62 -118 -65c-25 -2 -38 -3 -37 -3c-33 0 -67 13 -100 40c-35 29 -53 60 -54 95c-1 20 5 30 18 30c7 0 11 -6 13 -18c4 -27 17 -51 40 -71c22 -20 47 -30 74 -30c92 0 161 55 207 164c34 83 51 180 51 293c0 96 -8 196 -23 300
c-1 9 1 17 6 26c6 11 15 16 26 16c13 0 22 -7 27 -21c1 -5 2 -17 3 -36c3 -65 4 -121 4 -169c0 -200 -21 -347 -62 -441z" />
    <glyph glyph-name="K" unicode="K" horiz-adv-x="552" 
d="M433 -40c-47 3 -107 48 -180 136c-18 22 -44 53 -79 93c-27 28 -52 45 -77 51l-3 22c11 8 18 12 23 13h22c33 4 73 24 119 60c40 31 73 64 100 98c1 3 5 10 12 22c34 60 56 90 66 89c13 -1 24 -19 23 -28c-1 -17 -22 -54 -65 -111c-19 -25 -48 -54 -88 -85
c-45 -34 -85 -58 -121 -71c5 -5 25 -30 60 -76c29 -38 60 -73 95 -106c47 -46 85 -70 113 -71c6 0 13 2 21 6c6 3 18 9 36 17l10 -16c-1 -14 -13 -25 -36 -34c-19 -7 -36 -10 -51 -9zM154 -74c-35 0 -62 22 -81 66c-14 31 -23 68 -26 109c-1 13 -2 29 -2 50
c0 86 6 170 17 251c13 101 31 152 53 152c18 0 26 -10 25 -30c-34 -87 -51 -194 -51 -321c0 -21 1 -50 2 -86c0 -21 6 -51 17 -88c13 -45 27 -68 41 -68c13 1 24 -2 33 -8c-2 -18 -11 -27 -28 -27z" />
    <glyph glyph-name="L" unicode="L" horiz-adv-x="526" 
d="M453 -66l1 20c3 34 -39 51 -124 51c-67 0 -141 -14 -221 -41c-2 -1 -24 -9 -65 -26c-35 -14 -54 -21 -58 -21c-17 0 -26 8 -26 25c0 9 18 22 53 41c7 3 11 5 12 6c39 31 59 104 59 220c0 65 -1 113 -4 144c-7 95 -11 141 -11 136c0 21 6 39 17 54c13 18 31 27 53 27
c18 0 42 -11 73 -34c33 -24 49 -46 49 -65c0 -17 -8 -25 -25 -25c-12 0 -27 15 -46 44c-18 30 -37 45 -56 45c-13 0 -18 -19 -16 -57c6 -132 9 -198 9 -199v-152c0 -44 -11 -86 -33 -125c92 34 174 51 245 51c29 0 60 -8 92 -25c38 -20 57 -44 57 -72c0 -15 -12 -22 -35 -22
z" />
    <glyph glyph-name="M" unicode="M" horiz-adv-x="893" 
d="M784 -83c-28 0 -49 13 -63 40c-23 46 -37 187 -42 422c-3 112 -18 168 -45 168c-26 0 -59 -48 -99 -145c-22 -53 -43 -116 -64 -189c-27 -93 -39 -161 -37 -206c1 -12 -1 -24 -6 -35c-5 -15 -14 -22 -25 -22c-7 0 -13 4 -18 12c-4 7 -6 13 -6 19c0 21 1 52 4 93
c3 42 5 73 5 94c0 68 -2 125 -7 172c-9 87 -23 131 -42 131s-44 -37 -77 -111c-59 -135 -95 -241 -107 -317c-1 -21 -5 -51 -10 -91c-4 -17 -15 -25 -32 -25c-18 0 -27 10 -27 30c0 -1 3 22 9 71c12 111 18 230 18 358c0 60 -8 90 -24 90c-11 0 -27 -12 -48 -37l-42 -54
c-17 -21 -29 -31 -37 -31c-17 0 -26 10 -26 29c0 16 23 42 70 79c45 36 76 54 91 54c31 0 51 -27 59 -81c3 -17 4 -55 4 -115c0 -19 -2 -58 -5 -117c70 205 133 308 190 308c39 0 64 -43 75 -128c5 -32 7 -91 7 -176c9 41 16 72 22 93c15 57 38 114 67 169
c42 78 83 117 123 117c48 0 75 -52 81 -155l11 -201c6 -101 9 -152 9 -154c9 -81 26 -122 49 -122c12 0 30 25 39 25c3 0 6 -1 9 -3c7 -5 10 -13 7 -23s-12 -19 -27 -26c-13 -7 -24 -10 -33 -10z" />
    <glyph glyph-name="N" unicode="N" horiz-adv-x="596" 
d="M491 -33c-36 0 -62 32 -79 95c-10 39 -18 103 -24 192c-3 45 -8 108 -17 188c-9 52 -21 78 -36 78c-11 0 -35 -45 -70 -136c-39 -99 -64 -167 -75 -204c-23 -79 -35 -150 -35 -214c1 -25 -9 -38 -28 -38s-28 12 -28 35c0 21 2 52 6 94c5 43 7 74 7 95c0 23 1 58 4 105
s4 82 4 105c0 66 -7 99 -22 99c-17 0 -51 -30 -101 -90c-11 -14 -18 -22 -21 -23c-2 -1 -4 -2 -6 -2c-6 0 -11 3 -16 10c-4 6 -6 12 -6 17c0 18 22 44 67 79c43 33 74 50 92 50c39 0 58 -27 57 -81l-2 -199c11 36 29 90 54 161c44 115 88 173 132 173c30 0 51 -23 62 -70
c3 -11 7 -46 12 -104c2 -41 8 -111 17 -210c14 -110 32 -165 53 -165c3 0 10 4 21 13c4 3 9 5 16 7l17 -8c-1 -14 -8 -27 -22 -38c-12 -9 -23 -14 -33 -14z" />
    <glyph glyph-name="O" unicode="O" horiz-adv-x="548" 
d="M213 -67c-61 0 -106 25 -134 76c-22 39 -33 89 -33 151c0 40 7 82 20 125c10 28 20 56 30 83c-3 66 19 123 66 170c45 46 97 67 157 62c54 -3 98 -35 133 -94c30 -51 45 -103 45 -157c0 -95 -22 -184 -67 -266c-55 -100 -127 -150 -217 -150zM306 561
c-40 3 -78 -12 -114 -47c-35 -34 -54 -71 -56 -111c-1 11 5 23 16 36c12 14 23 21 32 21c13 0 25 -13 25 -25c0 -9 -11 -27 -34 -53c-22 -26 -33 -41 -33 -44c0 -4 20 -21 25 -21c20 1 20 3 24 3c7 0 11 -3 11 -10c0 -17 -10 -26 -31 -26c-19 0 -34 6 -47 17
c-22 -51 -33 -98 -33 -143c0 -47 9 -88 26 -122c21 -42 50 -63 89 -63c77 0 139 44 185 131c38 73 57 153 57 241c0 49 -12 94 -35 137c-28 49 -64 75 -107 79z" />
    <glyph glyph-name="P" unicode="P" horiz-adv-x="609" 
d="M223 178c-17 0 -34 5 -49 14c-19 11 -29 26 -29 45c0 10 4 19 11 27h23c-1 -28 10 -42 33 -42c66 0 133 27 200 81c71 56 106 115 106 178c0 40 -18 70 -55 91c-31 18 -69 27 -116 27c-61 0 -123 -17 -186 -52c-39 -21 -91 -59 -157 -113c-13 -10 -21 -15 -24 -15
c-15 0 -31 14 -31 29c0 6 9 17 27 34c15 13 27 23 37 30c71 47 125 77 162 92c53 21 116 32 189 32c123 0 197 -73 196 -178c0 -50 -26 -102 -79 -157c-48 -49 -97 -82 -148 -99c-50 -16 -87 -24 -110 -24zM173 -87c-45 0 -77 27 -96 82c-13 37 -19 81 -19 133
c0 10 -1 25 -2 44s-2 34 -2 43c0 95 4 172 11 231c3 27 13 40 30 40c18 0 27 -9 27 -28c0 -11 -2 -25 -6 -42c-5 -23 -7 -37 -8 -42c-9 -61 -13 -118 -13 -171c0 -169 27 -253 81 -253c3 0 5 0 8 1l15 -15c-5 -15 -13 -23 -26 -23z" />
    <glyph glyph-name="Q" unicode="Q" horiz-adv-x="562" 
d="M351 -18c28 -17 54 -26 79 -26c12 0 19 1 20 3v1c0 9 0 15 1 18c2 6 6 11 12 15c17 -6 25 -17 25 -32s-8 -27 -24 -37c-13 -9 -26 -13 -39 -13c-23 0 -56 14 -99 43l-9 6c-31 -17 -64 -25 -99 -25c-61 0 -106 25 -134 76c-22 39 -33 89 -33 151c0 40 7 82 20 125
c10 28 20 56 30 83c-3 66 19 123 66 170c45 46 97 67 157 63c54 -4 98 -36 133 -95c30 -51 45 -103 45 -157c0 -65 -12 -131 -36 -198c-28 -76 -66 -133 -115 -171zM311 563c-40 3 -78 -12 -114 -47c-35 -34 -54 -71 -56 -111c-1 11 5 23 16 37c12 14 23 21 32 21
c13 0 25 -14 25 -25c0 -10 -11 -28 -34 -54c-22 -26 -33 -41 -33 -44c0 -4 20 -21 25 -21c20 1 20 3 24 3c7 0 11 -3 11 -10c0 -17 -10 -26 -31 -26c-19 0 -34 6 -47 18c-22 -51 -33 -99 -33 -144c0 -47 9 -88 26 -122c21 -42 50 -63 89 -63c23 0 44 4 65 12
c-33 20 -63 30 -91 30c-25 0 -38 8 -38 23c0 17 13 25 40 25c31 0 73 -19 127 -58c45 31 80 82 106 153c22 61 33 124 33 187c0 49 -12 94 -35 137c-28 49 -64 75 -107 79z" />
    <glyph glyph-name="R" unicode="R" horiz-adv-x="611" 
d="M472 -67c-57 0 -117 43 -178 128c-17 24 -38 49 -63 75c-26 28 -43 43 -52 45c-29 8 -42 19 -39 34c1 10 12 15 31 15c14 0 26 -2 37 -6c66 6 132 35 197 87c69 55 105 112 109 171c3 40 -11 70 -42 89c-27 17 -63 25 -109 25c-97 0 -213 -49 -348 -147
c-27 -20 -41 -30 -43 -30c-12 0 -31 14 -31 26c0 3 1 7 4 10c45 44 110 84 193 121c87 38 164 57 229 57c120 0 189 -61 189 -158c0 -5 0 -11 -1 -18c-4 -49 -34 -101 -91 -156c-51 -49 -103 -82 -154 -98c-13 -4 -33 -10 -59 -17c8 -11 20 -28 37 -50
c34 -45 74 -87 119 -128c29 -25 57 -38 84 -38c7 0 14 2 23 7c5 3 17 10 36 19l10 -16c-2 -15 -14 -27 -37 -36c-19 -7 -36 -11 -51 -11zM183 -89c-69 0 -103 73 -102 218c1 105 13 211 34 316c5 27 16 40 32 40c17 0 25 -9 25 -28c0 -9 -3 -24 -8 -44c-3 -9 -7 -23 -12 -41
c-11 -53 -19 -110 -24 -173c-2 -29 -3 -56 -3 -81c0 -113 21 -169 63 -169h8l15 -15c-6 -15 -15 -23 -28 -23z" />
    <glyph glyph-name="S" unicode="S" 
d="M433 440c-12 0 -26 15 -25 28c3 25 5 37 5 36c0 31 -11 47 -32 47c-40 0 -101 -34 -183 -102c-83 -69 -125 -123 -125 -161c0 -16 16 -29 49 -39c15 -5 57 -13 125 -25c59 -10 102 -22 129 -35c43 -20 64 -49 64 -86c0 -44 -25 -85 -75 -124c-47 -37 -93 -55 -137 -55
h-23c-28 0 -55 9 -80 26c-29 20 -44 44 -44 73c0 8 2 18 7 31c6 15 12 23 18 23c12 0 18 -6 18 -17c0 -9 -7 -28 -7 -31c0 -17 9 -32 27 -43c15 -9 34 -14 56 -14c45 0 87 13 128 39c44 29 66 64 66 103c0 21 -18 38 -54 50c-18 6 -58 14 -121 24c-29 5 -71 14 -128 27
c-44 15 -66 37 -66 64c0 69 46 140 139 213c87 68 162 102 225 102c51 0 77 -32 77 -96c0 -10 -3 -22 -9 -35c-7 -15 -15 -23 -24 -23z" />
    <glyph glyph-name="T" unicode="T" horiz-adv-x="556" 
d="M492 484c-6 -5 -11 -7 -15 -7c-7 0 -10 7 -8 20c5 13 8 20 8 21c0 27 -48 41 -143 41c-65 0 -140 -19 -227 -56c-21 -10 -49 -24 -86 -42c-28 -13 -46 -19 -53 -19c-18 0 -27 8 -27 24s39 39 117 68c57 21 106 36 147 46c53 13 103 20 151 20c33 0 64 -5 94 -14
c43 -13 64 -33 64 -58c0 -20 -7 -35 -22 -44zM309 -74c-7 -6 -14 -9 -23 -9c-41 0 -71 35 -91 105c-14 47 -21 98 -21 152v84c0 1 4 70 13 207c3 47 15 70 38 71c17 0 26 -10 26 -30c0 -11 -3 -26 -8 -45c-7 -25 -11 -40 -12 -45c-13 -73 -16 -158 -9 -255
c1 -28 6 -70 15 -127c7 -28 13 -48 20 -59c11 -16 26 -25 45 -27c9 -1 13 -4 13 -10c0 -5 -2 -9 -6 -12z" />
    <glyph glyph-name="U" unicode="U" horiz-adv-x="601" 
d="M408 281c-26 -77 -64 -152 -115 -227c-61 -91 -114 -136 -159 -136c-21 0 -37 8 -48 25c-9 13 -13 30 -13 49c0 39 12 102 35 189c19 63 37 126 55 189c19 69 29 114 29 136c0 13 -4 19 -13 19c-12 0 -32 -14 -59 -43c-7 -9 -19 -23 -34 -41c-13 -13 -22 -20 -29 -20
c-10 0 -18 7 -25 22c1 15 16 35 47 60c25 21 48 38 70 49c14 8 29 12 45 12c14 0 25 -9 34 -26c7 -13 10 -27 10 -42c0 -42 -20 -125 -61 -250c-37 -111 -55 -194 -55 -248c0 -29 3 -43 9 -43c53 0 127 103 224 308c15 32 31 76 46 133c5 12 10 31 15 57c2 34 4 56 5 66
c6 30 18 45 35 45s26 -10 26 -30c0 -9 -2 -21 -6 -36c-5 -22 -8 -34 -8 -37c-5 -27 -9 -52 -12 -75c-3 -27 -4 -77 -4 -149c0 0 3 -48 9 -143c5 -72 20 -108 45 -108c11 0 19 9 24 26c3 8 7 12 13 12c11 0 16 -8 16 -24c0 -27 -24 -49 -51 -49c-41 0 -70 39 -87 118
c-10 46 -15 100 -15 163c0 13 1 30 2 49z" />
    <glyph glyph-name="V" unicode="V" horiz-adv-x="599" 
d="M479 410c-39 -105 -68 -195 -87 -270c-14 -57 -30 -118 -49 -183c-7 -21 -24 -32 -52 -32c-29 0 -55 42 -78 125c-7 23 -18 78 -34 163c-34 182 -64 273 -90 273c-16 0 -37 -19 -64 -57s-45 -57 -55 -57c-16 0 -24 8 -24 24c0 13 17 36 51 67c31 29 54 46 68 51
c16 6 30 9 41 9c29 0 54 -31 75 -94c13 -39 26 -102 41 -190c4 -28 12 -78 25 -149c15 -77 28 -116 38 -116c12 0 24 26 36 77c23 97 50 193 81 290c49 149 87 224 116 224c15 0 33 -18 26 -30c-25 -36 -47 -78 -65 -125z" />
    <glyph glyph-name="W" unicode="W" horiz-adv-x="801" 
d="M186 91c31 87 64 166 100 239c47 93 84 140 109 140c21 0 32 -11 32 -32c0 -7 -3 -14 -8 -23c-1 -10 -2 -23 -2 -40c0 -81 12 -167 35 -257c28 -107 62 -161 102 -161c45 0 83 52 112 155c23 79 34 151 34 214c0 64 -7 120 -20 168c-21 72 -54 108 -99 108
c-14 0 -29 -8 -45 -25c-19 0 -16 -2 -25 14c1 14 13 26 36 36c19 9 35 13 49 13c45 0 83 -30 113 -89c24 -47 37 -95 40 -144v-24c0 -98 -15 -194 -45 -288c-37 -118 -87 -177 -148 -177c-63 0 -112 66 -146 198c-24 93 -36 186 -36 278c0 2 0 5 1 8
c-13 -13 -46 -75 -98 -188c-30 -67 -55 -139 -75 -217c-3 -13 -6 -25 -7 -36c-3 -34 -11 -53 -25 -56c-3 -1 -7 -1 -10 -1c-19 0 -27 11 -26 32c7 91 11 137 11 137c0 111 -1 182 -4 215c-8 111 -25 166 -52 166c-15 0 -34 -16 -57 -47c-15 -23 -31 -46 -47 -69
c-13 -18 -26 -27 -38 -28l-20 14c1 25 23 60 66 103c43 44 77 66 100 66c44 0 73 -37 87 -110c7 -35 10 -89 10 -160c0 -29 -1 -73 -4 -132z" />
    <glyph glyph-name="X" unicode="X" horiz-adv-x="611" 
d="M254 253c-49 -67 -82 -116 -100 -146c-40 -67 -60 -121 -60 -160c0 -7 6 -18 18 -33l-12 -18c-16 2 -30 14 -41 35c-9 17 -14 31 -14 44c0 26 16 66 48 120c22 37 52 80 90 131c32 43 48 65 48 66c0 5 -21 42 -62 110c-27 43 -53 86 -80 129c-19 31 -28 50 -28 57
c0 19 9 29 28 29c11 0 22 -7 31 -22c0 -1 13 -27 39 -78c22 -44 38 -75 47 -94c19 -35 37 -65 55 -90c26 31 70 83 132 156c80 93 128 140 144 140c11 0 26 -13 26 -25c0 -7 -2 -14 -7 -19c-49 -51 -99 -101 -148 -151c-81 -84 -122 -131 -122 -141c0 -7 25 -44 76 -111
c63 -84 113 -126 151 -126c9 0 18 5 25 14c8 9 15 14 21 14c11 0 17 -6 17 -18c0 -16 -10 -29 -30 -40c-16 -8 -32 -12 -49 -12c-45 0 -91 31 -139 92c-35 49 -69 98 -104 147z" />
    <glyph glyph-name="Y" unicode="Y" horiz-adv-x="528" 
d="M358 -286c-55 -88 -129 -132 -220 -132c-35 0 -68 14 -99 43c-31 27 -53 61 -66 100c-1 8 -2 14 -1 18c1 11 7 14 16 9c5 -3 12 -11 21 -25c41 -67 83 -100 126 -100c95 0 170 66 225 197c38 89 61 185 68 288c6 79 9 138 9 177c0 61 -6 124 -18 189
c-5 -15 -16 -52 -33 -110c-29 -94 -72 -185 -129 -272c-59 -91 -110 -137 -155 -137c-42 0 -63 27 -63 82c0 34 13 97 40 188c15 50 35 116 58 199c12 47 18 80 18 100c0 26 -5 39 -16 39s-39 -20 -83 -61s-69 -61 -76 -61c-15 0 -22 8 -22 25c0 16 26 43 79 81
c53 39 90 58 111 58c37 0 56 -21 56 -64c0 -39 -13 -104 -39 -195c-21 -67 -41 -135 -61 -202c-12 -47 -18 -83 -18 -106c0 -31 7 -47 21 -47c23 0 65 51 125 154c104 178 158 314 162 408v27c-1 13 -1 22 -1 26c0 19 8 29 25 29c19 0 35 -50 49 -150
c10 -74 15 -125 15 -154c0 -133 -6 -240 -18 -319c-19 -119 -54 -219 -106 -302z" />
    <glyph glyph-name="Z" unicode="Z" horiz-adv-x="699" 
d="M649 458c-5 -7 -10 -11 -16 -11c-9 0 -13 6 -11 17c5 33 8 47 8 43c0 19 -27 29 -82 29c-37 0 -87 -7 -150 -22c-39 -9 -106 -27 -203 -54c-25 -7 -42 -10 -51 -10c-19 0 -28 9 -28 28c0 10 9 18 26 25c29 10 65 19 109 27c73 13 110 19 111 20c80 17 143 26 189 26
c27 0 51 -5 72 -15c27 -13 41 -33 41 -58c0 -16 -5 -31 -15 -45zM631 -77c-5 -6 -11 -9 -16 -9c-9 0 -14 6 -14 17c0 4 1 8 3 13c3 7 4 15 4 25c0 22 -14 40 -41 54c-24 13 -50 19 -78 19c-47 0 -96 -8 -149 -23c-15 -5 -62 -21 -141 -50c-69 -25 -107 -38 -115 -38
c-29 0 -43 17 -43 50c0 27 22 63 65 110c26 29 57 59 92 92c33 31 103 92 212 183c121 102 185 153 193 153c12 0 29 -13 29 -26c0 -7 -30 -35 -90 -82c-306 -244 -459 -384 -459 -420c0 -5 4 -7 13 -7c2 0 14 4 37 11c43 14 108 34 195 61c73 21 131 32 173 32
c35 0 67 -10 96 -30c33 -23 49 -52 49 -87c0 -13 -5 -29 -15 -48z" />
    <glyph glyph-name="bracketleft" unicode="[" horiz-adv-x="367" 
d="M292 612c-6 17 -32 25 -78 25c-47 0 -94 -8 -141 -25c-13 -5 -24 -7 -31 -5c-11 2 -16 8 -14 18c3 15 17 26 42 32c52 13 95 18 130 17c27 0 53 -4 78 -13c33 -11 49 -25 49 -43s-4 -27 -13 -27s-17 7 -22 21zM318 -76c-3 -1 -11 -2 -23 -2c-5 29 -34 43 -85 43
c-19 0 -43 -3 -70 -9c-4 -1 -8 -2 -11 -2c-19 0 -28 7 -28 22c0 5 2 10 7 14c-26 35 -39 115 -39 240c0 102 6 196 19 282c1 21 4 53 10 94c1 6 4 12 10 19c7 9 15 13 22 13c19 0 27 -12 23 -36l-22 -140c-14 -92 -21 -187 -21 -285c0 -117 15 -176 46 -176c9 0 30 2 38 2
c28 0 54 -4 79 -12c35 -11 52 -28 52 -49c0 -9 -2 -15 -7 -18z" />
    <glyph glyph-name="backslash" unicode="\" horiz-adv-x="585" 
d="M62 -87c-4 -9 -9 -13 -16 -13c-9 0 -13 6 -13 17c0 4 1 8 3 12c37 87 105 192 204 316c102 128 192 219 270 272c4 3 8 4 13 4c10 0 18 -5 23 -14s3 -17 -6 -23c-77 -52 -168 -140 -271 -265c-103 -123 -172 -225 -207 -306z" />
    <glyph glyph-name="bracketright" unicode="]" horiz-adv-x="333" 
d="M165 641c-55 -2 -97 -6 -128 -13c-13 -3 -20 4 -20 21c0 3 0 5 1 7c5 17 53 26 142 26c95 0 147 -13 156 -40c4 -13 -1 -19 -14 -19c-4 0 -8 1 -13 2c-41 12 -83 17 -124 16zM233 -41c-54 -12 -101 -26 -140 -43c-16 -7 -26 -11 -30 -11c-17 0 -25 9 -25 27
c0 19 54 40 162 63c-23 33 -35 104 -35 213c0 95 8 200 23 317c1 21 5 52 10 93c1 6 5 12 10 19c7 9 15 13 22 13c19 0 27 -12 24 -35l-23 -141c-17 -117 -26 -221 -26 -313c0 -105 15 -157 45 -157c12 0 18 -6 18 -17c0 -14 -12 -23 -35 -28z" />
    <glyph glyph-name="asciicircum" unicode="^" horiz-adv-x="600" 
d="M47 249l221 433h64l221 -433h-71l-182 361l-182 -361h-71z" />
    <glyph glyph-name="underscore" unicode="_" horiz-adv-x="233" 
d="M26 -131c-8 0 -14 9 -14 18c0 10 6 19 14 19h180c8 0 14 -9 14 -19c0 -9 -6 -18 -14 -18h-180z" />
    <glyph glyph-name="grave" unicode="`" horiz-adv-x="222" 
d="M138 444c-23 9 -46 26 -69 53c-21 26 -32 48 -33 66c0 13 7 19 22 19c19 0 30 -5 32 -16c7 -43 32 -87 56 -96c9 -3 14 -9 14 -16c0 -12 -7 -15 -22 -10z" />
    <glyph glyph-name="a" unicode="a" horiz-adv-x="408" 
d="M299 -6c-32 11 -48 48 -48 111c0 7 0 14 1 21c-33 -44 -70 -84 -109 -121c-51 -47 -92 -70 -121 -70c-9 0 -18 3 -25 8c-12 9 -18 24 -18 44c0 42 22 98 67 169c43 67 91 123 142 167c56 47 98 62 125 45c13 -8 19 -25 19 -51c0 -31 -11 -47 -32 -49c-15 -1 -22 5 -22 16
c0 1 0 3 1 4c7 16 10 30 9 42c0 7 -1 11 -2 11c-33 -6 -87 -57 -161 -153c-73 -96 -110 -162 -110 -198c0 -13 6 -19 17 -19c29 0 74 37 136 112c43 52 67 81 71 87c19 26 29 50 32 72c2 15 10 23 24 23c21 0 29 -10 25 -30c-17 -85 -25 -137 -25 -156c0 -34 8 -53 23 -57
c5 -1 11 0 17 3c5 3 7 6 8 9c3 14 12 21 25 21c8 0 12 -4 12 -13c0 -3 -1 -8 -3 -13c-10 -26 -29 -39 -56 -39c-7 0 -15 1 -22 4z" />
    <glyph glyph-name="b" unicode="b" horiz-adv-x="438" 
d="M23 53c34 57 76 108 127 152c61 53 117 80 170 80c17 0 34 -5 50 -14c21 -13 32 -31 32 -53c0 -52 -38 -115 -114 -190c-75 -75 -138 -112 -187 -112c-41 0 -61 15 -61 45c0 17 8 33 24 50c4 4 9 6 16 6s11 -3 11 -8c0 -4 -2 -9 -7 -15c-9 -13 -13 -23 -13 -28
c0 -9 6 -13 19 -13c41 0 97 36 168 107c70 70 105 124 105 161c0 21 -14 31 -41 31c-66 0 -148 -64 -245 -192l-2 -2l-4 -7c-21 -35 -36 -53 -47 -53c-22 0 -36 15 -43 45c-2 13 -3 36 -3 71c0 58 15 147 46 266c31 123 56 184 75 184c5 0 12 -2 19 -7c8 -5 12 -12 12 -19
c0 -2 0 -4 -1 -6c-34 -87 -54 -139 -60 -157c-35 -106 -52 -198 -52 -277c0 -16 2 -31 6 -45z" />
    <glyph glyph-name="c" unicode="c" horiz-adv-x="334" 
d="M270 294c-8 0 -18 6 -29 18s-23 18 -34 18c-41 0 -82 -38 -125 -114c-38 -67 -57 -119 -57 -157c0 -42 18 -63 53 -63s70 12 104 35c32 21 59 49 82 84c2 4 5 6 8 6c8 0 18 -14 15 -21c-3 -11 -21 -33 -56 -67c-31 -31 -51 -49 -58 -52c-33 -18 -53 -27 -62 -27
c-1 0 -24 -3 -25 -3c-35 0 -61 13 -79 38c-15 21 -22 46 -22 77c0 49 22 109 66 179c51 81 104 122 161 122c10 0 24 -4 43 -12c24 -11 37 -24 38 -39c1 -13 -15 -22 -23 -22z" />
    <glyph glyph-name="d" unicode="d" horiz-adv-x="456" 
d="M291 156l-19 -23c-107 -136 -184 -204 -233 -204h-10c-33 0 -50 17 -50 51c0 28 15 71 44 129c31 63 67 115 107 158c48 51 92 77 132 77c15 0 31 -6 47 -17c7 37 16 90 29 159c13 67 27 100 42 100c12 0 27 -13 27 -26c0 -2 -4 -17 -12 -44c-43 -145 -64 -284 -64 -417
c0 -77 12 -115 35 -115c3 1 8 6 29 15c5 -5 8 -11 8 -17c0 -7 -5 -14 -15 -21c-9 -5 -18 -8 -26 -8c-48 0 -72 56 -72 167c0 10 0 22 1 36zM267 309c-37 7 -90 -38 -157 -134c-64 -91 -96 -155 -96 -193c0 -9 4 -14 11 -14c29 0 78 35 147 104c63 63 100 108 112 135
c7 17 11 35 11 56c0 20 -13 43 -28 46z" />
    <glyph glyph-name="e" unicode="e" horiz-adv-x="333" 
d="M53 144l-2 1c-6 -5 -13 -22 -20 -49s-10 -50 -10 -70c0 -26 17 -39 52 -39c33 0 71 19 116 58c43 37 72 76 89 115h16c7 -6 9 -12 7 -17c-19 -56 -52 -102 -97 -139c-43 -36 -87 -54 -130 -54c-32 0 -56 11 -72 33c-16 21 -23 50 -21 85c3 50 29 112 80 186
c54 79 103 119 148 119c15 0 27 -7 35 -21c6 -10 9 -21 9 -32c0 -33 -14 -70 -42 -113c-33 -51 -70 -76 -112 -76c-20 0 -35 4 -46 13zM203 338c-13 -3 -24 -10 -34 -23c-69 -81 -104 -129 -104 -142c0 -3 8 -6 23 -7c26 -1 54 17 85 56c30 38 45 72 45 101
c0 13 -5 18 -15 15z" />
    <glyph glyph-name="f" unicode="f" horiz-adv-x="248" 
d="M282 438c-7 3 -12 9 -14 19c-1 9 -2 17 -3 26c-1 14 -7 28 -17 42c-11 17 -23 25 -35 25c-35 0 -62 -42 -81 -126c-9 -42 -17 -107 -22 -195c4 1 13 3 27 6c12 3 21 4 28 4c29 0 49 -11 58 -33c2 -4 3 -8 3 -13c0 -7 -2 -12 -7 -13c-5 -2 -12 1 -19 10
c-9 11 -21 17 -35 17c-20 0 -53 -11 -61 -22c-2 -3 -3 -13 -3 -28c0 -20 2 -56 7 -108s8 -82 8 -89c0 -22 -9 -33 -27 -33s-26 12 -24 35c1 6 1 9 1 8c0 16 -2 83 -5 200c-11 -5 -28 -15 -52 -29c-9 -5 -14 -8 -17 -8c-11 0 -17 8 -17 25c0 5 1 9 4 11c9 8 34 22 76 41l10 5
c10 113 19 186 27 219c25 99 67 149 128 149c21 0 40 -12 57 -36c15 -21 22 -42 22 -63c0 -26 -6 -41 -17 -46z" />
    </font>
</defs>
</svg>
