<?xml version="1.0" standalone="no"?>
<!DOCTYPE svg PUBLIC "-//W3C//DTD SVG 1.1//EN" "http://www.w3.org/Graphics/SVG/1.1/DTD/svg11.dtd" >
<svg xmlns="http://www.w3.org/2000/svg" xmlns:xlink="http://www.w3.org/1999/xlink" version="1.1">
<metadata>
Created by FontForge 20161116 at Tue Jan 29 03:08:42 2008
 By Jimmy Warting
</metadata>
<defs>
<font id="HSN_Shahd_Regular" horiz-adv-x="230" >
  <font-face 
    font-family="HSN Shahd Regular"
    font-weight="400"
    font-stretch="normal"
    units-per-em="500"
    panose-1="2 10 5 3 2 1 2 2 2 4"
    ascent="400"
    descent="-100"
    bbox="-59 -259 548 418"
    underline-thickness="12"
    underline-position="-24"
    unicode-range="U+0020-FEFF"
  />
<missing-glyph horiz-adv-x="250" 
d="M32 0h187v375h-187v-375zM62 32v312h126v-312h-126z" />
    <glyph glyph-name="lamalefmaddaaboveisolatedarabi" unicode="&#xfedf;&#xfe82;" horiz-adv-x="333" arabic-form="isolated" 
d="M160 307q-9 5 -13 5q-3 0 -6 1t-5 1q-8 0 -10 -1q-7 -2 -9 -3q-3 0 -5 -2q-1 0 -3 -2l-4 -4l-3 2l4 6l3 3l3 3q3 2 9 8q5 4 11 5q5 1 16 1l2 -1l2 -1q3 -1 5 -2q1 0 5 -2q4 -3 5 -3q14 -7 26 -7q6 -1 19 2q2 0 6 2l6 6q3 2 5 4l3 -3l-7 -7q-2 -3 -7 -8q-3 -3 -9 -7
q-3 -2 -12 -4q-5 -1 -16 1t-21 7zM308 0h-220q-6 0 -18 2q-10 2 -17 6q-10 4 -15 7t-11 9l1 6q3 -2 9 -3q1 -1 5 -2t5 -1q2 0 5.5 -0.5t5.5 -0.5t4.5 -0.5t3.5 -0.5h73v241l5 2l50 -19v-4q-3 -2 -7.5 -5.5t-5.5 -4.5q-5 -7 -6 -9q-2 -6 -2 -9q0 -1 -0.5 -5t-0.5 -7v-180h102
v285l5 2l50 -19v-4q-12 -9 -13 -10q-1 -2 -3 -4.5t-3 -4.5q-2 -6 -2 -9v-12v-202v-44z" />
    <glyph glyph-name="lamalefmaddaabovefinalarabic" unicode="&#xfee0;&#xfe82;" horiz-adv-x="371" arabic-form="final" 
d="M160 307q-9 5 -13 5q-3 0 -6 1t-5 1q-8 0 -10 -1q-7 -2 -9 -3q-3 0 -5 -2q-1 0 -3 -2l-4 -4l-3 2l4 6l3 3l3 3q3 2 9 8q5 4 11 5q5 1 16 1l2 -1l2 -1q3 -1 5 -2q1 0 5 -2q4 -3 5 -3q14 -7 26 -7q6 -1 19 2q2 0 6 2l6 6q3 2 5 4l3 -3l-7 -7q-2 -3 -7 -8q-3 -3 -9 -7
q-3 -2 -12 -4q-5 -1 -16 1t-21 7zM376 22v-22h-21q-5 0 -15 2q-4 2 -12 8q-6 5 -11 11q-3 4 -9 14v-35h-220q-6 0 -18 2q-10 2 -17 6q-10 4 -15 7t-11 9l1 6q3 -2 9 -3q1 -1 5 -2t5 -1q2 0 5.5 -0.5t5.5 -0.5t4.5 -0.5t3.5 -0.5h73v241l5 2l50 -19v-4q-3 -2 -7.5 -5.5
t-5.5 -4.5q-5 -7 -6 -9q-2 -6 -2 -9q0 -1 -0.5 -5t-0.5 -7v-180h102v285l5 2l50 -19v-4q-12 -9 -13 -10q-1 -2 -3 -4.5t-3 -4.5q-2 -6 -2 -9v-12v-202q8 -9 21 -15q14 -7 26 -7h21z" />
    <glyph glyph-name="lamalefhamzaaboveisolatedarabi" unicode="&#xfedf;&#xfe84;" horiz-adv-x="333" arabic-form="isolated" 
d="M308 0h-220q-6 0 -18 2q-10 2 -17 6q-10 4 -15 7t-11 9l1 6q3 -2 9 -3q1 -1 5 -2t5 -1q2 0 5.5 -0.5t5.5 -0.5t4.5 -0.5t3.5 -0.5h73v241l5 2l50 -19v-4q-3 -2 -7.5 -5.5t-5.5 -4.5q-5 -7 -6 -9q-2 -6 -2 -9q0 -1 -0.5 -5t-0.5 -7v-180h102v285l5 2l50 -19v-4
q-12 -9 -13 -10q-1 -2 -3 -4.5t-3 -4.5q-2 -6 -2 -9v-12v-202v-44zM207 293h-101v19h16q0 10 1 16q2 12 5 18q6 10 11 14q7 5 20 7q7 2 12 -1q2 0 11 -3q8 -4 10 -6q4 -2 8 -6l-7 -11q-8 7 -15 8q-8 2 -12 2t-10 -2q-4 -1 -7 -6q-6 -6 -7 -14q-2 -10 -2 -16h60z" />
    <glyph glyph-name="lamalefhamzaabovefinalarabicX" unicode="&#xfee0;&#xfe84;" horiz-adv-x="372" arabic-form="final" 
d="M376 22v-22h-21q-5 0 -15 2q-4 2 -12 8q-6 5 -11 11q-3 4 -9 14v-35h-220q-6 0 -18 2q-10 2 -17 6q-10 4 -15 7t-11 9l1 6q3 -2 9 -3q1 -1 5 -2t5 -1q2 0 5.5 -0.5t5.5 -0.5t4.5 -0.5t3.5 -0.5h73v241l5 2l50 -19v-4q-3 -2 -7.5 -5.5t-5.5 -4.5q-5 -7 -6 -9q-2 -6 -2 -9
q0 -1 -0.5 -5t-0.5 -7v-180h102v285l5 2l50 -19v-4q-12 -9 -13 -10q-1 -2 -3 -4.5t-3 -4.5q-2 -6 -2 -9v-12v-202q8 -9 21 -15q14 -7 26 -7h21zM207 293h-101v19h16q0 10 1 16q2 12 5 18q6 10 11 14q7 5 20 7q7 2 12 -1q2 0 11 -3q8 -4 10 -6q4 -2 8 -6l-7 -11q-8 7 -15 8
q-8 2 -12 2t-10 -2q-4 -1 -7 -6q-6 -6 -7 -14q-2 -10 -2 -16h60z" />
    <glyph glyph-name="lamalefhamzabelowisolatedarabi" unicode="&#xfedf;&#xfe88;" horiz-adv-x="332" arabic-form="isolated" 
d="M308 0h-220q-6 0 -18 2q-10 2 -17 6q-10 4 -15 7t-11 9l1 6q3 -2 9 -3q1 -1 5 -2t5 -1q2 0 5.5 -0.5t5.5 -0.5t4.5 -0.5t3.5 -0.5h73v241l5 2l50 -19v-4q-3 -2 -7.5 -5.5t-5.5 -4.5q-5 -7 -6 -9q-2 -6 -2 -9q0 -1 -0.5 -5t-0.5 -7v-180h102v285l5 2l50 -19v-4
q-12 -9 -13 -10q-1 -2 -3 -4.5t-3 -4.5q-2 -6 -2 -9v-12v-202v-44zM207 -106h-101v19h16q0 11 1 17q2 12 5 17q5 11 12 15q5 5 19 7q9 0 13 -1q6 -2 11 -4q6 -2 9 -5q2 -1 8 -7l-7 -10q-10 6 -14 8q-10 2 -13 2q-6 0 -10 -3q-3 -1 -7 -5q-5 -5 -7 -14q-1 -6 -1 -17h59z" />
    <glyph glyph-name="lamalefhamzabelowfinalarabicX" unicode="&#xfee0;&#xfe88;" horiz-adv-x="372" arabic-form="final" 
d="M376 22v-22h-21q-5 0 -15 2q-4 2 -12 8q-6 5 -11 11q-3 4 -9 14v-35h-220q-6 0 -18 2q-10 2 -17 6q-10 4 -15 7t-11 9l1 6q3 -2 9 -3q1 -1 5 -2t5 -1q2 0 5.5 -0.5t5.5 -0.5t4.5 -0.5t3.5 -0.5h73v241l5 2l50 -19v-4q-3 -2 -7.5 -5.5t-5.5 -4.5q-5 -7 -6 -9q-2 -6 -2 -9
q0 -1 -0.5 -5t-0.5 -7v-180h102v285l5 2l50 -19v-4q-12 -9 -13 -10q-1 -2 -3 -4.5t-3 -4.5q-2 -6 -2 -9v-12v-202q8 -9 21 -15q14 -7 26 -7h21zM207 -106h-101v19h16q0 11 1 17q2 12 5 17q5 11 12 15q5 5 19 7q9 0 13 -1q6 -2 11 -4q6 -2 9 -5q2 -1 8 -7l-7 -10q-10 6 -14 8
q-10 2 -13 2q-6 0 -10 -3q-3 -1 -7 -5q-5 -5 -7 -14q-1 -6 -1 -17h59z" />
    <glyph glyph-name="lamalefisolatedarabic" unicode="&#xfedf;&#xfe8e;" horiz-adv-x="333" arabic-form="isolated" 
d="M308 0h-220q-6 0 -18 2q-10 2 -17 6q-10 4 -15 7t-11 9l1 6q3 -2 9 -3q1 -1 5 -2t5 -1q2 0 5.5 -0.5t5.5 -0.5t4.5 -0.5t3.5 -0.5h73v241l5 2l50 -19v-4q-3 -2 -7.5 -5.5t-5.5 -4.5q-5 -7 -6 -9q-2 -6 -2 -9q0 -1 -0.5 -5t-0.5 -7v-180h102v285l5 2l50 -19v-4
q-12 -9 -13 -10q-1 -2 -3 -4.5t-3 -4.5q-2 -6 -2 -9v-12v-202v-44z" />
    <glyph glyph-name="lamaleffinalarabic" unicode="&#xfee0;&#xfe8e;" horiz-adv-x="371" arabic-form="final" 
d="M376 22v-22h-21q-5 0 -15 2q-4 2 -12 8q-6 5 -11 11q-3 4 -9 14v-35h-220q-6 0 -18 2q-10 2 -17 6q-10 4 -15 7t-11 9l1 6q3 -2 9 -3q1 -1 5 -2t5 -1q2 0 5.5 -0.5t5.5 -0.5t4.5 -0.5t3.5 -0.5h73v241l5 2l50 -19v-4q-3 -2 -7.5 -5.5t-5.5 -4.5q-5 -7 -6 -9q-2 -6 -2 -9
q0 -1 -0.5 -5t-0.5 -7v-180h102v285l5 2l50 -19v-4q-12 -9 -13 -10q-1 -2 -3 -4.5t-3 -4.5q-2 -6 -2 -9v-12v-202q8 -9 21 -15q14 -7 26 -7h21z" />
    <glyph glyph-name="hamzaarabic" unicode="&#x621;" horiz-adv-x="286" arabic-form="isolated" 
d="M129 22h129v-22h-162q-6 0 -18 2q-9 2 -18 6q-10 4 -15 7q-8 6 -11 9l2 6q2 -1 8 -3q2 -1 5 -2t5 -1t6 -0.5t5 -0.5q2 0 4.5 -0.5t3.5 -0.5h23v94q0 8 4 24q8 14 14 20q8 8 20 14q16 6 27 7q9 1 29 -3q18 -8 27 -14q13 -7 23 -19q10 -10 18 -23l-7 -3q-14 16 -32 29
q-16 9 -29 12t-25 -1q-12 -5 -19 -12q-10 -10 -12 -19q-5 -9 -5 -22v-84z" />
    <glyph glyph-name="alefmaddaabovearabic" unicode="&#x622;" horiz-adv-x="150" arabic-form="isolated" 
d="M72 351q-9 5 -13 5q-3 0 -6 1l-5 1q-8 0 -10 -1q-7 -2 -9 -3q-3 0 -5 -2q-1 0 -3 -2l-2 -2q-2 -1 -3 -2l-2 2l4 6l3 3l3 3q5 5 9 8q5 4 11 5q5 1 16 1l4 -2l4 -2q2 0 6 -2q3 -3 5 -3q14 -7 26 -7q6 -1 19 2q2 0 6 2l6 6q1 1 3 2l2 2l2 -3q-4 -4 -6 -7t-7 -8q-3 -3 -9 -7
q-5 -2 -13 -4q-4 -1 -16 1q-9 2 -20 7zM56 308l49 -18v-4q-2 -2 -6 -5.5t-6 -4.5q-5 -7 -6 -9l-3 -9v-12v-246h-33v307z" />
    <glyph glyph-name="alefhamzaabovearabic" unicode="&#x623;" horiz-adv-x="131" arabic-form="isolated" 
d="M56 308l49 -18v-4q-2 -2 -6 -5.5t-6 -4.5q-5 -7 -6 -9l-3 -9v-12v-246h-33v307zM119 343h-101v19h16q0 10 1 16q2 12 5 18q6 10 12 14q6 6 19 8q9 0 13 -1q6 -1 11 -4q6 -2 9 -5q4 -3 8 -7l-7 -11q-8 7 -14 8q-5 2 -13 2q-4 0 -10 -2q-3 -1 -7 -5q-5 -5 -7 -15
q-1 -5 -1 -16h59z" />
    <glyph glyph-name="wawhamzaabovearabic" unicode="&#x624;" arabic-form="isolated" 
d="M21 98q0 24 7 42q6 17 18 31q9 10 29 21q21 7 39 7q24 0 38 -7q18 -8 28 -20q12 -13 16 -31q6 -18 6 -41v-92q0 -30 -4 -47q-3 -19 -12 -33q-11 -14 -27 -23q-13 -9 -43 -19l-3 7q20 9 30 19q12 10 17 22q6 16 6 28q2 11 2 38h-54q-23 0 -40 7q-18 8 -29 19
q-12 14 -18 32t-6 40zM168 96v20q0 4 -1 11t-2 11q-5 16 -7 20q-2 6 -10 16q-4 5 -14 11q-8 4 -21 4q-17 0 -28 -8t-17 -21q-7 -12 -9 -28q-2 -20 -2 -30q0 -15 3 -30t9 -25q8 -11 19 -18q12 -7 29 -7h51v74zM176 234h-102v18h16q0 11 1 17q1 8 5 17t12 15q7 6 20 7h12
q4 -2 12 -4l9 -6q3 -2 7 -6l-6 -11q-8 7 -15 8q-10 2 -13 2q-2 0 -10 -2q-5 -2 -6 -5q-4 -4 -8 -15q0 -2 -0.5 -8t-0.5 -9h59z" />
    <glyph glyph-name="alefhamzabelowarabic" unicode="&#x625;" horiz-adv-x="124" arabic-form="isolated" 
d="M56 308l49 -18v-4q-2 -2 -6 -5.5t-6 -4.5q-5 -7 -6 -9l-3 -9v-12v-246h-33v307zM117 -116h-101v19h16q0 11 1 17q2 12 5 17q5 11 12 15q5 5 19 7q9 0 13 -1q8 -2 11 -4q4 -1 10 -5l7 -7l-6 -10q-2 1 -7 4t-8 4q-10 2 -13 2q-4 0 -10 -3q-4 -2 -7 -5q-3 -4 -7 -14
q0 -3 -0.5 -8.5t-0.5 -8.5h59z" />
    <glyph glyph-name="yehhamzaabovearabic" unicode="&#x626;" horiz-adv-x="382" arabic-form="isolated" 
d="M112 188h-101v19h16q0 11 1 17q2 12 5 17q4 8 11 15q8 6 20 7q9 0 13 -1q8 -2 11 -4q4 -1 10 -5l7 -7l-7 -10q-7 5 -14 8q-10 2 -12 2q-7 0 -10 -3q-4 -1 -8 -5q-6 -8 -6 -14q-2 -6 -2 -17h59zM216 123q0 16 5 31q4 13 13 25q12 14 19 19q7 6 23 14q16 6 24 8q9 2 24 2
q14 0 21 -2q11 -2 18 -6l-3 -6q-30 3 -55 -5q-11 -3 -20 -9q-11 -6 -18 -15q-6 -7 -13 -23q-4 -18 -4 -33q0 -11 4 -25q7 -12 14 -17q9 -6 22 -9q12 -3 28 -3h39v-53q0 -20 -8 -38q-8 -16 -21 -26q-15 -10 -31 -14q-20 -5 -39 -5h-92q-18 0 -29 1q-11 0 -31 2q-19 3 -32 10
q-13 5 -26 18q-12 12 -18 31q-8 19 -8 47v123h34v-106q0 -32 5 -47q6 -20 16 -31t23 -17q16 -6 25 -7q18 -2 26 -2q5 0 13 0.5t11 0.5h88q18 0 29 4q13 5 18 12q8 8 11 22q3 12 3 29v19q-28 0 -45 4q-23 5 -34 14q-14 9 -21 25q-8 16 -8 38z" />
    <glyph glyph-name="alefarabic" unicode="&#x627;" horiz-adv-x="119" arabic-form="isolated" 
d="M56 308l49 -18v-4q-2 -2 -6 -5.5t-6 -4.5q-5 -7 -6 -9l-3 -9v-12v-246h-33v307z" />
    <glyph glyph-name="beharabic" unicode="&#x628;" horiz-adv-x="381" arabic-form="isolated" 
d="M175 -67q0 9 7 15q6 7 15 7t15 -7q7 -6 7 -15t-7 -15q-6 -7 -15 -7t-15 7q-7 6 -7 15zM370 175v-4q-10 -6 -13 -11q-4 -3 -6 -8q-2 -6 -2 -9q0 -1 -0.5 -5t-0.5 -6v-132h-225q-14 0 -21 1l-22 3q-9 3 -20 8q-4 2 -18 14q-7 11 -11 21q-5 13 -5 30q0 23 9 42t23 35l7 -5
q-4 -4 -7 -13l-6 -15q-1 -5 -3 -17q-1 -5 -1 -15q0 -22 7 -35q7 -12 19 -20q10 -7 26 -9q18 -2 28 -2h187v169l5 2z" />
    <glyph glyph-name="tehmarbutaarabic" unicode="&#x629;" horiz-adv-x="224" arabic-form="isolated" 
d="M112 199q23 0 38 -7q18 -8 27 -20q11 -12 17 -31q5 -20 5 -41v-100h-88q-24 0 -39 7q-18 8 -29 19q-12 14 -18 32t-6 40q0 24 7 41q6 19 18 32q9 10 29 21q19 7 39 7zM166 96q0 14 -1 20q0 10 -3 22q-2 10 -6 20q-5 9 -10 16q-4 5 -14 11q-8 4 -21 4q-16 0 -29 -8
q-11 -8 -17 -21q-7 -13 -8 -28q-3 -16 -3 -30q0 -15 3 -30q4 -16 10 -25q8 -11 19 -18q12 -7 28 -7h52v74zM143 252q-9 0 -15 6q-7 7 -7 16t7 16q6 6 15 6q2 0 8 -2q5 -2 7 -4q4 -4 5 -8q2 -4 2 -8t-2 -8q-1 -4 -5 -8q-2 -2 -7 -4q-6 -2 -8 -2zM81 252q-9 0 -15 6
q-7 7 -7 16t7 16q6 6 15 6t15 -6q7 -7 7 -16t-7 -16q-6 -6 -15 -6z" />
    <glyph glyph-name="teharabic" unicode="&#x62a;" horiz-adv-x="381" arabic-form="isolated" 
d="M370 175v-4q-10 -6 -13 -11q-4 -3 -6 -8q-2 -6 -2 -9q0 -1 -0.5 -5t-0.5 -6v-132h-225q-14 0 -21 1l-22 3q-9 3 -20 8q-4 2 -18 14q-7 11 -11 21q-5 13 -5 30q0 23 9 42t23 35l7 -5q-4 -4 -7 -13l-6 -15q-1 -5 -3 -17q-1 -5 -1 -15q0 -22 7 -35q7 -12 19 -20q10 -7 26 -9
q18 -2 28 -2h187v169l5 2zM206 262q0 9 6 15q9 7 16 7t16 -7q6 -6 6 -15q0 -10 -6 -16q-8 -6 -16 -6t-16 6q-6 6 -6 16zM166 240q-9 0 -15 6q-7 7 -7 16q0 8 7 15t15 7q9 0 16 -7q6 -6 6 -15q0 -10 -6 -16t-16 -6z" />
    <glyph glyph-name="theharabic" unicode="&#x62b;" horiz-adv-x="381" arabic-form="isolated" 
d="M206 262q0 9 6 15q9 7 16 7t16 -7q6 -6 6 -15q0 -10 -6 -16q-8 -6 -16 -6t-16 6q-6 6 -6 16zM166 240q-9 0 -15 6q-7 7 -7 16q0 8 7 15t15 7q9 0 16 -7q6 -6 6 -15q0 -10 -6 -16t-16 -6zM197 302q-9 0 -15 6t-6 15q0 10 6 16t15 6t15 -6q7 -6 7 -16q0 -9 -7 -15
q-6 -6 -15 -6zM370 175v-4q-10 -6 -13 -11q-4 -3 -6 -8q-2 -6 -2 -9q0 -1 -0.5 -5t-0.5 -6v-132h-225q-14 0 -21 1l-22 3q-9 3 -20 8q-4 2 -18 14q-7 11 -11 21q-5 13 -5 30q0 23 9 42t23 35l7 -5q-4 -4 -7 -13l-6 -15q-1 -5 -3 -17q-1 -5 -1 -15q0 -22 7 -35q7 -12 19 -20
q10 -7 26 -9q18 -2 28 -2h187v169l5 2z" />
    <glyph glyph-name="jeemarabic" unicode="&#x62c;" horiz-adv-x="252" arabic-form="isolated" 
d="M120 -67q0 9 6 15q6 7 16 7q9 0 15 -7q7 -7 7 -15t-7 -15q-6 -7 -15 -7q-10 0 -16 7q-6 6 -6 15zM182 24v81q0 11 -2 31q-2 14 -6 21q-6 8 -18 13q-14 5 -28 2q-14 -1 -31 -12q-17 -12 -29 -28l-6 2q5 11 17 24q12 12 23 19q13 8 28 13q14 5 28 3q17 -2 26 -7
q11 -5 17 -14q6 -8 11 -20q3 -12 2 -24v-128h-38h-38q-24 0 -37 -7q-15 -9 -21 -17q-9 -11 -10 -24q-3 -14 -3 -26q0 -2 0.5 -7.5t0.5 -8.5q6 -17 6 -18q1 -3 8 -17q4 -5 14 -15q6 -5 18 -10q9 -4 24 -4q11 0 16 1q3 1 8.5 2t8.5 1l15 6q9 3 13 7l5 -7q-10 -8 -17 -12
q-14 -8 -21 -10q-9 -5 -23 -7q-8 -2 -23 -2q-8 0 -27 7q-20 11 -30 21q-12 12 -20 31q-7 17 -7 37q0 21 3 37q5 18 13 30q6 12 22 22q12 6 19 8q9 3 23 5z" />
    <glyph glyph-name="haharabic" unicode="&#x62d;" horiz-adv-x="252" arabic-form="isolated" 
d="M182 24v81q0 11 -2 31q-2 14 -6 21q-6 8 -18 13q-14 5 -28 2q-14 -1 -31 -12q-17 -12 -29 -28l-6 2q5 11 17 24q12 12 23 19q13 8 28 13q14 5 28 3q17 -2 26 -7q11 -5 17 -14q6 -8 11 -20q3 -12 2 -24v-128h-38h-38q-24 0 -37 -7q-15 -9 -21 -17q-9 -11 -10 -24
q-3 -14 -3 -26q0 -2 0.5 -7.5t0.5 -8.5q6 -17 6 -18q1 -3 8 -17q4 -5 14 -15q6 -5 18 -10q9 -4 24 -4q11 0 16 1q3 1 8.5 2t8.5 1l15 6q9 3 13 7l5 -7q-10 -8 -17 -12q-14 -8 -21 -10q-9 -5 -23 -7q-8 -2 -23 -2q-8 0 -27 7q-20 11 -30 21q-12 12 -20 31q-7 17 -7 37
q0 21 3 37q5 18 13 30q6 12 22 22q12 6 19 8q9 3 23 5z" />
    <glyph glyph-name="khaharabic" unicode="&#x62e;" horiz-adv-x="252" arabic-form="isolated" 
d="M120 258q0 8 6 16q6 6 16 6q9 0 15 -6q7 -9 7 -16t-7 -16q-6 -6 -15 -6q-10 0 -16 6q-6 8 -6 16zM182 24v81q0 11 -2 31q-2 14 -6 21q-6 8 -18 13q-14 5 -28 2q-14 -1 -31 -12q-17 -12 -29 -28l-6 2q5 11 17 24q12 12 23 19q13 8 28 13q14 5 28 3q17 -2 26 -7
q11 -5 17 -14q6 -8 11 -20q3 -12 2 -24v-128h-38h-38q-24 0 -37 -7q-15 -9 -21 -17q-9 -11 -10 -24q-3 -14 -3 -26q0 -2 0.5 -7.5t0.5 -8.5q6 -17 6 -18q1 -3 8 -17q4 -5 14 -15q6 -5 18 -10q9 -4 24 -4q11 0 16 1q3 1 8.5 2t8.5 1l15 6q9 3 13 7l5 -7q-10 -8 -17 -12
q-14 -8 -21 -10q-9 -5 -23 -7q-8 -2 -23 -2q-8 0 -27 7q-20 11 -30 21q-12 12 -20 31q-7 17 -7 37q0 21 3 37q5 18 13 30q6 12 22 22q12 6 19 8q9 3 23 5z" />
    <glyph glyph-name="dalarabic" unicode="&#x62f;" horiz-adv-x="233" arabic-form="isolated" 
d="M207 0h-160l-9 38l7 1q2 -6 9 -11q4 -2 17 -4q14 -2 25 -2h36h42v38v34q0 11 -2 27q-1 10 -5 21q-3 10 -9 18q-4 5 -16 15q-10 8 -24 14l3 7q28 -9 44 -18q17 -11 26 -24q10 -15 13 -33q3 -19 3 -47v-74z" />
    <glyph glyph-name="thalarabic" unicode="&#x630;" horiz-adv-x="233" arabic-form="isolated" 
d="M112 238q-2 0 -8 2q-3 1 -7 5t-5 7q-2 6 -2 8q0 10 6 16q8 6 16 6t16 -6q6 -6 6 -16q0 -5 -2 -8q0 -3 -4 -7t-7 -5q-6 -2 -9 -2zM207 0h-160l-9 38l7 1q2 -6 9 -11q4 -2 17 -4q14 -2 25 -2h36h42v38v34q0 11 -2 27q-1 10 -5 21q-3 10 -9 18q-4 5 -16 15q-10 8 -24 14l3 7
q28 -9 44 -18q17 -11 26 -24q10 -15 13 -33q3 -19 3 -47v-74z" />
    <glyph glyph-name="reharabic" unicode="&#x631;" horiz-adv-x="148" arabic-form="isolated" 
d="M132 130v-4q-2 -2 -6 -5.5t-6 -4.5q-5 -7 -6 -9q-2 -6 -2 -9q-1 -3 -1 -12v-79q0 -27 -3 -47t-12 -33q-11 -14 -27 -23q-14 -9 -44 -19l-2 7q19 10 23 14q9 7 16 15q4 5 10 17q4 14 4 22q2 8 2 27v34v126l5 2z" />
    <glyph glyph-name="zainarabic" unicode="&#x632;" horiz-adv-x="148" arabic-form="isolated" 
d="M106 195q-9 0 -15 6q-7 7 -7 15q0 3 2 9q1 3 5 7t7 5t8 1q6 0 9 -1t7 -5t5 -7t1 -9q0 -9 -6 -15t-16 -6zM132 130v-4q-2 -2 -6 -5.5t-6 -4.5q-5 -7 -6 -9q-2 -6 -2 -9q-1 -3 -1 -12v-79q0 -27 -3 -47t-12 -33q-11 -14 -27 -23q-14 -9 -44 -19l-2 7q19 10 23 14q9 7 16 15
q4 5 10 17q4 14 4 22q2 8 2 27v34v126l5 2z" />
    <glyph glyph-name="seenarabic" unicode="&#x633;" horiz-adv-x="510" arabic-form="isolated" 
d="M502 130v-4q-10 -8 -12 -10q-6 -6 -7 -9q-2 -6 -2 -9v-11v-87h-51q-5 0 -15 2q-4 2 -12 8q-6 5 -11 11q-1 1 -4.5 6t-5.5 8v-35h-51q-4 0 -14 2q-5 2 -13 8q-6 5 -11 11q-6 8 -9 13v-8q0 -26 -8 -41q-8 -16 -24 -29q-13 -10 -36 -17q-20 -6 -42 -6q-11 0 -20 1
q-12 0 -26 3q-11 2 -28 10q-16 8 -27 19q-12 13 -19 32q-7 18 -7 48q0 24 6 44q6 21 16 36q11 17 22 27q11 11 24 19l3 -7q-10 -11 -18 -27q-6 -11 -13 -37q-6 -23 -6 -55q0 -22 6 -39q7 -18 14 -25q7 -8 19 -16q20 -8 22 -8q12 -2 18 -2h14q14 0 26 4q14 3 25 11
q11 7 19 20q7 11 7 29v2v104v22l5 2l28 -11v-95q9 -9 22 -15q14 -7 25 -7h18v125l5 2l28 -11v-94q9 -9 22 -15q14 -7 26 -7h18v125l4 2z" />
    <glyph glyph-name="sheenarabic" unicode="&#x634;" horiz-adv-x="510" arabic-form="isolated" 
d="M373 262q0 9 6 15q7 7 15 7q9 0 16 -7q6 -6 6 -15q0 -10 -6 -16t-16 -6q-9 0 -15 6t-6 16zM333 240q-9 0 -15 6q-7 6 -7 16q0 9 7 15q7 7 15 7t15 -7q7 -6 7 -15q0 -10 -7 -16q-6 -6 -15 -6zM364 302q-8 0 -16 6q-6 6 -6 16q0 9 6 15q8 6 16 6t16 -6q6 -6 6 -15
q0 -10 -6 -16q-8 -6 -16 -6zM502 130v-4q-10 -8 -12 -10q-6 -6 -7 -9q-2 -6 -2 -9v-11v-87h-51q-5 0 -15 2q-4 2 -12 8q-6 5 -11 11q-1 1 -4.5 6t-5.5 8v-35h-51q-4 0 -14 2q-5 2 -13 8q-6 5 -11 11q-6 8 -9 13v-8q0 -26 -8 -41q-8 -16 -24 -29q-13 -10 -36 -17
q-20 -6 -42 -6q-11 0 -20 1q-12 0 -26 3q-11 2 -28 10q-16 8 -27 19q-12 13 -19 32q-7 18 -7 48q0 24 6 44q6 21 16 36q11 17 22 27q11 11 24 19l3 -7q-10 -11 -18 -27q-6 -11 -13 -37q-6 -23 -6 -55q0 -22 6 -39q7 -18 14 -25q7 -8 19 -16q20 -8 22 -8q12 -2 18 -2h14
q14 0 26 4q14 3 25 11q11 7 19 20q7 11 7 29v2v104v22l5 2l28 -11v-95q9 -9 22 -15q14 -7 25 -7h18v125l5 2l28 -11v-94q9 -9 22 -15q14 -7 26 -7h18v125l4 2z" />
    <glyph glyph-name="sadarabic" unicode="&#x635;" horiz-adv-x="517" arabic-form="isolated" 
d="M444 90q0 8 -2 28q0 13 -5 26t-15 20q-10 8 -26 8q-12 0 -24 -4q-13 -4 -29 -14q-17 -10 -31 -24q-12 -11 -28 -34v-74h160v68zM400 194q22 0 38 -8q15 -8 23 -22q9 -13 12 -34q4 -17 4 -44v-86h-196q-1 -5 -5 -15q-8 -16 -24 -29q-13 -10 -36 -17q-20 -6 -42 -6
q-11 0 -20 1q-12 0 -26 3q-11 2 -28 10q-16 8 -27 19q-12 13 -19 32q-7 18 -7 48q0 24 6 44q6 21 16 36q11 17 22 27q11 11 24 19l3 -7q-10 -11 -18 -27q-6 -11 -13 -37q-6 -23 -6 -55q0 -22 6 -39q7 -18 14 -25q7 -8 19 -16q20 -8 22 -8q12 -2 18 -2h14q14 0 26 4
q14 3 25 11q11 7 19 20q7 11 7 29v2v126l4 2l45 -17q20 22 23 25q5 5 25 20q12 7 26 12q13 4 26 4z" />
    <glyph glyph-name="dadarabic" unicode="&#x636;" horiz-adv-x="517" arabic-form="isolated" 
d="M316 228q-7 0 -16 7q-6 6 -6 15q0 10 6 16q8 6 16 6q6 0 8 -1q4 -1 8 -5q2 -2 4 -7q2 -6 2 -9q0 -2 -2 -8q-2 -4 -4 -7q-4 -3 -8 -5t-8 -2zM444 90q0 8 -2 28q0 13 -5 26t-15 20q-10 8 -26 8q-12 0 -24 -4q-13 -4 -29 -14q-17 -10 -31 -24q-12 -11 -28 -34v-74h160v68z
M400 194q22 0 38 -8q15 -8 23 -22q9 -13 12 -34q4 -17 4 -44v-86h-196q-1 -5 -5 -15q-8 -16 -24 -29q-13 -10 -36 -17q-20 -6 -42 -6q-11 0 -20 1q-12 0 -26 3q-11 2 -28 10q-16 8 -27 19q-12 13 -19 32q-7 18 -7 48q0 24 6 44q6 21 16 36q11 17 22 27q11 11 24 19l3 -7
q-10 -11 -18 -27q-6 -11 -13 -37q-6 -23 -6 -55q0 -22 6 -39q7 -18 14 -25q7 -8 19 -16q20 -8 22 -8q12 -2 18 -2h14q14 0 26 4q14 3 25 11q11 7 19 20q7 11 7 29v2v126l4 2l45 -17q20 22 23 25q5 5 25 20q12 7 26 12q13 4 26 4z" />
    <glyph glyph-name="taharabic" unicode="&#x637;" horiz-adv-x="358" arabic-form="isolated" 
d="M89 0q-6 0 -18 2q-9 2 -18 6q-10 4 -15 7q-8 6 -11 9l2 6q2 -1 8 -3q3 -1 11 -3q2 0 5 -0.5t5 -0.5h9l22 -1v285l5 1l49 -18v-4q-12 -9 -13 -10q-1 -2 -3 -4.5t-3 -4.5q-2 -6 -2 -9v-12v-132q7 15 40 44q10 10 25 20q11 7 26 12q12 4 26 4q21 0 37 -8q15 -8 23 -22
q8 -12 13 -34q3 -20 3 -44v-86h-226zM282 90q0 18 -1 28q-2 14 -6 26q-5 12 -14 20q-10 8 -27 8q-12 0 -24 -4q-13 -4 -29 -14q-14 -8 -31 -24q-12 -11 -28 -34v-74h160v68z" />
    <glyph glyph-name="zaharabic" unicode="&#x638;" horiz-adv-x="358" arabic-form="isolated" 
d="M89 0q-6 0 -18 2q-9 2 -18 6q-10 4 -15 7q-8 6 -11 9l2 6q2 -1 8 -3q3 -1 11 -3q2 0 5 -0.5t5 -0.5h9l22 -1v285l5 1l49 -18v-4q-12 -9 -13 -10q-1 -2 -3 -4.5t-3 -4.5q-2 -6 -2 -9v-12v-132q7 15 40 44q10 10 25 20q11 7 26 12q12 4 26 4q21 0 37 -8q15 -8 23 -22
q8 -12 13 -34q3 -20 3 -44v-86h-226zM201 228q-8 0 -15 7q-7 6 -7 15q0 10 7 16q6 6 15 6q5 0 8 -1t7 -5t5 -7q2 -6 2 -9q0 -2 -2 -8q-1 -3 -5 -7t-7 -5q-6 -2 -8 -2zM282 90q0 18 -1 28q-2 14 -6 26q-5 12 -14 20q-10 8 -27 8q-12 0 -24 -4q-13 -4 -29 -14q-14 -8 -31 -24
q-12 -11 -28 -34v-74h160v68z" />
    <glyph glyph-name="ainarabic" unicode="&#x639;" horiz-adv-x="285" arabic-form="isolated" 
d="M142 22h128v-22h-133q-23 0 -36 -7q-15 -9 -21 -17q-9 -11 -10 -24q-3 -14 -3 -26q0 -2 0.5 -7.5t0.5 -8.5q1 -3 2.5 -9t2.5 -9q2 -7 9 -17q3 -5 13 -15q7 -5 19 -10q8 -4 24 -4q10 0 16 1q2 1 8 2t8 1q6 2 16 6q8 3 12 7l6 -7q-8 -6 -18 -12q-11 -8 -21 -10
q-9 -5 -23 -7q-7 -2 -22 -2q-7 0 -28 7q-20 12 -30 21q-13 15 -20 31q-7 17 -7 37q0 22 4 37q3 16 12 30q8 12 23 22q10 7 35 14v104q0 12 5 24q6 11 17 21q9 7 27 15q6 3 24 3q16 0 25 -4q9 -3 23 -12q11 -6 24 -19q9 -9 17 -22l-7 -2q-19 21 -32 28q-15 8 -30 10
q-15 3 -26 -2q-10 -4 -20 -12q-8 -8 -12 -19q-2 -10 -2 -25v-90z" />
    <glyph glyph-name="ghainarabic" unicode="&#x63a;" horiz-adv-x="285" arabic-form="isolated" 
d="M186 252q-9 0 -15 6q-7 9 -7 16q0 4 2 8t5 8q3 2 7 4q6 2 8 2q10 0 16 -6q6 -8 6 -16t-6 -16q-6 -6 -16 -6zM142 22h128v-22h-133q-23 0 -36 -7q-15 -9 -21 -17q-9 -11 -10 -24q-3 -14 -3 -26q0 -2 0.5 -7.5t0.5 -8.5q1 -3 2.5 -9t2.5 -9q2 -7 9 -17q3 -5 13 -15
q7 -5 19 -10q8 -4 24 -4q10 0 16 1q2 1 8 2t8 1q6 2 16 6q8 3 12 7l6 -7q-8 -6 -18 -12q-11 -8 -21 -10q-9 -5 -23 -7q-7 -2 -22 -2q-7 0 -28 7q-20 12 -30 21q-13 15 -20 31q-7 17 -7 37q0 22 4 37q3 16 12 30q8 12 23 22q10 7 35 14v104q0 12 5 24q6 11 17 21q9 7 27 15
q6 3 24 3q16 0 25 -4q9 -3 23 -12q11 -6 24 -19q9 -9 17 -22l-7 -2q-19 21 -32 28q-15 8 -30 10q-15 3 -26 -2q-10 -4 -20 -12q-8 -8 -12 -19q-2 -10 -2 -25v-90z" />
    <glyph glyph-name="feharabic" unicode="&#x641;" horiz-adv-x="417" arabic-form="isolated" 
d="M290 252q-9 0 -15 6q-7 9 -7 16t7 16q6 6 15 6q10 0 16 -6q6 -8 6 -16t-6 -16q-6 -6 -16 -6zM376 0q-4 -16 -15 -30q-11 -13 -24 -20q-14 -9 -32 -13q-16 -4 -37 -4h-102q-11 0 -19 1q-12 0 -27 3q-11 2 -28 10t-26 19q-11 12 -20 32q-7 23 -7 47q0 25 6 45q5 15 16 36
q11 17 22 27q11 11 24 19l3 -7q-10 -11 -18 -27q-6 -11 -13 -37q-6 -23 -6 -56q0 -23 6 -38q7 -18 14 -25q7 -8 19 -16q20 -8 22 -8q12 -2 18 -2h14h102q15 0 22 2q14 4 22 8q10 4 18 14q9 7 12 20h-51q-24 0 -39 7q-19 8 -30 19q-11 14 -18 32q-6 18 -6 40q0 23 6 41
q8 20 19 32q9 10 29 21q21 7 40 7q23 0 38 -7q18 -8 27 -20q11 -12 17 -31q5 -20 5 -41v-74v-4zM346 96q0 8 -2 32q-1 13 -8 30q-6 13 -17 22t-28 9q-18 0 -29 -8t-17 -21q-6 -11 -9 -28q-2 -22 -2 -30q0 -15 3 -30q4 -16 10 -25q6 -11 18 -18q11 -7 29 -7h52v74z" />
    <glyph glyph-name="qafarabic" unicode="&#x642;" horiz-adv-x="417" arabic-form="isolated" 
d="M322 252q-2 0 -8 2q-4 2 -7 4q-3 4 -5 8t-2 8t2 8t5 8q3 2 7 4q6 2 8 2q3 0 9 -2q5 -2 7 -4q4 -4 5 -8q1 -2 1 -8t-1 -8q-1 -4 -5 -8q-2 -2 -7 -4q-6 -2 -9 -2zM261 252q-9 0 -15 6q-7 7 -7 16q0 2 0.5 4.5t0.5 3.5q1 1 2.5 4t2.5 4q3 2 7 4q6 2 9 2q2 0 8 -2q5 -2 7 -4
q4 -4 5 -8q2 -4 2 -8t-2 -8q-1 -4 -5 -8q-2 -2 -7 -4q-6 -2 -8 -2zM376 0q-4 -16 -15 -30q-11 -13 -24 -20q-14 -9 -32 -13q-16 -4 -37 -4h-102q-11 0 -19 1q-12 0 -27 3q-11 2 -28 10t-26 19q-11 12 -20 32q-7 23 -7 47q0 25 6 45q5 15 16 36q11 17 22 27q11 11 24 19l3 -7
q-10 -11 -18 -27q-6 -11 -13 -37q-6 -23 -6 -56q0 -23 6 -38q7 -18 14 -25q7 -8 19 -16q20 -8 22 -8q12 -2 18 -2h14h102q15 0 22 2q14 4 22 8q10 4 18 14q9 7 12 20h-51q-24 0 -39 7q-19 8 -30 19q-11 14 -18 32q-6 18 -6 40q0 23 6 41q8 20 19 32q9 10 29 21q21 7 40 7
q23 0 38 -7q18 -8 27 -20q11 -12 17 -31q5 -20 5 -41v-74v-4zM346 96q0 8 -2 32q-1 13 -8 30q-6 13 -17 22t-28 9q-18 0 -29 -8t-17 -21q-6 -11 -9 -28q-2 -22 -2 -30q0 -15 3 -30q4 -16 10 -25q6 -11 18 -18q11 -7 29 -7h52v74z" />
    <glyph glyph-name="kafarabic" unicode="&#x643;" horiz-adv-x="334" arabic-form="isolated" 
d="M286 34v-34h-159q-14 0 -21 1l-22 3q-9 3 -20 8q-4 2 -18 14q-7 11 -11 21q-5 13 -5 30q0 20 10 42t22 35l7 -5q-4 -4 -7 -13l-6 -15q-1 -5 -3 -17q-1 -5 -1 -15q0 -22 7 -35q7 -12 19 -20t26 -9q14 -3 28 -3h121v285l5 2l50 -19v-4q-3 -2 -7.5 -5.5t-5.5 -4.5
q-5 -7 -6 -9q-2 -6 -2 -9q0 -1 -0.5 -5t-0.5 -7v-212zM197 165h-79v15h23q-7 4 -13 12q-5 10 -5 19q0 7 3 13q3 7 9 11q8 6 13 8q8 3 17 3q9 1 22 -4q11 -5 17 -12l-8 -9q-8 5 -12 7q-5 2 -16 2t-17 -5q-7 -6 -7 -15t5 -14q7 -5 14 -8q7 -4 18 -6q12 -2 17 -2h6z" />
    <glyph glyph-name="lamarabic" unicode="&#x644;" horiz-adv-x="301" arabic-form="isolated" 
d="M236 307l4 2l50 -19v-4q-2 -2 -6 -5.5t-6 -4.5q-5 -7 -6 -9q-3 -5 -3 -9v-12v-220q0 -24 -9 -41q-8 -16 -24 -29q-13 -10 -35 -17q-19 -6 -43 -6q-11 0 -19 1q-13 0 -26 3q-9 2 -29 10q-16 9 -26 19q-12 13 -19 32q-7 18 -7 48q0 24 6 44q6 21 16 36q9 16 21 27
q9 9 25 19l2 -7q-10 -11 -18 -27q-7 -13 -12 -37q-6 -23 -6 -55q0 -22 6 -39q5 -16 14 -25q6 -9 19 -16q14 -6 21 -8q14 -2 19 -2h13q15 0 27 4q11 3 25 11q12 9 18 20q8 11 8 29v287z" />
    <glyph glyph-name="meemarabic" unicode="&#x645;" horiz-adv-x="290" arabic-form="isolated" 
d="M182 180q22 0 38 -6q18 -7 28 -18q12 -12 18 -29t6 -38q0 -46 -23 -67q-23 -22 -68 -22h-18q-2 0 -8 0.5t-9 0.5h-14h-10q-6 0 -10 -1q-8 -2 -12 -2q-4 -2 -12 -4q-8 -4 -11 -6q-3 -3 -9 -11l-6 -12q0 -2 -1 -6.5t-2 -6.5q-1 -4 -1 -12v-22v-30q2 -20 3 -33q1 -12 8 -29
l-3 -3q-11 6 -18 16q-7 7 -13 21q-7 13 -8 30q-2 24 -2 32q0 18 1 25q2 14 3 19q2 8 5 13q1 2 4 6.5t4 6.5q3 4 11 12q10 8 17 11q11 6 22 7v70q0 20 6 37q5 15 17 28q13 12 28 17q17 6 39 6zM181 22q17 0 29 6q10 6 16 16q7 12 8 23q2 16 2 25v12q-1 4 -3 16l-6 18
q-5 9 -10 16q-6 8 -15 12q-8 5 -20 5h-1q-11 0 -21 -5q-7 -4 -14 -13q-6 -7 -9 -17q-4 -8 -6 -19q-1 -3 -2 -8.5t-1 -8.5v-11v-66z" />
    <glyph glyph-name="noonarabic" unicode="&#x646;" horiz-adv-x="313" arabic-form="isolated" 
d="M194 262q0 -9 -7 -16q-6 -6 -15 -6q-10 0 -16 6t-6 16q0 9 6 15q7 7 16 7q8 0 15 -7t7 -15zM251 192l5 2l50 -19v-4q-10 -6 -13 -11q-4 -3 -6 -8q-2 -6 -2 -9q0 -1 -0.5 -5t-0.5 -6v-106q0 -26 -8 -41q-8 -16 -24 -29q-13 -10 -36 -17q-20 -6 -42 -6q-11 0 -20 1
q-12 0 -26 3q-11 2 -28 10q-16 8 -27 19q-12 13 -19 32q-7 18 -7 48q0 24 6 44q6 21 16 36q11 17 22 27q11 11 24 19l3 -7q-10 -11 -18 -27q-6 -11 -13 -37q-6 -23 -6 -55q0 -22 6 -39q7 -18 14 -25q7 -8 19 -16q20 -8 22 -8q12 -2 18 -2h14q14 0 26 4q14 3 25 11
q11 7 19 20q7 11 7 29v172z" />
    <glyph glyph-name="heharabic" unicode="&#x647;" horiz-adv-x="220" arabic-form="isolated" 
d="M112 199q23 0 38 -7q18 -8 27 -20q11 -12 17 -31q5 -20 5 -41v-100h-88q-24 0 -39 7q-18 8 -29 19q-12 14 -18 32t-6 40q0 24 7 41q6 19 18 32q9 10 29 21q19 7 39 7zM166 96q0 14 -1 20q0 10 -3 22q-2 10 -6 20q-5 9 -10 16q-4 5 -14 11q-8 4 -21 4q-16 0 -29 -8
q-11 -8 -17 -21q-7 -13 -8 -28q-3 -16 -3 -30q0 -15 3 -30q4 -16 10 -25q8 -11 19 -18q12 -7 28 -7h52v74z" />
    <glyph glyph-name="wawarabic" unicode="&#x648;" arabic-form="isolated" 
d="M21 98q0 24 7 42q6 17 18 31q9 10 29 21q21 7 39 7q24 0 38 -7q18 -8 28 -20q12 -13 16 -31q6 -18 6 -41v-92q0 -30 -4 -47q-3 -19 -12 -33q-11 -14 -27 -23q-13 -9 -43 -19l-3 7q20 9 30 19q12 10 17 22q6 16 6 28q2 11 2 38h-54q-23 0 -40 7q-18 8 -29 19
q-12 14 -18 32t-6 40zM168 96v20q0 4 -1 11t-2 11q-5 16 -7 20q-2 6 -10 16q-4 5 -14 11q-8 4 -21 4q-17 0 -28 -8t-17 -21q-7 -12 -9 -28q-2 -20 -2 -30q0 -15 3 -30t9 -25q8 -11 19 -18q12 -7 29 -7h51v74z" />
    <glyph glyph-name="alefmaksuraarabic" unicode="&#x649;" horiz-adv-x="382" arabic-form="isolated" 
d="M216 123q0 16 5 31q4 13 13 25q12 14 19 19q7 6 23 14q16 6 24 8q9 2 24 2q14 0 21 -2q11 -2 18 -6l-3 -6q-30 3 -55 -5q-11 -3 -20 -9q-11 -6 -18 -15q-6 -7 -13 -23q-4 -18 -4 -33q0 -11 4 -25q7 -12 14 -17q9 -6 22 -9q12 -3 28 -3h39v-53q0 -20 -8 -38
q-8 -16 -21 -26q-15 -10 -31 -14q-20 -5 -39 -5h-92q-18 0 -29 1q-11 0 -31 2q-19 3 -32 10q-13 5 -26 18q-12 12 -18 31q-8 19 -8 47v123h34v-106q0 -32 5 -47q6 -20 16 -31t23 -17q16 -6 25 -7q18 -2 26 -2q5 0 13 0.5t11 0.5h88q18 0 29 4q13 5 18 12q8 8 11 22
q3 12 3 29v19q-28 0 -45 4q-23 5 -34 14q-14 9 -21 25q-8 16 -8 38z" />
    <glyph glyph-name="yeharabic" unicode="&#x64a;" horiz-adv-x="387" arabic-form="isolated" 
d="M218 -133q0 10 6 16t16 6q9 0 15 -6q7 -7 7 -16q0 -8 -7 -15q-6 -6 -15 -6q-10 0 -16 6t-6 15zM156 -133q0 10 6 16q8 6 16 6q9 0 15 -6q7 -7 7 -16q0 -8 -7 -15q-6 -6 -15 -6q-8 0 -16 6q-6 6 -6 15zM216 123q0 16 5 31q4 13 13 25q12 14 19 19q7 6 23 14q16 6 24 8
q9 2 24 2q14 0 21 -2q11 -2 18 -6l-3 -6q-30 3 -55 -5q-11 -3 -20 -9q-11 -6 -18 -15q-6 -7 -13 -23q-4 -18 -4 -33q0 -11 4 -25q7 -12 14 -17q9 -6 22 -9q12 -3 28 -3h39v-53q0 -20 -8 -38q-8 -16 -21 -26q-15 -10 -31 -14q-20 -5 -39 -5h-92q-18 0 -29 1q-11 0 -31 2
q-19 3 -32 10q-13 5 -26 18q-12 12 -18 31q-8 19 -8 47v123h34v-106q0 -32 5 -47q6 -20 16 -31t23 -17q16 -6 25 -7q18 -2 26 -2q5 0 13 0.5t11 0.5h88q18 0 29 4q13 5 18 12q8 8 11 22q3 12 3 29v19q-28 0 -45 4q-23 5 -34 14q-14 9 -21 25q-8 16 -8 38z" />
    <glyph glyph-name="fathatanarabic" unicode="&#xfe70;" horiz-adv-x="0" arabic-form="isolated" 
d="M0 308q0 4 2 10q1 4 3 8q12 8 42 23q27 12 52 21l-7 -20q-6 -3 -21.5 -9t-24.5 -10q-24 -11 -46 -23zM3 344q0 4 2 10q1 4 3 8q12 8 42 23q27 12 52 21l-7 -20l-45 -19q-24 -11 -47 -23z" />
    <glyph glyph-name="dammatanarabic" unicode="&#xfe72;" horiz-adv-x="0" arabic-form="isolated" 
d="M-16 364q3 5 11 11q6 3 15 3t15 -6t6 -15q0 -7 -1 -9q-2 -4 -4 -7q20 1 32 9q-12 6 -18 17t-6 25q0 12 6 18t14 6q15 0 24 -10q10 -13 10 -24q0 -5 -2 -11q0 -4 -2 -8q2 0 4 -0.5t3 -0.5h8l-9 -18h-8h-6q-24 -21 -70 -24q12 15 12 26q0 7 -2 9q-3 3 -8 3t-10 -4
q-1 -2 -4.5 -5t-4.5 -5zM72 364q3 3 3 6q0 1 0.5 3t0.5 3q0 7 -6 13q-4 5 -12 5q-12 0 -12 -8q0 -5 7 -12q7 -5 19 -10z" />
    <glyph glyph-name="kasratanarabic" unicode="&#xfe74;" horiz-adv-x="0" arabic-form="isolated" 
d="M0 -259q0 3 2 11q2 6 3 8q12 7 42 22q29 13 52 20l-7 -20q-14 -4 -46 -18zM3 -223q0 3 2 11q2 6 3 8q12 7 42 22q29 13 52 20l-7 -20q-11 -3 -45 -18z" />
    <glyph glyph-name="fathaarabic" unicode="&#xfe76;" horiz-adv-x="0" arabic-form="isolated" 
d="M0 308q0 4 2 10q1 4 3 8q12 8 42 23q27 12 52 21l-7 -20q-6 -3 -21.5 -9t-24.5 -10q-24 -11 -46 -23z" />
    <glyph glyph-name="dammaarabic" unicode="&#xfe78;" horiz-adv-x="0" arabic-form="isolated" 
d="M0 326q30 9 49 20q-18 18 -18 38q0 12 7 19q6 8 15 8q7 0 13 -3q8 -4 11 -8q3 -2 7 -10q2 -4 2 -12t-1 -12t-6 -12q3 -1 8 -1h10l-9 -18q-10 0 -13 1q-3 0 -9 2q-14 -10 -22 -14q-12 -6 -23 -6q-7 0 -10 2zM78 376q-5 6 -10 9q-7 4 -13 4q-10 0 -10 -9q0 -8 6 -14t13 -8
q10 6 14 18z" />
    <glyph glyph-name="kasraarabic" unicode="&#xfe7a;" horiz-adv-x="0" arabic-form="isolated" 
d="M3 -223q0 3 2 11q2 6 3 8q12 7 42 22q29 13 52 20l-7 -20q-11 -3 -45 -18z" />
    <glyph glyph-name="shaddaarabic" unicode="&#xfe7c;" horiz-adv-x="0" arabic-form="isolated" 
d="M88 394q0 -1 0.5 -3t0.5 -4q1 -3 1 -10q0 -17 -8 -28q-8 -9 -18 -9q-7 0 -11 4q-3 2 -7 10q-4 -16 -11 -25q-7 -7 -13 -7t-11 8t-5 19q0 4 2 14q2 8 4 13l8 7v-5v-6q0 -13 2 -16q3 -6 7 -6q3 0 8 5q4 4 7 10v13l2 8l8 7q0 -15 3 -23q3 -7 9 -7t8 5q3 6 3 18v6q0 2 -0.5 4
t-0.5 4z" />
    <glyph glyph-name="sukunarabic" unicode="&#xfe7e;" horiz-adv-x="0" arabic-form="isolated" 
d="M50 404q13 0 22 -11q8 -13 8 -27q0 -18 -9 -30t-23 -12t-21 9q-7 8 -7 25q0 21 9 33q9 13 21 13zM68 359q-3 13 -8 18q-6 6 -14 6q-6 0 -11 -6q-4 -5 -4 -15q0 -7 5 -12q6 -4 12 -4q4 0 12 4q7 3 8 9z" />
    <glyph glyph-name="alefmaddaabovefinalarabic" unicode="&#x622;" horiz-adv-x="149" arabic-form="final" 
d="M68 351q-9 5 -13 5t-6 1q-3 1 -6 1q-7 0 -10 -1q-7 -3 -8 -3q-5 0 -5 -2q-2 0 -4 -2l-4 -4l-3 2l1 2l4 4t2 3q2 1 3 3q3 2 9 8q8 4 12 5q5 1 15 1q1 -1 2 -1q2 -1 3 -1l4 -2l6 -2q3 -3 5 -3q14 -7 25 -7q7 -1 20 2q2 0 6 2l6 6q1 1 3 2l2 2l2 -3q-4 -4 -6 -7t-7 -8
q-4 -4 -10 -7q-3 -2 -12 -4q-5 -1 -16 1t-20 7zM155 22v-22h-108v307l5 2l49 -19v-4q-12 -9 -13 -10q-1 -2 -3 -4.5t-3 -4.5q-2 -6 -2 -9v-12v-224h75z" />
    <glyph glyph-name="alefhamzaabovefinalarabic" unicode="&#x623;" horiz-adv-x="147" arabic-form="final" 
d="M155 22v-22h-108v307l5 2l49 -19v-4q-12 -9 -13 -10q-1 -2 -3 -4.5t-3 -4.5q-2 -6 -2 -9v-12v-224h75zM119 343h-101v19h16q0 10 1 16q2 12 5 18q6 10 12 14q6 6 19 8q9 0 13 -1q6 -1 11 -4q6 -2 9 -5q4 -3 8 -7l-7 -11q-8 7 -14 8q-5 2 -13 2q-4 0 -10 -2q-3 -1 -7 -5
q-5 -5 -7 -15q-1 -5 -1 -16h59z" />
    <glyph glyph-name="wawhamzaabovefinalarabic" unicode="&#x624;" horiz-adv-x="236" arabic-form="final" 
d="M179 234h-101v18h16q0 11 1 17q2 12 5 17q5 10 11 15q7 5 20 7h12q2 -1 11 -4q8 -4 10 -6q4 -2 8 -6l-7 -11q-8 7 -15 8q-8 2 -12 2t-10 -2q-3 -1 -7 -5q-5 -5 -7 -15t-2 -17h60zM243 22v-22h-38q0 -19 -4 -43q-5 -18 -13 -31q-12 -14 -27 -22q-17 -9 -42 -18l-3 7
q20 9 30 19q12 10 16 22q7 13 8 28q2 22 2 38h-55q-24 0 -39 7q-19 8 -30 19q-11 14 -18 32q-6 18 -6 40t6 42q8 18 19 31q9 10 29 21q21 7 39 7q22 0 39 -7q19 -9 27 -20q11 -12 17 -31q5 -20 5 -41v-78h38zM172 96q0 14 -1 20q-1 4 -2 11t-1 11q-2 6 -6 20q-5 9 -10 16
q-5 6 -15 11q-8 4 -21 4q-17 0 -28 -8t-17 -21q-6 -11 -9 -28q-2 -20 -2 -30q0 -15 3 -30q4 -16 10 -25q6 -11 18 -18q14 -7 29 -7h52v74z" />
    <glyph glyph-name="alefhamzabelowfinalarabic" unicode="&#x625;" horiz-adv-x="149" arabic-form="final" 
d="M155 22v-22h-108v307l5 2l49 -19v-4q-12 -9 -13 -10q-1 -2 -3 -4.5t-3 -4.5q-2 -6 -2 -9v-12v-224h75zM125 -116h-101v19h16q0 11 1 17q2 12 5 17q5 11 12 15q5 5 19 7q9 0 13 -1q6 -2 11 -4q6 -2 9 -5q2 -1 8 -7l-7 -10q-10 6 -14 8q-10 2 -13 2q-6 0 -10 -3
q-3 -1 -7 -5q-5 -5 -7 -14q-1 -6 -1 -17h59z" />
    <glyph glyph-name="yehhamzaabovefinalarabic" unicode="&#x626;" horiz-adv-x="494" arabic-form="final" 
d="M133 191h-101v19h16q0 10 1 16q2 12 5 18q6 10 12 14q5 5 19 7q7 2 13 -1q2 0 6 -1.5t5 -1.5q1 -1 3 -2q5 -3 6 -4q4 -2 8 -6l-7 -11q-8 7 -14 8q-10 2 -13 2q-4 0 -10 -2q-4 -1 -7 -6q-6 -6 -7 -14q-1 -5 -1 -16h59zM357 200h-15q-3 0 -9.5 -1t-9.5 -2q-12 -3 -19 -7
q-9 -5 -17 -14q-7 -8 -12 -21q-5 -15 -5 -32q0 -13 5 -25q5 -11 14 -17t21 -9q14 -3 29 -3h39v-53q0 -20 -8 -38q-8 -16 -21 -26q-15 -10 -31 -14q-20 -5 -39 -5h-93q-18 0 -28 1q-10 0 -32 2q-17 3 -31 10q-15 6 -27 18q-11 12 -18 31q-7 17 -7 47v123h33v-106q0 -29 6 -47
q6 -20 16 -31q7 -10 22 -17q16 -6 26 -7q18 -2 26 -2q5 0 12.5 0.5t11.5 0.5h88q19 0 28 4q11 4 19 12q8 10 11 22t3 29v19q-29 0 -46 4q-21 5 -33 14q-13 9 -22 25q-7 17 -7 38q0 25 9 45q9 18 24 30q13 12 32 18q16 6 34 6h52q23 0 38 -6q16 -8 24 -20q8 -10 13 -31
q4 -17 4 -44v-99h33v-22h-66v114q0 18 -2 28q0 12 -6 28q-4 12 -14 22q-10 8 -24 8h-31z" />
    <glyph glyph-name="yehhamzaaboveinitialarabic" unicode="&#x626;" horiz-adv-x="157" arabic-form="initial" 
d="M140 175v-4q-10 -6 -13 -11q-4 -3 -6 -8q-2 -6 -2 -9q0 -1 -0.5 -5t-0.5 -6v-132h-121v22h88v170l5 2zM134 225h-101v19h16q0 10 1 16q2 12 5 18q5 8 11 14q8 6 20 7q7 2 12 -1l12 -3q6 -4 10 -6q1 -1 3.5 -3t3.5 -3l-7 -11q-8 7 -14 8q-10 2 -13 2q-4 0 -10 -2
q-4 -1 -7 -6q-6 -6 -7 -14q-1 -5 -1 -16h59z" />
    <glyph glyph-name="yehhamzaabovemedialarabic" unicode="&#x626;" horiz-adv-x="163" arabic-form="medial" 
d="M167 22v-22h-17q-4 0 -14 2q-5 2 -13 8l-11 11q-2 2 -5 6.5t-4 6.5v-34h-106v22h73v170l5 2l49 -19v-4q-9 -7 -12 -11q-4 -3 -6 -8q-2 -6 -2 -9q-1 -3 -1 -11v-88q11 -11 21 -16q14 -6 26 -6h17zM134 225h-101v19h16q0 10 1 16q2 12 5 18q5 8 11 14q8 6 20 7q7 2 12 -1
l12 -3q6 -4 10 -6q1 -1 3.5 -3t3.5 -3l-7 -11q-8 7 -14 8q-10 2 -13 2q-4 0 -10 -2q-4 -1 -7 -6q-6 -6 -7 -14q-1 -5 -1 -16h59z" />
    <glyph glyph-name="aleffinalarabic" unicode="&#x627;" horiz-adv-x="149" arabic-form="final" 
d="M155 22v-22h-108v307l5 2l49 -19v-4q-12 -9 -13 -10q-1 -2 -3 -4.5t-3 -4.5q-2 -6 -2 -9v-12v-224h75z" />
    <glyph glyph-name="behfinalarabic" unicode="&#x628;" horiz-adv-x="430" arabic-form="final" 
d="M193 -67q0 9 7 15q6 7 15 7t15 -7q7 -6 7 -15t-7 -15q-6 -7 -15 -7t-15 7q-7 6 -7 15zM434 22v-22h-20q-6 0 -14 2q-5 2 -13 8q-6 5 -11 11q-1 1 -4.5 6t-5.5 8v-35h-225q-14 0 -21 1l-22 3q-9 3 -20 8q-4 2 -18 14q-7 11 -11 21q-5 13 -5 30q0 20 10 42t22 35l7 -5
q-4 -4 -7 -13l-6 -15q-1 -5 -3 -17q-1 -5 -1 -15q0 -22 7 -35q7 -12 19 -20q10 -7 26 -9q18 -2 28 -2h187v169l5 2l50 -19v-4q-10 -6 -13 -11q-4 -3 -6 -8q-2 -6 -2 -9q0 -1 -0.5 -5t-0.5 -6v-88q11 -11 22 -16q12 -6 26 -6h20z" />
    <glyph glyph-name="behinitialarabic" unicode="&#x628;" horiz-adv-x="155" arabic-form="initial" 
d="M140 175v-4q-10 -6 -13 -11q-4 -3 -6 -8q-2 -6 -2 -9q0 -1 -0.5 -5t-0.5 -6v-132h-121v22h88v170l5 2zM45 -67q0 9 7 15q6 7 15 7t15 -7q7 -6 7 -15t-7 -15q-6 -7 -15 -7t-15 7q-7 6 -7 15z" />
    <glyph glyph-name="behmedialarabic" unicode="&#x628;" horiz-adv-x="163" arabic-form="medial" 
d="M167 22v-22h-17q-4 0 -14 2q-5 2 -13 8l-11 11q-2 2 -5 6.5t-4 6.5v-34h-106v22h73v170l5 2l49 -19v-4q-9 -7 -12 -11q-4 -3 -6 -8q-2 -6 -2 -9q-1 -3 -1 -11v-88q11 -11 21 -16q14 -6 26 -6h17zM67 -67q0 9 7 15q6 7 15 7t15 -7q7 -6 7 -15t-7 -15q-6 -7 -15 -7t-15 7
q-7 6 -7 15z" />
    <glyph glyph-name="tehmarbutafinalarabic" unicode="&#x629;" horiz-adv-x="241" arabic-form="final" 
d="M246 22v-22h-123q-24 0 -39 7q-17 7 -29 19q-12 13 -19 32q-6 18 -6 40q0 23 6 41q8 20 19 32q9 10 29 21q21 7 40 7q23 0 38 -7q18 -8 27 -20q11 -12 17 -31q5 -20 5 -41v-78h35zM178 96q0 8 -2 32q-1 13 -8 30q-6 13 -17 22t-28 9q-18 0 -29 -8t-17 -21q-6 -11 -9 -28
q-2 -22 -2 -30q0 -15 3 -30q4 -16 10 -25q8 -11 19 -18q12 -7 28 -7h52v74zM154 252q-9 0 -15 6q-6 8 -6 16t6 16q6 6 15 6q10 0 16 -6q6 -8 6 -16t-6 -16q-6 -6 -16 -6zM93 252q-3 0 -9 2q-4 2 -7 4q-1 1 -2.5 4t-2.5 4q0 1 -0.5 3.5t-0.5 4.5t0.5 4.5t0.5 3.5q1 1 2.5 4
t2.5 4q3 2 7 4q6 2 9 2q2 0 8 -2q5 -2 7 -4q4 -4 5 -8q2 -4 2 -8t-2 -8q-1 -4 -5 -8q-2 -2 -7 -4q-6 -2 -8 -2z" />
    <glyph glyph-name="tehfinalarabic" unicode="&#x62a;" horiz-adv-x="430" arabic-form="final" 
d="M434 22v-22h-20q-6 0 -14 2q-5 2 -13 8q-6 5 -11 11q-1 1 -4.5 6t-5.5 8v-35h-225q-14 0 -21 1l-22 3q-9 3 -20 8q-4 2 -18 14q-7 11 -11 21q-5 13 -5 30q0 20 10 42t22 35l7 -5q-4 -4 -7 -13l-6 -15q-1 -5 -3 -17q-1 -5 -1 -15q0 -22 7 -35q7 -12 19 -20q10 -7 26 -9
q18 -2 28 -2h187v169l5 2l50 -19v-4q-10 -6 -13 -11q-4 -3 -6 -8q-2 -6 -2 -9q0 -1 -0.5 -5t-0.5 -6v-88q11 -11 22 -16q12 -6 26 -6h20zM224 262q0 9 6 15q9 7 16 7t16 -7q6 -6 6 -15q0 -10 -6 -16q-8 -6 -16 -6t-16 6q-6 6 -6 16zM184 240q-9 0 -15 6q-7 7 -7 16q0 8 7 15
t15 7q9 0 16 -7q6 -6 6 -15q0 -10 -6 -16t-16 -6z" />
    <glyph glyph-name="tehinitialarabic" unicode="&#x62a;" horiz-adv-x="151" arabic-form="initial" 
d="M140 175v-4q-10 -6 -13 -11q-4 -3 -6 -8q-2 -6 -2 -9q0 -1 -0.5 -5t-0.5 -6v-132h-121v22h88v170l5 2zM92 262q0 9 6 15q7 7 15 7q9 0 16 -7q6 -6 6 -15q0 -10 -6 -16t-16 -6q-9 0 -15 6t-6 16zM52 240q-10 0 -16 6t-6 16q0 9 6 15q7 7 16 7q8 0 15 -7t7 -15q0 -9 -7 -16
q-6 -6 -15 -6z" />
    <glyph glyph-name="tehmedialarabic" unicode="&#x62a;" horiz-adv-x="163" arabic-form="medial" 
d="M167 22v-22h-17q-4 0 -14 2q-5 2 -13 8l-11 11q-2 2 -5 6.5t-4 6.5v-34h-106v22h73v170l5 2l49 -19v-4q-9 -7 -12 -11q-4 -3 -6 -8q-2 -6 -2 -9q-1 -3 -1 -11v-88q11 -11 21 -16q14 -6 26 -6h17zM92 262q0 9 6 15q7 7 15 7q9 0 16 -7q6 -6 6 -15q0 -10 -6 -16t-16 -6
q-9 0 -15 6t-6 16zM52 240q-10 0 -16 6t-6 16q0 9 6 15q7 7 16 7q8 0 15 -7t7 -15q0 -9 -7 -16q-6 -6 -15 -6z" />
    <glyph glyph-name="thehfinalarabic" unicode="&#x62b;" horiz-adv-x="429" arabic-form="final" 
d="M434 22v-22h-20q-6 0 -14 2q-5 2 -13 8q-6 5 -11 11q-1 1 -4.5 6t-5.5 8v-35h-225q-14 0 -21 1l-22 3q-9 3 -20 8q-4 2 -18 14q-7 11 -11 21q-5 13 -5 30q0 20 10 42t22 35l7 -5q-4 -4 -7 -13l-6 -15q-1 -5 -3 -17q-1 -5 -1 -15q0 -22 7 -35q7 -12 19 -20q10 -7 26 -9
q18 -2 28 -2h187v169l5 2l50 -19v-4q-10 -6 -13 -11q-4 -3 -6 -8q-2 -6 -2 -9q0 -1 -0.5 -5t-0.5 -6v-88q11 -11 22 -16q12 -6 26 -6h20zM224 262q0 9 6 15q9 7 16 7t16 -7q6 -6 6 -15q0 -10 -6 -16q-8 -6 -16 -6t-16 6q-6 6 -6 16zM184 240q-9 0 -15 6q-7 7 -7 16q0 8 7 15
t15 7q9 0 16 -7q6 -6 6 -15q0 -10 -6 -16t-16 -6zM215 302q-9 0 -15 6t-6 15q0 10 6 16t15 6t15 -6q7 -6 7 -16q0 -9 -7 -15q-6 -6 -15 -6z" />
    <glyph glyph-name="thehinitialarabic" unicode="&#x62b;" horiz-adv-x="149" arabic-form="initial" 
d="M140 175v-4q-10 -6 -13 -11q-4 -3 -6 -8q-2 -6 -2 -9q0 -1 -0.5 -5t-0.5 -6v-132h-121v22h88v170l5 2zM92 262q0 9 6 15q7 7 15 7q9 0 16 -7q6 -6 6 -15q0 -10 -6 -16t-16 -6q-9 0 -15 6t-6 16zM52 240q-10 0 -16 6t-6 16q0 9 6 15q7 7 16 7q8 0 15 -7t7 -15q0 -9 -7 -16
q-6 -6 -15 -6zM82 302q-9 0 -15 6q-7 7 -7 16q0 8 7 15q6 6 15 6q10 0 16 -6t6 -15q0 -10 -6 -16t-16 -6z" />
    <glyph glyph-name="thehmedialarabic" unicode="&#x62b;" horiz-adv-x="162" arabic-form="medial" 
d="M167 22v-22h-17q-4 0 -14 2q-5 2 -13 8l-11 11q-2 2 -5 6.5t-4 6.5v-34h-106v22h73v170l5 2l49 -19v-4q-9 -7 -12 -11q-4 -3 -6 -8q-2 -6 -2 -9q-1 -3 -1 -11v-88q11 -11 21 -16q14 -6 26 -6h17zM92 262q0 9 6 15q7 7 15 7q9 0 16 -7q6 -6 6 -15q0 -10 -6 -16t-16 -6
q-9 0 -15 6t-6 16zM52 240q-10 0 -16 6t-6 16q0 9 6 15q7 7 16 7q8 0 15 -7t7 -15q0 -9 -7 -16q-6 -6 -15 -6zM82 302q-9 0 -15 6q-7 7 -7 16q0 8 7 15q6 6 15 6q10 0 16 -6t6 -15q0 -10 -6 -16t-16 -6z" />
    <glyph glyph-name="jeemfinalarabic" unicode="&#x62c;" horiz-adv-x="278" arabic-form="final" 
d="M120 -67q0 9 6 15q6 7 16 7q9 0 15 -7q7 -7 7 -15t-7 -15q-6 -7 -15 -7q-10 0 -16 7q-6 6 -6 15zM182 24v81q0 11 -2 31q-2 14 -6 21q-6 8 -18 13q-14 5 -28 2q-14 -1 -31 -12q-17 -12 -29 -28l-6 2q5 11 17 24q12 12 23 19q13 8 28 13q14 5 28 3q17 -2 26 -7
q11 -5 17 -14q6 -8 11 -20q3 -12 2 -24v-85q8 -8 20 -15q14 -6 26 -6h21v-22h-21q-4 0 -14 2q-4 2 -12 8q-4 3 -12 11q-2 3 -8 11v-32h-38h-38q-24 0 -37 -7q-15 -9 -21 -17q-9 -11 -10 -24q-3 -14 -3 -26q0 -2 0.5 -7.5t0.5 -8.5q6 -17 6 -18q1 -3 8 -17q4 -5 14 -15
q6 -5 18 -10q9 -4 24 -4q11 0 16 1q3 1 8.5 2t8.5 1l15 6q9 3 13 7l5 -7q-10 -8 -17 -12q-14 -8 -21 -10q-9 -5 -23 -7q-8 -2 -23 -2q-8 0 -27 7q-20 11 -30 21q-12 12 -20 31q-7 17 -7 37q0 21 3 37q5 18 13 30q6 12 22 22q12 6 19 8q9 3 23 5z" />
    <glyph glyph-name="jeeminitialarabic" unicode="&#x62c;" horiz-adv-x="238" arabic-form="initial" 
d="M136 193q15 -1 26 -7q9 -5 17 -14q8 -12 10 -20q3 -10 3 -24v-128h-198v22h165v83q0 6 -0.5 16t-0.5 15q-4 16 -7 21q-6 8 -18 13q-13 5 -27 2q-16 -2 -31 -12q-18 -11 -29 -28l-7 2q5 8 17 24q18 16 24 19q12 8 27 13q15 4 29 3zM97 -67q0 9 7 15q6 7 15 7t15 -7
q7 -6 7 -15t-7 -15q-6 -7 -15 -7t-15 7q-7 6 -7 15z" />
    <glyph glyph-name="jeemmedialarabic" unicode="&#x62c;" horiz-adv-x="257" arabic-form="medial" 
d="M98 -67q0 9 6 15q7 7 16 7t16 -7q6 -6 6 -15t-6 -15q-7 -7 -16 -7t-16 7q-6 6 -6 15zM261 22v-22h-21q-6 0 -14 2q-5 2 -13 8q-6 5 -11 11q-2 2 -5 6.5t-4 6.5v-34h-198v22h165v83q0 21 -2 31q0 11 -6 21q-6 8 -18 13q-13 5 -28 2q-15 -2 -30 -12q-14 -9 -30 -28l-6 2
q6 12 18 24q10 12 23 19q12 8 27 13q15 4 29 3q17 -2 25 -7q9 -3 18 -14q8 -12 10 -20q3 -10 3 -24v-84q11 -11 21 -16q14 -6 26 -6h21z" />
    <glyph glyph-name="hahfinalarabic" unicode="&#x62d;" horiz-adv-x="278" arabic-form="final" 
d="M182 24v81q0 11 -2 31q-2 14 -6 21q-6 8 -18 13q-14 5 -28 2q-14 -1 -31 -12q-17 -12 -29 -28l-6 2q5 11 17 24q12 12 23 19q13 8 28 13q14 5 28 3q17 -2 26 -7q11 -5 17 -14q6 -8 11 -20q3 -12 2 -24v-85q8 -8 20 -15q14 -6 26 -6h21v-22h-21q-4 0 -14 2q-4 2 -12 8
q-4 3 -12 11q-2 3 -8 11v-32h-38h-38q-24 0 -37 -7q-15 -9 -21 -17q-9 -11 -10 -24q-3 -14 -3 -26q0 -2 0.5 -7.5t0.5 -8.5q6 -17 6 -18q1 -3 8 -17q4 -5 14 -15q6 -5 18 -10q9 -4 24 -4q11 0 16 1q3 1 8.5 2t8.5 1l15 6q9 3 13 7l5 -7q-10 -8 -17 -12q-14 -8 -21 -10
q-9 -5 -23 -7q-8 -2 -23 -2q-8 0 -27 7q-20 11 -30 21q-12 12 -20 31q-7 17 -7 37q0 21 3 37q5 18 13 30q6 12 22 22q12 6 19 8q9 3 23 5z" />
    <glyph glyph-name="hahinitialarabic" unicode="&#x62d;" arabic-form="initial" 
d="M136 193q15 -1 26 -7q9 -5 17 -14q8 -12 10 -20q3 -10 3 -24v-128h-198v22h165v83q0 6 -0.5 16t-0.5 15q-4 16 -7 21q-6 8 -18 13q-13 5 -27 2q-16 -2 -31 -12q-18 -11 -29 -28l-7 2q5 8 17 24q18 16 24 19q12 8 27 13q15 4 29 3z" />
    <glyph glyph-name="hahmedialarabic" unicode="&#x62d;" horiz-adv-x="257" arabic-form="medial" 
d="M261 22v-22h-21q-6 0 -14 2q-5 2 -13 8q-6 5 -11 11q-2 2 -5 6.5t-4 6.5v-34h-198v22h165v83q0 21 -2 31q0 11 -6 21q-6 8 -18 13q-13 5 -28 2q-15 -2 -30 -12q-14 -9 -30 -28l-6 2q6 12 18 24q10 12 23 19q12 8 27 13q15 4 29 3q17 -2 25 -7q9 -3 18 -14q8 -12 10 -20
q3 -10 3 -24v-84q11 -11 21 -16q14 -6 26 -6h21z" />
    <glyph glyph-name="khahfinalarabic" unicode="&#x62e;" horiz-adv-x="278" arabic-form="final" 
d="M120 258q0 8 6 16q6 6 16 6q9 0 15 -6q7 -9 7 -16t-7 -16q-6 -6 -15 -6q-10 0 -16 6q-6 8 -6 16zM182 24v81q0 11 -2 31q-2 14 -6 21q-6 8 -18 13q-14 5 -28 2q-14 -1 -31 -12q-17 -12 -29 -28l-6 2q5 11 17 24q12 12 23 19q13 8 28 13q14 5 28 3q17 -2 26 -7
q11 -5 17 -14q6 -8 11 -20q3 -12 2 -24v-85q8 -8 20 -15q14 -6 26 -6h21v-22h-21q-4 0 -14 2q-4 2 -12 8q-4 3 -12 11q-2 3 -8 11v-32h-38h-38q-24 0 -37 -7q-15 -9 -21 -17q-9 -11 -10 -24q-3 -14 -3 -26q0 -2 0.5 -7.5t0.5 -8.5q6 -17 6 -18q1 -3 8 -17q4 -5 14 -15
q6 -5 18 -10q9 -4 24 -4q11 0 16 1q3 1 8.5 2t8.5 1l15 6q9 3 13 7l5 -7q-10 -8 -17 -12q-14 -8 -21 -10q-9 -5 -23 -7q-8 -2 -23 -2q-8 0 -27 7q-20 11 -30 21q-12 12 -20 31q-7 17 -7 37q0 21 3 37q5 18 13 30q6 12 22 22q12 6 19 8q9 3 23 5z" />
    <glyph glyph-name="khahinitialarabic" unicode="&#x62e;" arabic-form="initial" 
d="M97 258q0 9 7 16q6 6 15 6t15 -6q7 -7 7 -16t-7 -16q-6 -6 -15 -6t-15 6q-7 7 -7 16zM136 193q15 -1 26 -7q9 -5 17 -14q8 -12 10 -20q3 -10 3 -24v-128h-198v22h165v83q0 6 -0.5 16t-0.5 15q-4 16 -7 21q-6 8 -18 13q-13 5 -27 2q-16 -2 -31 -12q-18 -11 -29 -28l-7 2
q5 8 17 24q18 16 24 19q12 8 27 13q15 4 29 3z" />
    <glyph glyph-name="khahmedialarabic" unicode="&#x62e;" horiz-adv-x="257" arabic-form="medial" 
d="M98 258q0 8 6 16q8 6 16 6t16 -6q6 -8 6 -16t-6 -16q-8 -6 -16 -6t-16 6q-6 8 -6 16zM261 22v-22h-21q-6 0 -14 2q-5 2 -13 8q-6 5 -11 11q-2 2 -5 6.5t-4 6.5v-34h-198v22h165v83q0 21 -2 31q0 11 -6 21q-6 8 -18 13q-13 5 -28 2q-15 -2 -30 -12q-14 -9 -30 -28l-6 2
q6 12 18 24q10 12 23 19q12 8 27 13q15 4 29 3q17 -2 25 -7q9 -3 18 -14q8 -12 10 -20q3 -10 3 -24v-84q11 -11 21 -16q14 -6 26 -6h21z" />
    <glyph glyph-name="dalfinalarabic" unicode="&#x62f;" horiz-adv-x="273" arabic-form="final" 
d="M277 22v-22h-21q-4 0 -14 2q-5 2 -13 8q-6 5 -11 11q-2 2 -5 6.5t-4 6.5v-34h-160l-9 38l7 1q2 -6 9 -11q4 -2 17 -4q14 -2 25 -2h36h42v38v34q0 11 -2 27q-1 10 -5 21q-3 10 -9 18q-4 5 -16 15q-10 8 -24 14l3 7q28 -9 44 -18q17 -11 26 -24q10 -15 13 -33q3 -19 3 -47
v-30q9 -9 21 -15q16 -7 26 -7h21z" />
    <glyph glyph-name="thalfinalarabic" unicode="&#x630;" horiz-adv-x="273" arabic-form="final" 
d="M114 238q-2 0 -8 2q-3 1 -7 5t-5 7q-2 6 -2 8q0 10 6 16q8 6 16 6t16 -6q6 -6 6 -16q0 -5 -2 -8q0 -3 -4 -7t-7 -5q-6 -2 -9 -2zM277 22v-22h-21q-4 0 -14 2q-5 2 -13 8q-6 5 -11 11q-2 2 -5 6.5t-4 6.5v-34h-160l-9 38l7 1q2 -6 9 -11q4 -2 17 -4q14 -2 25 -2h36h42v38
v34q0 11 -2 27q-1 10 -5 21q-3 10 -9 18q-4 5 -16 15q-10 8 -24 14l3 7q28 -9 44 -18q17 -11 26 -24q10 -15 13 -33q3 -19 3 -47v-30q9 -9 21 -15q16 -7 26 -7h21z" />
    <glyph glyph-name="rehfinalarabic" unicode="&#x631;" horiz-adv-x="169" arabic-form="final" 
d="M174 22v-22h-18q-5 0 -15 2q-7 4 -13 8q-4 3 -10 11q-1 1 -10 13v-27q0 -23 -1 -33q-2 -17 -5 -26q-2 -10 -10 -21q-5 -8 -16 -17q-12 -8 -22 -13q-20 -8 -32 -12l-2 7q20 11 24 14q9 8 15 15t9 17q1 3 6 22q0 4 0.5 13t0.5 14v34v126l5 2l49 -19v-4q-2 -2 -6 -5.5
t-6 -4.5q-5 -7 -6 -9l-3 -9v-12v-42q9 -9 22 -15q14 -7 26 -7h18z" />
    <glyph glyph-name="zainfinalarabic" unicode="&#x632;" horiz-adv-x="169" arabic-form="final" 
d="M174 22v-22h-18q-5 0 -15 2q-7 4 -13 8q-4 3 -10 11q-1 1 -10 13v-27q0 -23 -1 -33q-2 -17 -5 -26q-2 -10 -10 -21q-5 -8 -16 -17q-12 -8 -22 -13q-20 -8 -32 -12l-2 7q20 11 24 14q9 8 15 15t9 17q1 3 6 22q0 4 0.5 13t0.5 14v34v126l5 2l49 -19v-4q-2 -2 -6 -5.5
t-6 -4.5q-5 -7 -6 -9l-3 -9v-12v-42q9 -9 22 -15q14 -7 26 -7h18zM104 195q-8 0 -16 6q-6 6 -6 15q0 6 2 9q0 3 4 7t7 5t9 1q5 0 8 -1t7 -5t5 -7q2 -6 2 -9q0 -9 -6 -15q-8 -6 -16 -6z" />
    <glyph glyph-name="seenfinalarabic" unicode="&#x633;" horiz-adv-x="546" arabic-form="final" 
d="M548 22v-22h-20q-5 0 -15 2q-4 2 -12 8q-6 5 -11 11q-6 8 -9 13v-34h-51q-5 0 -15 2q-4 2 -12 8q-6 5 -11 11q-1 1 -4.5 6t-5.5 8v-35h-51q-4 0 -14 2q-5 2 -13 8q-6 5 -11 11q-6 8 -9 13v-8q0 -26 -8 -41q-8 -16 -24 -29q-13 -10 -36 -17q-20 -6 -42 -6q-11 0 -20 1
q-12 0 -26 3q-11 2 -28 10q-16 8 -27 19q-12 13 -19 32q-7 18 -7 48q0 24 6 44q6 21 16 36q11 17 22 27q11 11 24 19l3 -7q-10 -11 -18 -27q-6 -11 -13 -37q-6 -23 -6 -55q0 -22 6 -39q7 -18 14 -25q7 -8 19 -16q20 -8 22 -8q12 -2 18 -2h14q14 0 26 4q14 3 25 11
q11 7 19 20q7 11 7 29v2v104v22l5 2l28 -11v-95q9 -9 22 -15q14 -7 25 -7h18v125l5 2l28 -11v-94q9 -9 22 -15q14 -7 26 -7h18v125l4 2l50 -19v-4q-10 -8 -12 -10q-6 -6 -7 -9q-2 -6 -2 -9v-11v-43q9 -11 21 -16q12 -6 26 -6h20z" />
    <glyph glyph-name="seeninitialarabic" unicode="&#x633;" horiz-adv-x="299" arabic-form="initial" 
d="M290 130v-4q-2 -2 -6 -5.5t-6 -4.5q-5 -7 -6 -9q-2 -6 -2 -9v-11v-87h-52q-4 0 -14 2q-5 2 -13 8l-11 11q-3 4 -9 14v-35h-51q-6 0 -14 2q-5 2 -13 8q-6 5 -11 11q-3 4 -9 14v-35h-78v22h45v126l4 2l29 -11v-95q9 -9 21 -15q16 -7 26 -7h18v125l5 2l28 -11v-94
q9 -9 21 -15q16 -7 26 -7h18v125l5 2z" />
    <glyph glyph-name="seenmedialarabic" unicode="&#x633;" horiz-adv-x="335" arabic-form="medial" 
d="M338 22v-22h-21q-5 0 -15 2q-4 2 -12 8q-6 5 -11 11q-7 10 -9 13v-34h-52q-4 0 -14 2q-5 2 -13 8l-11 11q-2 2 -5 6.5t-4 6.5v-34h-51q-6 0 -14 2q-5 2 -13 8q-6 5 -11 11q-2 2 -5 6.5t-4 6.5v-34h-78v22h45v126l4 2l29 -11v-95q11 -11 21 -16q14 -6 26 -6h18v125l5 2
l28 -11v-94q11 -11 21 -16q14 -6 26 -6h18v125l5 2l49 -19v-4q-2 -2 -6 -5.5t-6 -4.5q-5 -7 -6 -9q-2 -6 -2 -9v-12v-42q9 -11 21 -16q12 -6 26 -6h21z" />
    <glyph glyph-name="sheenfinalarabic" unicode="&#x634;" horiz-adv-x="546" arabic-form="final" 
d="M373 262q0 9 7 15q7 7 15 7t15 -7q7 -6 7 -15q0 -10 -7 -16q-6 -6 -15 -6t-15 6q-7 6 -7 16zM333 240q-9 0 -15 6t-6 16q0 9 6 15q7 7 15 7t15 -7q7 -6 7 -15q0 -10 -7 -16q-6 -6 -15 -6zM364 302q-8 0 -16 6q-6 6 -6 16q0 9 6 15q8 6 16 6t16 -6q6 -6 6 -15
q0 -10 -6 -16q-8 -6 -16 -6zM548 22v-22h-20q-5 0 -15 2q-4 2 -12 8q-6 5 -11 11q-6 8 -9 13v-34h-51q-5 0 -15 2q-4 2 -12 8q-6 5 -11 11q-1 1 -4.5 6t-5.5 8v-35h-51q-4 0 -14 2q-5 2 -13 8q-6 5 -11 11q-6 8 -9 13v-8q0 -26 -8 -41q-8 -16 -24 -29q-13 -10 -36 -17
q-20 -6 -42 -6q-11 0 -20 1q-12 0 -26 3q-11 2 -28 10q-16 8 -27 19q-12 13 -19 32q-7 18 -7 48q0 24 6 44q6 21 16 36q11 17 22 27q11 11 24 19l3 -7q-10 -11 -18 -27q-6 -11 -13 -37q-6 -23 -6 -55q0 -22 6 -39q7 -18 14 -25q7 -8 19 -16q20 -8 22 -8q12 -2 18 -2h14
q14 0 26 4q14 3 25 11q11 7 19 20q7 11 7 29v2v104v22l5 2l28 -11v-95q9 -9 22 -15q14 -7 25 -7h18v125l5 2l28 -11v-94q9 -9 22 -15q14 -7 26 -7h18v125l4 2l50 -19v-4q-10 -8 -12 -10q-6 -6 -7 -9q-2 -6 -2 -9v-11v-43q9 -11 21 -16q12 -6 26 -6h20z" />
    <glyph glyph-name="sheeninitialarabic" unicode="&#x634;" horiz-adv-x="304" arabic-form="initial" 
d="M162 262q0 9 6 15q7 7 15 7q9 0 16 -7q6 -6 6 -15q0 -10 -6 -16t-16 -6q-9 0 -15 6t-6 16zM122 240q-10 0 -16 6t-6 16q0 9 6 15q7 7 16 7q8 0 15 -7t7 -15q0 -9 -7 -16q-6 -6 -15 -6zM152 302q-9 0 -15 6q-7 7 -7 16q0 8 7 15q6 6 15 6q10 0 16 -6t6 -15q0 -10 -6 -16
t-16 -6zM290 130v-4q-2 -2 -6 -5.5t-6 -4.5q-5 -7 -6 -9q-2 -6 -2 -9v-11v-87h-52q-4 0 -14 2q-5 2 -13 8l-11 11q-3 4 -9 14v-35h-51q-6 0 -14 2q-5 2 -13 8q-6 5 -11 11q-3 4 -9 14v-35h-78v22h45v126l4 2l29 -11v-95q9 -9 21 -15q16 -7 26 -7h18v125l5 2l28 -11v-94
q9 -9 21 -15q16 -7 26 -7h18v125l5 2z" />
    <glyph glyph-name="sheenmedialarabic" unicode="&#x634;" horiz-adv-x="334" arabic-form="medial" 
d="M152 301q-9 0 -15 7q-7 7 -7 15t7 15q6 7 15 7q10 0 16 -7q6 -6 6 -15t-6 -15q-6 -7 -16 -7zM122 240q-10 0 -16 6t-6 16q0 9 6 15t16 6q9 0 15 -6q7 -7 7 -15q0 -9 -7 -16q-6 -6 -15 -6zM162 262q0 9 6 15t16 6q9 0 15 -6q7 -7 7 -15q0 -9 -7 -16q-6 -6 -15 -6
q-10 0 -16 6t-6 16zM337 22v-22h-21q-4 0 -14 2q-5 2 -13 8l-11 11q-1 2 -4 6t-4 7v-34h-52q-4 0 -14 2q-5 2 -13 8l-11 11q-2 2 -5 6.5t-4 6.5v-34h-51q-6 0 -14 2q-5 2 -13 8q-6 5 -11 11q-2 2 -5 6.5t-4 6.5v-34h-78v22h45v126l4 2l29 -11v-95q11 -11 21 -16q14 -6 26 -6
h18v125l5 2l28 -11v-94q11 -11 21 -16q14 -6 26 -6h18v125l5 2l49 -19v-4q-2 -2 -6 -5.5t-6 -4.5q-5 -7 -6 -9q-2 -6 -2 -9v-12v-42q9 -10 20 -16q14 -6 26 -6h21z" />
    <glyph glyph-name="sadfinalarabic" unicode="&#x635;" horiz-adv-x="541" arabic-form="final" 
d="M444 90q0 8 -2 28q0 13 -5 26t-15 20q-10 8 -26 8q-12 0 -24 -4q-13 -4 -29 -14q-17 -10 -31 -24q-12 -11 -28 -34v-74h160v68zM400 194q22 0 38 -8q15 -8 23 -22q9 -13 12 -34q4 -17 4 -44v-42q9 -11 21 -16q12 -6 25 -6h21v-22h-21q-4 0 -14 2q-5 2 -13 8q-6 5 -11 11
q-4 6 -8 13v-34h-196q-1 -5 -5 -15q-8 -16 -24 -29q-13 -10 -36 -17q-20 -6 -42 -6q-11 0 -20 1q-12 0 -26 3q-11 2 -28 10q-16 8 -27 19q-12 13 -19 32q-7 18 -7 48q0 24 6 44q6 21 16 36q11 17 22 27q11 11 24 19l3 -7q-10 -11 -18 -27q-6 -11 -13 -37q-6 -23 -6 -55
q0 -22 6 -39q7 -18 14 -25q7 -8 19 -16q20 -8 22 -8q12 -2 18 -2h14q14 0 26 4q14 3 25 11q11 7 19 20q7 11 7 29v2v126l4 2l45 -17q20 22 23 25q5 5 25 20q12 7 26 12q13 4 26 4z" />
    <glyph glyph-name="sadinitialarabic" unicode="&#x635;" horiz-adv-x="298" arabic-form="initial" 
d="M194 194q22 0 36 -8q15 -8 24 -22q9 -13 12 -34q4 -17 4 -44v-86h-280v22h54v126l4 2l46 -17q9 14 22 25q5 5 25 20q15 8 27 12q11 4 26 4zM236 90v28q-2 14 -6 26q-5 12 -14 20q-11 8 -27 8q-12 0 -24 -4q-13 -4 -29 -14q-18 -10 -31 -24q-12 -11 -28 -34v-74h159v68z
" />
    <glyph glyph-name="sadmedialarabic" unicode="&#x635;" horiz-adv-x="333" arabic-form="medial" 
d="M340 22v-22h-21q-5 0 -15 2q-4 2 -12 8q-6 5 -11 11q-7 10 -9 14v-35h-280v22h54v126l4 2l46 -17q9 14 22 25q10 10 25 20q15 8 27 12q11 4 26 4q20 0 36 -8q15 -8 24 -22q7 -13 12 -34q4 -26 4 -44v-41q7 -10 21 -16q14 -7 26 -7h21zM238 90v18q0 13 -2 19q0 7 -4 17
q-3 7 -8 14q-7 7 -14 10q-7 4 -19 4t-24 -4q-13 -4 -29 -14q-18 -10 -31 -24q-12 -11 -28 -34v-74h159v68z" />
    <glyph glyph-name="dadfinalarabic" unicode="&#x636;" horiz-adv-x="541" arabic-form="final" 
d="M316 228q-7 0 -16 7q-6 6 -6 15q0 10 6 16q8 6 16 6q6 0 8 -1q4 -1 8 -5q2 -2 4 -7q2 -6 2 -9q0 -2 -2 -8q-2 -4 -4 -7q-4 -3 -8 -5t-8 -2zM444 90q0 8 -2 28q0 13 -5 26t-15 20q-10 8 -26 8q-12 0 -24 -4q-13 -4 -29 -14q-17 -10 -31 -24q-12 -11 -28 -34v-74h160v68z
M400 194q22 0 38 -8q15 -8 23 -22q9 -13 12 -34q4 -17 4 -44v-42q9 -11 21 -16q12 -6 25 -6h21v-22h-21q-4 0 -14 2q-5 2 -13 8q-6 5 -11 11q-4 6 -8 13v-34h-196q-1 -5 -5 -15q-8 -16 -24 -29q-13 -10 -36 -17q-20 -6 -42 -6q-11 0 -20 1q-12 0 -26 3q-11 2 -28 10
q-16 8 -27 19q-12 13 -19 32q-7 18 -7 48q0 24 6 44q6 21 16 36q11 17 22 27q11 11 24 19l3 -7q-10 -11 -18 -27q-6 -11 -13 -37q-6 -23 -6 -55q0 -22 6 -39q7 -18 14 -25q7 -8 19 -16q20 -8 22 -8q12 -2 18 -2h14q14 0 26 4q14 3 25 11q11 7 19 20q7 11 7 29v2v126l4 2
l45 -17q20 22 23 25q5 5 25 20q12 7 26 12q13 4 26 4z" />
    <glyph glyph-name="dadinitialarabic" unicode="&#x636;" horiz-adv-x="308" arabic-form="initial" 
d="M194 194q22 0 36 -8q15 -8 24 -22q9 -13 12 -34q4 -17 4 -44v-86h-280v22h54v126l4 2l46 -17q9 14 22 25q5 5 25 20q15 8 27 12q11 4 26 4zM236 90v28q-2 14 -6 26q-5 12 -14 20q-11 8 -27 8q-12 0 -24 -4q-13 -4 -29 -14q-18 -10 -31 -24q-12 -11 -28 -34v-74h159v68z
M109 228q-8 0 -15 7q-7 6 -7 15q0 10 7 16q6 6 15 6q6 0 9 -1q2 -1 6 -5t5 -7q2 -6 2 -9q0 -2 -2 -8q-1 -3 -5 -7t-6 -5q-6 -2 -9 -2z" />
    <glyph glyph-name="dadmedialarabic" unicode="&#x636;" horiz-adv-x="334" arabic-form="medial" 
d="M340 22v-22h-21q-5 0 -15 2q-4 2 -12 8q-6 5 -11 11q-7 10 -9 14v-35h-280v22h54v126l4 2l46 -17q9 14 22 25q10 10 25 20q15 8 27 12q11 4 26 4q20 0 36 -8q15 -8 24 -22q7 -13 12 -34q4 -26 4 -44v-41q7 -10 21 -16q14 -7 26 -7h21zM238 90v18q0 13 -2 19q0 7 -4 17
q-3 7 -8 14q-7 7 -14 10q-7 4 -19 4t-24 -4q-13 -4 -29 -14q-18 -10 -31 -24q-12 -11 -28 -34v-74h159v68zM111 228q-3 0 -9 2q-2 1 -6 5t-5 7q-2 6 -2 8q0 3 2 9q1 3 5 7t6 5q3 1 9 1q9 0 15 -6q7 -6 7 -16q0 -9 -7 -15q-7 -7 -15 -7z" />
    <glyph glyph-name="tahfinalarabic" unicode="&#x637;" horiz-adv-x="377" arabic-form="final" 
d="M282 90q0 18 -1 28q-2 14 -6 26q-5 12 -14 20q-10 8 -27 8q-12 0 -24 -4q-13 -4 -29 -14q-14 -8 -31 -24q-12 -11 -28 -34v-74h160v68zM89 0q-6 0 -18 2q-9 2 -18 6q-10 4 -15 7q-8 6 -11 9l2 6q2 -1 8 -3q3 -1 11 -3q2 0 5 -0.5t5 -0.5h9l22 -1v285l5 1l49 -18v-4
q-12 -9 -13 -10q-1 -2 -3 -4.5t-3 -4.5q-2 -6 -2 -9v-12v-132q7 15 40 44q10 10 25 20q11 7 26 12q12 4 26 4q21 0 37 -8q15 -8 23 -22q8 -12 13 -34q3 -20 3 -44v-44q7 -7 19 -14q14 -6 26 -6h21v-22h-21q-4 0 -14 2q-5 2 -13 8q-6 5 -11 11q-4 5 -7 10v-31h-226z" />
    <glyph glyph-name="tahinitialarabic" unicode="&#x637;" horiz-adv-x="308" arabic-form="initial" 
d="M236 90v28q-2 14 -6 26q-5 12 -14 20q-11 8 -27 8q-12 0 -24 -4q-13 -4 -29 -14q-18 -10 -31 -24q-12 -11 -28 -34v-74h159v68zM194 194q22 0 36 -8q15 -8 24 -22q9 -13 12 -34q4 -17 4 -44v-86h-280v22h54v285l4 1l50 -18v-4q-10 -8 -12 -10q-6 -6 -7 -9q-2 -6 -2 -9
v-12v-132q8 16 39 44q5 5 25 20q15 8 27 12q11 4 26 4z" />
    <glyph glyph-name="tahmedialarabic" unicode="&#x637;" horiz-adv-x="333" arabic-form="medial" 
d="M236 90v28q-2 14 -6 26q-5 12 -14 20q-11 8 -27 8q-12 0 -24 -4q-13 -4 -29 -14q-18 -10 -31 -24q-12 -11 -28 -34v-74h159v68zM194 194q22 0 36 -8q15 -8 24 -22q9 -13 12 -34q4 -17 4 -44v-43q7 -9 20 -15q12 -6 26 -6h20v-22h-20q-6 0 -14 2q-5 2 -13 8q-6 5 -11 11
q-5 5 -8 11v-32h-280v22h54v285l4 1l50 -18v-4q-10 -8 -12 -10q-6 -6 -7 -9q-2 -6 -2 -9v-12v-132q8 16 39 44q5 5 25 20q15 8 27 12q11 4 26 4z" />
    <glyph glyph-name="zahfinalarabic" unicode="&#x638;" horiz-adv-x="377" arabic-form="final" 
d="M282 90q0 18 -1 28q-2 14 -6 26q-5 12 -14 20q-10 8 -27 8q-12 0 -24 -4q-13 -4 -29 -14q-14 -8 -31 -24q-12 -11 -28 -34v-74h160v68zM201 228q-8 0 -15 7q-7 6 -7 15q0 10 7 16q6 6 15 6q5 0 8 -1t7 -5t5 -7q2 -6 2 -9q0 -2 -2 -8q-1 -3 -5 -7t-7 -5q-6 -2 -8 -2zM89 0
q-6 0 -18 2q-9 2 -18 6q-10 4 -15 7q-8 6 -11 9l2 6q2 -1 8 -3q3 -1 11 -3q2 0 5 -0.5t5 -0.5h9l22 -1v285l5 1l49 -18v-4q-12 -9 -13 -10q-1 -2 -3 -4.5t-3 -4.5q-2 -6 -2 -9v-12v-132q7 15 40 44q10 10 25 20q11 7 26 12q12 4 26 4q21 0 37 -8q15 -8 23 -22q8 -12 13 -34
q3 -20 3 -44v-44q7 -7 19 -14q14 -6 26 -6h21v-22h-21q-4 0 -14 2q-5 2 -13 8q-6 5 -11 11q-4 5 -7 10v-31h-226z" />
    <glyph glyph-name="zahinitialarabic" unicode="&#x638;" horiz-adv-x="308" arabic-form="initial" 
d="M156 228q-9 0 -16 7q-6 6 -6 15q0 10 6 16t16 6q5 0 8 -1t7 -5t5 -7q2 -6 2 -9q0 -2 -2 -8q-1 -3 -5 -7t-7 -5q-6 -2 -8 -2zM236 90v28q-2 14 -6 26q-5 12 -14 20q-11 8 -27 8q-12 0 -24 -4q-13 -4 -29 -14q-18 -10 -31 -24q-12 -11 -28 -34v-74h159v68zM194 194
q22 0 36 -8q15 -8 24 -22q9 -13 12 -34q4 -17 4 -44v-86h-280v22h54v285l4 1l50 -18v-4q-10 -8 -12 -10q-6 -6 -7 -9q-2 -6 -2 -9v-12v-132q8 16 39 44q5 5 25 20q15 8 27 12q11 4 26 4z" />
    <glyph glyph-name="zahmedialarabic" unicode="&#x638;" horiz-adv-x="333" arabic-form="medial" 
d="M236 90v28q-2 14 -6 26q-5 12 -14 20q-11 8 -27 8q-12 0 -24 -4q-13 -4 -29 -14q-18 -10 -31 -24q-12 -11 -28 -34v-74h159v68zM156 228q-9 0 -16 7q-6 6 -6 15q0 10 6 16t16 6q5 0 8 -1t7 -5t5 -7q2 -6 2 -9q0 -2 -2 -8q-1 -3 -5 -7t-7 -5q-6 -2 -8 -2zM194 194
q22 0 36 -8q15 -8 24 -22q9 -13 12 -34q4 -17 4 -44v-43q7 -9 20 -15q12 -6 26 -6h20v-22h-20q-6 0 -14 2q-5 2 -13 8q-6 5 -11 11q-5 5 -8 11v-32h-280v22h54v285l4 1l50 -18v-4q-10 -8 -12 -10q-6 -6 -7 -9q-2 -6 -2 -9v-12v-132q8 16 39 44q5 5 25 20q15 8 27 12
q11 4 26 4z" />
    <glyph glyph-name="ainfinalarabic" unicode="&#x639;" horiz-adv-x="249" arabic-form="final" 
d="M98 31q8 1 12 3q6 2 8 3l6 3q4 2 7 4q5 2 7 4l-111 82l-1 16q10 12 22 22q8 6 26 16q17 8 29 10q15 4 32 4q16 0 34 -5q14 -5 29 -15q11 -10 19 -24q7 -13 7 -32q0 -13 -4 -24q-3 -10 -9 -21q-5 -9 -15 -19q-8 -8 -19 -16l27 -20h48v-22h-48l-43 32q-10 -7 -30 -14
q-2 -1 -14 -5q-7 -1 -11 -3q-12 -3 -24 -13q-2 -2 -4 -3l-1 -1q-1 -1 -1 -2q-2 -1 -2 -3q-2 0 -3 -3t-3 -3q-8 -17 -10 -24q-2 -18 -2 -26q0 -10 2 -16q0 -6 4 -18q2 -3 5 -8.5t4 -8.5q8 -10 13 -15q5 -4 19 -10q9 -4 24 -4q10 0 16 1q5 1 17 3l15 6q8 3 13 7l5 -7
q-5 -4 -17 -12q-14 -8 -21 -10q-11 -6 -23 -7q-8 -2 -23 -2q-8 0 -27 7q-20 11 -30 21q-14 14 -21 31t-7 37q0 22 4 37q3 11 11 25q7 12 22 24q3 3 5 3l4 4q3 0 5 2q2 1 5 2q2 2 3 2l4 2h3l1 1q1 0 2 1zM155 58q18 15 27 30t9 34q0 15 -8 26q-8 13 -21 20q-15 9 -30 11
q-15 3 -32 0t-30 -13q-15 -11 -24 -28z" />
    <glyph glyph-name="aininitialarabic" unicode="&#x639;" arabic-form="initial" 
d="M81 22h129v-22h-216v22h54v106q0 10 4 24q6 12 14 20q8 9 20 14q9 4 27 8q16 0 29 -4q15 -5 27 -13q13 -7 23 -19q8 -8 18 -24l-7 -2q-18 20 -32 28q-16 10 -29 12q-15 3 -25 0q-12 -5 -19 -12q-9 -9 -12 -19q-5 -9 -5 -23v-96z" />
    <glyph glyph-name="ainmedialarabic" unicode="&#x639;" horiz-adv-x="249" arabic-form="medial" 
d="M252 22v-22h-48l-43 32q-9 -6 -29 -14q-14 -5 -32 -10q-15 -4 -30 -6q-20 -2 -28 -2h-47v22h35q26 0 59 7q29 8 49 19l-111 82l-1 16q10 12 22 22q8 6 26 16q17 8 29 10q15 4 32 4q16 0 34 -5q14 -5 29 -15q11 -10 19 -24q7 -13 7 -32q0 -13 -4 -24q-3 -10 -9 -21
q-5 -9 -15 -19q-8 -8 -19 -16l27 -20h48zM155 58q18 15 27 30t9 34q0 15 -8 26q-8 13 -21 20q-15 9 -30 11q-15 3 -32 0t-30 -13q-15 -11 -24 -28z" />
    <glyph glyph-name="ghainfinalarabic" unicode="&#x63a;" horiz-adv-x="249" arabic-form="final" 
d="M126 252q-8 0 -16 6q-6 8 -6 16q0 6 2 8q0 4 4 8q2 2 7 4q6 2 9 2q9 0 15 -6q7 -9 7 -16t-7 -16q-6 -6 -15 -6zM98 31q8 1 12 3q6 2 8 3l6 3q4 2 7 4q5 2 7 4l-111 82l-1 16q10 12 22 22q8 6 26 16q17 8 29 10q15 4 32 4q16 0 34 -5q14 -5 29 -15q11 -10 19 -24
q7 -13 7 -32q0 -13 -4 -24q-3 -10 -9 -21q-5 -9 -15 -19q-8 -8 -19 -16l27 -20h48v-22h-48l-43 32q-10 -7 -30 -14q-2 -1 -14 -5q-7 -1 -11 -3q-12 -3 -24 -13q-2 -2 -4 -3l-1 -1q-1 -1 -1 -2q-2 -1 -2 -3q-2 0 -3 -3t-3 -3q-8 -17 -10 -24q-2 -18 -2 -26q0 -10 2 -16
q0 -6 4 -18q2 -3 5 -8.5t4 -8.5q8 -10 13 -15q5 -4 19 -10q9 -4 24 -4q10 0 16 1q5 1 17 3l15 6q8 3 13 7l5 -7q-5 -4 -17 -12q-14 -8 -21 -10q-11 -6 -23 -7q-8 -2 -23 -2q-8 0 -27 7q-20 11 -30 21q-14 14 -21 31t-7 37q0 22 4 37q3 11 11 25q7 12 22 24q3 3 5 3l4 4
q3 0 5 2q2 1 5 2q2 2 3 2l4 2h3l1 1q1 0 2 1zM155 58q18 15 27 30t9 34q0 15 -8 26q-8 13 -21 20q-15 9 -30 11q-15 3 -32 0t-30 -13q-15 -11 -24 -28z" />
    <glyph glyph-name="ghaininitialarabic" unicode="&#x63a;" arabic-form="initial" 
d="M126 252q-8 0 -16 6q-6 8 -6 16q0 6 2 8q0 4 4 8q2 2 7 4q6 2 9 2q9 0 15 -6q7 -9 7 -16t-7 -16q-6 -6 -15 -6zM81 22h129v-22h-216v22h54v106q0 10 4 24q6 12 14 20q8 9 20 14q9 4 27 8q16 0 29 -4q15 -5 27 -13q13 -7 23 -19q8 -8 18 -24l-7 -2q-18 20 -32 28
q-16 10 -29 12q-15 3 -25 0q-12 -5 -19 -12q-9 -9 -12 -19q-5 -9 -5 -23v-96z" />
    <glyph glyph-name="ghainmedialarabic" unicode="&#x63a;" horiz-adv-x="249" arabic-form="medial" 
d="M126 252q-8 0 -16 6q-6 8 -6 16q0 6 2 8q0 4 4 8q2 2 7 4q6 2 9 2q9 0 15 -6q7 -9 7 -16t-7 -16q-6 -6 -15 -6zM252 22v-22h-48l-43 32q-9 -6 -29 -14q-14 -5 -32 -10q-15 -4 -30 -6q-20 -2 -28 -2h-47v22h35q26 0 59 7q29 8 49 19l-111 82l-1 16q10 12 22 22q8 6 26 16
q17 8 29 10q15 4 32 4q16 0 34 -5q14 -5 29 -15q11 -10 19 -24q7 -13 7 -32q0 -13 -4 -24q-3 -10 -9 -21q-5 -9 -15 -19q-8 -8 -19 -16l27 -20h48zM155 58q18 15 27 30t9 34q0 15 -8 26q-8 13 -21 20q-15 9 -30 11q-15 3 -32 0t-30 -13q-15 -11 -24 -28z" />
    <glyph glyph-name="fehfinalarabic" unicode="&#x641;" horiz-adv-x="420" arabic-form="final" 
d="M290 252q-9 0 -15 6q-7 9 -7 16t7 16q6 6 15 6q10 0 16 -6q6 -8 6 -16t-6 -16q-6 -6 -16 -6zM424 22v-22h-48q-4 -16 -15 -30q-11 -13 -24 -20q-14 -9 -32 -13q-16 -4 -37 -4h-102q-11 0 -19 1q-12 0 -27 3q-11 2 -28 10t-26 19q-11 12 -20 32q-7 23 -7 47q0 25 6 45
q5 15 16 36q11 17 22 27q11 11 24 19l3 -7q-10 -11 -18 -27q-6 -11 -13 -37q-6 -23 -6 -56q0 -23 6 -38q7 -18 14 -25q7 -8 19 -16q20 -8 22 -8q12 -2 18 -2h14h102q15 0 22 2q14 4 22 8q10 4 18 14q9 7 12 20h-51q-24 0 -39 7q-19 8 -30 19q-11 14 -18 32q-6 18 -6 40
q0 23 6 41q8 20 19 32q9 10 29 21q21 7 40 7q23 0 38 -7q18 -8 27 -20q11 -12 17 -31q5 -20 5 -41v-74v-4h45zM346 96q0 8 -2 32q-1 13 -8 30q-6 13 -17 22t-28 9q-18 0 -29 -8t-17 -21q-6 -11 -9 -28q-2 -22 -2 -30q0 -15 3 -30q4 -16 10 -25q6 -11 18 -18q11 -7 29 -7h52
v74z" />
    <glyph glyph-name="fehinitialarabic" unicode="&#x641;" horiz-adv-x="245" arabic-form="initial" 
d="M134 199q24 0 39 -7q18 -8 27 -20q12 -13 16 -31q6 -18 6 -41v-100h-229v22h77q-28 27 -28 76q0 23 6 41q6 19 18 32q10 11 30 21q19 7 38 7zM189 96q0 14 -1 20q0 4 -1 11t-2 11q-2 10 -6 20q-5 9 -10 16q-5 6 -15 11q-8 4 -20 4q-18 0 -29 -8t-17 -21t-8 -28
q-3 -16 -3 -30q0 -15 3 -30q4 -16 10 -25q8 -11 18 -18q11 -7 29 -7h52v74zM133 252q-9 0 -15 6q-6 8 -6 16t6 16q6 6 15 6q10 0 16 -6q6 -8 6 -16t-6 -16q-6 -6 -16 -6z" />
    <glyph glyph-name="fehmedialarabic" unicode="&#x641;" horiz-adv-x="242" arabic-form="medial" 
d="M244 22v-22h-12q-18 0 -28 1q-10 0 -28 2q-10 1 -30 5q-14 2 -27 6q-30 -8 -57 -11q-28 -3 -56 -3h-12v22h11q15 0 41 2q14 1 35 5q-11 6 -23 14q-7 5 -17 17q-6 8 -11 22q-4 11 -4 26q0 18 6 36q9 18 19 28q10 11 29 20q15 7 39 7q22 0 39 -7q19 -9 29 -20
q10 -10 19 -28q6 -18 6 -36q0 -15 -4 -26q-5 -14 -12 -22q-6 -9 -17 -17q-14 -10 -23 -15q33 -6 77 -6h11zM118 39q30 12 44 32t14 49q0 6 -1 10q-2 10 -3 14q-3 10 -7 16q-6 10 -11 14q-5 6 -15 11q-8 4 -20 4q-13 0 -21 -4q-10 -6 -14 -11q-5 -4 -11 -14q-4 -6 -7 -16
q-2 -4 -4 -14v-10q0 -30 13 -49q14 -20 43 -32zM119 252q-9 0 -15 6q-7 7 -7 16q0 4 2 8q1 4 5 8q2 2 7 4q6 2 8 2q9 0 15 -6q7 -7 7 -16t-7 -16q-6 -6 -15 -6z" />
    <glyph glyph-name="qaffinalarabic" unicode="&#x642;" horiz-adv-x="420" arabic-form="final" 
d="M322 252q-2 0 -8 2q-4 2 -7 4q-3 4 -5 8t-2 8t2 8t5 8q3 2 7 4q6 2 8 2q3 0 9 -2q5 -2 7 -4q4 -4 5 -8q1 -2 1 -8t-1 -8q-1 -4 -5 -8q-2 -2 -7 -4q-6 -2 -9 -2zM261 252q-9 0 -15 6q-7 7 -7 16q0 2 0.5 4.5t0.5 3.5q1 1 2.5 4t2.5 4q3 2 7 4q6 2 9 2q2 0 8 -2q5 -2 7 -4
q4 -4 5 -8q2 -4 2 -8t-2 -8q-1 -4 -5 -8q-2 -2 -7 -4q-6 -2 -8 -2zM424 22v-22h-48q-4 -16 -15 -30q-11 -13 -24 -20q-14 -9 -32 -13q-16 -4 -37 -4h-102q-11 0 -19 1q-12 0 -27 3q-11 2 -28 10t-26 19q-11 12 -20 32q-7 23 -7 47q0 25 6 45q5 15 16 36q11 17 22 27
q11 11 24 19l3 -7q-10 -11 -18 -27q-6 -11 -13 -37q-6 -23 -6 -56q0 -23 6 -38q7 -18 14 -25q7 -8 19 -16q20 -8 22 -8q12 -2 18 -2h14h102q15 0 22 2q14 4 22 8q10 4 18 14q9 7 12 20h-51q-24 0 -39 7q-19 8 -30 19q-11 14 -18 32q-6 18 -6 40q0 23 6 41q8 20 19 32
q9 10 29 21q21 7 40 7q23 0 38 -7q18 -8 27 -20q11 -12 17 -31q5 -20 5 -41v-74v-4h45zM346 96q0 8 -2 32q-1 13 -8 30q-6 13 -17 22t-28 9q-18 0 -29 -8t-17 -21q-6 -11 -9 -28q-2 -22 -2 -30q0 -15 3 -30q4 -16 10 -25q6 -11 18 -18q11 -7 29 -7h52v74z" />
    <glyph glyph-name="qafinitialarabic" unicode="&#x642;" horiz-adv-x="254" arabic-form="initial" 
d="M134 199q24 0 39 -7q18 -8 27 -20q12 -13 16 -31q6 -18 6 -41v-100h-229v22h77q-28 27 -28 76q0 23 6 41q6 19 18 32q10 11 30 21q19 7 38 7zM189 96q0 14 -1 20q0 4 -1 11t-2 11q-2 10 -6 20q-5 9 -10 16q-5 6 -15 11q-8 4 -20 4q-18 0 -29 -8t-17 -21t-8 -28
q-3 -16 -3 -30q0 -15 3 -30q4 -16 10 -25q8 -11 18 -18q11 -7 29 -7h52v74zM166 252q-8 0 -16 6q-6 8 -6 16q0 6 2 8q0 4 4 8q2 2 7 4q6 2 9 2q2 0 8 -2q4 -2 7 -4q3 -4 5 -8t2 -8q0 -8 -6 -16q-8 -6 -16 -6zM104 252q-8 0 -16 6q-6 8 -6 16t6 16q8 6 16 6t16 -6q6 -8 6 -16
t-6 -16q-8 -6 -16 -6z" />
    <glyph glyph-name="qafmedialarabic" unicode="&#x642;" horiz-adv-x="240" arabic-form="medial" 
d="M244 22v-22h-12q-18 0 -28 1q-10 0 -28 2q-10 1 -30 5q-14 2 -27 6q-30 -8 -57 -11q-28 -3 -56 -3h-12v22h11q15 0 41 2q14 1 35 5q-11 6 -23 14q-7 5 -17 17q-6 8 -11 22q-4 11 -4 26q0 18 6 36q9 18 19 28q10 11 29 20q15 7 39 7q22 0 39 -7q19 -9 29 -20
q10 -10 19 -28q6 -18 6 -36q0 -15 -4 -26q-5 -14 -12 -22q-6 -9 -17 -17q-14 -10 -23 -15q33 -6 77 -6h11zM118 39q30 12 44 32t14 49q0 6 -1 10q-2 10 -3 14q-3 10 -7 16q-6 10 -11 14q-5 6 -15 11q-8 4 -20 4q-13 0 -21 -4q-10 -6 -14 -11q-5 -4 -11 -14q-4 -6 -7 -16
q-2 -4 -4 -14v-10q0 -30 13 -49q14 -20 43 -32zM150 252q-8 0 -16 6q-6 8 -6 16t6 16q8 6 16 6q4 0 8 -2q6 -2 8 -4t4 -8q2 -4 2 -8q0 -8 -6 -16q-8 -6 -16 -6zM88 252q-8 0 -16 6q-6 8 -6 16q0 4 2 8t5 8q3 2 7 4q6 2 8 2q8 0 16 -6q6 -8 6 -16t-6 -16q-8 -6 -16 -6z" />
    <glyph glyph-name="kaffinalarabic" unicode="&#x643;" horiz-adv-x="350" arabic-form="final" 
d="M354 22v-22h-20q-5 0 -15 2q-4 2 -12 8q-6 5 -11 11q-9 12 -10 13v-34h-159q-14 0 -21 1l-22 3q-9 3 -20 8q-4 2 -18 14q-7 11 -11 21q-5 13 -5 30q0 20 10 42t22 35l7 -5q-4 -4 -7 -13l-6 -15q-1 -5 -3 -17q-1 -5 -1 -15q0 -22 7 -35q7 -12 19 -20t26 -9q14 -3 28 -3
h121v285l5 2l50 -19v-4q-3 -2 -7.5 -5.5t-5.5 -4.5q-5 -7 -6 -9q-2 -6 -2 -9q0 -1 -0.5 -5t-0.5 -7v-202q11 -11 22 -16q12 -6 26 -6h20zM197 165h-79v15h23q-7 4 -13 12q-5 10 -5 19q0 7 3 13q3 7 9 11q8 6 13 8q8 3 17 3q9 1 22 -4q11 -5 17 -12l-8 -9q-8 5 -12 7
q-5 2 -16 2t-17 -5q-7 -6 -7 -15t5 -14q7 -5 14 -8q7 -4 18 -6q12 -2 17 -2h6z" />
    <glyph glyph-name="kafinitialarabic" unicode="&#x643;" horiz-adv-x="304" arabic-form="initial" 
d="M195 150q15 0 33 -4q16 -7 26 -15q11 -13 16 -26q5 -18 5 -38v-67h-285v22h252v40q0 19 -4 30q-3 12 -11 20t-19 12q-9 4 -26 4h-136v22l92 80l66 57l27 27q9 9 21 31h4q2 -13 -4 -26t-16 -26t-22 -25l-26 -24l-24 -20q-14 -12 -18 -16l-66 -58h115z" />
    <glyph glyph-name="kafmedialarabic" unicode="&#x643;" horiz-adv-x="330" arabic-form="medial" 
d="M336 22v-22h-20q-5 0 -15 2q-4 2 -12 8q-6 5 -11 11q-9 12 -10 13v-34h-272v22h240v40q0 14 -4 30q-5 15 -12 20q-5 7 -18 12q-11 4 -26 4h-137v22l92 80l66 57l27 27q13 13 21 31h5q0 -15 -5 -26q-6 -13 -16 -26q-11 -15 -23 -25l-24 -24l-24 -20q-13 -10 -18 -16
l-67 -58h115q14 0 34 -4q17 -7 25 -15q10 -10 16 -26q5 -14 5 -38v-23q11 -11 22 -16q12 -6 26 -6h20z" />
    <glyph glyph-name="lamfinalarabic" unicode="&#x644;" horiz-adv-x="343" arabic-form="final" 
d="M347 22v-22h-21q-6 0 -14 2q-5 2 -13 8q-6 5 -11 11q-9 12 -10 13v-8q0 -26 -8 -41q-8 -16 -24 -29q-13 -10 -35 -17q-21 -6 -43 -6q-11 0 -19 1q-12 0 -27 3q-11 2 -28 10t-26 19q-11 12 -20 32q-7 23 -7 48q0 24 6 44q5 15 16 36q11 17 22 27q11 11 24 19l3 -7
q-10 -11 -18 -27q-6 -11 -13 -37q-5 -19 -5 -55q0 -25 5 -39q7 -17 15 -25q6 -9 19 -16q14 -6 21 -8q14 -2 19 -2h13q15 0 26 4q12 2 26 11q10 7 18 20t8 29v287l4 2l50 -19v-4q-10 -8 -12 -10q-6 -6 -7 -9q-2 -6 -2 -9q0 -1 -0.5 -5t-0.5 -7v-202q11 -11 22 -16
q12 -6 26 -6h21z" />
    <glyph glyph-name="laminitialarabic" unicode="&#x644;" horiz-adv-x="111" arabic-form="initial" 
d="M102 290v-4q-3 -2 -7.5 -5.5t-5.5 -4.5q-5 -7 -6 -9q-2 -6 -2 -9q0 -1 -0.5 -5t-0.5 -7v-246h-84v22h51v285l5 2z" />
    <glyph glyph-name="lammedialarabic" unicode="&#x644;" horiz-adv-x="143" arabic-form="medial" 
d="M147 22v-22h-21q-6 0 -14 2q-5 2 -13 8q-6 5 -11 11q-2 2 -5 6.5t-4 6.5v-34h-85v22h52v285l4 2l50 -19v-4q-10 -8 -12 -10q-6 -6 -7 -9q-2 -6 -2 -9v-12v-202q11 -11 21 -16q14 -6 26 -6h21z" />
    <glyph glyph-name="meemfinalarabic" unicode="&#x645;" horiz-adv-x="347" arabic-form="final" 
d="M351 22v-22h-21q-6 0 -14 2q-5 2 -13 8q-6 5 -11 11q-2 2 -5 6.5t-4 6.5v1q-11 -18 -31 -27q-19 -8 -48 -8h-21l-19 1h-14q-5 0 -9 -1q-9 0 -14 -2q-4 0 -14 -4q-7 -1 -13 -6q-5 -5 -8 -11q-4 -6 -6 -12q0 -2 -1 -6.5t-2 -6.5q-1 -4 -1 -12q-2 -9 0 -22v-30q0 -15 2 -33
q4 -18 8 -29l-2 -3q-11 6 -18 16q-8 8 -14 21q-7 13 -8 30q-3 36 0 57q1 21 8 32q4 8 7 13q5 6 12 12q10 8 17 11q12 6 22 7v70q0 23 5 37q5 15 17 28q13 11 29 17q17 6 38 6q23 0 39 -6t28 -18t18 -29t6 -38q0 -29 -10 -48q8 -8 20 -13q12 -6 24 -6h21zM204 22q18 0 29 6
q10 6 17 16q5 8 8 23q2 16 2 25q0 6 -1 12q-1 4 -3 16q-2 9 -6 18q-3 8 -9 16t-15 12q-8 5 -20 5h-2q-10 0 -20 -5q-7 -4 -14 -13q-4 -5 -10 -17q-4 -11 -5 -19q-1 -3 -2 -8.5t-1 -8.5v-11v-66z" />
    <glyph glyph-name="meeminitialarabic" unicode="&#x645;" horiz-adv-x="239" arabic-form="initial" 
d="M75 0h-77v22h42v70q0 23 5 38q7 17 17 27q11 11 28 18q18 6 39 6q23 0 38 -7q17 -6 29 -18t18 -29t6 -37q0 -46 -24 -68q-22 -22 -68 -22q-5 0 -15 2q-5 2 -15 8q-4 3 -12 11q-5 5 -11 13v-34zM75 44q3 -3 11 -9q6 -4 14 -7q2 -1 14 -4q12 -2 14 -2q18 0 29 6q12 9 17 17
q4 6 8 22q2 18 2 25t-1 12q-2 10 -3 16q-2 9 -6 18q-3 9 -10 16q-6 9 -14 12q-8 5 -20 5h-2q-10 0 -20 -5q-5 -3 -14 -12q-6 -10 -10 -18q-4 -12 -5 -18q-2 -12 -3 -17t-1 -11v-46z" />
    <glyph glyph-name="meemmedialarabic" unicode="&#x645;" horiz-adv-x="282" arabic-form="medial" 
d="M285 22v-22h-21q-6 0 -14 3t-13 7l-11 11q-3 4 -9 14q-11 -18 -31 -27q-19 -8 -47 -8q-5 0 -15 2q-5 2 -15 8q-5 3 -13 11q-1 1 -10 13v-34h-92v22h56v70q0 20 6 38q7 17 17 27q12 12 28 18q17 6 39 6q23 0 38 -7q18 -7 28 -18q12 -12 18 -29t6 -37q0 -30 -9 -49
q9 -9 20 -13q12 -6 23 -6h21zM139 22q17 0 28 6q12 9 17 17q6 10 8 22q2 18 2 25v12q-2 10 -3 16l-6 18q-6 12 -10 16q-6 9 -15 12q-6 5 -20 5h-1q-11 0 -21 -5q-5 -3 -14 -12q-7 -10 -9 -18q-5 -9 -6 -18q-2 -12 -3 -17v-11v-46q6 -6 10 -9q7 -4 14 -7q5 -2 15 -4t14 -2z
" />
    <glyph glyph-name="noonfinalarabic" unicode="&#x646;" horiz-adv-x="347" arabic-form="final" 
d="M350 22v-22h-20q-5 0 -15 2q-4 2 -12 8q-6 5 -11 11q-9 12 -10 13v-8q0 -26 -8 -41q-8 -16 -24 -29q-13 -10 -35 -17q-21 -6 -43 -6q-11 0 -20 1q-12 0 -26 3q-11 2 -28 10q-16 8 -27 19q-12 13 -19 32q-7 18 -7 48q0 24 6 44q6 21 16 36q11 17 22 27q11 11 24 19l3 -7
q-10 -11 -18 -27q-6 -11 -13 -37q-6 -23 -6 -55q0 -22 6 -39q7 -18 14 -25q7 -8 19 -16q20 -8 22 -8q12 -2 18 -2h14q15 0 26 4q13 3 25 11q11 7 19 20q7 11 7 29l1 172l4 2l50 -19v-4q-10 -6 -13 -11q-4 -3 -6 -8q-2 -6 -2 -9q0 -1 -0.5 -5t-0.5 -6v-88q11 -11 22 -16
q12 -6 26 -6h20zM170 240q-8 0 -16 6q-6 6 -6 16q0 5 2 8q0 3 4 7t7 5q6 2 9 2q8 0 15 -7t7 -15q0 -9 -7 -16q-6 -6 -15 -6z" />
    <glyph glyph-name="nooninitialarabic" unicode="&#x646;" horiz-adv-x="148" arabic-form="initial" 
d="M140 175v-4q-10 -6 -13 -11q-4 -3 -6 -8q-2 -6 -2 -9q0 -1 -0.5 -5t-0.5 -6v-132h-121v22h88v170l5 2zM128 262q0 -6 -1 -9t-5 -7t-7 -5t-9 -1q-5 0 -8 1t-7 5t-5 7q-2 6 -2 9q0 2 2 8q1 3 5 7t7 5q6 2 8 2q3 0 9 -2q3 -1 7 -5t5 -7t1 -8z" />
    <glyph glyph-name="noonmedialarabic" unicode="&#x646;" horiz-adv-x="163" arabic-form="medial" 
d="M122 262q0 -3 -2 -9q-1 -3 -5 -7t-7 -5t-8 -1q-6 0 -9 1t-7 5t-4 7q-2 3 -2 9q0 5 2 8q0 3 4 7t7 5q6 2 9 2q2 0 8 -2q3 -1 7 -5t5 -7q2 -6 2 -8zM167 22v-22h-17q-4 0 -14 2q-5 2 -13 8l-11 11q-2 2 -5 6.5t-4 6.5v-34h-106v22h73v170l5 2l49 -19v-4q-9 -7 -12 -11
q-4 -3 -6 -8q-2 -6 -2 -9q-1 -3 -1 -11v-88q11 -11 21 -16q14 -6 26 -6h17z" />
    <glyph glyph-name="hehfinalarabic" unicode="&#x647;" horiz-adv-x="241" arabic-form="final" 
d="M246 22v-22h-123q-24 0 -39 7q-17 7 -29 19q-12 13 -19 32q-6 18 -6 40q0 23 6 41q8 20 19 32q9 10 29 21q21 7 40 7q23 0 38 -7q18 -8 27 -20q11 -12 17 -31q5 -20 5 -41v-78h35zM178 96q0 8 -2 32q-1 13 -8 30q-6 13 -17 22t-28 9q-18 0 -29 -8t-17 -21q-6 -11 -9 -28
q-2 -22 -2 -30q0 -15 3 -30q4 -16 10 -25q8 -11 19 -18q12 -7 28 -7h52v74z" />
    <glyph glyph-name="hehinitialarabic" unicode="&#x647;" horiz-adv-x="270" arabic-form="initial" 
d="M243 0h-250v22h62q-10 10 -15 20q-7 13 -8 30q-3 14 0 29t12 27q11 13 23 18q13 8 37 8q22 0 36 -6q15 -8 22 -18q9 -14 11 -26q3 -15 3 -31v-51h34v74q0 14 -1 20q-1 4 -2 11t-1 11q-2 10 -6 20q-5 9 -10 16q-5 6 -15 11q-8 4 -20 4h-51l1 10h51q23 0 38 -7
q18 -8 27 -20q11 -12 17 -31q5 -20 5 -41v-56v-44zM67 74q1 -13 7 -26q6 -10 16 -16q12 -6 22 -7q14 -3 31 -3v51v10q0 10 -1 15q-2 10 -4 16l-6 15q-6 7 -12 11q-7 4 -17 4q-11 0 -16 -4q-8 -6 -11 -10q-4 -6 -6 -14q-1 -6 -3 -16q-1 -5 -1 -15q1 -4 1 -11z" />
    <glyph glyph-name="hehmedialarabic" unicode="&#x647;" horiz-adv-x="306" arabic-form="medial" 
d="M311 22v-22h-21q-6 0 -14 2q-5 2 -13 8q-6 5 -11 11q-2 2 -5 6.5t-4 6.5v-34h-250v22h62q-10 10 -15 20q-7 13 -8 30q-3 14 0 29t12 27q11 13 23 18q13 8 37 8q22 0 36 -6q15 -8 22 -18q9 -14 11 -26q3 -15 3 -31v-51h34v74q0 14 -1 20q-1 4 -2 11t-1 11q-2 10 -6 20
q-5 9 -10 16q-5 6 -15 11q-8 4 -20 4h-51l1 10h51q23 0 38 -7q18 -8 27 -20q11 -12 17 -31q5 -20 5 -41v-56q11 -11 21 -16q14 -6 26 -6h21zM67 74q1 -13 7 -26q6 -10 16 -16q12 -6 22 -7q14 -3 31 -3v51v10q0 10 -1 15q-2 10 -4 16l-6 15q-6 7 -12 11q-7 4 -17 4
q-11 0 -16 -4q-8 -6 -11 -10q-4 -6 -6 -14q-1 -6 -3 -16q-1 -5 -1 -15q1 -4 1 -11z" />
    <glyph glyph-name="wawfinalarabic" unicode="&#x648;" horiz-adv-x="236" arabic-form="final" 
d="M243 22v-22h-38q0 -19 -4 -43q-5 -18 -13 -31q-12 -14 -27 -22q-17 -9 -42 -18l-3 7q20 9 30 19q12 10 16 22q7 13 8 28q2 22 2 38h-55q-24 0 -39 7q-19 8 -30 19q-11 14 -18 32q-6 18 -6 40t6 42q8 18 19 31q9 10 29 21q21 7 39 7q22 0 39 -7q19 -9 27 -20
q11 -12 17 -31q5 -20 5 -41v-78h38zM172 96q0 14 -1 20q-1 4 -2 11t-1 11q-2 6 -6 20q-5 9 -10 16q-5 6 -15 11q-8 4 -21 4q-17 0 -28 -8t-17 -21q-6 -11 -9 -28q-2 -20 -2 -30q0 -15 3 -30q4 -16 10 -25q6 -11 18 -18q14 -7 29 -7h52v74z" />
    <glyph glyph-name="alefmaksurafinalarabic" unicode="&#x649;" horiz-adv-x="494" arabic-form="final" 
d="M357 200h-15q-3 0 -9.5 -1t-9.5 -2q-12 -3 -19 -7q-9 -5 -17 -14q-7 -8 -12 -21q-5 -15 -5 -32q0 -13 5 -25q5 -11 14 -17t21 -9q14 -3 29 -3h39v-53q0 -20 -8 -38q-8 -16 -21 -26q-15 -10 -31 -14q-20 -5 -39 -5h-93q-18 0 -28 1q-10 0 -32 2q-17 3 -31 10q-15 6 -27 18
q-11 12 -18 31q-7 17 -7 47v123h33v-106q0 -29 6 -47q6 -20 16 -31q7 -10 22 -17q16 -6 26 -7q18 -2 26 -2q5 0 12.5 0.5t11.5 0.5h88q19 0 28 4q11 4 19 12q8 10 11 22t3 29v19q-29 0 -46 4q-21 5 -33 14q-13 9 -22 25q-7 17 -7 38q0 25 9 45q9 18 24 30q13 12 32 18
q16 6 34 6h52q23 0 38 -6q16 -8 24 -20q8 -10 13 -31q4 -17 4 -44v-99h33v-22h-66v114q0 18 -2 28q0 12 -6 28q-4 12 -14 22q-10 8 -24 8h-31z" />
    <glyph glyph-name="yehfinalarabic" unicode="&#x64a;" horiz-adv-x="495" arabic-form="final" 
d="M244 -133q0 10 6 16q8 6 16 6t16 -6q6 -6 6 -16q0 -9 -6 -15q-8 -6 -16 -6t-16 6q-6 6 -6 15zM182 -133q0 10 6 16q8 6 16 6t16 -6q6 -6 6 -16q0 -9 -6 -15q-8 -6 -16 -6t-16 6q-6 6 -6 15zM357 200h-15q-3 0 -9.5 -1t-9.5 -2q-12 -3 -19 -7q-9 -5 -17 -14q-7 -8 -12 -21
q-5 -15 -5 -32q0 -13 5 -25q5 -11 14 -17t21 -9q14 -3 29 -3h39v-53q0 -20 -8 -38q-8 -16 -21 -26q-15 -10 -31 -14q-20 -5 -39 -5h-93q-18 0 -28 1q-10 0 -32 2q-17 3 -31 10q-15 6 -27 18q-11 12 -18 31q-7 17 -7 47v123h33v-106q0 -29 6 -47q6 -20 16 -31q7 -10 22 -17
q16 -6 26 -7q18 -2 26 -2q5 0 12.5 0.5t11.5 0.5h88q19 0 28 4q11 4 19 12q8 10 11 22t3 29v19q-29 0 -46 4q-21 5 -33 14q-13 9 -22 25q-7 17 -7 38q0 25 9 45q9 18 24 30q13 12 32 18q16 6 34 6h52q23 0 38 -6q16 -8 24 -20q8 -10 13 -31q4 -17 4 -44v-99h33v-22h-66v114
q0 18 -2 28q0 12 -6 28q-4 12 -14 22q-10 8 -24 8h-31z" />
    <glyph glyph-name="yehinitialarabic" unicode="&#x64a;" horiz-adv-x="149" arabic-form="initial" 
d="M140 175v-4q-10 -6 -13 -11q-4 -3 -6 -8q-2 -6 -2 -9q0 -1 -0.5 -5t-0.5 -6v-132h-121v22h88v170l5 2zM96 -45q2 0 5 -0.5t4 -0.5q6 -4 7 -5q4 -4 5 -7t1 -9q0 -5 -1 -8t-5 -7t-7 -5q-6 -2 -9 -2q-2 0 -8 2q-3 1 -7 5t-5 7q-2 6 -2 8q0 3 2 9q1 3 5 7q1 1 7 5
q2 0 4.5 0.5t3.5 0.5zM35 -45q9 0 15 -7q6 -6 6 -15t-6 -15q-6 -7 -15 -7q-3 0 -9 2q-3 1 -7 5q-1 1 -5 7q0 1 -0.5 4t-0.5 4t0.5 4t0.5 5q4 6 5 7t7 5q2 0 5 0.5t4 0.5z" />
    <glyph glyph-name="yehmedialarabic" unicode="&#x64a;" horiz-adv-x="162" arabic-form="medial" 
d="M167 22v-22h-17q-4 0 -14 2q-5 2 -13 8l-11 11q-2 2 -5 6.5t-4 6.5v-34h-106v22h73v170l5 2l49 -19v-4q-9 -7 -12 -11q-4 -3 -6 -8q-2 -6 -2 -9q-1 -3 -1 -11v-88q11 -11 21 -16q14 -6 26 -6h17zM103 -45q1 0 4 -0.5t5 -0.5q1 -1 3 -2.5t3 -2.5q4 -4 5 -7q2 -6 2 -9
q0 -2 -2 -8q-1 -3 -5 -7t-6 -5q-6 -2 -9 -2t-9 2q-2 1 -6 5t-5 7q-2 6 -2 8q0 3 2 9q1 3 5 7q1 1 3 2.5t3 2.5q2 0 5 0.5t4 0.5zM41 -45q9 0 15 -7q7 -6 7 -15t-7 -15q-6 -7 -15 -7q-2 0 -8 2q-3 1 -7 5t-5 7q-2 6 -2 8q0 3 2 9q1 3 5 7q1 1 7 5q1 0 4 0.5t4 0.5z" />
    <glyph glyph-name=".notdef" horiz-adv-x="250" 
d="M32 0h187v375h-187v-375zM62 32v312h126v-312h-126z" />
    <glyph glyph-name=".null" horiz-adv-x="0" 
 />
    <glyph glyph-name="nonmarkingreturn" horiz-adv-x="166" 
 />
    <glyph glyph-name="space" unicode=" " horiz-adv-x="104" 
 />
    <glyph glyph-name="exclam" unicode="!" horiz-adv-x="113" 
d="M38 22q0 26 26 26q25 0 25 -26t-25 -26q-13 0 -20 7q-6 6 -6 19zM72 97q0 -11 -3 -15t-8 -4h-4l-21 198l51 8z" />
    <glyph glyph-name="quotedbl" unicode="&#x22;" horiz-adv-x="143" 
d="M80 286q2 1 5 3t5 3q3 2 12 2t12 -2q2 -1 5 -3t5 -3l-16 -89h-12zM20 286q1 1 3 2q4 3 6 4q3 2 12 2t12 -2q5 -2 9 -6l-14 -89h-14z" />
    <glyph glyph-name="numbersign" unicode="#" horiz-adv-x="244" 
d="M53 162h37l16 64h21l-16 -64h47l16 64h21l-16 -64h37l-6 -26h-37l-12 -48h37l-7 -25h-36l-17 -70h-22l18 70h-47l-17 -70h-21l17 70h-38l6 25h38l12 48h-37zM93 88h47l12 48h-47z" />
    <glyph glyph-name="dollar" unicode="$" 
d="M143 228q9 -1 27 -5q22 -8 26 -10l-12 -39h-18l-6 22q-8 5 -18 7q-9 3 -20 3q-17 0 -29 -9t-12 -23q0 -12 9 -20q8 -8 20 -14t28 -13q14 -5 28 -15q14 -11 20 -20q9 -12 9 -30q0 -24 -15 -42q-17 -17 -43 -21v-35h-29v34q-39 3 -74 22l14 46h20l4 -30q10 -8 23 -12
q13 -6 29 -6q17 0 29 10q10 9 10 25q0 13 -9 20q-8 8 -20 14q-3 1 -12.5 6t-15.5 7q-10 4 -28 14q-14 11 -20 20q-9 12 -9 30q0 24 17 41q18 18 48 21v36h29v-34z" />
    <glyph glyph-name="percent" unicode="%" horiz-adv-x="337" 
d="M248 -4q-26 0 -42 15q-16 16 -16 49q0 32 16 48q15 14 42 14q13 0 22 -3q12 -3 18 -11q7 -5 12 -20q4 -11 4 -28q0 -19 -4 -30q-5 -13 -12 -19q-6 -8 -18 -11q-12 -4 -22 -4zM248 10q24 0 24 50q0 26 -6 36q-6 12 -18 12q-13 0 -19 -12q-6 -10 -6 -36q0 -50 25 -50z
M256 238l18 -16l-190 -232l-18 15zM90 104q-26 0 -42 15q-16 16 -16 49q0 32 16 48q17 14 42 14q13 0 22 -3q12 -3 18 -11q7 -5 12 -20q4 -11 4 -28q0 -34 -16 -49t-40 -15zM90 118q24 0 24 50q0 26 -6 36q-6 12 -18 12q-13 0 -19 -12q-6 -10 -6 -36q0 -50 25 -50z" />
    <glyph glyph-name="ampersand" unicode="&#x26;" horiz-adv-x="271" 
d="M264 2q-6 -1 -14 -3q-9 -3 -20 -3q-31 0 -55 30q-18 -16 -32 -22q-19 -8 -39 -8q-15 0 -27 6q-13 5 -21 13q-8 6 -13 19q-5 12 -5 24q0 22 14 42q14 21 43 36q-17 23 -23 36q-6 15 -6 30q0 12 4 23q7 14 14 21q8 8 22 15q11 5 30 5q14 0 25 -4q13 -5 20 -12q7 -6 12 -17
q5 -10 5 -20q0 -21 -17 -41q-15 -18 -47 -34l52 -74q7 15 8 32q2 13 2 38l28 16l4 -4q-2 -18 -4 -26q-3 -16 -7 -25q-6 -16 -10 -23q-3 -8 -11 -20q14 -16 30 -23q18 -8 42 -11zM103 126q-30 -21 -30 -57q0 -21 12 -33t31 -12q16 0 27 4q12 4 21 12zM126 148q20 15 28 28
q10 13 10 30q0 18 -10 28q-9 10 -24 10q-17 0 -24 -10q-9 -9 -9 -22q0 -9 1 -13q0 -1 5 -13q3 -9 9 -17q1 -2 3.5 -6t5 -7.5t5.5 -7.5z" />
    <glyph glyph-name="quotesingle" unicode="'" horiz-adv-x="82" 
d="M20 286q1 1 3 2q4 3 6 4q3 2 12 2t12 -2q5 -2 9 -6l-14 -89h-14z" />
    <glyph glyph-name="parenleft" unicode="(" horiz-adv-x="119" 
d="M112 301q-9 -9 -23 -31q-11 -21 -16 -40q-7 -22 -10 -51t-3 -63q0 -35 3 -62q3 -30 10 -49q5 -19 16 -39q12 -19 23 -30l-8 -20q-18 15 -37 38q-16 23 -26 45q-9 21 -16 53q-5 24 -5 64q0 69 21 117q21 47 63 82z" />
    <glyph glyph-name="parenright" unicode=")" horiz-adv-x="119" 
d="M16 315q42 -35 62 -82q22 -47 22 -117q0 -36 -6 -64q-5 -31 -16 -53q-9 -23 -26 -45q-16 -21 -36 -38l-8 20q15 16 22 30q8 13 17 39q7 26 10 49q3 27 3 62q0 34 -3 63q-2 19 -10 51q-10 28 -17 40q-9 16 -22 31z" />
    <glyph glyph-name="asterisk" unicode="*" horiz-adv-x="196" 
d="M80 300q10 7 19 7q8 0 13 -5q4 -5 4 -14t-4 -24q-2 -9 -10 -34l61 36q6 -4 10 -10q4 -5 4 -12q0 -13 -13 -16q-10 -5 -42 -5h-10q-5 0 -8 1l52 -48q-2 -8 -8 -14t-13 -6q-11 0 -20 16q-7 12 -17 48l-28 -66q-11 0 -20 6q-8 5 -8 14q0 17 50 50l-70 6q-2 4 -2 12
q0 11 4 16q6 6 13 6t22 -9q19 -11 35 -25z" />
    <glyph glyph-name="plus" unicode="+" 
d="M31 124h70v74h29v-74h70v-27h-70v-73h-29v73h-70v27z" />
    <glyph glyph-name="comma" unicode="," horiz-adv-x="127" 
d="M50 54q19 -6 29 -19q11 -13 11 -27q0 -16 -10 -38q-14 -20 -38 -38l-10 10q13 15 20 28q4 11 6 20l-32 24z" />
    <glyph glyph-name="hyphen" unicode="-" horiz-adv-x="157" 
d="M142 110q0 -12 -10 -17t-24 -5h-90v10q0 12 9 17q7 5 23 5h92v-10z" />
    <glyph glyph-name="period" unicode="." horiz-adv-x="139" 
d="M42 24q0 28 28 28q13 0 20 -7t7 -21q0 -13 -7 -20q-6 -6 -20 -6q-28 0 -28 26z" />
    <glyph glyph-name="slash" unicode="/" horiz-adv-x="145" 
d="M119 304l27 -10l-120 -338l-26 10z" />
    <glyph glyph-name="colon" unicode=":" horiz-adv-x="133" 
d="M42 162q0 28 28 28q13 0 20 -7t7 -21q0 -13 -7 -20q-6 -6 -20 -6q-28 0 -28 26zM42 24q0 28 28 28q13 0 20 -7t7 -21q0 -13 -7 -20q-6 -6 -20 -6q-28 0 -28 26z" />
    <glyph glyph-name="semicolon" unicode=";" horiz-adv-x="138" 
d="M60 54q19 -6 29 -19q11 -13 11 -27q0 -16 -10 -38q-14 -20 -38 -38l-10 10q13 15 20 28q4 11 6 20l-32 24zM42 162q0 28 28 28q13 0 20 -7t7 -21q0 -13 -7 -20q-6 -6 -20 -6q-28 0 -28 26z" />
    <glyph glyph-name="less" unicode="&#x3c;" 
d="M200 -5l-170 98v32l170 98v-33l-143 -81l143 -81v-33z" />
    <glyph glyph-name="equal" unicode="=" 
d="M31 66v28h169v-28h-169zM31 124v27h169v-27h-169z" />
    <glyph glyph-name="greater" unicode="&#x3e;" 
d="M30 28l143 81l-143 81v33l170 -98v-32l-170 -98v33z" />
    <glyph glyph-name="question" unicode="?" horiz-adv-x="186" 
d="M86 74q-10 9 -18 18q-6 10 -6 20q0 8 2 12q1 5 6 13q3 5 13 15q5 6 19 20q11 9 17 17q2 2 11 14q5 8 6 13q2 10 2 14q0 7 -2 15q-3 8 -6 11q-6 4 -9 5t-13 1q-8 0 -12 -1q-5 -1 -15 -5q-16 -10 -18 -11q-2 -2 -10 -8t-13 -9l-25 28q21 17 42 25q18 7 41 7q15 0 30 -5
t23 -13q10 -7 15 -19q6 -11 6 -24q0 -10 -1 -15q-1 -8 -6 -17q-4 -7 -12 -19q-3 -4 -21 -22q-16 -14 -20 -18q-9 -9 -12 -13q-5 -6 -6 -10q-2 -6 -2 -9q0 -7 3 -13q1 -1 8 -11zM71 22q0 26 25 26q26 0 26 -26t-26 -26q-12 0 -19 7q-6 6 -6 19z" />
    <glyph glyph-name="at" unicode="@" horiz-adv-x="341" 
d="M233 173q-4 -18 -6 -28q-4 -21 -5 -28q-2 -18 -3 -26t-1 -21q0 -17 5 -25q6 -7 16 -7q11 0 19 4q9 5 17 16q7 10 12 28q5 20 5 42q0 21 -8 40q-6 16 -19 30q-12 12 -31 20q-17 7 -41 7q-28 0 -52 -12q-26 -13 -43 -33q-20 -23 -28 -48q-11 -26 -11 -60q0 -21 7 -42
q11 -20 21 -28q12 -11 31 -17q20 -5 40 -5t35 3q18 4 25 7l7 -10q-14 -10 -33 -16q-18 -6 -44 -6q-57 0 -90 30q-32 28 -32 83q0 31 12 62q11 29 34 57q23 24 55 41q31 16 71 16q25 0 47 -8q22 -7 38 -22q18 -16 26 -37q9 -21 9 -50t-7 -50q-8 -22 -19 -36q-13 -16 -26 -22
q-13 -8 -30 -8q-21 0 -32 14q-12 14 -10 43q-16 -27 -29 -37q-13 -12 -27 -12q-13 0 -22 12q-10 11 -10 37q0 17 6 36q10 26 18 37q7 13 24 28q14 11 28 11q12 0 25 -3q15 -3 26 -7zM200 151q-2 1 -7 2.5t-7 2.5q-3 0 -7 0.5t-5 0.5h-6l-2 -1h-2q-7 -4 -10 -10
q-6 -10 -9 -17q-4 -14 -6 -22q-2 -16 -2 -25q0 -18 4 -23q3 -7 11 -7t20 14q13 14 20 39q5 13 6 23q2 14 2 23z" />
    <glyph glyph-name="bracketleft" unicode="[" horiz-adv-x="110" 
d="M103 293q-14 -2 -23 -5q-10 -2 -19 -8q-1 -7 -5 -59q0 -11 -0.5 -47.5t-0.5 -61.5t0.5 -61t0.5 -47q4 -52 5 -60q1 -1 7.5 -3.5t11.5 -4.5q22 -5 23 -5v-18q-28 4 -41 8q-16 4 -32 13q-5 23 -8 62q-2 28 -2 116v66q2 38 2 49q1 7 4 37q2 18 4 27q10 6 32 13q13 4 41 8
v-19z" />
    <glyph glyph-name="backslash" unicode="\" horiz-adv-x="145" 
d="M146 -34l-26 -10l-120 338l26 10z" />
    <glyph glyph-name="bracketright" unicode="]" horiz-adv-x="110" 
d="M8 312q28 -4 40 -8q21 -7 33 -13q1 -12 3 -27q3 -30 4 -37q0 -11 2 -49q1 -19 1 -66q0 -74 -3 -116q-2 -30 -7 -62q-19 -10 -33 -13q-12 -4 -40 -8v18q6 1 22 5l20 8q2 17 4 60q2 54 2 108q0 55 -2 109q-2 45 -4 59q-9 5 -20 8q-6 2 -22 5v19z" />
    <glyph glyph-name="asciicircum" unicode="^" horiz-adv-x="268" 
d="M29 94l94 170h23l94 -170h-32l-74 144l-72 -144h-33z" />
    <glyph glyph-name="underscore" unicode="_" horiz-adv-x="250" 
d="M0 -18h250v-24h-250v24z" />
    <glyph glyph-name="grave" unicode="`" horiz-adv-x="175" 
d="M112 222l-33 26q-21 16 -25 22q-6 9 -6 17t6 14q6 7 14 9l54 -78z" />
    <glyph glyph-name="braceleft" unicode="{" horiz-adv-x="111" 
d="M20 120q20 5 27 10q8 8 8 16q0 12 -4 21q-3 11 -12 27q-7 11 -13 26q-4 9 -4 23q0 9 6 21q6 11 17 20q10 10 26 18q17 9 33 10l-8 -30q-12 -4 -27 -14q-14 -13 -21 -22q6 -16 7 -20q5 -10 11 -24q3 -6 11 -28q5 -13 5 -23q0 -30 -40 -39q20 -6 30 -16t10 -24
q0 -10 -5 -23q-7 -20 -11 -27q-2 -4 -11 -25q-3 -7 -7 -19q9 -14 21 -22q12 -11 27 -14l8 -32q-16 3 -33 11q-15 7 -26 17q-12 12 -17 22q-6 10 -6 20q0 14 4 23q6 15 13 27q9 15 12 26q4 9 4 20q0 10 -8 16q-6 6 -27 11v17z" />
    <glyph glyph-name="bar" unicode="|" horiz-adv-x="200" 
d="M86 284h28v-308h-28v308z" />
    <glyph glyph-name="braceright" unicode="}" horiz-adv-x="111" 
d="M92 103q-22 -5 -28 -11q-8 -6 -8 -16q0 -11 4 -20q6 -14 12 -26q7 -12 13 -27q4 -9 4 -23q0 -10 -6 -20q-5 -10 -17 -22q-11 -10 -26 -17q-17 -9 -32 -11l8 32q14 4 26 14q14 9 20 22q0 8 -6 19q-2 7 -11 25q-3 7 -11 27q-4 11 -4 23q0 15 10 24q8 9 28 16q-38 9 -38 39
q0 12 4 23q8 22 11 28q7 14 11 24q6 14 6 20q-5 9 -20 22q-15 10 -26 14l-8 30q14 -1 32 -10q16 -8 26 -18q11 -9 17 -20q6 -12 6 -21q0 -14 -4 -23q-7 -15 -13 -26l-12 -27q-4 -9 -4 -21q0 -8 8 -16q7 -5 28 -10v-17z" />
    <glyph glyph-name="asciitilde" unicode="~" horiz-adv-x="244" 
d="M36 92q18 31 29 44q12 12 23 12q6 0 14 -4q14 -7 22 -12q20 -12 22 -13q9 -3 12 -3q6 0 9 1q2 1 4.5 2.5t4.5 2.5l10 10q1 1 3 4t4.5 6t4.5 6l10 -10q-16 -29 -30 -44q-10 -12 -22 -12q-5 0 -13 4q-4 2 -21 11q-10 5 -16 9l-10 5l-6 3h-4q-6 0 -8 -1q-6 -2 -8 -4
q-4 -2 -10 -10q-6 -7 -14 -17z" />
    <glyph glyph-name="nbspace" unicode="&#xa0;" horiz-adv-x="467" 
 />
    <glyph glyph-name="multiply" unicode="&#xd7;" horiz-adv-x="286" 
d="M125 108l-91 91l18 19l92 -92l90 92l18 -19l-90 -91l90 -90l-18 -18l-90 90l-92 -90l-18 18z" />
    <glyph glyph-name="divide" unicode="&#xf7;" horiz-adv-x="277" 
d="M248 96h-218v26h218v-26zM138 223q10 0 18 -8t8 -18t-8 -18t-18 -8t-18 7.5t-8 18.5t8 18.5t18 7.5zM138 46q10 0 18 -8t8 -18t-8 -18t-18 -8t-18 8t-8 18t8 18t18 8z" />
    <glyph glyph-name="commaarabic" unicode="&#x60c;" horiz-adv-x="114" 
d="M68 -13q-19 7 -30 20q-10 13 -10 31q0 21 13 38q10 18 35 33l10 -9q-25 -26 -29 -52q6 -8 14 -12q9 -6 19 -9z" />
    <glyph glyph-name="semicolonarabic" unicode="&#x61b;" horiz-adv-x="114" 
d="M30 24q0 28 28 28q13 0 20 -7t7 -21q0 -13 -7 -20q-6 -6 -20 -6q-28 0 -28 26zM66 121q-19 7 -30 20q-10 13 -10 31q0 21 13 38q10 18 35 33l10 -9q-25 -26 -29 -52q6 -8 14 -12q9 -6 19 -9z" />
    <glyph glyph-name="questionarabic" unicode="&#x61f;" horiz-adv-x="175" 
d="M76 72q2 2 13 17q4 7 4 13q0 8 -9 22q-8 10 -32 36q-23 21 -28 34q-6 14 -6 28q0 13 4 24q6 12 15 21t24 15q15 5 33 5q21 0 39 -8q17 -8 29 -21l-27 -28q-26 28 -55 28q-17 0 -27 -5q-1 -1 -2 -4t-1 -4q-1 -3 -1 -11t1 -11q3 -9 4 -11t4.5 -6t5.5 -6l16 -18
q10 -10 20 -22q10 -11 13 -18q4 -6 6 -13q2 -8 2 -13q0 -8 -3 -15t-8 -14q-3 -4 -10 -11q-8 -4 -10 -4h-14zM62 17q0 24 24 24q12 0 18 -6t6 -18q0 -24 -24 -24t-24 24z" />
    <glyph glyph-name="tatweelarabic" unicode="&#x640;" horiz-adv-x="47" 
d="M-2 0v22h51v-22h-51z" />
    <glyph glyph-name="decimalseparatorarabic" unicode="&#x66b;" horiz-adv-x="104" 
d="M48 54q19 -6 29 -19q11 -13 11 -27q0 -16 -10 -38q-14 -20 -38 -38l-10 10q13 15 20 28q4 11 6 20l-32 24z" />
    <glyph glyph-name="thousandsseparatorarabic" unicode="&#x66c;" horiz-adv-x="104" 
d="M63 -13q-19 7 -30 20q-10 13 -10 31q0 21 13 38q10 18 35 33l10 -9q-25 -26 -29 -52q6 -8 14 -12q9 -6 19 -9z" />
    <glyph glyph-name="asteriskarabic" unicode="&#x66d;" horiz-adv-x="274" 
d="M210 7l-74 61l-72 -60l36 88l-80 49l96 -6l21 91l23 -92l94 7l-80 -51z" />
    <glyph glyph-name="zeronojoin" unicode="&#x200c;" horiz-adv-x="10" 
d="M10 0v372h-10v-372h10z" />
    <glyph glyph-name="zerojoin" unicode="&#x200d;" horiz-adv-x="10" 
d="M36 341l-24 25l24 24l-6 7l-25 -25l-24 25l-7 -7l24 -24l-24 -25l7 -7l19 20v-354h10v354l20 -20z" />
    <glyph glyph-name="lefttoright" unicode="&#x200e;" horiz-adv-x="10" 
d="M69 366l-31 31l-7 -7l19 -18h-50v-372h10v361h40l-19 -19l7 -8z" />
    <glyph glyph-name="righttoleft" unicode="&#x200f;" horiz-adv-x="10" 
d="M10 0v372h-49l19 18l-8 7l-31 -31l31 -32l8 8l-20 19h40v-361h10z" />
    <glyph glyph-name="hyphenminus" unicode="&#x2010;" horiz-adv-x="294" 
d="M30 100h234v20h-234v-20z" />
    <glyph glyph-name="quoteleft" unicode="&#x2018;" horiz-adv-x="99" 
d="M44 331l10 -11q-28 -31 -28 -58q34 0 34 -29q0 -11 -7.5 -19t-18.5 -8q-13 0 -23.5 11t-10.5 27q0 47 44 87z" />
    <glyph glyph-name="quoteright" unicode="&#x2019;" horiz-adv-x="145" 
d="M102 206l-11 12q29 30 29 58q-34 0 -34 28q0 11 7.5 19t18.5 8q13 0 23.5 -11t10.5 -27q0 -45 -44 -87z" />
    <glyph glyph-name="quotedblleft" unicode="&#x201c;" horiz-adv-x="176" 
d="M120 331l12 -11q-29 -29 -29 -58q35 0 35 -29q0 -11 -8 -19t-20 -8t-22.5 11t-10.5 27q0 46 43 87zM44 331l10 -11q-28 -31 -28 -58q34 0 34 -29q0 -11 -7.5 -19t-18.5 -8q-13 0 -23.5 11t-10.5 27q0 47 44 87z" />
    <glyph glyph-name="quotedblright" unicode="&#x201d;" horiz-adv-x="223" 
d="M102 206l-11 12q29 30 29 58q-34 0 -34 28q0 11 7.5 19t18.5 8q13 0 23.5 -11t10.5 -27q0 -45 -44 -87zM180 206l-12 12q29 29 29 58q-34 0 -34 28q0 11 8 19t19 8q13 0 23 -11t10 -27q0 -44 -43 -87z" />
    <glyph glyph-name="delete" unicode="&#x2421;" horiz-adv-x="364" 
d="M346 30v16h-65v117h-18v-133h83zM246 30v16h-82v44h74v16h-74v41h80v16h-98v-133h100zM130 97q0 55 -40 64q-12 2 -24 2h-46v-133h48q16 0 22 2q40 9 40 65zM112 97q0 -29 -14 -43q-8 -8 -32 -8h-28v101h28q14 0 22 -2q24 -11 24 -48z" />
    <glyph glyph-name="zerowidthnobreakspace" unicode="&#xfeff;" horiz-adv-x="0" 
 />
    <glyph glyph-name="CR" horiz-adv-x="166" 
 />
    <glyph glyph-name="_4" horiz-adv-x="140" 
 />
    <glyph glyph-name="_13" horiz-adv-x="136" 
 />
    <glyph glyph-name="kashidaautoarabic" horiz-adv-x="58" 
d="M-4 18h67v-18h-67v18z" />
    <glyph glyph-name="nonbreakingspace" horiz-adv-x="311" 
 />
    <glyph glyph-name="_246" horiz-adv-x="0" 
 />
  </font>
</defs>
</svg>
