<?xml version="1.0" encoding="UTF-8" standalone="no"?>
<!-- Created with Inkscape (http://www.inkscape.org/) -->

<svg
   xmlns:dc="http://purl.org/dc/elements/1.1/"
   xmlns:cc="http://creativecommons.org/ns#"
   xmlns:rdf="http://www.w3.org/1999/02/22-rdf-syntax-ns#"
   xmlns:svg="http://www.w3.org/2000/svg"
   xmlns="http://www.w3.org/2000/svg"
   xmlns:sodipodi="http://sodipodi.sourceforge.net/DTD/sodipodi-0.dtd"
   xmlns:inkscape="http://www.inkscape.org/namespaces/inkscape"
   width="1024"
   height="768"
   id="svg4794"
   version="1.1"
   inkscape:version="0.91 r13725"
   viewBox="0 0 1024 768"
   sodipodi:docname="logo2.jpg.svg">
  <defs
     id="defs4796">
    <inkscape:path-effect
       effect="skeletal"
       id="path-effect4399"
       is_visible="true"
       pattern="m 39.776,-194.45901 c 0,-2.76 2.24,-5 5,-5 2.76,0 5,2.24 5,5 0,2.76 -2.24,5 -5,5 -2.76,0 -5,-2.24 -5,-5 z"
       copytype="single_stretched"
       prop_scale="1"
       scale_y_rel="false"
       spacing="0"
       normal_offset="0"
       tang_offset="0"
       prop_units="false"
       vertical_pattern="false"
       fuse_tolerance="0" />
    <inkscape:path-effect
       effect="skeletal"
       id="path-effect4395"
       is_visible="true"
       pattern="m 31.58708,-192.82122 c 0,-2.76 2.24,-5 5,-5 2.76,0 5,2.24 5,5 0,2.76 -2.24,5 -5,5 -2.76,0 -5,-2.24 -5,-5 z"
       copytype="single_stretched"
       prop_scale="1"
       scale_y_rel="false"
       spacing="0"
       normal_offset="0"
       tang_offset="0"
       prop_units="false"
       vertical_pattern="false"
       fuse_tolerance="0" />
    <inkscape:path-effect
       effect="skeletal"
       id="path-effect4391"
       is_visible="true"
       pattern="m 30.86265,-186.17218 c 0,-2.76 2.24,-5 5,-5 2.76,0 5,2.24 5,5 0,2.76 -2.24,5 -5,5 -2.76,0 -5,-2.24 -5,-5 z"
       copytype="single_stretched"
       prop_scale="1"
       scale_y_rel="false"
       spacing="0"
       normal_offset="0"
       tang_offset="0"
       prop_units="false"
       vertical_pattern="false"
       fuse_tolerance="0" />
    <inkscape:path-effect
       effect="skeletal"
       id="path-effect4387"
       is_visible="true"
       pattern="m 39.300553,-184.95323 c 0,-2.76 2.24,-5 5,-5 2.76,0 5,2.24 5,5 0,2.76 -2.24,5 -5,5 -2.76,0 -5,-2.24 -5,-5 z"
       copytype="single_stretched"
       prop_scale="1"
       scale_y_rel="false"
       spacing="0"
       normal_offset="0"
       tang_offset="0"
       prop_units="false"
       vertical_pattern="false"
       fuse_tolerance="0" />
    <inkscape:path-effect
       effect="skeletal"
       id="path-effect4367"
       is_visible="true"
       pattern="m -200.15937,-159.24665 c 0,-2.76 2.24,-5 5,-5 2.76,0 5,2.24 5,5 0,2.76 -2.24,5 -5,5 -2.76,0 -5,-2.24 -5,-5 z"
       copytype="single_stretched"
       prop_scale="1"
       scale_y_rel="false"
       spacing="0"
       normal_offset="0"
       tang_offset="0"
       prop_units="false"
       vertical_pattern="false"
       fuse_tolerance="0" />
    <inkscape:path-effect
       effect="skeletal"
       id="path-effect4363"
       is_visible="true"
       pattern="m 40.5949,-193.64011 c 0,-2.76 2.24,-5 5,-5 2.76,0 5,2.24 5,5 0,2.76 -2.24,5 -5,5 -2.76,0 -5,-2.24 -5,-5 z"
       copytype="single_stretched"
       prop_scale="1"
       scale_y_rel="false"
       spacing="0"
       normal_offset="0"
       tang_offset="0"
       prop_units="false"
       vertical_pattern="false"
       fuse_tolerance="0" />
    <inkscape:path-effect
       effect="skeletal"
       id="path-effect4341"
       is_visible="true"
       pattern="m 23.39816,-43.78287 c 0,-2.76 2.24,-5 5,-5 2.76,0 5,2.24 5,5 0,2.76 -2.24,5 -5,5 -2.76,0 -5,-2.24 -5,-5 z"
       copytype="single_stretched"
       prop_scale="1"
       scale_y_rel="false"
       spacing="0"
       normal_offset="0"
       tang_offset="0"
       prop_units="false"
       vertical_pattern="false"
       fuse_tolerance="0" />
    <inkscape:path-effect
       effect="skeletal"
       id="path-effect4337"
       is_visible="true"
       pattern="m 14.39035,-43.78287 c 0,-2.76 2.24,-5 5,-5 2.76,0 5,2.24 5,5 0,2.76 -2.24,5 -5,5 -2.76,0 -5,-2.24 -5,-5 z"
       copytype="single_stretched"
       prop_scale="1"
       scale_y_rel="false"
       spacing="0"
       normal_offset="0"
       tang_offset="0"
       prop_units="false"
       vertical_pattern="false"
       fuse_tolerance="0" />
    <inkscape:path-effect
       effect="skeletal"
       id="path-effect4329"
       is_visible="true"
       pattern="m 34.86265,-201.82903 c 0,-2.76 2.24,-5 5,-5 2.76,0 5,2.24 5,5 0,2.76 -2.24,5 -5,5 -2.76,0 -5,-2.24 -5,-5 z"
       copytype="single_stretched"
       prop_scale="1"
       scale_y_rel="false"
       spacing="0"
       normal_offset="0"
       tang_offset="0"
       prop_units="false"
       vertical_pattern="false"
       fuse_tolerance="0" />
    <inkscape:path-effect
       effect="skeletal"
       id="path-effect4321"
       is_visible="true"
       pattern="m 29.9493,-201.01014 c 0,-2.76 2.24,-5 5,-5 2.76,0 5,2.24 5,5 0,2.76 -2.24,5 -5,5 -2.76,0 -5,-2.24 -5,-5 z"
       copytype="single_stretched"
       prop_scale="1"
       scale_y_rel="false"
       spacing="0"
       normal_offset="0"
       tang_offset="0"
       prop_units="false"
       vertical_pattern="false"
       fuse_tolerance="0" />
    <inkscape:path-effect
       effect="skeletal"
       id="path-effect4510-1-2-97"
       is_visible="true"
       pattern="m -162.32056,-292.61801 c 0,-2.76 2.24,-5 5,-5 2.76,0 5,2.24 5,5 0,2.76 -2.24,4.99999 -5,4.99999 -2.76,0 -5,-2.23999 -5,-4.99999 z"
       copytype="single_stretched"
       prop_scale="1"
       scale_y_rel="false"
       spacing="0"
       normal_offset="0"
       tang_offset="0"
       prop_units="false"
       vertical_pattern="false"
       fuse_tolerance="0" />
    <inkscape:path-effect
       effect="skeletal"
       id="path-effect4510-1-2-7"
       is_visible="true"
       pattern="m -146.10731,-198.81287 c 0,-2.76 2.24,-5 5,-5 2.76,0 5,2.24 5,5 0,2.76 -2.24,5 -5,5 -2.76,0 -5,-2.24 -5,-5 z"
       copytype="single_stretched"
       prop_scale="1"
       scale_y_rel="false"
       spacing="0"
       normal_offset="0"
       tang_offset="0"
       prop_units="false"
       vertical_pattern="false"
       fuse_tolerance="0" />
    <inkscape:path-effect
       effect="skeletal"
       id="path-effect4510-1-2-4"
       is_visible="true"
       pattern="m -223.69923,-161.75404 c 0,-2.76 2.24,-5 5,-5 2.76,0 5,2.24 5,5 0,2.76 -2.24,5 -5,5 -2.76,0 -5,-2.24 -5,-5 z"
       copytype="single_stretched"
       prop_scale="1"
       scale_y_rel="false"
       spacing="0"
       normal_offset="0"
       tang_offset="0"
       prop_units="false"
       vertical_pattern="false"
       fuse_tolerance="0" />
    <inkscape:path-effect
       effect="skeletal"
       id="path-effect4510-1-2-6"
       is_visible="true"
       pattern="m -246.86099,-166.38639 c 0,-2.76 2.24,-5 5,-5 2.76,0 5,2.24 5,5 0,2.76 -2.24,5 -5,5 -2.76,0 -5,-2.24 -5,-5 z"
       copytype="single_stretched"
       prop_scale="1"
       scale_y_rel="false"
       spacing="0"
       normal_offset="0"
       tang_offset="0"
       prop_units="false"
       vertical_pattern="false"
       fuse_tolerance="0" />
    <inkscape:path-effect
       effect="skeletal"
       id="path-effect4510-1-2-8"
       is_visible="true"
       pattern="m -316.34629,-218.50037 c 0,-2.76 2.24,-5 5,-5 2.76,0 5,2.24 5,5 0,2.76 -2.24,5 -5,5 -2.76,0 -5,-2.24 -5,-5 z"
       copytype="single_stretched"
       prop_scale="1"
       scale_y_rel="false"
       spacing="0"
       normal_offset="0"
       tang_offset="0"
       prop_units="false"
       vertical_pattern="false"
       fuse_tolerance="0" />
    <inkscape:path-effect
       effect="skeletal"
       id="path-effect4510-1-2-03"
       is_visible="true"
       pattern="m -312.87202,-286.82757 c 0,-2.76 2.24,-5 5,-5 2.76,0 5,2.24 5,5 0,2.76 -2.24,5 -5,5 -2.76,0 -5,-2.24 -5,-5 z"
       copytype="single_stretched"
       prop_scale="1"
       scale_y_rel="false"
       spacing="0"
       normal_offset="0"
       tang_offset="0"
       prop_units="false"
       vertical_pattern="false"
       fuse_tolerance="0" />
    <inkscape:path-effect
       effect="skeletal"
       id="path-effect4510-1-2-5"
       is_visible="true"
       pattern="m -227.17349,-363.2614 c 0,-2.76 2.24,-5 5,-5 2.76,0 5,2.24 5,5 0,2.76 -2.24,5 -5,5 -2.76,0 -5,-2.24 -5,-5 z"
       copytype="single_stretched"
       prop_scale="1"
       scale_y_rel="false"
       spacing="0"
       normal_offset="0"
       tang_offset="0"
       prop_units="false"
       vertical_pattern="false"
       fuse_tolerance="0" />
    <inkscape:path-effect
       effect="skeletal"
       id="path-effect4510-1-2-0"
       is_visible="true"
       pattern="m -155.37202,-378.31655 c 0,-2.76 2.24,-5 5,-5 2.76,0 5,2.24 5,5 0,2.76 -2.24,5 -5,5 -2.76,0 -5,-2.24 -5,-5 z"
       copytype="single_stretched"
       prop_scale="1"
       scale_y_rel="false"
       spacing="0"
       normal_offset="0"
       tang_offset="0"
       prop_units="false"
       vertical_pattern="false"
       fuse_tolerance="0" />
    <inkscape:path-effect
       effect="skeletal"
       id="path-effect4510-1-2"
       is_visible="true"
       pattern="m -138.06458,-390.91067 c 0,-2.76 2.24,-5 5,-5 2.76,0 5,2.24 5,5 0,2.76 -2.24,5 -5,5 -2.76,0 -5,-2.24 -5,-5 z"
       copytype="single_stretched"
       prop_scale="1"
       scale_y_rel="false"
       spacing="0"
       normal_offset="0"
       tang_offset="0"
       prop_units="false"
       vertical_pattern="false"
       fuse_tolerance="0" />
    <inkscape:path-effect
       effect="skeletal"
       id="path-effect4510-1-5"
       is_visible="true"
       pattern="m -75.52783,-298.26362 c 0,-2.76 2.24,-5 5,-5 2.76,0 5,2.24 5,5 0,2.76 -2.24,5 -5,5 -2.76,0 -5,-2.24 -5,-5 z"
       copytype="single_stretched"
       prop_scale="1"
       scale_y_rel="false"
       spacing="0"
       normal_offset="0"
       tang_offset="0"
       prop_units="false"
       vertical_pattern="false"
       fuse_tolerance="0" />
    <inkscape:path-effect
       effect="skeletal"
       id="path-effect4510-1-6"
       is_visible="true"
       pattern="m -92.89914,-183.61289 c 0,-2.76 2.24,-5 5,-5 2.76,0 5,2.24 5,5 0,2.76 -2.24,5 -5,5 -2.76,0 -5,-2.24 -5,-5 z"
       copytype="single_stretched"
       prop_scale="1"
       scale_y_rel="false"
       spacing="0"
       normal_offset="0"
       tang_offset="0"
       prop_units="false"
       vertical_pattern="false"
       fuse_tolerance="0" />
    <inkscape:path-effect
       effect="skeletal"
       id="path-effect4510-1-7"
       is_visible="true"
       pattern="m -182.07193,-96.75627 c 0,-2.76 2.24,-5 5,-5 2.76,0 5,2.24 5,5 0,2.76 -2.24,5 -5,5 -2.76,0 -5,-2.24 -5,-5 z"
       copytype="single_stretched"
       prop_scale="1"
       scale_y_rel="false"
       spacing="0"
       normal_offset="0"
       tang_offset="0"
       prop_units="false"
       vertical_pattern="false"
       fuse_tolerance="0" />
    <inkscape:path-effect
       effect="skeletal"
       id="path-effect4510-1-3"
       is_visible="true"
       pattern="m -249.24106,-402.49156 c 0,-2.76 2.24,-5 5,-5 2.76,0 5,2.24 5,5 0,2.76 -2.24,5 -5,5 -2.76,0 -5,-2.24 -5,-5 z"
       copytype="single_stretched"
       prop_scale="1"
       scale_y_rel="false"
       spacing="0"
       normal_offset="0"
       tang_offset="0"
       prop_units="false"
       vertical_pattern="false"
       fuse_tolerance="0" />
    <inkscape:path-effect
       effect="skeletal"
       id="path-effect4510-1"
       is_visible="true"
       pattern="m -294.5991,-116.44897 c 0,-2.76 2.24,-5 5,-5 2.76,0 5,2.24 5,5 0,2.76 -2.24,5 -5,5 -2.76,0 -5,-2.24 -5,-5 z"
       copytype="single_stretched"
       prop_scale="1"
       scale_y_rel="false"
       spacing="0"
       normal_offset="0"
       tang_offset="0"
       prop_units="false"
       vertical_pattern="false"
       fuse_tolerance="0" />
    <inkscape:path-effect
       effect="skeletal"
       id="path-effect4510-7"
       is_visible="true"
       pattern="m -366.40058,-216.04456 c 0,-2.76 2.24,-5 5,-5 2.76,0 5,2.24 5,5 0,2.76 -2.24,5 -5,5 -2.76,0 -5,-2.24 -5,-5 z"
       copytype="single_stretched"
       prop_scale="1"
       scale_y_rel="false"
       spacing="0"
       normal_offset="0"
       tang_offset="0"
       prop_units="false"
       vertical_pattern="false"
       fuse_tolerance="0" />
    <inkscape:path-effect
       effect="skeletal"
       id="path-effect4510"
       is_visible="true"
       pattern="m -351.93882,-333.85109 c 0,-2.76 2.24,-5 5,-5 2.76,0 5,2.24 5,5 0,2.76 -2.24,5 -5,5 -2.76,0 -5,-2.24 -5,-5 z"
       copytype="single_stretched"
       prop_scale="1"
       scale_y_rel="false"
       spacing="0"
       normal_offset="0"
       tang_offset="0"
       prop_units="false"
       vertical_pattern="false"
       fuse_tolerance="0" />
    <inkscape:path-effect
       effect="skeletal"
       id="path-effect4438"
       is_visible="true"
       pattern="m -507.12264,-350.17095 c 0,-2.76 2.24,-5 5,-5 2.76,0 5,2.24 5,5 0,2.76 -2.24,5 -5,5 -2.76,0 -5,-2.24 -5,-5 z"
       copytype="single_stretched"
       prop_scale="1"
       scale_y_rel="false"
       spacing="0"
       normal_offset="0"
       tang_offset="0"
       prop_units="false"
       vertical_pattern="false"
       fuse_tolerance="0" />
    <inkscape:path-effect
       effect="skeletal"
       id="path-effect4434"
       is_visible="true"
       pattern="m -501.12264,-358.17095 c 0,-2.76 2.24,-5 5,-5 2.76,0 5,2.24 5,5 0,2.76 -2.24,5 -5,5 -2.76,0 -5,-2.24 -5,-5 z"
       copytype="single_stretched"
       prop_scale="1"
       scale_y_rel="false"
       spacing="0"
       normal_offset="0"
       tang_offset="0"
       prop_units="false"
       vertical_pattern="false"
       fuse_tolerance="0" />
    <inkscape:path-effect
       effect="skeletal"
       id="path-effect4430"
       is_visible="true"
       pattern="m -507.12264,-358.17095 c 0,-2.76 2.24,-5 5,-5 2.76,0 5,2.24 5,5 0,2.76 -2.24,5 -5,5 -2.76,0 -5,-2.24 -5,-5 z"
       copytype="single_stretched"
       prop_scale="1"
       scale_y_rel="false"
       spacing="0"
       normal_offset="0"
       tang_offset="0"
       prop_units="false"
       vertical_pattern="false"
       fuse_tolerance="0" />
    <inkscape:path-effect
       effect="skeletal"
       id="path-effect4426"
       is_visible="true"
       pattern="m -507.12264,-358.17095 c 0,-2.76 2.24,-5 5,-5 2.76,0 5,2.24 5,5 0,2.76 -2.24,5 -5,5 -2.76,0 -5,-2.24 -5,-5 z"
       copytype="single_stretched"
       prop_scale="1"
       scale_y_rel="false"
       spacing="0"
       normal_offset="0"
       tang_offset="0"
       prop_units="false"
       vertical_pattern="false"
       fuse_tolerance="0" />
  </defs>
  <sodipodi:namedview
     id="base"
     pagecolor="#ffffff"
     bordercolor="#666666"
     borderopacity="1.0"
     inkscape:pageopacity="0.0"
     inkscape:pageshadow="2"
     inkscape:zoom="0.1875"
     inkscape:cx="589.90873"
     inkscape:cy="382"
     inkscape:current-layer="layer1"
     inkscape:document-units="px"
     showgrid="false"
     inkscape:window-width="1366"
     inkscape:window-height="695"
     inkscape:window-x="0"
     inkscape:window-y="24"
     inkscape:window-maximized="1"
     showguides="false" />
  <metadata
     id="metadata4799">
    <rdf:RDF>
      <cc:Work
         rdf:about="">
        <dc:format>image/svg+xml</dc:format>
        <dc:type
           rdf:resource="http://purl.org/dc/dcmitype/StillImage" />
        <dc:title></dc:title>
      </cc:Work>
    </rdf:RDF>
  </metadata>
  <g
     id="layer1"
     inkscape:label="Layer 1"
     inkscape:groupmode="layer">
    <path
       style="fill:#cccccc;fill-rule:evenodd;stroke:none;stroke-width:1px;stroke-linecap:butt;stroke-linejoin:miter;stroke-opacity:1"
       d="m 417.07411,264.6466 c 1.16719,-0.17114 4.20271,7.05037 4.18131,19.71085 -0.0216,12.78668 -3.37994,29.83609 -13.82503,46.70146 -7.97385,12.87514 -18.00214,22.22931 -27.70125,28.42449 0,0 0,0 0,0 -5.87218,3.70733 -12.07684,5.28097 -16.36833,6.07302 -1.8425,0.37774 -9.16359,1.28138 -8.93715,1.24872 -1.96438,0.28337 -3.14959,0.5163 -3.44797,0.0513 -0.28087,-0.43772 0.3763,-1.56772 2.28259,-2.88852 2.34893,-1.62747 4.51435,-2.34123 8.45266,-3.95121 3.74214,-1.59077 9.23286,-3.90984 13.26949,-7.22399 0,0 10e-6,0 10e-6,0 8.24521,-6.54206 16.73759,-15.33835 23.95305,-26.99485 9.45124,-15.26838 13.50769,-30.18554 15.30476,-41.95879 1.753,-11.48454 1.31496,-18.96947 2.83586,-19.19248 z"
       id="path4508"
       inkscape:path-effect="#path-effect4510"
       inkscape:original-d="m 417.07411,264.6466 c 5.05203,34.45443 -9.44126,70.00166 -39.71932,91.49146 -9.55045,6.77844 -21.17362,7.37812 -26.3791,10.71838"
       inkscape:connector-curvature="0"
       sodipodi:nodetypes="csc" />
    <path
       style="fill:#cccccc;fill-rule:evenodd;stroke:none;stroke-width:1px;stroke-linecap:butt;stroke-linejoin:miter;stroke-opacity:1"
       d="m 352.87228,371.31198 c 0.56366,-0.90038 6.12605,0.78041 13.97899,6.45055 7.85236,5.66972 17.64336,15.23623 25.04306,29.25488 0,0 10e-6,1e-5 10e-6,1e-5 2.31797,4.399 4.34172,9.14097 5.97845,14.18538 4.70602,14.50409 5.22918,28.3774 3.66133,39.75077 0,0 0,10e-6 0,10e-6 -0.97123,6.82442 -3.80067,12.50278 -5.98154,16.22907 -0.88381,1.58407 -4.99266,7.73349 -4.83998,7.49415 -1.05284,1.6504 -1.63829,2.69115 -2.18324,2.61758 -0.51257,-0.0692 -0.94778,-1.28877 -0.71487,-3.57471 0.28717,-2.81862 1.15255,-4.90289 2.48613,-8.89252 1.21747,-3.82835 3.01127,-9.43531 3.08714,-14.57992 0,0 0,0 0,0 0.33055,-10.52484 -0.79203,-22.91061 -5.02388,-35.95989 -1.47296,-4.54202 -3.2179,-8.83251 -5.17182,-12.85629 0,0 0,0 0,0 -6.22381,-12.84227 -14.1832,-22.31863 -20.46335,-28.91856 -6.22226,-6.5391 -10.54446,-10.10147 -9.85643,-11.20051 z"
       id="path4508-0"
       inkscape:path-effect="#path-effect4510-7"
       inkscape:original-d="m 352.87228,371.31198 c 29.82856,18.67339 47.76434,52.66315 44.58866,89.28842 -1.00167,11.55254 -8.11271,20.62813 -8.93158,26.69398"
       inkscape:connector-curvature="0"
       sodipodi:nodetypes="csc" />
    <path
       style="fill:#cccccc;fill-rule:evenodd;stroke:none;stroke-width:1px;stroke-linecap:butt;stroke-linejoin:miter;stroke-opacity:1"
       d="m 394.9244,484.31726 c 0.0148,-1.06461 5.68146,-2.51064 15.39675,-1.74184 9.72252,0.76938 23.12417,3.85565 36.85528,11.95021 0,0 0,0 0,0 4.2706,2.52046 8.47646,5.47745 12.51923,8.8858 11.76482,9.9186 19.62352,21.49064 24.36613,32.04159 0,0 0,10e-6 0,10e-6 2.79774,6.2969 3.42002,12.6046 3.55128,16.9219 0.0908,1.78697 -0.12122,9.21246 -0.11893,8.90742 -0.0147,1.9549 0.0425,3.14527 -0.45679,3.37153 -0.46945,0.21275 -1.48325,-0.58843 -2.49767,-2.64549 -1.25051,-2.53581 -1.6247,-4.75909 -2.61152,-8.84327 -1.00036,-3.89022 -2.46009,-9.58498 -5.13074,-13.99498 0,0 -10e-6,0 -10e-6,0 -5.35314,-9.1782 -12.93708,-19.16882 -23.54645,-28.11517 -3.64776,-3.07598 -7.39005,-5.80307 -11.1656,-8.20144 0,0 -10e-6,0 -10e-6,0 -12.14458,-7.72391 -23.94385,-11.68632 -32.8161,-14.07188 -8.78033,-2.36084 -14.36293,-3.16711 -14.34485,-4.46439 z"
       id="path4508-01"
       inkscape:path-effect="#path-effect4510-1"
       inkscape:original-d="m 394.9244,484.31726 c 35.3401,0.4924 68.70882,20.16901 85.5052,52.99432 5.29803,10.35392 4.07543,21.7545 6.60775,27.3423"
       inkscape:connector-curvature="0"
       sodipodi:nodetypes="csc" />
    <path
       style="fill:#cccccc;fill-rule:evenodd;stroke:none;stroke-width:1px;stroke-linecap:butt;stroke-linejoin:miter;stroke-opacity:1"
       d="m 543.30873,238.75706 c 0.83385,0.65225 -1.42741,6.01568 -7.91336,13.23809 -6.49698,7.2347 -17.05349,15.94272 -31.79444,21.90126 0,0 0,0 0,0 -4.74011,1.9136 -9.80397,3.49422 -15.14162,4.65044 -14.9713,3.24301 -28.89862,2.48318 -40.15761,-0.0703 0,0 -10e-6,0 -10e-6,0 -6.76636,-1.56223 -12.25363,-4.84977 -15.84361,-7.34013 -1.54203,-1.02602 -7.37804,-5.60626 -7.17551,-5.45383 -1.58423,-1.19233 -2.58279,-1.86766 -2.46312,-2.40475 0.11261,-0.50539 1.37518,-0.83244 3.65106,-0.40964 2.80336,0.5208 4.83461,1.55293 8.7479,3.21365 3.76691,1.53784 9.27698,3.79428 14.49105,4.33334 0,0 0,0 0,0 10.5589,1.25626 23.1104,1.28857 36.63443,-1.6383 4.82521,-1.04427 9.4156,-2.39029 13.75165,-3.97501 0,0 0,0 0,0 13.50199,-4.92729 23.7644,-11.81719 31.02666,-17.3941 7.17361,-5.50884 11.16865,-9.44692 12.18653,-8.65072 z"
       id="path4508-01-7"
       inkscape:path-effect="#path-effect4510-1-3"
       inkscape:original-d="m 543.30873,238.75706 c -21.57073,27.57656 -57.55621,42.10607 -94.30315,35.68881 -11.59094,-2.02412 -20.12657,-9.81783 -26.18613,-11.16803"
       inkscape:connector-curvature="0"
       sodipodi:nodetypes="csc" />
    <path
       style="fill:#cccccc;fill-rule:evenodd;stroke:none;stroke-width:1px;stroke-linecap:butt;stroke-linejoin:miter;stroke-opacity:1"
       d="m 490.62746,557.27263 c -0.85516,-0.62355 1.22198,-6.05801 7.45867,-13.49124 6.2472,-7.44577 16.50198,-16.49926 31.03122,-22.94273 10e-6,0 10e-6,0 10e-6,0 4.67827,-2.07221 9.69192,-3.82143 14.99392,-5.15442 14.84728,-3.7328 28.78547,-3.43353 40.11782,-1.25572 0,0 10e-6,0 10e-6,0 6.81599,1.33734 12.41128,4.44134 16.08337,6.81126 1.57783,0.97556 7.5618,5.35772 7.35626,5.2135 1.6238,1.13941 2.64465,1.7815 2.54282,2.32241 -0.0958,0.509 -1.34734,0.87777 -3.63679,0.53072 -2.82005,-0.42749 -4.8853,-1.39165 -8.85323,-2.92163 -3.81736,-1.41203 -9.40169,-3.48488 -14.6325,-3.8512 0,0 0,0 0,0 -10.58996,-0.90536 -23.1303,-0.52353 -36.54131,2.84543 -4.79272,1.20398 -9.34005,2.70257 -13.62466,4.43203 0,0 -1e-5,10e-6 -1e-5,10e-6 -13.32431,5.37073 -23.3455,12.59652 -30.41274,18.41086 -6.98102,5.7434 -10.83882,9.81199 -11.88286,9.05072 z"
       id="path4508-01-2"
       inkscape:path-effect="#path-effect4510-1-7"
       inkscape:original-d="m 490.62746,557.27263 c 20.61717,-28.27529 56.0863,-43.98826 93.03161,-38.79158 11.65344,1.63921 20.45023,9.14586 26.55249,10.29464"
       inkscape:connector-curvature="0"
       sodipodi:nodetypes="csc" />
    <path
       style="fill:#cccccc;fill-rule:evenodd;stroke:none;stroke-width:1px;stroke-linecap:butt;stroke-linejoin:miter;stroke-opacity:1"
       d="m 604.56437,511.10338 c -1.16682,0.1737 -4.21812,-7.04099 -4.22453,-19.70129 -0.006,-12.78644 3.31433,-29.84303 13.72232,-46.73084 7.94555,-12.89231 17.95331,-22.26806 27.63892,-28.48406 0,0 10e-6,0 10e-6,0 5.86411,-3.71987 12.06528,-5.30673 16.35497,-6.10793 1.84184,-0.38171 9.16051,-1.30087 8.93432,-1.26775 1.96373,-0.28756 3.14842,-0.523 3.4478,-0.0586 0.28181,0.43712 -0.37293,1.56851 -2.27637,2.89336 -2.34541,1.63248 -4.50926,2.35083 -8.44404,3.96921 -3.73863,1.59873 -9.22425,3.92948 -13.25359,7.25219 0,0 0,0 0,0 -8.23093,6.55967 -16.70391,15.37409 -23.89368,27.04606 -9.41754,15.28856 -13.44114,30.21447 -15.21234,41.99137 -1.72778,11.48817 -1.27338,18.97198 -2.79379,19.19832 z"
       id="path4508-01-4"
       inkscape:path-effect="#path-effect4510-1-6"
       inkscape:original-d="m 604.56437,511.10338 c -5.12756,-34.44361 9.28747,-70.02162 39.51826,-91.57597 9.53556,-6.79874 21.15735,-7.42325 26.35555,-10.77454"
       inkscape:connector-curvature="0"
       sodipodi:nodetypes="csc" />
    <path
       style="fill:#cccccc;fill-rule:evenodd;stroke:none;stroke-width:1px;stroke-linecap:butt;stroke-linejoin:miter;stroke-opacity:1"
       d="m 668.63893,408.87536 c -0.6013,0.87526 -6.08407,-1.03875 -13.68314,-7.03606 -7.59826,-5.99668 -16.96545,-15.96947 -23.749,-30.28814 1e-5,0 0,0 0,0 -2.12797,-4.50021 -3.94595,-9.33122 -5.36274,-14.44838 -4.06552,-14.68388 -3.98324,-28.55799 -1.9237,-39.84559 0,0 0,0 0,0 1.26718,-6.77757 4.34101,-12.32993 6.68172,-15.95962 0.95367,-1.54787 5.32279,-7.51081 5.16192,-7.2812 1.12392,-1.60412 1.75438,-2.61893 2.2958,-2.5217 0.50927,0.0915 0.89109,1.32937 0.55909,3.60398 -0.40935,2.80465 -1.36446,4.85025 -2.87007,8.7802 -1.3826,3.77358 -3.41883,9.30013 -3.71862,14.43847 1e-5,0 0,1e-5 0,1e-5 -0.78758,10.49392 -0.20687,22.90949 3.44816,36.11876 1.27476,4.60701 2.83318,8.9737 4.61288,13.08226 0,0 10e-6,10e-6 10e-6,10e-6 5.65833,13.09102 13.19851,22.89451 19.18581,29.75259 5.93229,6.79508 10.09597,10.53585 9.36188,11.60441 z"
       id="path4508-01-20"
       inkscape:path-effect="#path-effect4510-1-5"
       inkscape:original-d="m 668.63893,408.87536 c -28.9889,-19.91507 -45.42966,-54.63051 -40.66366,-91.0881 1.5032,-11.4997 9.00242,-20.26691 10.08452,-26.29259"
       inkscape:connector-curvature="0"
       sodipodi:nodetypes="csc" />
    <path
       style="fill:#cccccc;fill-rule:evenodd;stroke:none;stroke-width:1px;stroke-linecap:butt;stroke-linejoin:miter;stroke-opacity:1"
       d="m 644.70725,293.77376 c 0.18998,1.17304 -6.62861,4.22748 -18.69902,4.41931 -12.18728,0.19369 -28.49699,-2.76435 -44.70897,-12.51961 -12.35926,-7.43696 -21.38543,-16.88979 -27.38503,-26.06792 0,0 0,0 0,0 -3.61204,-5.59001 -5.17171,-11.49666 -5.96103,-15.58688 -0.43566,-2.02993 -1.23033,-8.45644 -1.23809,-8.51008 -0.27036,-1.86925 -0.48411,-3.00934 -0.0239,-3.31308 0.43557,-0.2875 1.54044,0.31241 2.84777,2.10961 1.60212,2.20246 2.33952,4.28388 3.93521,7.98886 1.58115,3.53104 3.87728,8.71446 7.07237,12.4746 0,0 0,10e-6 0,10e-6 6.32583,7.72038 14.77476,15.64642 25.90487,22.34094 14.59984,8.78148 28.78061,12.46563 39.9764,14.06107 10.91487,1.55541 18.0351,1.09444 18.27945,2.60317 z"
       id="path4508-01-9"
       inkscape:path-effect="#path-effect4510-1-2"
       inkscape:original-d="m 644.70725,293.77376 c -32.67454,5.2918 -66.64934,-8.02848 -87.47687,-36.5867 -6.56958,-9.00796 -7.29523,-20.07684 -10.5392,-24.99156"
       inkscape:connector-curvature="0"
       sodipodi:nodetypes="csc" />
    <path
       style="fill:#cccccc;fill-rule:evenodd;stroke:none;stroke-width:1px;stroke-linecap:butt;stroke-linejoin:miter;stroke-opacity:1"
       d="m 583.21326,338.52223 c 0.0122,1.25166 -4.34689,2.99851 -11.80177,2.08395 -7.50141,-0.92027 -17.16566,-4.59347 -25.69796,-12.79078 -6.20219,-5.95869 -10.17653,-12.77563 -12.34406,-19.02337 0,0 0,0 0,0 -1.45815,-4.23022 -1.51165,-8.14567 -1.31813,-10.82126 0.0821,-2.13638 0.64924,-4.64117 0.82443,-5.41523 0.26432,-1.16789 0.49701,-1.97515 1.01107,-2.17446 1.46241,-0.567 2.72582,2.386 4.04631,6.96803 0.7034,2.30334 1.63756,5.6941 3.07538,8.07668 0,-1e-5 0,0 0,0 2.74971,4.90994 6.51136,10.19396 11.65944,15.17274 7.10835,6.87458 14.33153,10.76862 20.42476,13.2309 5.86249,2.36903 10.10632,3.23098 10.12053,4.6928 z"
       id="path4508-01-9-9"
       inkscape:path-effect="#path-effect4510-1-2-0"
       inkscape:original-d="m 583.21326,338.52223 c -19.25668,0.18724 -37.22882,-11.45394 -46.02426,-31.41332 -2.77423,-6.29567 -1.98307,-13.32563 -3.30216,-16.72783"
       inkscape:connector-curvature="0"
       sodipodi:nodetypes="csc" />
    <path
       style="fill:#cccccc;fill-rule:evenodd;stroke:none;stroke-width:1px;stroke-linecap:butt;stroke-linejoin:miter;stroke-opacity:1"
       d="m 534.3504,288.94828 c 0.89095,0.56082 0.1656,4.18381 -3.32405,9.24614 -3.55344,5.15487 -9.56935,11.1033 -18.40307,16.05907 0,0 0,0 0,0 -3.82455,2.16481 -8.02134,4.08691 -12.55765,5.67152 -9.22537,3.22258 -18.11999,4.44843 -25.61621,4.5556 0,0 0,0 0,0 -5.00224,0.078 -9.3939,-0.92016 -12.44925,-1.85424 -5.18329,-1.49474 -8.1891,-3.30362 -8.22,-3.89013 -0.0793,-1.50527 3.48903,-1.93243 9.09047,-1.94157 2.90715,-0.0257 7.19059,0.0112 10.8681,-0.63876 0,0 0,0 0,0 6.85128,-1.11809 14.77156,-2.7905 23.03586,-5.66747 4.07321,-1.41797 7.85314,-2.99759 11.38381,-4.70829 0,0 10e-6,0 10e-6,0 8.26814,-4.04971 13.90024,-8.00555 18.44625,-11.63971 4.2513,-3.39856 6.7418,-5.8241 7.74573,-5.19216 z"
       id="path4508-01-9-1"
       inkscape:path-effect="#path-effect4510-1-2-5"
       inkscape:original-d="m 534.3504,288.94828 c -10.48401,16.65538 -33.32269,29.07073 -60.25632,31.36998 -8.4956,0.72529 -15.8229,-1.81859 -20.31391,-1.58202"
       inkscape:connector-curvature="0"
       sodipodi:nodetypes="csc" />
    <path
       style="fill:#cccccc;fill-rule:evenodd;stroke:none;stroke-width:1px;stroke-linecap:butt;stroke-linejoin:miter;stroke-opacity:1"
       d="m 459.44361,316.78175 c 1.24024,-0.18563 3.59479,4.09591 3.86874,11.93157 0.27595,7.89285 -1.75102,18.48678 -8.40718,28.8496 -4.99586,7.77792 -11.30672,13.3731 -17.36047,16.959 0,0 0,0 0,0 -3.92409,2.31032 -7.82736,3.15434 -10.5469,3.49754 -2.10586,0.33597 -4.78467,0.28527 -5.54943,0.2739 -1.21165,-0.018 -2.05057,-0.0707 -2.34274,-0.52765 -0.28956,-0.45283 0.0147,-1.30906 1.15378,-2.32899 1.33096,-1.19171 2.82093,-1.86962 5.0293,-2.98429 2.17349,-1.1433 5.36984,-2.73498 7.49959,-4.67531 0,0 0,0 0,0 4.62944,-3.94931 9.45249,-9.04671 13.6952,-15.63134 5.66605,-8.79363 8.34881,-17.16413 9.83752,-24.00358 1.4366,-6.60003 1.67578,-11.14391 3.12259,-11.36045 z"
       id="path4508-01-9-7"
       inkscape:path-effect="#path-effect4510-1-2-03"
       inkscape:original-d="m 459.44361,316.78175 c 3.03033,20.24679 -5.83091,41.35965 -24.27711,54.36777 -5.81839,4.10312 -12.88997,4.58862 -16.06087,6.61619"
       inkscape:connector-curvature="0"
       sodipodi:nodetypes="csc" />
    <path
       style="fill:#cccccc;fill-rule:evenodd;stroke:none;stroke-width:1px;stroke-linecap:butt;stroke-linejoin:miter;stroke-opacity:1"
       d="m 426.78492,375.41781 c 0.69683,-1.05875 5.1065,-0.13147 10.69031,4.42743 5.62841,4.59532 11.6723,12.43055 14.80063,23.31494 2.34643,8.16393 2.42411,15.92025 1.29999,22.26323 0,0 0,0 0,0 -0.73355,4.14603 -2.44975,7.37696 -3.837,9.48943 -2.16241,3.55037 -4.54207,5.35903 -5.01109,5.29739 -1.49899,-0.19701 -1.2709,-3.17896 -0.36228,-7.53028 0.42357,-2.20244 1.11853,-5.37839 0.98955,-7.97404 0,0 0,0 0,0 -0.0875,-5.5477 -0.77358,-11.92807 -2.72459,-18.78646 -2.61367,-9.18783 -6.55902,-16.02465 -10.23701,-21.24948 -3.52837,-5.01231 -6.40688,-8.03913 -5.60851,-9.25216 z"
       id="path4508-01-9-8"
       inkscape:path-effect="#path-effect4510-1-2-8"
       inkscape:original-d="m 426.78492,375.41781 c 15.35184,10.10392 24.48346,28.99005 22.68052,49.64685 -0.56867,6.51568 -4.28751,11.72042 -4.73768,15.14557"
       inkscape:connector-curvature="0"
       sodipodi:nodetypes="csc" />
    <path
       style="fill:#cccccc;fill-rule:evenodd;stroke:none;stroke-width:1px;stroke-linecap:butt;stroke-linejoin:miter;stroke-opacity:1"
       d="m 446.68741,441.53306 c -0.008,-1.26729 3.99767,-2.93929 10.90705,-2.27176 6.94647,0.67112 15.99686,3.7813 24.15172,11.00967 6.08823,5.39652 10.06205,11.68433 12.28023,17.48163 0,0 0,1e-5 0,1e-5 1.46026,3.8424 1.59171,7.3846 1.45049,9.81366 -0.0388,1.97866 -0.5414,4.13028 -0.71491,4.86168 -0.24709,1.04154 -0.47805,1.78936 -0.97373,2.00404 -1.39508,0.60422 -2.69585,-2.01034 -4.09708,-6.06824 -0.73844,-2.02387 -1.72115,-4.98171 -3.09549,-6.98103 0,0 0,0 0,0 -2.78303,-4.43706 -6.48204,-9.16776 -11.49488,-13.62586 -6.73206,-5.98707 -13.46137,-9.40766 -19.0913,-11.66571 -5.41948,-2.17365 -9.31339,-3.11026 -9.3221,-4.55809 z"
       id="path4508-01-9-0"
       inkscape:path-effect="#path-effect4510-1-2-6"
       inkscape:original-d="m 446.68741,441.53306 c 17.9324,-0.10791 34.95199,10.28401 43.62364,28.0346 2.73525,5.59897 2.16699,11.83918 3.47721,14.86433"
       inkscape:connector-curvature="0"
       sodipodi:nodetypes="csc" />
    <path
       style="fill:#cccccc;fill-rule:evenodd;stroke:none;stroke-width:1px;stroke-linecap:butt;stroke-linejoin:miter;stroke-opacity:1"
       d="m 494.98036,490.86013 c -0.96815,-0.53711 -0.33026,-4.64036 3.13541,-10.55727 3.42536,-5.84808 9.74056,-13.44424 19.60003,-18.95618 0,0 1e-5,-10e-6 1e-5,-10e-6 2.82404,-1.56145 5.87839,-2.89443 9.12787,-3.9367 10.10759,-3.24203 19.8427,-2.98788 27.59465,-1.05603 0,0 0,0 0,0 4.93811,1.27073 8.59178,3.88927 10.87324,5.82388 1.72461,1.34778 4.02576,3.87387 4.44731,4.31489 0.91561,0.9579 1.5469,1.59849 1.42346,2.12828 -0.12073,0.51816 -1.03601,0.89252 -2.72251,0.66639 -2.01625,-0.27034 -3.5899,-1.05107 -6.16448,-2.14049 -2.52638,-0.99756 -6.19168,-2.54391 -9.27808,-2.69781 0,1e-5 0,0 0,0 -6.7715,-0.61859 -14.78737,-0.19632 -23.12254,2.47561 -2.6871,0.86138 -5.22746,1.90173 -7.60714,3.08613 0,0 0,0 0,0 -8.37599,4.11274 -14.72757,9.8834 -19.12749,14.18341 -4.43577,4.33504 -7.06185,7.28608 -8.17974,6.6659 z"
       id="path4508-01-9-6"
       inkscape:path-effect="#path-effect4510-1-2-4"
       inkscape:original-d="m 494.98036,490.86013 c 12.38641,-22.327 34.75468,-34.67048 58.74744,-30.45862 7.56793,1.32849 13.48231,7.29394 17.45454,8.21948"
       inkscape:connector-curvature="0"
       sodipodi:nodetypes="csc" />
    <path
       style="fill:#cccccc;fill-rule:evenodd;stroke:none;stroke-width:1px;stroke-linecap:butt;stroke-linejoin:miter;stroke-opacity:1"
       d="m 564.47486,463.55942 c -1.00557,0.25774 -3.09593,-2.47913 -4.22296,-8.09545 -1.12936,-5.62792 -1.09555,-13.73511 2.19358,-22.67236 0,0 0,0 0,0 1.44479,-3.93225 3.40792,-7.85979 5.91641,-11.6714 4.83174,-7.34176 10.78453,-12.89815 16.34745,-16.79324 0,0 0,0 0,0 4.0089,-2.81455 8.14672,-4.26533 11.09196,-5.05869 2.28655,-0.67201 5.22508,-1.08172 6.14516,-1.20351 1.38214,-0.18295 2.30907,-0.23627 2.65101,0.21739 0.95369,1.2653 -1.78891,3.53879 -6.33441,6.49485 -2.3104,1.53526 -5.78539,3.72307 -8.18998,6.12286 0,0 0,0 0,0 -4.39333,4.22726 -9.24216,9.47624 -13.37739,15.72071 -2.16023,3.26209 -3.93466,6.50714 -5.37209,9.74144 0,0 0,1e-5 0,1e-5 -3.25123,7.32031 -4.4761,13.74066 -5.09068,18.80632 -0.59419,4.89764 -0.60892,8.09653 -1.75806,8.39107 z"
       id="path4508-01-9-60"
       inkscape:path-effect="#path-effect4510-1-2-7"
       inkscape:original-d="m 564.47486,463.55942 c -4.74458,-18.51081 3.53162,-40.12747 22.91635,-55.946 6.11433,-4.98958 13.85951,-6.80873 17.20626,-9.33126"
       inkscape:connector-curvature="0"
       sodipodi:nodetypes="csc" />
    <path
       style="fill:#cccccc;fill-rule:evenodd;stroke:none;stroke-width:1px;stroke-linecap:butt;stroke-linejoin:miter;stroke-opacity:1"
       d="m 595.15966,397.65443 c -0.68364,1.07486 -4.62048,0.49828 -9.57254,-3.4514 -4.97162,-3.96529 -10.22842,-10.94362 -12.53975,-20.62542 -1.68505,-7.05837 -1.34408,-13.71412 0.0495,-19.10978 0,0 0,0 0,0 0.96322,-3.72241 2.75953,-6.46559 4.17438,-8.21922 2.19104,-2.96276 4.6187,-4.31642 5.11955,-4.21421 0.54031,0.11026 0.96308,0.7961 1.00236,2.10356 0.0451,1.49959 -0.35899,2.86131 -0.84668,4.76777 -0.46139,1.93098 -1.22833,4.69502 -1.21142,6.85894 0,0 0,0 0,0 -0.17733,4.58798 0.13362,9.83689 1.46349,15.50247 1.83282,7.80831 4.9259,13.65216 7.88312,18.15672 2.8312,4.31262 5.25022,7.01637 4.47796,8.23057 z"
       id="path4508-01-9-5"
       inkscape:path-effect="#path-effect4510-1-2-97"
       inkscape:original-d="m 595.15966,397.65443 c -13.45944,-8.56054 -20.7456,-24.73794 -17.94367,-42.53818 0.88389,-5.61462 4.57223,-10.12899 5.17484,-13.08185"
       inkscape:connector-curvature="0"
       sodipodi:nodetypes="csc" />
    <path
       style="fill:#000000;fill-rule:evenodd;stroke:none;stroke-width:1px;stroke-linecap:butt;stroke-linejoin:miter;stroke-opacity:1"
       d="m 502.34005,330.28747 c 1.74277,1.06188 1.42432,4.98013 2.11558,8.48996 0,0 0,0 0,0 0.19587,1.21741 0.48962,2.4391 0.88211,3.92432 0.12599,0.47674 0.37409,1.39757 0.50147,1.87807 0,0 0,0 0,0 0.60879,2.24092 1.21979,4.12765 1.56919,6.27278 0.27261,1.50426 0.4216,3.01418 0.10146,4.31562 -0.30567,1.24258 -0.94625,1.84022 -1.70699,1.93844 -0.70915,0.0916 -1.5408,-0.25577 -2.30068,-0.64577 -0.70551,-0.3621 -1.88373,-1.02737 -2.88911,-2.26033 -1.33752,-1.41894 -2.88344,-3.52238 -4.05638,-6.29702 0,0 0,0 0,0 -0.35677,-0.83349 -0.66732,-1.72966 -0.91222,-2.68226 -0.57382,-2.23204 -0.71531,-4.49571 -0.45626,-6.62977 0,0 0,0 0,0 0.99794,-7.30643 5.72528,-9.17324 7.15183,-8.30404 z"
       id="path4339"
       inkscape:path-effect="#path-effect4341"
       inkscape:original-d="m 502.34005,330.28747 c -7.04579,11.56364 2.84593,22.04119 3.46282,26.81919"
       inkscape:connector-curvature="0" />
    <path
       style="fill:#d3ffd3;fill-opacity:1;fill-rule:evenodd;stroke:none;stroke-width:1px;stroke-linecap:butt;stroke-linejoin:miter;stroke-opacity:1"
       d="m 612.04671,305.96428 c 0.61496,-0.1559 1.8639,1.41405 3.02319,4.25023 1.20658,2.95193 2.11334,6.74148 2.59881,11.33753 0,0.0356 0.01,0.071 0.0116,0.10655 0.4543,4.29214 0.50255,8.68986 0.40036,11.41487 -0.10904,2.90908 -0.40876,4.75692 -1.06164,4.82828 -0.65241,0.0713 -1.53756,-1.66178 -2.29572,-4.56616 -0.80255,-3.07455 -1.31253,-6.75527 -1.79472,-11.32447 0,-0.0349 -0.01,-0.0697 -0.0116,-0.10451 -0.0627,-0.59078 -1.22453,-12.04808 -1.13334,-11.11001 -0.2753,-2.83342 -0.37566,-4.67047 0.26276,-4.83231 z"
       id="path4691"
       inkscape:connector-curvature="0" />
    <path
       style="fill:#d3ffd3;fill-opacity:1;fill-rule:evenodd;stroke:none;stroke-width:1px;stroke-linecap:butt;stroke-linejoin:miter;stroke-opacity:1"
       d="m 540.02461,251.71717 c 0.26855,-0.17592 4.31527,3.89429 6.62034,12.80067 0.93736,3.63059 1.48429,7.95268 1.15139,12.67448 -0.22194,3.13957 -0.82803,6.39596 -1.89884,9.62733 -0.15207,0.45905 -0.31206,0.91289 -0.47948,1.36127 -1.17107,3.14279 -2.70003,5.98308 -4.53016,8.43998 -1.56458,2.12511 -3.35524,3.92728 -5.43838,5.21138 0,0 0,0 0,0 -0.8479,0.52642 -1.77889,0.94141 -2.78176,1.17123 -0.86479,0.21046 -1.81112,0.20005 -2.7422,-0.0877 -0.95164,-0.32948 -1.7043,-0.95359 -2.21775,-1.70699 -0.65916,-1.00519 -0.95086,-2.05759 -1.06386,-2.9644 -0.20525,-1.50393 -0.0965,-2.89139 0.0618,-3.9716 0.48267,-3.36264 1.44598,-5.03524 1.69378,-4.97436 0.4294,0.10548 0.11328,1.95919 0.21287,5.10254 0.0347,0.9969 0.11048,2.21927 0.413,3.31553 0.19241,0.65559 0.43451,1.31338 0.81055,1.70862 0.24153,0.26751 0.56344,0.4807 0.87116,0.52761 0.33175,0.0897 0.76309,0.0169 1.25242,-0.11582 0.58543,-0.17275 1.17733,-0.51158 1.80996,-0.94397 0,-10e-6 9e-5,-10e-6 9e-5,-10e-6 1.57442,-1.08475 2.94214,-2.65484 4.30108,-4.57749 1.54103,-2.21068 2.84381,-4.75771 3.89262,-7.58901 0.1488,-0.4031 0.2917,-0.81091 0.42834,-1.22328 0.96148,-2.90088 1.54914,-5.82403 1.82926,-8.65173 0.4214,-4.24504 0.13017,-8.2056 -0.46925,-11.61835 -1.45978,-8.3401 -4.45374,-13.0397 -3.72694,-13.51595 z"
       id="path4703"
       inkscape:connector-curvature="0" />
    <path
       style="fill:#d3ffd3;fill-opacity:1;fill-rule:evenodd;stroke:none;stroke-width:1px;stroke-linecap:butt;stroke-linejoin:miter;stroke-opacity:1"
       d="m 483.8093,257.00028 c -0.25967,0.23122 -0.37575,-0.67896 -1.37759,-1.01833 -0.28333,-0.10781 -0.64284,-0.10194 -0.99083,0.0883 0,0 0,0 0,0 -0.33221,0.17103 -0.64147,0.4928 -0.97893,0.94137 -0.32941,0.44913 -0.62433,0.99243 -0.91088,1.64476 0,0 -10e-6,0 -10e-6,0 -0.49621,1.14558 -0.93045,2.55786 -1.07016,4.09782 -0.0479,0.57898 -0.0644,1.15642 0.0245,1.65221 0.0787,0.36745 0.16888,0.6971 0.30636,0.80816 0.0304,0.0525 0.13714,0.0875 0.27198,0.13351 0.17311,0.0506 0.3963,0.0355 0.66631,0.01 0.6148,-0.0686 1.24929,-0.30735 2.01982,-0.55129 0.56254,-0.20653 1.30604,-0.47195 2.21205,-0.43248 0.32972,-0.0249 0.77331,0.15945 1.26283,0.64445 0.45189,0.6595 0.6417,1.3351 0.60078,1.89465 0,0 0,0 0,0 -0.01,0.9025 -0.14551,1.68996 -0.31727,2.35262 -0.21808,0.90493 -0.48615,1.75317 -0.76743,2.5771 -0.72246,2.1258 -1.44019,3.91993 -2.2224,6.05342 -0.7894,2.15858 -1.57507,4.41881 -2.16698,6.72674 -0.34846,1.37852 -0.64864,2.7867 -0.81468,4.18655 -0.0919,0.77423 -0.14177,1.53823 -0.1388,2.29143 0.008,0.59496 0.066,1.14558 0.22148,1.57483 0,0 0,0 0,0 0.12471,0.37884 0.33182,0.72857 0.57943,0.99824 0.57225,0.69827 1.54325,0.94203 2.53426,1.07378 1.31119,0.12484 2.66685,-0.15896 3.9623,-0.58885 1.54411,-0.52237 2.98807,-1.29634 4.29674,-2.22621 0,0 0,0 0,0 1.41992,-1.01548 2.64213,-2.16881 3.63941,-3.49691 1.01918,-1.3726 1.75669,-2.80517 2.11488,-4.31117 0.19618,-0.80148 0.28717,-1.60628 0.28302,-2.37037 0,-0.9155 -0.14348,-1.80008 -0.34612,-2.58291 -0.51066,-2.01582 -1.55309,-3.70633 -2.11701,-4.61083 -0.6334,-1.01611 -0.99815,-1.55518 -0.91101,-1.69962 0.0704,-0.11698 0.59277,0.1574 1.42079,0.99072 0.75817,0.76295 2.04329,2.2879 2.88868,4.6174 0.32365,0.90601 0.57849,1.97635 0.66495,3.16677 0.0695,0.99347 0.0193,2.05183 -0.17909,3.12081 -0.37634,1.97753 -1.18429,3.86683 -2.33384,5.53958 -1.10641,1.62617 -2.45995,3.04751 -4.01613,4.25139 0,0 0,0 0,0 -1.43266,1.11444 -3.03468,2.05343 -4.77497,2.7073 -1.44829,0.55274 -3.05378,0.91746 -4.73464,0.81748 -1.28342,-0.0392 -2.73415,-0.49461 -3.99716,-1.75942 -0.55486,-0.58881 -1.00826,-1.34804 -1.31458,-2.23079 0,0 0,0 0,0 -0.32716,-0.9835 -0.46685,-2.00469 -0.4596,-2.98122 0.003,-0.94859 0.063,-1.88705 0.16928,-2.81347 0.19233,-1.67654 0.53211,-3.27894 0.93267,-4.77727 0.66697,-2.52727 1.51393,-4.90097 2.35496,-7.09208 0.85711,-2.23891 1.55299,-3.87025 2.29959,-5.91555 0.28082,-0.77315 0.53284,-1.49596 0.72274,-2.21373 0.13683,-0.56505 0.25388,-1.01596 0.24799,-1.37576 0,0 0,0 0,0 -0.0405,-0.0211 0.0318,0.0447 0.16317,0.31926 0.17013,0.10231 0.17649,0.1585 0.083,0.0891 -0.38038,-0.0897 -0.93406,0.11635 -1.58017,0.26382 -0.74321,0.19959 -1.5055,0.41314 -2.35618,0.46572 -0.37953,0.0281 -0.79993,-0.004 -1.24345,-0.14455 -0.41506,-0.12438 -0.8287,-0.41742 -1.18716,-0.88068 -0.47553,-0.70237 -0.70341,-1.49114 -0.76395,-2.20708 -0.0894,-0.88983 -0.0323,-1.71857 0.0831,-2.44273 0.2922,-1.90809 0.91776,-3.51445 1.59917,-4.75155 0,0 0,0 0,0 0.38944,-0.71569 0.81729,-1.32476 1.28241,-1.81995 0.46582,-0.50625 0.97895,-0.85809 1.5085,-1.02352 0,0 10e-6,0 10e-6,0 0.61401,-0.1853 1.17519,-0.0216 1.58206,0.26809 1.18366,0.89604 1.03805,1.98135 1.07201,1.95102 z"
       id="path4711"
       inkscape:connector-curvature="0" />
    <path
       style="fill:#d3ffd3;fill-opacity:1;fill-rule:evenodd;stroke:none;stroke-width:1px;stroke-linecap:butt;stroke-linejoin:miter;stroke-opacity:1"
       d="m 434.80736,323.26648 c 0.26539,0.0633 0.49811,1.26308 1.2083,2.57492 0,0 0,0 0,0 0.43913,0.80057 0.94746,1.47765 1.73591,2.45518 0.71177,0.86791 1.40657,1.62233 2.3131,2.61828 0.51527,0.56431 1.09053,1.19158 1.64743,1.83024 0.24762,0.28398 0.4913,0.56973 0.73123,0.86016 0.68938,0.82423 1.34892,1.69452 1.91917,2.73854 0.23563,0.42366 0.45497,0.92014 0.62686,1.49223 0.15896,0.49073 0.23305,1.09462 0.19235,1.76135 -0.0729,0.70584 -0.2964,1.28733 -0.60417,1.72318 -0.41435,0.56011 -0.84344,0.87911 -1.21271,1.05685 0,0 0,0 0,0 -2.42875,1.21893 -3.89369,0.25208 -3.92335,0.005 -0.10116,-0.84381 1.37779,-0.89459 2.92881,-2.41697 0,0 0,0 0,0 0.19233,-0.20347 0.35434,-0.37928 0.37986,-0.52235 0.003,-0.0622 -7e-5,-0.10786 -0.0339,-0.0778 -0.002,-0.002 -0.0557,-0.0841 -0.10963,-0.2437 -0.0811,-0.19983 -0.22041,-0.41877 -0.39737,-0.69903 -0.4549,-0.70408 -1.01407,-1.3329 -1.69581,-2.13126 -0.23218,-0.26824 -0.46334,-0.53276 -0.70563,-0.81051 -0.55731,-0.63884 -1.09001,-1.25248 -1.61919,-1.89987 -0.86407,-1.05444 -1.62085,-2.07962 -2.27858,-3.17087 -0.74157,-1.21395 -1.25699,-2.40506 -1.54371,-3.57982 0,0 0,0 0,0 -0.6207,-2.4437 0.2084,-3.61879 0.44102,-3.56334 z"
       id="path4715"
       inkscape:connector-curvature="0" />
    <path
       style="fill:#d3ffd3;fill-opacity:1;fill-rule:evenodd;stroke:none;stroke-width:1px;stroke-linecap:butt;stroke-linejoin:miter;stroke-opacity:1"
       d="m 511.79889,429.76557 c 0.79532,0.71421 -2.16477,3.49234 -3.33931,9.4583 0,0 0,1e-5 0,1e-5 -0.32586,1.71461 -0.46723,3.78505 0.18382,5.46274 0.41455,1.16976 1.21575,2.26527 2.25683,3.03508 0.88622,0.64568 1.93348,1.09817 2.99377,1.18979 0.0936,0.007 0.18556,0.0122 0.27588,0.015 0.32924,0.0104 0.63021,-0.0107 0.89036,-0.0853 0.27356,-0.0941 0.48296,-0.16557 0.55157,-0.26363 0.0444,-0.0317 0.0936,-0.11858 0.0984,-0.16736 0.0656,-0.13098 -0.026,-0.44544 -0.13056,-0.84901 -0.20109,-0.63444 -0.60917,-1.28107 -1.05903,-1.9377 -0.71301,-1.01581 -1.57316,-1.95063 -2.41161,-2.80323 -2.41933,-2.45465 -5.30164,-4.74748 -6.81353,-6.01624 -1.71858,-1.44222 -2.67803,-2.36082 -2.52238,-2.67782 0.14513,-0.29563 1.38615,0.0433 3.39345,1.02235 1.9161,0.9346 4.88545,2.6401 7.83068,5.16518 0.97942,0.83821 2.01868,1.83783 2.97137,3.0457 0.60532,0.75219 1.21208,1.68022 1.66136,2.82551 0.31216,0.7364 0.49251,1.694 0.37913,2.81008 -0.13384,0.91368 -0.52966,1.73871 -1.15099,2.36927 -0.64083,0.60807 -1.33723,0.97418 -2.00537,1.13215 -0.60656,0.15764 -1.20512,0.21728 -1.78033,0.19873 -0.15777,-0.005 -0.31323,-0.0161 -0.46598,-0.0323 -1.71549,-0.17105 -3.2929,-0.86754 -4.59163,-1.88817 -1.6023,-1.24591 -2.74586,-2.9933 -3.3312,-4.90016 -0.79126,-2.76222 -0.44514,-5.43831 0.20688,-7.47673 0,0 0,0 0,0 2.11749,-6.70928 5.87473,-8.6626 5.9084,-8.63234 z"
       id="path4719"
       inkscape:connector-curvature="0" />
    <path
       style="fill:#d3ffd3;fill-opacity:1;fill-rule:evenodd;stroke:none;stroke-width:1px;stroke-linecap:butt;stroke-linejoin:miter;stroke-opacity:1"
       d="m 508.65952,424.53265 c 0.93523,0 1.69426,0.87914 1.69426,1.96235 0,1.08322 -0.75903,1.96235 -1.69426,1.96235 -0.93533,0 -1.69436,-0.87913 -1.69436,-1.96235 0,-1.08321 0.75903,-1.96235 1.69436,-1.96235 z"
       id="path4731"
       inkscape:connector-curvature="0" />
    <path
       style="fill:#d3ffd3;fill-opacity:1;fill-rule:evenodd;stroke:none;stroke-width:1px;stroke-linecap:butt;stroke-linejoin:miter;stroke-opacity:1"
       d="m 501.98823,424.53265 c 0.93523,0 1.69426,1.17217 1.69426,2.61646 0,1.44429 -0.75903,2.61646 -1.69426,2.61646 -0.93524,0 -1.69427,-1.17217 -1.69427,-2.61646 0,-1.44429 0.75903,-2.61646 1.69427,-2.61646 z"
       id="path4735"
       inkscape:connector-curvature="0" />
    <path
       style="fill:#b3b3b3;fill-rule:evenodd;stroke:none;stroke-width:1px;stroke-linecap:butt;stroke-linejoin:miter;stroke-opacity:1"
       d="m 302.85129,100.93074 c 1.08876,-0.82638 27.27005,31.26452 67.08112,85.05257 57.27899,77.38864 75.516,105.74048 152.20788,212.24175 0.39992,0.55537 0.79966,1.11032 1.19922,1.66486 63.50097,88.11453 110.92807,149.34874 158.37423,205.42736 42.82655,50.61851 71.49595,80.06566 70.37241,81.17887 -0.82893,0.82131 -31.30246,-26.89984 -75.68991,-76.55393 -47.90299,-53.58675 -98.63955,-117.43423 -161.16946,-204.20589 -0.40034,-0.55544 -0.80082,-1.11132 -1.20142,-1.66763 C 470.39697,343.48351 386.7817,222.42423 364.19377,190.11174 c -38.27801,-54.75749 -62.45198,-88.33888 -61.34248,-89.181 z"
       id="path4428"
       inkscape:path-effect="#path-effect4430"
       inkscape:original-d="m 302.85129,100.93074 c 150.2023,197.89192 277.20436,411.9393 449.23486,585.56541"
       inkscape:connector-curvature="0" />
    <path
       style="fill:#b3b3b3;fill-rule:evenodd;stroke:none;stroke-width:1px;stroke-linecap:butt;stroke-linejoin:miter;stroke-opacity:1"
       d="m 240.27131,348.48394 c 0.27304,-1.43822 31.78804,3.58811 82.73902,11.05938 54.17167,7.94354 118.15977,16.80327 199.42947,25.97572 156.11959,17.62034 283.4785,25.82819 283.2863,29.0061 -0.14064,2.32546 -127.84024,-1.39394 -284.40798,-19.06896 -79.79201,-9.00777 -147.13648,-19.38055 -199.45594,-28.93862 -50.77166,-9.27531 -81.83258,-16.76046 -81.59087,-18.03362 z"
       id="path4436"
       inkscape:path-effect="#path-effect4438"
       inkscape:original-d="m 240.27131,348.48394 c 186.28844,35.36678 378.41899,54.72933 565.45479,66.0412"
       inkscape:connector-curvature="0" />
    <path
       style="fill:#cccccc;fill-rule:evenodd;stroke:none;stroke-width:1px;stroke-linecap:butt;stroke-linejoin:miter;stroke-opacity:1"
       d="m 623.77589,10.674428 c 0.96157,0.423694 -6.33647,18.182003 -17.84035,49.480189 -11.73865,31.936884 -26.88058,75.535993 -42.3391,130.799873 -14.95167,53.45162 -28.56861,111.86655 -41.15413,178.71937 -0.19234,1.02171 -0.38392,2.04257 -0.57473,3.06255 -17.71666,94.69382 -31.51258,198.64299 -39.90217,259.17921 -9.22136,66.53791 -15.39954,107.59898 -16.87445,107.41346 -1.24896,-0.1571 2.4558,-41.51342 9.88455,-108.28646 7.00049,-62.92364 18.89651,-162.87987 37.06268,-260.14364 0.1913,-1.02413 0.38348,-2.04914 0.57656,-3.075 12.59779,-66.9347 26.82549,-125.9557 42.6109,-179.27928 16.32485,-55.14564 32.82094,-98.940972 45.95295,-130.260723 12.94681,-30.878064 21.85089,-47.938433 22.59729,-47.609549 z"
       id="path4432"
       inkscape:path-effect="#path-effect4434"
       inkscape:original-d="M 623.77589,10.674428 C 519.72212,246.8234 495.86329,494.68928 465.09096,739.32908"
       inkscape:connector-curvature="0" />
    <path
       style="fill:#b3b3b3;fill-rule:evenodd;stroke:none;stroke-width:1px;stroke-linecap:butt;stroke-linejoin:miter;stroke-opacity:1"
       d="m 220.15632,596.2398 c -0.79667,-1.32709 35.27411,-23.62475 91.66949,-62.36047 61.86262,-42.49096 127.49611,-90.47783 215.12209,-158.75309 0.7418,-0.57799 1.48287,-1.15562 2.22319,-1.73288 -30.2857,23.61685 266.8045,-210.54699 208.405,-164.84897 53.56596,-41.91574 87.40258,-66.88497 88.26501,-65.78755 0.83521,1.06279 -31.45096,27.98057 -83.84973,71.27805 -45.8431,37.88047 -131.42477,108.54195 -206.67029,167.2434 -0.74135,0.5784 -1.48351,1.1571 -2.22647,1.73609 -86.16623,67.14954 -155.91138,116.89479 -217.34467,156.74328 -57.58495,37.35227 -94.97041,57.52028 -95.59362,56.48214 z"
       id="path4424"
       inkscape:path-effect="#path-effect4426"
       inkscape:original-d="M 220.15632,596.2398 C 437.23583,465.9231 633.42126,293.97356 825.8411,142.75684"
       inkscape:connector-curvature="0" />
    <path
       style="fill:#000000;fill-rule:evenodd;stroke:none;stroke-width:1px;stroke-linecap:butt;stroke-linejoin:miter;stroke-opacity:1"
       d="m 607.3497,322.42165 c 1.20642,0.40499 1.22383,12.17643 -10.96395,25.01587 -5.34486,5.60183 -12.04791,10.4283 -20.06337,14.65214 -0.47878,0.2523 -0.95694,0.49969 -1.43405,0.74232 -8.12172,4.15357 -17.01379,7.5343 -23.40556,9.93283 0.54416,-0.20613 -18.77061,6.9925 -15.47229,5.77501 -3.72224,1.37397 -6.02425,2.10072 -6.55325,1.36642 -0.50659,-0.70319 0.84412,-2.80269 4.06126,-5.56009 3.41147,-2.92397 8.03779,-5.87755 14.49387,-9.27581 12.98608,-6.87981 7.90742,-3.6211 22.29119,-11.11999 0.44431,-0.23302 0.88936,-0.46806 1.33452,-0.70511 7.52593,-4.00763 13.50987,-7.77137 18.67234,-12.18047 5.53626,-4.69155 9.28801,-9.5212 11.93755,-13.11818 2.62827,-3.56811 4.15479,-5.84283 5.10174,-5.52494 z"
       id="path4319"
       inkscape:path-effect="#path-effect4321"
       inkscape:original-d="m 607.3497,322.42165 c -12.09992,36.04381 -54.61262,40.71337 -77.89247,57.48459"
       inkscape:connector-curvature="0" />
    <path
       style="fill:#000000;fill-rule:evenodd;stroke:none;stroke-width:1px;stroke-linecap:butt;stroke-linejoin:miter;stroke-opacity:1"
       d="m 523.86427,380.35033 c 0.61233,0.69751 -3.16758,4.81397 -9.69673,12.08437 -5.92259,6.59498 -16.40744,18.24372 -23.81158,31.78044 -2.52319,4.62128 -4.88213,9.75355 -6.08985,15.10129 -0.81804,3.685 -1.19755,7.54346 -0.52735,11.10101 0.49784,2.77513 1.60639,5.50836 3.31011,7.76458 1.57509,2.14144 3.75914,3.97665 6.26725,5.44418 2.57339,1.50154 5.52227,2.55991 8.65944,3.25262 3.08511,0.6727 6.31922,0.94199 9.59635,0.83222 0.12163,-0.004 0.24322,-0.009 0.36477,-0.0138 3.41829,-0.15026 6.76534,-0.70925 9.92299,-1.67912 3.12648,-0.96839 6.03743,-2.29237 8.55292,-4.02157 2.46961,-1.70255 4.58612,-3.74521 6.08575,-6.0551 1.61156,-2.42858 2.60986,-5.26901 2.97966,-8.11586 0.49934,-3.58856 -0.0451,-7.40974 -1.03768,-11.02247 -1.44255,-5.19156 -4.02887,-10.10499 -6.76375,-14.49655 -4.3211,-6.90505 -9.54401,-13.04525 -14.02967,-17.96599 -13.04152,-14.29015 -22.51765,-21.48704 -21.51468,-22.80653 0.49987,-0.65762 11.35692,4.67141 26.13027,18.18931 5.1175,4.67707 11.02793,10.71799 16.21322,18.04112 3.29045,4.62744 6.4726,10.11659 8.54385,16.41532 1.4642,4.42155 2.28804,9.43246 1.80139,14.68761 -0.42003,4.23664 -1.79855,8.47375 -4.183,12.28593 -2.24274,3.53472 -5.19989,6.55261 -8.61189,8.93186 -3.43426,2.39989 -7.23601,4.20662 -11.21292,5.44403 -4.00675,1.25488 -8.19661,1.97726 -12.44428,2.15862 -0.15098,0.007 -0.30209,0.0127 -0.4533,0.018 -4.07466,0.143 -8.14183,-0.21727 -12.08751,-1.0962 -4.02173,-0.8872 -7.92606,-2.36481 -11.51037,-4.48496 -3.54174,-2.09073 -6.67069,-4.8748 -9.10368,-8.24085 -2.59803,-3.65486 -4.18013,-7.79753 -4.79516,-11.97442 -0.73952,-5.24968 -0.1436,-10.3079 1.09981,-14.7985 1.77163,-6.46759 4.68407,-12.19131 7.73651,-17.06521 9.00801,-14.39696 20.51006,-25.07902 27.62589,-31.0222 7.62724,-6.37034 12.47502,-9.25207 12.98322,-8.67318 z"
       id="path4365"
       inkscape:path-effect="#path-effect4367"
       inkscape:original-d="m 523.86427,380.35033 c -146.70323,128.78845 124.71658,117.06293 -27.73205,1.18374"
       inkscape:connector-curvature="0"
       sodipodi:nodetypes="cc" />
    <path
       style="fill:#000000;fill-rule:evenodd;stroke:none;stroke-width:1px;stroke-linecap:butt;stroke-linejoin:miter;stroke-opacity:1"
       d="m 483.07347,417.30899 c 0.55412,0.75824 -0.8843,2.7045 -3.16049,5.88848 -2.52332,3.52967 -5.16966,7.38614 -8.55708,13.59192 -3.52629,6.5051 -6.47942,13.21699 -9.97838,21.93708 -0.0271,0.0675 -0.0541,0.13495 -0.0812,0.20238 -4.12242,10.31552 -5.59939,14.72814 -9.17347,23.39239 -5.2085,12.64568 -9.87198,20.60892 -11.71976,19.82279 -1.41861,-0.60354 0.22151,-9.53439 3.6959,-22.53339 1.84841,-6.94041 4.4566,-15.70614 7.90837,-24.38492 0.0279,-0.0703 0.0558,-0.1406 0.0838,-0.21095 3.53184,-8.86944 7.46422,-16.39419 12.02489,-22.77767 4.31015,-6.06895 8.69251,-10.16552 12.36789,-12.63114 3.59817,-2.41382 6.0793,-2.99507 6.58947,-2.29697 z"
       id="path4397"
       inkscape:path-effect="#path-effect4399"
       inkscape:original-d="m 483.07347,417.30899 c -24.04556,17.5724 -32.18858,60.19805 -42.67035,84.83504"
       inkscape:connector-curvature="0" />
    <path
       style="fill:#000000;fill-rule:evenodd;stroke:none;stroke-width:1px;stroke-linecap:butt;stroke-linejoin:miter;stroke-opacity:1"
       d="m 540.75749,415.75238 c 0.54018,-0.69095 3.02118,-0.0726 6.4983,2.51715 3.51473,2.61778 7.71194,7.0552 11.31196,13.57525 3.54938,6.39429 6.2071,13.76033 8.19504,22.2334 0.0981,0.41826 0.19372,0.83518 0.28687,1.25056 1.91945,8.48953 3.03115,17.26137 3.74814,23.74337 0.55198,4.85764 1.21671,12.48314 1.37471,14.72008 0.24995,3.53862 0.23437,5.71192 -0.59754,6.01692 -1.94901,0.71457 -5.81858,-6.89771 -8.99552,-19.21731 -2.10081,-8.07453 -3.01236,-13.34224 -5.2725,-23.02564 -0.0929,-0.39465 -0.18649,-0.79032 -0.28088,-1.18654 -1.94749,-8.17541 -3.77666,-14.61546 -6.26992,-20.76522 -2.52149,-6.18708 -5.00244,-10.40152 -7.1849,-13.86744 -2.04671,-3.25033 -3.40836,-5.23402 -2.81376,-5.99458 z"
       id="path4393"
       inkscape:path-effect="#path-effect4395"
       inkscape:original-d="m 540.75749,415.75238 c 24.30116,18.99851 22.54852,61.50277 30.81748,84.05673"
       inkscape:connector-curvature="0" />
    <path
       style="fill:#000000;fill-rule:evenodd;stroke:none;stroke-width:1px;stroke-linecap:butt;stroke-linejoin:miter;stroke-opacity:1"
       d="m 489.30483,402.65898 c -0.50336,2.28568 -8.69281,0.77562 -18.85648,4.87935 -4.60661,1.79121 -9.00725,4.49741 -14.16403,8.21003 -0.16958,0.12209 -0.3388,0.2444 -0.50761,0.36683 -6.67615,4.89135 -8.95988,7.10412 -15.03767,11.31701 -4.83376,3.3779 -8.93839,5.55889 -12.38783,6.73224 -3.31463,1.12749 -5.42077,1.10417 -5.80464,0.2984 -0.39827,-0.83598 0.94127,-2.34653 3.23202,-4.57818 -0.22372,0.21795 8.11125,-7.75084 9.54539,-9.11017 3.70258,-3.53861 8.94094,-8.55861 14.51341,-12.70264 0.18492,-0.13877 0.3712,-0.27712 0.55886,-0.41498 5.64664,-4.14847 11.47827,-7.07615 17.43921,-8.56041 14.06549,-3.36984 21.70801,2.47888 21.46937,3.56252 z"
       id="path4389"
       inkscape:path-effect="#path-effect4391"
       inkscape:original-d="m 489.30483,402.65898 c -30.44427,-6.70459 -44.6304,21.26208 -66.75826,31.80386"
       inkscape:connector-curvature="0" />
    <path
       style="fill:#000000;fill-rule:evenodd;stroke:none;stroke-width:1px;stroke-linecap:butt;stroke-linejoin:miter;stroke-opacity:1"
       d="m 530.18171,403.05267 c -0.32502,-0.93391 3.84322,-4.95659 13.20053,-6.00679 3.77126,-0.41118 8.23211,-0.20023 12.96826,1.15077 0,0 10e-6,0 10e-6,0 6.78659,1.99796 13.19113,5.85944 19.10043,11.20824 0.64699,0.58563 1.27538,1.17749 1.88535,1.77257 6.15045,5.92613 11.59643,13.00158 15.33324,17.8521 2.95683,3.82459 4.04607,5.27878 6.36792,8.1625 3.51555,4.34087 5.94585,6.96373 5.42232,7.88898 -0.56158,0.99249 -4.32791,0.2449 -9.54623,-3.42226 -2.65513,-1.85657 -5.35362,-4.16574 -8.39837,-7.09379 -1.13385,-1.08707 -13.94904,-14.17878 -16.0548,-16.14605 -0.56418,-0.51979 -1.13541,-1.03856 -1.71239,-1.55246 -5.30127,-4.72176 -10.11833,-8.14965 -15.26747,-10.19622 0,0 0,0 0,0 -3.51594,-1.44388 -6.95492,-2.18384 -10.02001,-2.51971 -7.66147,-0.86453 -12.72021,0.50713 -13.27879,-1.09788 z"
       id="path4385"
       inkscape:path-effect="#path-effect4387"
       inkscape:original-d="m 530.18171,403.05267 c 37.9067,-13.19254 53.91159,30.5045 74.27806,42.02837"
       inkscape:connector-curvature="0" />
    <path
       style="fill:#000000;fill-rule:evenodd;stroke:none;stroke-width:1px;stroke-linecap:butt;stroke-linejoin:miter;stroke-opacity:1"
       d="m 562.09268,257.75686 c 1.49736,0.45357 -2.95601,22.06577 -12.56662,54.07934 -3.39044,11.30006 -7.6872,24.84386 -12.9985,38.2632 -3.02378,7.70323 -6.58823,16.21176 -11.79036,24.0622 -0.387,0.59208 -0.79549,1.18921 -1.22863,1.78636 -1.35439,1.86725 -2.93107,3.7088 -4.82556,5.39984 -1.78054,1.67855 -4.22999,3.123 -7.30404,3.84617 -2.92359,0.51233 -5.72332,0.046 -8.07694,-1.16597 0,0 -10e-6,0 -10e-6,0 -2.81019,-1.49438 -4.89951,-3.44157 -6.43164,-5.35537 -5.15116,-6.22525 -8.29326,-13.33263 -10.81531,-19.49013 -4.65573,-11.12165 -8.25471,-22.48328 -11.02127,-31.71301 0,0 0,0 0,0 -8.04693,-26.815 -11.45116,-44.40385 -10.13474,-44.80694 1.68336,-0.51544 7.77737,16.28548 17.50203,42.3302 0,0 0,10e-6 0,10e-6 3.30148,8.83582 7.47222,20.09346 12.20526,30.45065 2.77109,5.94817 5.63122,12.25113 9.72918,16.84913 1.22647,1.31402 2.31469,2.43499 3.37489,2.8642 0,-1e-5 10e-6,0 10e-6,0 0.63461,0.27303 1.31677,0.43207 1.70718,0.27842 0.66245,-0.0276 1.55338,-0.72133 2.67368,-1.59101 1.16758,-0.99888 2.23451,-2.29695 3.30576,-3.77599 0.34247,-0.47285 0.68409,-0.96238 1.0274,-1.4629 4.54336,-6.72989 7.90849,-14.65589 11.07731,-22.17719 5.33425,-12.75764 10.18993,-26.34169 14.1,-37.20421 11.25488,-31.27802 18.65434,-52.02333 20.49092,-51.467 z"
       id="path4327"
       inkscape:path-effect="#path-effect4329"
       inkscape:original-d="m 562.09268,257.75686 c -48.81751,161.15926 -56.63632,157.35938 -97.19362,24.90569"
       inkscape:connector-curvature="0"
       sodipodi:nodetypes="cc" />
    <path
       style="fill:#000000;fill-rule:evenodd;stroke:none;stroke-width:1px;stroke-linecap:butt;stroke-linejoin:miter;stroke-opacity:1"
       d="m 510.73021,330.13904 c 0.11979,-0.87845 3.213,-3.25232 8.83073,-0.6713 2.03561,1.00785 4.0983,2.86035 5.33317,5.70998 0.96481,2.41831 1.30069,4.98796 1.05045,7.42264 -0.17565,2.07127 -0.60876,4.07453 -1.23001,5.99356 -0.13468,0.41603 -0.27617,0.82189 -0.42282,1.21729 -1.87148,5.09335 -4.60105,9.32856 -6.75912,12.1945 -1.23262,1.65616 -2.53108,3.13146 -3.44592,4.07379 -1.06157,1.33276 -2.94906,2.1964 -3.35648,2.1964 -1.10612,0 -1.73089,-1.6608 -1.42029,-4.28073 0.15505,-1.65151 0.60261,-3.45491 1.25626,-5.55124 1.65792,-5.34416 2.30874,-5.96554 4.30485,-11.95035 0.10734,-0.3258 0.21371,-0.65088 0.3168,-0.97211 0.47804,-1.48956 0.85632,-2.80779 1.07296,-4.06242 0.20881,-1.45759 0.37273,-2.54811 0.22064,-3.42176 -0.0283,-0.85982 -0.47787,-1.83098 -1.02861,-2.5962 -2.05626,-2.87979 -4.9897,-3.34338 -4.72261,-5.30205 z"
       id="path4335"
       inkscape:path-effect="#path-effect4337"
       inkscape:original-d="m 510.73021,330.13904 c 23.60311,3.21861 0,32.10472 0,38.13686"
       inkscape:connector-curvature="0" />
    <path
       style="fill:#000000;fill-rule:evenodd;stroke:none;stroke-width:1px;stroke-linecap:butt;stroke-linejoin:miter;stroke-opacity:1"
       d="m 491.09691,373.29241 c 0.57056,0.89019 -1.63536,5.25706 -9.0978,7.70979 -2.99489,0.96317 -6.67117,1.42384 -10.69579,0.84156 0,0 0,0 0,0 -4.74178,-0.7458 -9.39222,-2.66918 -13.712,-5.60884 -1.54135,-1.0489 -2.96086,-2.17269 -4.25815,-3.32328 -5.18142,-4.51009 -9.09678,-9.64012 -11.63287,-13.42203 -1.38148,-2.04508 -2.68229,-4.24386 -3.42875,-5.58316 -1.25537,-1.98439 -1.75629,-3.96514 -1.57246,-4.38582 0.41497,-0.94958 2.40075,-0.76328 5.07221,0.91026 1.70651,1.0219 3.41546,2.36526 5.47217,4.11658 2.6688,2.2649 8.63084,7.80405 12.39939,10.75072 1.17158,0.89574 2.3869,1.79443 3.61777,2.63977 3.47585,2.38716 6.63917,4.04634 9.85432,4.90246 0,0 10e-6,0 10e-6,0 2.63718,0.75806 5.19406,0.98566 7.4676,0.91831 5.77045,-0.12995 9.57441,-1.93283 10.51435,-0.46632 z"
       id="path4361"
       inkscape:path-effect="#path-effect4363"
       inkscape:original-d="M 491.09691,373.29241 C 464.04137,390.6333 443.99467,352.70879 436.69909,349.52063"
       inkscape:connector-curvature="0" />
    <text
       xml:space="preserve"
       style="font-style:normal;font-weight:normal;font-size:38.30662918px;line-height:125%;font-family:sans-serif;letter-spacing:0px;word-spacing:0px;fill:#000000;fill-opacity:1;stroke:none;stroke-width:1px;stroke-linecap:butt;stroke-linejoin:miter;stroke-opacity:1"
       x="448.05673"
       y="503.61194"
       id="text4401"
       sodipodi:linespacing="125%"
       transform="scale(1.0076085,0.99244895)"><tspan
         sodipodi:role="line"
         id="tspan4403"
         x="448.05673"
         y="503.61194"
         style="font-style:normal;font-variant:normal;font-weight:bold;font-stretch:normal;font-family:Ouhod;-inkscape-font-specification:'Ouhod Bold'"></tspan></text>
  </g>
</svg>
