<?xml version="1.0" standalone="no"?>
<!DOCTYPE svg PUBLIC "-//W3C//DTD SVG 1.1//EN" "http://www.w3.org/Graphics/SVG/1.1/DTD/svg11.dtd" >
<svg xmlns="http://www.w3.org/2000/svg" xmlns:xlink="http://www.w3.org/1999/xlink" version="1.1">
<metadata>
Created by FontForge 20161116 at Sun Nov  4 21:09:43 2012
 By Jimmy Wärting
(cc)
</metadata>
<defs>
<font id="WASMFONTregular-regular" horiz-adv-x="0" >
  <font-face 
    font-family="Wasm font regular"
    font-weight="400"
    font-stretch="normal"
    units-per-em="1000"
    panose-1="2 10 5 3 2 1 2 2 2 4"
    ascent="800"
    descent="-200"
    bbox="-114 -552 1160 918"
    underline-thickness="50"
    underline-position="-100"
    unicode-range="U+000D-FEFF"
  />
<missing-glyph horiz-adv-x="500" 
d="M63 0v750h375v-750h-375zM125 63h250v625h-250v-625z" />
    <glyph glyph-name="shaddakasraarabic" unicode="&#x650;&#x651;" arabic-form="isolated" 
d="M254 635l-152 -26l-26 22l148 25zM261 737q-8 -27 -26.5 -39t-35.5 -12q-13 0 -26 6t-22 19l-1 -1q-15 -21 -45 -24q-20 -1 -39.5 14.5t-19.5 50.5v57h29v-50q0 -45 32 -45q19 0 32 19v76h29v-50q0 -45 32 -45q20 0 33 19v76h28v-71z" />
    <glyph glyph-name="shaddakasratanarabic" unicode="&#x64d;&#x651;" arabic-form="isolated" 
d="M284 778q-8 -27 -26.5 -38.5t-35.5 -11.5q-13 0 -26 5.5t-22 18.5l-1 -1q-16 -21 -45 -23q-20 -2 -39.5 13.5t-19.5 50.5v57h29v-50q0 -45 32 -45q19 0 32 19v76h29v-50q0 -45 32 -45q20 0 33 19v76h28v-71zM255 683l-151 -27l-26 22l147 25zM275 634l-151 -26l-26 22
l147 25z" />
    <glyph glyph-name="shaddafathaarabic" unicode="&#x64e;&#x651;" arabic-form="isolated" 
d="M237 798l-151 -26l-26 21l148 25zM261 659q-8 -27 -26.5 -38.5t-35.5 -11.5q-13 0 -26 5.5t-22 18.5l-1 -1q-16 -20 -45 -23q-10 -1 -20.5 2.5t-19 11.5t-14 20.5t-5.5 30.5v56h29v-49q0 -46 32 -46q20 0 32 20v75h29v-49q0 -46 32 -46q9 0 18 5t15 15v75h28v-71z" />
    <glyph glyph-name="shaddadammaarabicX" unicode="&#x64f;&#x651;" arabic-form="isolated" 
d="M271 659q-8 -27 -26.5 -38.5t-35.5 -11.5q-13 0 -26 5.5t-22 18.5l-1 -1q-16 -20 -45 -23q-10 -1 -20.5 2.5t-19 11.5t-14 20.5t-5.5 30.5v56h29v-49q0 -46 32 -46q20 0 32 20v75h29v-49q0 -46 32 -46q9 0 18 5t15 15v75h28v-71zM47 781l83 12q-2 8 -3 18t-2 17
q-4 33 14 56t50 28q34 5 58 -12t29 -52q4 -26 -10 -46t-42 -22l-153 -21zM156 797q14 2 29 4t31 4t28 11t10 29q-3 20 -21.5 32t-37.5 9q-10 -1 -19 -6t-15.5 -13t-9.5 -17.5t-1 -19.5z" />
    <glyph glyph-name="lamalefhamzaaboveisolatedarabi" unicode="&#xfedf;&#xfe84;" horiz-adv-x="369" arabic-form="isolated" 
d="M369 560v-538q-42 -11 -83.5 -16.5t-84.5 -5.5h-112v56h79v364h57v-363q20 1 42.5 3.5t43.5 6.5v493h58zM195 495q0 -5 3 -7t6 -2h56v-37h-130v37h31q-1 1 -1.5 2.5t-0.5 7v16v28.5q25 10 48.5 15t52.5 5v-36q-21 0 -36 -2t-29 -7v-20z" />
    <glyph glyph-name="lamalefmaddaabovefinalarabic" unicode="&#xfee0;&#xfe82;" horiz-adv-x="466" arabic-form="final" 
d="M472 0q-36 0 -78 4t-77 10q-34 -6 -69 -10t-73 -4h-108v56h77v400h56v-399q44 2 86 9v494h55v-493q29 -5 64.5 -8t66.5 -3v-56zM258 560q-8 -26 -31 -44.5t-53 -18.5q-16 0 -29 5t-24 13l-6 -18h-48l24 63h47h1v-1q5 -8 14.5 -13t20.5 -5q23 0 36 19h48z" />
    <glyph glyph-name="shaddadammatanarabic" unicode="&#x64c;&#x651;" arabic-form="isolated" 
d="M282 659q-8 -27 -26.5 -38.5t-35.5 -11.5q-13 0 -26 5.5t-22 18.5l-1 -1q-16 -20 -45 -23q-10 -1 -20.5 2.5t-19 11.5t-14 20.5t-5.5 30.5v56h29v-49q0 -46 32 -46q20 0 32 20v75h29v-49q0 -46 32 -46q9 0 18 5t15 15v75h28v-71zM177 799q30 6 61 9q16 4 27 13.5t9 28.5
q-4 20 -22.5 32t-37.5 7q-10 -1 -19 -6t-15 -13t-9 -18t-1 -20zM69 781q5 13 9 25q3 11 5 21.5t0 16.5t-7.5 7.5t-12 0.5t-11.5 -3.5t-6 -2.5q2 1 9.5 7.5t17.5 12t19 8.5t14 -2q5 -3 4 -16.5t-4 -28.5t-7 -27.5t-4 -14.5l56 10q-1 8 -2 18t-3 16q-5 33 12 56.5t49 28.5
q34 7 59 -9t30 -51q5 -26 -8 -45.5t-42 -24.5l-152 -25z" />
    <glyph glyph-name="lamalefisolatedarabic" unicode="&#xfedf;&#xfe8e;" horiz-adv-x="369" arabic-form="isolated" 
d="M369 560v-538q-42 -11 -83.5 -16.5t-84.5 -5.5h-112v56h79v406h57v-405q20 1 42.5 3.5t43.5 6.5v493h58z" />
    <glyph glyph-name="lamaleffinalarabic" unicode="&#xfee0;&#xfe8e;" horiz-adv-x="489" arabic-form="final" 
d="M495 0q-36 0 -78 4t-77 10q-34 -6 -69 -10t-73 -4h-108v56h77v400h56v-399q44 2 86 9v494h55v-493q29 -5 64.5 -8t66.5 -3v-56z" />
    <glyph glyph-name="lamalefhamzaabovefinalarabicX" unicode="&#xfee0;&#xfe84;" horiz-adv-x="466" arabic-form="final" 
d="M472 0q-36 0 -78 4t-77 10q-34 -6 -69 -10t-73 -4h-108v56h77v366h56v-365q44 2 86 9v494h55v-493q29 -5 64.5 -8t66.5 -3v-56zM171 495q0 -5 3 -7t6 -2h56v-37h-130v37h31q-1 1 -1.5 2.5t-0.5 7v16v28.5q25 10 48.5 15t52.5 5v-36q-21 0 -36 -2t-29 -7v-20z" />
    <glyph glyph-name="lamalefhamzabelowisolatedarabi" unicode="&#xfedf;&#xfe88;" horiz-adv-x="369" arabic-form="isolated" 
d="M369 560v-538q-42 -11 -83.5 -16.5t-84.5 -5.5h-112v56h79v406h57v-405q20 1 42.5 3.5t43.5 6.5v493h58zM187 -113q0 -5 3 -7t6 -2h56v-37h-130v37h31q-1 1 -1.5 2.5t-0.5 7v16v28.5q25 10 48.5 15t52.5 5v-36q-21 0 -36 -2t-29 -7v-20z" />
    <glyph glyph-name="lamalefhamzabelowfinalarabicX" unicode="&#xfee0;&#xfe88;" horiz-adv-x="464" arabic-form="final" 
d="M472 0q-36 0 -78 4t-77 10q-34 -6 -69 -10t-73 -4h-108v56h77v366h56v-365q44 2 86 9v494h55v-493q29 -5 64.5 -8t66.5 -3v-56zM170 -113q0 -5 3 -7t6 -2h56v-37h-130v37h31q-1 1 -1.5 2.5t-0.5 7v16v28.5q25 10 48.5 15t52.5 5v-36q-21 0 -36 -2t-29 -7v-20z" />
    <glyph glyph-name="lamalefmaddaaboveisolatedarabi" unicode="&#xfedf;&#xfe82;" horiz-adv-x="369" arabic-form="isolated" 
d="M369 560v-538q-42 -11 -83.5 -16.5t-84.5 -5.5h-112v56h79v400h57v-399q20 1 42.5 3.5t43.5 6.5v493h58zM282 560q-8 -26 -31 -44.5t-53 -18.5q-16 0 -29 5t-24 13l-6 -18h-48l24 63h47h1v-1q5 -8 14.5 -13t20.5 -5q23 0 36 19h48z" />
    <glyph glyph-name="alefmaddaabovearabic" unicode="&#x627;&#x653;" horiz-adv-x="198" 
d="M198 0h-54v560h54v-560zM275 672q-8 -26 -31 -44.5t-53 -18.5q-16 0 -29 5t-24 13l-6 -18h-48l24 63h47h1v-1q5 -8 14.5 -13t20.5 -5q23 0 36 19h48z" />
    <glyph glyph-name="alefhamzaabovearabic" unicode="&#x627;&#x654;" horiz-adv-x="198" 
d="M198 0h-54v560h54v-560zM170 654q0 -5 3 -7t6 -2h56v-37h-130v37h31q-1 1 -1.5 2.5t-0.5 7v16v28.5q25 10 48.5 15t52.5 5v-36q-21 0 -36 -2t-29 -7v-20z" />
    <glyph glyph-name="wawhamzaabovearabic" unicode="&#x648;&#x654;" horiz-adv-x="378" 
d="M378 10v-125q0 -23 -9 -42.5t-24 -34.5t-35 -24t-43 -9h-97v55h96q23 0 39.5 16t16.5 39v154q-16 -17 -38 -28t-48 -11q-23 0 -43 8.5t-35 23.5t-23.5 35.5t-8.5 43.5v175q59 23 122 36t130 13v-270v-55zM322 55v24v199q-71 -3 -140 -29v-138q0 -23 15.5 -39.5
t38.5 -16.5h86zM247 447q0 -5 4 -8t7 -4h60v-35h-136v35h32v57q23 11 47.5 16.5t56.5 5.5v-37q-23 0 -39 -2t-32 -7v-21z" />
    <glyph glyph-name="alefhamzabelowarabic" unicode="&#x627;&#x655;" horiz-adv-x="198" 
d="M198 0h-54v560h54v-560zM170 -113q0 -5 3 -7t6 -2h56v-37h-130v37h31q-1 1 -1.5 2.5t-0.5 7v16v28.5q25 10 48.5 15t52.5 5v-36q-21 0 -36 -2t-29 -7v-20z" />
    <glyph glyph-name="yehhamzaabovearabic" unicode="&#x64a;&#x654;" horiz-adv-x="642" 
d="M432 113q0 -26 17.5 -44t42.5 -18h33q25 0 46.5 -9.5t37 -26t24.5 -38t9 -45.5v-61q-51 -56 -121 -88.5t-150 -32.5q-81 0 -151.5 32.5t-120.5 88.5v317h58v-293q43 -39 98 -62t116 -23q62 0 117 23t97 62v37q0 26 -17.5 42.5t-43.5 17.5h-31q-25 0 -47 9.5t-38 26
t-25 38t-9 46.5v171q62 25 129.5 38t138.5 13v-58q-55 0 -107 -9.5t-103 -26.5v-127zM119 270q0 -5 3 -7t6 -2h56v-37h-130v37h31q-1 1 -1.5 2.5t-0.5 7v16v28.5q25 10 48.5 15t52.5 5v-36q-21 0 -36 -2t-29 -7v-20z" />
    <glyph glyph-name="allahisolated" unicode="&#xfedf;&#xfee0;&#xfeea;" horiz-adv-x="859" arabic-form="isolated" 
d="M645 659q-8 -27 -26.5 -38.5t-35.5 -11.5q-13 0 -26 5.5t-22 18.5l-1 -1q-16 -20 -45 -23q-10 -1 -20.5 2.5t-19 11.5t-14 20.5t-5.5 30.5v56h29v-49q0 -46 32 -46q20 0 32 20v75h29v-49q0 -46 32 -46q9 0 18 5t15 15v75h28v-71zM681 55v-55h17q42 0 81.5 5.5t79.5 15.5
v539h-56v-496q-26 -4 -52.5 -6.5t-52.5 -2.5h-17zM675 55q-27 0 -54.5 2.5t-53.5 7.5v495h-57v-495q-26 -5 -52.5 -7.5t-55.5 -2.5h-20v-55h20q68 0 135 14q34 -7 68 -10.5t70 -3.5h20v55h-20zM355 55q-23 0 -39.5 16.5t-16.5 39.5v229q-67 0 -130 -13t-123 -36v-182
q0 -20 6.5 -37.5t18.5 -32t28.5 -25t35.5 -14.5q2 -1 14 -1t26.5 1t27.5 2t18 3q29 11 47 35q16 -18 38 -29t48 -11h42v55h-41zM157 54q-23 2 -38.5 17.5t-16.5 37.5v144q69 22 141 29v-171q0 -17 4.5 -30.5t11.5 -26.5h-102z" />
    <glyph glyph-name="alefwithfathatanisolated" unicode="&#x627;&#x64b;" horiz-adv-x="198" arabic-form="isolated" 
d="M249 703l-173 -30l-30 24l169 29zM271 638l-173 -30l-30 25l169 29zM198 0v560h-54v-560h54z" />
    <glyph glyph-name="alefwithfathatanfinal" unicode="&#xfe8e;&#x64b;" horiz-adv-x="331" arabic-form="final" 
d="M249 703l-173 -30l-30 24l169 29zM271 638l-173 -30l-30 25l169 29zM311 57q-29 0 -56.5 2.5t-56.5 7.5v493h-54v-539q78 -21 167 -21h26v57h-26z" />
    <glyph glyph-name="behinitialarabic" unicode="&#x628;" horiz-adv-x="205" arabic-form="initial" 
d="M205 334v-313q-42 -11 -85 -16t-86 -5h-34v57h34q29 0 57 3t56 8v266h58zM147 -78q18 0 29 -12t11 -29q0 -16 -11 -28.5t-29 -12.5t-29.5 12.5t-11.5 28.5q0 17 11.5 29t29.5 12z" />
    <glyph glyph-name="tehinitialarabic" unicode="&#x62a;" horiz-adv-x="190" arabic-form="initial" 
d="M132 334v-267q-28 -5 -56 -7.5t-57 -2.5h-19v-57h19q88 0 171 21v313h-58zM170 464q0 -16 -11.5 -27.5t-28.5 -11.5t-28.5 11.5t-11.5 27.5q0 17 11.5 29t28.5 12t28.5 -12t11.5 -29zM55 464q0 -16 -11.5 -27.5t-28.5 -11.5t-29 11.5t-12 27.5q0 17 12 29t29 12t28.5 -12
t11.5 -29z" />
    <glyph glyph-name="thehinitialarabic" unicode="&#x62b;" horiz-adv-x="190" arabic-form="initial" 
d="M132 334v-267q-28 -5 -56 -7.5t-57 -2.5h-19v-57h19q88 0 171 21v313h-58zM171 467q0 -17 -12 -29.5t-29 -12.5t-29 12.5t-12 29.5q0 16 12 28t29 12t29 -12t12 -28zM55 467q0 -17 -12 -29.5t-27 -12.5q-17 0 -29.5 12.5t-12.5 29.5q0 16 12.5 28t29.5 12q15 0 27 -12
t12 -28zM111 542q0 -17 -11.5 -29.5t-26.5 -12.5q-19 0 -31 12.5t-12 29.5t12 29t31 12q15 0 26.5 -12t11.5 -29z" />
    <glyph glyph-name="jeeminitialarabic" unicode="&#x62c;" horiz-adv-x="462" arabic-form="initial" 
d="M311 -76q17 0 27.5 -10.5t10.5 -27.5t-10.5 -28t-27.5 -11q-16 0 -27.5 11t-11.5 28t11.5 27.5t27.5 10.5zM462 43q-17 -20 -38.5 -31.5t-51.5 -11.5h-376v55h396l-118 198q-5 11 -18.5 18t-29.5 7h-162v57h162q32 0 57 -15.5t40 -41.5z" />
    <glyph glyph-name="hahinitialarabic" unicode="&#x62d;" horiz-adv-x="470" arabic-form="initial" 
d="M470 43q-17 -20 -39 -31.5t-52 -11.5h-383v56h402l-120 195q-5 11 -18.5 18.5t-29.5 7.5h-164v58h164q32 0 57.5 -16t40.5 -42z" />
    <glyph glyph-name="khahinitialarabic" unicode="&#x62e;" horiz-adv-x="460" arabic-form="initial" 
d="M322 278q-15 25 -40 41t-57 16h-161v-57h161q16 0 29.5 -7t18.5 -18l117 -198h-394v-55h375q30 0 51.5 11.5t37.5 31.5zM158 437q0 -14 -10 -25t-27 -11q-16 0 -27 11t-11 25q0 17 11 28t27 11q17 0 27 -11t10 -28z" />
    <glyph glyph-name="seeninitialarabic" unicode="&#x633;" horiz-adv-x="575" arabic-form="initial" 
d="M575 335v-225q0 -23 -9 -43t-24 -35t-35 -23.5t-42 -8.5h-32q-24 0 -46 10t-36 27q-15 -17 -36 -27t-47 -10h-32q-34 0 -61 19q-38 -9 -77 -14t-81 -5h-17v55h17q29 0 56 2.5t54 7.5v214h55v-224h141v252h55v-252h142v280h55z" />
    <glyph glyph-name="sheeninitialarabic" unicode="&#x634;" horiz-adv-x="575" arabic-form="initial" 
d="M575 335v-225q0 -23 -9 -43t-24 -35t-35 -23.5t-42 -8.5h-32q-24 0 -46 10t-36 27q-15 -17 -36 -27t-47 -10h-32q-34 0 -61 19q-38 -9 -77 -14t-81 -5h-17v55h17q29 0 56 2.5t54 7.5v214h55v-224h141v252h55v-252h142v280h55zM360 449q0 17 11 28t27 11q17 0 28.5 -11
t11.5 -28t-11.5 -28t-28.5 -11q-16 0 -27 11t-11 28zM288 410q-16 0 -27.5 11t-11.5 28t11.5 28t27.5 11t27 -11t11 -28t-11 -28t-27 -11zM343 483q-16 0 -27.5 11.5t-11.5 28.5q0 15 11.5 26.5t27.5 11.5q17 0 28 -11.5t11 -26.5q0 -17 -11 -28.5t-28 -11.5z" />
    <glyph glyph-name="tahinitialarabic" unicode="&#x637;" horiz-adv-x="549" arabic-form="initial" 
d="M549 47q-16 -22 -39.5 -34.5t-52.5 -12.5h-457l18 57h40v503h57v-256q46 14 95 22.5t100 8.5q32 0 58 -15.5t41 -40.5zM477 57l-118 193q-14 23 -43 28q-53 0 -103 -8.5t-98 -24.5v-188h362z" />
    <glyph glyph-name="zahinitialarabic" unicode="&#x638;" horiz-adv-x="768" arabic-form="initial" 
d="M264 408q-16 0 -27.5 11t-11.5 28q0 16 11.5 27t27.5 11t27.5 -11t11.5 -27q0 -17 -11.5 -28t-27.5 -11zM535 46q-16 -21 -39 -33.5t-51 -12.5h-445l18 56h38v504h56v-256q45 14 92.5 22t97.5 8q31 0 56.5 -15t39.5 -40zM465 56l-115 195q-14 24 -42 27q-103 0 -196 -32
v-190h353z" />
    <glyph glyph-name="aininitialarabic" unicode="&#x639;" horiz-adv-x="364" arabic-form="initial" 
d="M364 279q-103 0 -197 -32v-134v-2q0 -23 16 -39t39 -16h142v-56h-142q-35 0 -62 19q-38 -9 -77.5 -14t-81.5 -5h-5v56h5q31 0 60.5 2.5t58.5 8.5q-4 11 -6.5 21.5t-2.5 22.5v2v173q59 23 122.5 36t130.5 13v-56z" />
    <glyph glyph-name="ghaininitialarabic" unicode="&#x63a;" horiz-adv-x="364" arabic-form="initial" 
d="M364 279q-103 0 -197 -32v-134v-2q0 -23 16 -39t39 -16h142v-56h-142q-35 0 -62 19q-38 -9 -77.5 -14t-81.5 -5h-5v56h5q31 0 60.5 2.5t58.5 8.5q-4 11 -6.5 21.5t-2.5 22.5v2v173q59 23 122.5 36t130.5 13v-56zM238 412q-17 0 -27.5 11.5t-10.5 26.5q0 17 10.5 28.5
t27.5 11.5q16 0 28 -11.5t12 -28.5q0 -15 -12 -26.5t-28 -11.5z" />
    <glyph glyph-name="fehinitialarabic" unicode="&#x641;" horiz-adv-x="378" arabic-form="initial" 
d="M378 67q-3 -7 -7 -13t-10 -11.5t-16 -11t-26 -10.5q-33 -9 -72 -13.5t-81 -6t-84.5 -1.5h-81.5v57h14.5t31.5 0.5t41 1t43 1.5q-13 25 -13 54v169q60 25 125.5 38t135.5 13v-267zM175 114q0 -32 28 -49q29 4 60 9t57 12v188q-75 -6 -145 -31v-129zM247 423q-17 0 -29 12
t-12 29t12 29t29 12t28 -12t11 -29t-11 -29t-28 -12z" />
    <glyph glyph-name="qafinitialarabic" unicode="&#x642;" horiz-adv-x="378" arabic-form="initial" 
d="M378 67q-3 -7 -7 -13t-10 -11.5t-16 -11t-26 -10.5q-33 -9 -72 -13.5t-81 -6t-84.5 -1.5h-81.5v57h14.5t31.5 0.5t41 1t43 1.5q-13 25 -13 54v170q60 25 125.5 38t135.5 13v-268zM175 114q0 -32 28 -49q29 4 60 9t57 12v189q-75 -6 -145 -31v-130zM303 423q-17 0 -29 12
t-12 29t12 29t29 12t28 -12t11 -29t-11 -29t-28 -12zM187 423q-17 0 -29 12t-12 29t12 29t29 12t28.5 -12t11.5 -29t-11.5 -29t-28.5 -12z" />
    <glyph glyph-name="kafinitialarabic" unicode="&#x643;" horiz-adv-x="422" arabic-form="initial" 
d="M421 196v-23v-35.5v-39t-1 -31.5q-1 -20 -4 -32t-9.5 -19t-16 -10.5t-24.5 -5.5h-366v56h365v132v4v2q-2 20 -17.5 33.5t-38.5 15.5h-1h-86h-1q-23 0 -43.5 9t-35.5 24t-24 35.5t-9 43.5v155q59 24 122.5 37t132.5 13q29 0 58 -3v-56q-29 3 -58 3q-53 0 -102 -8.5
t-97 -23.5v-117q0 -23 15.5 -38.5t40.5 -16.5h1h87q22 0 42 -8t35 -22t24 -33t11 -41z" />
    <glyph glyph-name="laminitialarabic" unicode="&#x644;" horiz-adv-x="259" arabic-form="initial" 
d="M14 55q26 0 52.5 2.5t52.5 6.5v496h56v-539q-40 -10 -79.5 -15.5t-81.5 -5.5h-17v55h17z" />
    <glyph glyph-name="meeminitialarabic" unicode="&#x645;" horiz-adv-x="320" arabic-form="initial" 
d="M320 0h-137q-25 0 -46 10t-36 27q-15 -17 -35.5 -27t-46.5 -10h-19v55h19h1q22 0 37.5 15t17.5 38v177q57 23 118 36t127 13v-334zM265 277q-69 -6 -137 -29v-140q0 -21 15 -37t38 -16h84v222z" />
    <glyph glyph-name="nooninitialarabic" unicode="&#x646;" horiz-adv-x="190" arabic-form="initial" 
d="M132 334v-267q-28 -5 -56 -7.5t-57 -2.5h-19v-57h19q88 0 171 21v313h-58zM170 464q0 -16 -11.5 -27.5t-28.5 -11.5t-28.5 11.5t-11.5 27.5q0 17 11.5 29t28.5 12t28.5 -12t11.5 -29z" />
    <glyph glyph-name="hehinitialarabic" unicode="&#x647;" horiz-adv-x="461" arabic-form="initial" 
d="M461 43q-17 -20 -38.5 -31.5t-51.5 -11.5h-376v55h75h1q-3 6 -4.5 26t-3 43t-2 43t-0.5 26q0 26 11 48.5t30 36.5h-39v57h162q32 0 57 -15.5t40 -41.5zM111 55h107v139q0 22 -15 37.5t-38 15.5q-21 0 -37.5 -15.5t-16.5 -38.5v-138zM391 55l-118 198q-5 11 -17.5 17.5
t-26.5 7.5q20 -14 31.5 -36t11.5 -48q0 -6 -1 -26.5t-3 -43t-4.5 -43t-5.5 -26.5h1h132z" />
    <glyph glyph-name="yehinitialarabic" unicode="&#x64a;" horiz-adv-x="190" arabic-form="initial" 
d="M190 335v-314q-83 -21 -171 -21h-19v57h19q29 0 57 2.5t56 7.5v268h58zM170 -117q0 -16 -11.5 -27.5t-28.5 -11.5t-28.5 11.5t-11.5 27.5q0 17 11.5 29t28.5 12t28.5 -12t11.5 -29zM55 -117q0 -16 -11.5 -27.5t-28.5 -11.5t-29 11.5t-12 27.5q0 17 12 29t29 12t28.5 -12
t11.5 -29z" />
    <glyph glyph-name="yehhamzaabovemedialarabic" unicode="&#x626;" horiz-adv-x="316" arabic-form="medial" 
d="M320 57v-57h-21q-38 0 -74 4t-72 12q-34 -8 -69.5 -12t-73.5 -4h-17v57h17q29 0 58 3t58 8v266h58v-266q28 -5 56.5 -8t58.5 -3h21zM106 477q0 -5 3 -7t6 -2h56v-37h-130v37h31q-1 1 -1.5 2.5t-0.5 7v16v28.5q25 10 48.5 15t52.5 5v-36q-21 0 -36 -2t-29 -7v-20z" />
    <glyph glyph-name="behmedialarabic" unicode="&#x628;" horiz-adv-x="295" arabic-form="medial" 
d="M304 57v-57h-18q-36 0 -71 3.5t-68 12.5q-32 -9 -67 -12.5t-72 -3.5h-14v57h14q29 0 56 2.5t54 8.5v266h58v-266q27 -6 54.5 -8.5t55.5 -2.5h18zM117 -76q19 0 30 -10.5t11 -27.5q0 -16 -11 -28t-30 -12q-15 0 -26.5 12t-11.5 28q0 17 11.5 27.5t26.5 10.5z" />
    <glyph glyph-name="tehmedialarabic" unicode="&#x62a;" horiz-adv-x="313" arabic-form="medial" 
d="M299 57q-30 0 -58.5 3t-56.5 8v267h-58v-267q-29 -5 -58 -8t-58 -3h-17v-57h17q38 0 73.5 4t69.5 12q36 -8 72 -12t74 -4h21v57h-21zM171 471q0 -16 -12 -28t-29 -12t-28 12t-11 28q0 17 11 29.5t28 12.5t29 -12.5t12 -29.5zM55 471q0 -16 -12 -28t-28 -12q-17 0 -30 12
t-13 28q0 17 13 29.5t30 12.5q16 0 28 -12.5t12 -29.5z" />
    <glyph glyph-name="thehmedialarabic" unicode="&#x62b;" horiz-adv-x="328" arabic-form="medial" 
d="M305 57q-29 0 -57 2.5t-56 7.5v268h-57v-268q-27 -5 -56.5 -7.5t-58.5 -2.5h-24v-57h24q75 0 143 15q69 -15 142 -15h26v57h-26zM175 464q0 -17 -12 -29t-29 -12t-28.5 12t-11.5 29t11.5 28.5t28.5 11.5t29 -11.5t12 -28.5zM60 464q0 -17 -11.5 -29t-28.5 -12t-29 12
t-12 29t12 28.5t29 11.5t28.5 -11.5t11.5 -28.5zM117 539q0 -17 -12 -28t-29 -11t-28.5 11t-11.5 28t11.5 29t28.5 12t29 -12t12 -29z" />
    <glyph glyph-name="jeemmedialarabic" unicode="&#x62c;" horiz-adv-x="544" arabic-form="medial" 
d="M548 55v-55h-123v24q-15 -11 -31 -17.5t-36 -6.5h-362v55h379l-114 198q-7 11 -19 18.5t-27 7.5h-160v55h160q30 0 56 -15.5t40 -39.5l127 -224h110zM372 -113q0 -17 -11 -27.5t-28 -10.5t-28 10.5t-11 27.5q0 16 11 27t28 11t28 -11t11 -27z" />
    <glyph glyph-name="hahmedialarabic" unicode="&#x62d;" horiz-adv-x="545" arabic-form="medial" 
d="M550 55v-55h-124v24q-30 -24 -67 -24h-363v55h381l-115 198q-7 11 -19 18.5t-27 7.5h-160v55h160q30 0 56 -15.5t41 -39.5l126 -224h111z" />
    <glyph glyph-name="khahmedialarabic" unicode="&#x62e;" horiz-adv-x="542" arabic-form="medial" 
d="M438 55l-127 225q-14 24 -40 39.5t-56 15.5h-160v-55h160q15 0 27 -7.5t19 -18.5l114 -199h-379v-55h362q20 0 36 6.5t31 17.5v-24h123v55h-110zM174 441q0 -17 -11 -27.5t-28 -10.5q-16 0 -27.5 10.5t-11.5 27.5q0 16 11.5 27t27.5 11q17 0 28 -11t11 -27z" />
    <glyph glyph-name="seenmedialarabic" unicode="&#x633;" horiz-adv-x="698" arabic-form="medial" 
d="M704 56v-56h-23q-42 0 -80.5 5t-76.5 15q-26 -20 -63 -20h-32q-24 0 -45.5 10.5t-35.5 27.5q-17 -17 -38.5 -27.5t-45.5 -10.5h-31q-36 0 -62 20q-39 -10 -84.5 -15t-86.5 -5h-6v56h6q28 0 61.5 2t59.5 7v215h55v-224h143v253h57v-253h142v279h54v-224q0 -12 -2 -23
t-6 -22q29 -5 58.5 -7.5t58.5 -2.5h23z" />
    <glyph glyph-name="sheenmedialarabic" unicode="&#x634;" horiz-adv-x="699" arabic-form="medial" 
d="M704 56v-56h-23q-42 0 -80.5 5t-76.5 15q-26 -20 -63 -20h-32q-24 0 -45.5 10.5t-35.5 27.5q-17 -17 -38.5 -27.5t-45.5 -10.5h-31q-36 0 -62 20q-39 -10 -84.5 -15t-86.5 -5h-6v56h6q28 0 61.5 2t59.5 7v215h55v-224h143v253h57v-253h142v279h54v-224q0 -12 -2 -23
t-6 -22q29 -5 58.5 -7.5t58.5 -2.5h23zM357 451q0 16 12 27t27 11q16 0 27.5 -11t11.5 -27t-11.5 -27t-27.5 -11q-15 0 -27 11t-12 27zM284 413q-16 0 -26.5 11t-10.5 27t10.5 27t26.5 11q17 0 27.5 -11t10.5 -27t-10.5 -27t-27.5 -11zM340 486q-17 0 -28.5 11.5t-11.5 27.5
q0 15 11.5 27t28.5 12t28.5 -12t11.5 -27q0 -16 -11.5 -27.5t-28.5 -11.5z" />
    <glyph glyph-name="sadmedialarabic" unicode="&#x635;" horiz-adv-x="698" arabic-form="medial" 
d="M706 56v-56h-22q-42 0 -82 5t-78 14q-30 -19 -63 -19h-232h-1q-34 0 -62 19q-38 -10 -84 -14.5t-88 -4.5h-5v56h5q29 0 62 2.5t61 7.5v268h55v-109q28 29 62 52t76 37q58 20 116 20h35q23 0 43.5 -9t35.5 -24t23.5 -35.5t8.5 -43.5v-108v-1q0 -26 -8 -45q58 -12 120 -12
h22zM517 222q0 23 -16.5 39t-39.5 16h-57q-39 -2 -76 -15q-51 -19 -90.5 -52.5t-65.5 -76.5v-77h345v166z" />
    <glyph glyph-name="dadmedialarabic" unicode="&#x636;" horiz-adv-x="697" arabic-form="medial" 
d="M706 56v-56h-22q-42 0 -82 5t-78 14q-30 -19 -63 -19h-232h-1q-34 0 -62 19q-38 -10 -84 -14.5t-88 -4.5h-5v56h5q29 0 62 2.5t61 7.5v268h55v-109q28 29 62 52t76 37q58 20 116 20h35q23 0 43.5 -9t35.5 -24t23.5 -35.5t8.5 -43.5v-108v-1q0 -26 -8 -45q58 -12 120 -12
h22zM517 222q0 23 -16.5 39t-39.5 16h-57q-39 -2 -76 -15q-51 -19 -90.5 -52.5t-65.5 -76.5v-77h345v166zM357 418q-17 0 -28.5 11t-11.5 28t11.5 28.5t28.5 11.5t28.5 -11.5t11.5 -28.5t-11.5 -28t-28.5 -11z" />
    <glyph glyph-name="tahmedialarabic" unicode="&#x637;" horiz-adv-x="641" arabic-form="medial" 
d="M648 56v-56h-115v26q-29 -26 -70 -26h-470v56h81v504h55v-255q45 14 92.5 22t97.5 8q31 0 56.5 -15.5t39.5 -39.5l131 -224h102zM482 56l-115 196q-13 24 -42 27q-102 0 -196 -32v-191h353z" />
    <glyph glyph-name="zahmedialarabic" unicode="&#x638;" horiz-adv-x="639" arabic-form="medial" 
d="M648 56v-56h-115v26q-29 -26 -70 -26h-470v56h81v505h55v-256q45 14 92.5 22t97.5 8q31 0 56.5 -15.5t39.5 -39.5l131 -224h102zM482 56l-115 196q-13 24 -42 27q-102 0 -196 -32v-191h353zM279 409q-16 0 -27 11t-11 27q0 17 11 28.5t27 11.5q17 0 28.5 -11.5
t11.5 -28.5q0 -16 -11.5 -27t-28.5 -11z" />
    <glyph glyph-name="ainmedialarabic" unicode="&#x639;" horiz-adv-x="541" arabic-form="medial" 
d="M546 56v-56q-38 0 -75 2t-74 10q-2 -2 -2.5 -5.5t-2.5 -6.5h-241l-5 12q-33 -6 -75.5 -9t-76.5 -3v56q15 0 32 0.5t35 1.5t35 3t31 4q-12 45 -19 89t-7 93q0 21 1.5 42.5t5.5 44.5h327q6 -39 6 -79h-56v11t-1 12h-226q0 -59 5.5 -112.5t25.5 -109.5h357z" />
    <glyph glyph-name="ghainmedialarabic" unicode="&#x63a;" horiz-adv-x="541" arabic-form="medial" 
d="M271 411q-16 0 -27 11.5t-11 27.5q0 17 11 28t27 11q17 0 28.5 -11t11.5 -28q0 -16 -11.5 -27.5t-28.5 -11.5zM546 56v-56q-38 0 -75 2t-74 10q-2 -2 -2.5 -5.5t-2.5 -6.5h-241l-5 12q-33 -6 -75.5 -9t-76.5 -3v56q15 0 32 0.5t35 1.5t35 3t31 4q-12 45 -19 89t-7 93
q0 21 1.5 42.5t5.5 44.5h327q6 -39 6 -79h-56v11t-1 12h-226q0 -59 5.5 -112.5t25.5 -109.5h357z" />
    <glyph glyph-name="fehmedialarabic" unicode="&#x641;" horiz-adv-x="502" arabic-form="medial" 
d="M509 56v-56h-30q-43 0 -86 5t-84 16q-33 -9 -71.5 -13.5t-80 -6t-83.5 -1.5h-81v56h14.5t31 0.5t40.5 1t43 1.5q-13 25 -13 54v171q60 25 124.5 38t133.5 13v-269q28 -5 55.5 -7.5t56.5 -2.5h30zM166 113q0 -32 28 -49q29 4 59.5 9t56.5 12v190q-38 -3 -74 -11t-70 -20
v-131zM237 419q-17 0 -28.5 12t-11.5 28q0 17 11.5 29t28.5 12t28 -12t11 -29q0 -16 -11 -28t-28 -12z" />
    <glyph glyph-name="qafmedialarabic" unicode="&#x642;" horiz-adv-x="501" arabic-form="medial" 
d="M509 56v-56h-30q-43 0 -86 5t-84 16q-33 -9 -71.5 -13.5t-80 -6t-83.5 -1.5h-81v56h14.5t31 0.5t40.5 1t43 1.5q-13 25 -13 54v171q60 25 124.5 38t133.5 13v-269q28 -5 55.5 -7.5t56.5 -2.5h30zM166 113q0 -32 28 -49q29 4 59.5 9t56.5 12v190q-38 -3 -74 -11t-70 -20
v-131zM293 419q-17 0 -28.5 12t-11.5 28q0 17 11.5 29t28.5 12t28 -12t11 -29q0 -16 -11 -28t-28 -12zM178 419q-17 0 -28.5 12t-11.5 28q0 17 11.5 29t28.5 12t28.5 -12t11.5 -29q0 -16 -11.5 -28t-28.5 -12z" />
    <glyph glyph-name="kafmedialarabic" unicode="&#x643;" horiz-adv-x="536" arabic-form="medial" 
d="M476 0q-23 0 -42.5 8.5t-33.5 22.5q-16 -19 -34 -31h-366v56h366v132q0 2 -1 4v2q-2 20 -17.5 33.5t-38.5 15.5h-1h-86h-1q-23 0 -43.5 9t-35.5 24t-24 35.5t-9 43.5v155q59 24 122.5 37t132.5 13q29 0 58 -3v-56q-29 3 -58 3q-53 0 -102 -8.5t-97 -23.5v-117
q0 -23 15.5 -38.5t40.5 -16.5h1h87q22 0 42 -8t35 -22t24 -33t11 -41q0 -53 4.5 -81t12 -40.5t17.5 -15t21 -3.5h65v-56h-65z" />
    <glyph glyph-name="lammedialarabic" unicode="&#x644;" horiz-adv-x="300" arabic-form="medial" 
d="M308 55v-55h-20q-36 0 -70 3.5t-68 10.5q-67 -14 -135 -14h-20v55h20q29 0 55.5 2.5t52.5 7.5v495h57v-495q26 -5 53.5 -7.5t54.5 -2.5h20z" />
    <glyph glyph-name="meemmedialarabic" unicode="&#x645;" horiz-adv-x="389" arabic-form="medial" 
d="M392 0q-16 0 -39.5 4.5t-37.5 12.5v-17h-139q-25 0 -46.5 10t-35.5 27q-16 -17 -44.5 -27t-53.5 -10h-1v55h1q12 0 24 4t22.5 11.5t17 17.5t6.5 21v176q58 23 120.5 36t128.5 13v-279h77v-55zM120 109q0 -22 15.5 -37.5t38.5 -16.5h86v221q-36 -3 -70.5 -10.5
t-69.5 -18.5v-138z" />
    <glyph glyph-name="noonmedialarabic" unicode="&#x646;" horiz-adv-x="315" arabic-form="medial" 
d="M299 57q-30 0 -58.5 3t-56.5 8v267h-58v-267q-29 -5 -58 -8t-58 -3h-17v-57h17q38 0 73.5 4t69.5 12q36 -8 72 -12t74 -4h21v57h-21zM171 450q0 -16 -12 -28t-29 -12t-28 12t-11 28q0 17 11 29.5t28 12.5t29 -12.5t12 -29.5z" />
    <glyph glyph-name="hehmedialarabic" unicode="&#x647;" horiz-adv-x="350" arabic-form="medial" 
d="M356 0h-88q3 -6 5.5 -32t4.5 -55.5t3 -55t1 -32.5q0 -22 -8.5 -41t-23.5 -33.5t-34.5 -22.5t-41.5 -8t-40.5 8t-32.5 22.5t-22 33.5t-8 42q0 7 0.5 32.5t2 55t3 55t4.5 31.5h-86v55h86q-3 6 -4.5 31.5t-3 54.5t-2 54.5t-0.5 31.5q0 22 8 41.5t22 34t32.5 23t40.5 8.5
t41.5 -8.5t34.5 -22.5t23.5 -33.5t8.5 -41.5q0 -6 -1 -31.5t-3 -55t-4.5 -55t-5.5 -31.5h88v-55zM121 55h107v172v1q0 22 -15 37.5t-38 15.5q-21 0 -37.5 -15.5t-16.5 -38.5v-172zM228 0h-107v-174v-1q0 -21 16.5 -37t37.5 -16q23 0 38 16t15 37v175z" />
    <glyph glyph-name="yehmedialarabic" unicode="&#x64a;" horiz-adv-x="312" arabic-form="medial" 
d="M320 57v-57h-21q-38 0 -74 4t-72 12q-34 -8 -69.5 -12t-73.5 -4h-17v57h17q29 0 58 3t58 8v267h58v-267q28 -5 56.5 -8t58.5 -3h21zM171 -117q0 -16 -12 -28t-29 -12t-28 12t-11 28q0 17 11 29.5t28 12.5t29 -12.5t12 -29.5zM55 -117q0 -16 -12 -28t-28 -12q-17 0 -30 12
t-13 28q0 17 13 29.5t30 12.5q16 0 28 -12.5t12 -29.5z" />
    <glyph glyph-name="alefmaddaabovefinalarabic" unicode="&#x622;" horiz-adv-x="331" arabic-form="final" 
d="M337 57v-57h-26q-89 0 -167 21v539h54v-493q29 -5 56.5 -7.5t56.5 -2.5h26zM275 672q-8 -26 -31 -44.5t-53 -18.5q-16 0 -29 5t-24 13l-6 -18h-48l24 63h47h1v-1q5 -8 14.5 -13t20.5 -5q23 0 36 19h48z" />
    <glyph glyph-name="alefhamzaabovefinalarabic" unicode="&#x623;" horiz-adv-x="333" arabic-form="final" 
d="M337 57v-57h-26q-89 0 -167 21v539h54v-493q29 -5 56.5 -7.5t56.5 -2.5h26zM170 654q0 -5 3 -7t6 -2h56v-37h-130v37h31q-1 1 -1.5 2.5t-0.5 7v16v28.5q25 10 48.5 15t52.5 5v-36q-21 0 -36 -2t-29 -7v-20z" />
    <glyph glyph-name="wawhamzaabovefinalarabic" unicode="&#x624;" horiz-adv-x="510" arabic-form="final" 
d="M515 55v-55h-29q-58 0 -108 10v-125q0 -23 -9 -42.5t-24 -34.5t-35 -24t-43 -9h-97v55h96q23 0 39.5 16t16.5 39v154q-16 -17 -38 -28t-48 -11q-23 0 -43 8.5t-35 23.5t-23.5 35.5t-8.5 43.5v174q59 23 122 36t130 13v-269q26 -5 52.5 -7.5t55.5 -2.5h29zM322 55v24v199
q-71 -3 -140 -29v-138q0 -23 15.5 -39.5t38.5 -16.5h86zM247 447q0 -5 4 -8t7 -4h60v-35h-136v35h32v57q23 11 47.5 16.5t56.5 5.5v-37q-23 0 -39 -2t-32 -7v-21z" />
    <glyph glyph-name="alefhamzabelowfinalarabic" unicode="&#x625;" horiz-adv-x="332" arabic-form="final" 
d="M337 57v-57h-26q-89 0 -167 21v539h54v-493q29 -5 56.5 -7.5t56.5 -2.5h26zM170 -113q0 -5 3 -7t6 -2h56v-37h-130v37h31q-1 1 -1.5 2.5t-0.5 7v16v28.5q25 10 48.5 15t52.5 5v-36q-21 0 -36 -2t-29 -7v-20z" />
    <glyph glyph-name="yehhamzaabovefinalarabic" unicode="&#x626;" horiz-adv-x="751" arabic-form="final" 
d="M65 270q0 -5 3 -7t6 -2h56v-37h-130v37h31q-1 1 -1.5 2.5t-0.5 7v16v28.5q25 10 48.5 15t52.5 5v-36q-21 0 -36 -2t-29 -7v-20zM263 -300q17 0 30 -12.5t13 -29.5t-13 -29.5t-30 -12.5t-29.5 12.5t-12.5 29.5t12.5 29.5t29.5 12.5zM759 58v-58h-65q-24 0 -45.5 9
t-37 24.5t-24.5 36.5t-9 45v161q-52 -1 -102 -10.5t-98 -25.5v-127q0 -26 17.5 -44t42.5 -18h33q25 0 46.5 -9.5t37 -26t24.5 -38t9 -45.5v-61q-51 -56 -121 -88.5t-150 -32.5q-81 0 -151.5 32.5t-120.5 88.5v343h58v-319q43 -39 98 -62t116 -23q62 0 117 23t97 62v37
q0 26 -17.5 42.5t-43.5 17.5h-31q-25 0 -47 9.5t-38 26t-25 38t-9 46.5v171q60 24 125 37t133 14h58v-218q0 -23 17 -40.5t40 -17.5h66zM381 -300q18 0 29.5 -12.5t11.5 -29.5t-11.5 -29.5t-29.5 -12.5q-17 0 -29 12.5t-12 29.5t12 29.5t29 12.5z" />
    <glyph glyph-name="aleffinalarabic" unicode="&#x627;" horiz-adv-x="333" arabic-form="final" 
d="M337 57v-57h-26q-89 0 -167 21v539h54v-493q29 -5 56.5 -7.5t56.5 -2.5h26z" />
    <glyph glyph-name="behfinalarabic" unicode="&#x628;" horiz-adv-x="881" arabic-form="final" 
d="M889 57v-57h-25q-45 0 -88 5t-84 16q-67 -19 -141.5 -20t-153.5 -1h-95t-91.5 3.5t-86 12.5t-80.5 27v292h57v-249q43 -12 94 -18t95.5 -8.5t74.5 -2.5h32h31.5t75 2.5t95.5 8.5t95 18v249h57v-268q28 -5 56.5 -7.5t56.5 -2.5h25zM396 -79q17 0 28 -12t11 -29t-11 -28.5
t-28 -11.5t-29 11.5t-12 28.5t12 29t29 12z" />
    <glyph glyph-name="tehmarbutafinalarabic" unicode="&#x629;" horiz-adv-x="397" arabic-form="final" 
d="M360 56q-23 0 -40 16.5t-17 40.5v222q-68 0 -132.5 -13t-124.5 -37v-174q0 -20 7 -38t19 -33t28.5 -25.5t35.5 -14.5q3 -1 15 -1t27 1t28 2t18 3q31 11 48 36q16 -19 38.5 -30t48.5 -11h43v56h-42zM159 55q-24 2 -39.5 17.5t-16.5 38.5v135q69 22 143 30v-163
q0 -17 4.5 -31t12.5 -27h-104zM267 460q0 -16 -11.5 -28t-28.5 -12t-28.5 12t-11.5 28q0 17 11.5 28.5t28.5 11.5t28.5 -11.5t11.5 -28.5zM153 460q0 -16 -11.5 -28t-27.5 -12q-17 0 -29.5 12t-12.5 28q0 17 12.5 28.5t29.5 11.5q16 0 27.5 -11.5t11.5 -28.5z" />
    <glyph glyph-name="tehfinalarabic" unicode="&#x62a;" horiz-adv-x="850" arabic-form="final" 
d="M836 56q-29 0 -56.5 2.5t-53.5 7.5v269h-56v-252q-41 -11 -90 -17t-91.5 -8t-72 -2h-30.5h-31t-72 2t-92 8t-90 17v252h-56v-293q37 -18 77.5 -26.5t83.5 -12t88 -3.5h92q75 0 146.5 1.5t136.5 19.5q81 -21 167 -21h19v56h-19zM481 454q0 -17 -11 -28.5t-28 -11.5
t-28 11.5t-11 28.5t11 28t28 11t28 -11t11 -28zM369 454q0 -17 -12 -28.5t-27 -11.5q-17 0 -28.5 11.5t-11.5 28.5t11.5 28t28.5 11q15 0 27 -11t12 -28z" />
    <glyph glyph-name="thehfinalarabic" unicode="&#x62b;" horiz-adv-x="866" arabic-form="final" 
d="M851 57q-29 0 -57.5 2.5t-54.5 7.5v268h-57v-250q-42 -12 -92 -17.5t-93.5 -8t-73.5 -2.5h-31h-32t-73.5 2.5t-93.5 8t-92 17.5v250h-57v-292q38 -18 79 -27t85 -12.5t90 -3.5h94q77 0 150 1.5t139 19.5q81 -21 170 -21h21v57h-21zM488 463q0 -17 -11.5 -28.5
t-28.5 -11.5t-28.5 11.5t-11.5 28.5t11.5 29t28.5 12t28.5 -12t11.5 -29zM374 463q0 -17 -11.5 -28.5t-28.5 -11.5t-29 11.5t-12 28.5t12 29t29 12t28.5 -12t11.5 -29zM431 540q0 -17 -11.5 -28.5t-28.5 -11.5t-28.5 11.5t-11.5 28.5t11.5 28.5t28.5 11.5t28.5 -11.5
t11.5 -28.5z" />
    <glyph glyph-name="jeemfinalarabic" unicode="&#x62c;" horiz-adv-x="533" arabic-form="final" 
d="M539 55v-55h-64v24q-27 -24 -66 -24h-253q-22 -2 -39 -18t-16 -40v-80q47 -15 95 -24t102 -9v-54q-68 0 -131.5 13t-120.5 36v118q0 23 8.5 43.5t23.5 36t34.5 24.5t42.5 9h272l-116 196q-6 13 -19 21.5t-29 8.5h-161v54h161q31 0 57 -15.5t40 -38.5l130 -226h49z
M348 -74q17 0 27.5 -11t10.5 -26q0 -17 -10.5 -28.5t-27.5 -11.5q-16 0 -27.5 11.5t-11.5 28.5q0 15 11.5 26t27.5 11z" />
    <glyph glyph-name="hahfinalarabic" unicode="&#x62d;" horiz-adv-x="534" arabic-form="final" 
d="M539 55v-55h-64v24q-27 -24 -66 -24h-253q-22 -2 -39 -18t-16 -40v-80q47 -15 95 -24t102 -9v-54q-68 0 -131.5 13t-120.5 36v118q0 23 8.5 43.5t23.5 36t34.5 24.5t42.5 9h272l-116 197q-6 13 -19 21.5t-29 8.5h-161v54h161q31 0 57 -15.5t40 -38.5l130 -227h49z" />
    <glyph glyph-name="khahfinalarabic" unicode="&#x62e;" horiz-adv-x="539" arabic-form="final" 
d="M494 56l-131 224q-14 24 -39.5 39.5t-57.5 15.5h-163v-55h163q15 0 28 -8t21 -20l115 -196h-274q-23 0 -43 -9t-35 -24t-23.5 -35.5t-8.5 -43.5v-122q59 -23 122 -36t131 -13v55q-53 0 -101.5 8.5t-96.5 24.5v83q0 23 17 38.5t39 17.5h256q39 0 66 24v-24h65v56h-50z
M225 452q0 -16 -11.5 -27.5t-27.5 -11.5t-28 11.5t-12 27.5t12 27.5t28 11.5t27.5 -11.5t11.5 -27.5z" />
    <glyph glyph-name="dalfinalarabic" unicode="&#x62f;" horiz-adv-x="543" arabic-form="final" 
d="M549 57v-57h-20q-29 0 -58.5 2t-56.5 6v-8h-288v57h232v67l-83 123q-16 30 -49 30h-85v58h85q32 0 58.5 -16.5t40.5 -41.5l89 -137v-73q27 -5 56.5 -7.5t58.5 -2.5h20z" />
    <glyph glyph-name="thalfinalarabic" unicode="&#x630;" horiz-adv-x="544" arabic-form="final" 
d="M549 57v-57h-20q-29 0 -58.5 2t-56.5 6v-8h-288v57h232v67l-83 123q-16 30 -49 30h-85v58h85q32 0 58.5 -16.5t40.5 -41.5l89 -137v-73q27 -5 56.5 -7.5t58.5 -2.5h20zM184 427q-16 0 -28 11.5t-12 28.5t12 29t28 12q18 0 30 -12t12 -29t-12 -28.5t-30 -11.5z" />
    <glyph glyph-name="rehfinalarabic" unicode="&#x631;" horiz-adv-x="385" arabic-form="final" 
d="M392 55v-55q-68 -2 -131 9v-126q0 -23 -9 -43t-24 -35.5t-35.5 -24.5t-43.5 -9h-99v57h98q25 0 40.5 16.5t15.5 38.5v447v2q14 1 28.5 1.5t28.5 0.5v-268q27 -5 55 -8t57 -3h19z" />
    <glyph glyph-name="zainfinalarabic" unicode="&#x632;" horiz-adv-x="392" arabic-form="final" 
d="M400 55v-55q-68 -2 -131 9v-126q0 -23 -9 -43t-24 -35.5t-35.5 -24.5t-43.5 -9h-99v57h98q25 0 40.5 16.5t15.5 38.5v447v2q14 1 28.5 1.5t28.5 0.5v-268q27 -5 55 -8t57 -3h19zM240 420q-17 0 -28 11.5t-11 28.5q0 16 11 28t28 12t29 -12t12 -28q0 -17 -12 -28.5
t-29 -11.5z" />
    <glyph glyph-name="seenfinalarabic" unicode="&#x633;" horiz-adv-x="1079" arabic-form="final" 
d="M1083 58v-58h-24q-40 0 -78 6t-76 15q-14 -9 -29.5 -15t-33.5 -6h-33q-52 0 -83 39q-33 -39 -84 -39h-32q-16 0 -30.5 4.5t-25.5 9.5v-127q-48 -52 -113.5 -82t-140.5 -30q-77 0 -141.5 30t-113.5 82v341h56v-319q38 -36 89 -57.5t110 -21.5q57 0 108 21.5t91 57.5v374
h55v-226h143v253h55v-253h145v278h54v-223q0 -24 -9 -42q57 -12 117 -12h24z" />
    <glyph glyph-name="sheenfinalarabic" unicode="&#x634;" horiz-adv-x="1079" arabic-form="final" 
d="M1083 58v-58h-24q-40 0 -78 6t-76 15q-14 -9 -29.5 -15t-33.5 -6h-33q-52 0 -83 39q-33 -39 -84 -39h-32q-16 0 -30.5 4.5t-25.5 9.5v-127q-48 -52 -113.5 -82t-140.5 -30q-77 0 -141.5 30t-113.5 82v341h56v-319q38 -36 89 -57.5t110 -21.5q57 0 108 21.5t91 57.5v374
h55v-226h143v253h55v-253h145v278h54v-223q0 -24 -9 -42q57 -12 117 -12h24zM743 454q0 16 11 26.5t27 10.5q17 0 28.5 -10.5t11.5 -26.5q0 -17 -11.5 -28t-28.5 -11q-16 0 -27 11t-11 28zM670 415q-17 0 -28.5 11t-11.5 28q0 16 11.5 26.5t28.5 10.5t28.5 -10.5t11.5 -26.5
q0 -17 -11.5 -28t-28.5 -11zM727 486q-17 0 -28.5 12.5t-11.5 29.5q0 15 11.5 27t28.5 12q15 0 26 -12t11 -27q0 -17 -11 -29.5t-26 -12.5z" />
    <glyph glyph-name="sadfinalarabic" unicode="&#x635;" horiz-adv-x="1151" arabic-form="final" 
d="M1160 57v-57h-29q-43 0 -85.5 4.5t-83.5 14.5q-29 -19 -68 -19h-246h-1q-14 0 -29 3.5t-28 10.5v-136q-51 -57 -121 -89t-152 -32t-151.5 32t-120.5 89v363h60v-342q42 -38 96 -60t116 -22q63 0 117 22t96 60v435h60v-117q60 68 146 99q60 18 121 18h38q25 0 46.5 -9
t37.5 -25t25.5 -37.5t9.5 -46.5v-97q0 -15 -2.5 -26.5t-6.5 -22.5q29 -6 61.5 -9.5t64.5 -3.5h29zM954 57v159q0 25 -17.5 43t-42.5 18h-59q-20 -2 -40 -6.5t-42 -10.5q-53 -20 -94.5 -56t-68.5 -81v-66h364z" />
    <glyph glyph-name="dadfinalarabic" unicode="&#x636;" horiz-adv-x="1150" arabic-form="final" 
d="M1160 57v-57h-29q-43 0 -85.5 4.5t-83.5 14.5q-29 -19 -68 -19h-246h-1q-14 0 -29 3.5t-28 10.5v-136q-51 -57 -121 -89t-152 -32t-151.5 32t-120.5 89v363h60v-342q42 -38 96 -60t116 -22q63 0 117 22t96 60v435h60v-117q60 68 146 99q60 18 121 18h38q25 0 46.5 -9
t37.5 -25t25.5 -37.5t9.5 -46.5v-97q0 -15 -2.5 -26.5t-6.5 -22.5q29 -6 61.5 -9.5t64.5 -3.5h29zM954 57v159q0 25 -17.5 43t-42.5 18h-59q-20 -2 -40 -6.5t-42 -10.5q-53 -20 -94.5 -56t-68.5 -81v-66h364zM773 437q-18 0 -30 12.5t-12 29.5q0 18 12 31t30 13
q17 0 29.5 -13t12.5 -31q0 -17 -12.5 -29.5t-29.5 -12.5z" />
    <glyph glyph-name="tahfinalarabic" unicode="&#x637;" horiz-adv-x="669" arabic-form="final" 
d="M676 56v-56h-115v26q-29 -26 -70 -26h-446l18 56h39v504h55v-256q45 14 92.5 22t97.5 8q31 0 56.5 -15.5t39.5 -39.5l131 -223h102zM510 56l-115 195q-13 24 -42 27q-102 0 -196 -32v-190h353z" />
    <glyph glyph-name="zahfinalarabic" unicode="&#x638;" horiz-adv-x="670" arabic-form="final" 
d="M676 56v-56h-115v26q-29 -26 -70 -26h-446l18 56h39v504h55v-255q45 14 92.5 22t97.5 8q31 0 56.5 -15.5t39.5 -39.5l131 -224h102zM510 56l-115 196q-13 24 -42 27q-102 0 -196 -32v-191h353zM307 409q-16 0 -27 11t-11 27q0 17 11 28.5t27 11.5q17 0 28.5 -11.5
t11.5 -28.5q0 -16 -11.5 -27t-28.5 -11z" />
    <glyph glyph-name="ainfinalarabic" unicode="&#x639;" horiz-adv-x="330" arabic-form="final" 
d="M98 109q0 -23 16 -38.5t39 -15.5h185v-55h-185q-23 0 -39 -16.5t-16 -39.5v-78q47 -17 95 -25.5t99 -8.5v-53q-66 0 -128 12t-119 35v118q0 25 10 46.5t28 36.5q-18 15 -28 37t-10 45v177q57 23 119 35.5t128 12.5v-55q-51 0 -99 -8t-95 -22v-140z" />
    <glyph glyph-name="ghainfinalarabic" unicode="&#x63a;" horiz-adv-x="329" arabic-form="final" 
d="M98 109q0 -23 16 -38.5t39 -15.5h185v-55h-185q-23 0 -39 -16.5t-16 -39.5v-78q47 -17 95 -25.5t99 -8.5v-53q-66 0 -128 12t-119 35v118q0 25 10 46.5t28 36.5q-18 15 -28 37t-10 45v177q57 23 119 35.5t128 12.5v-55q-51 0 -99 -8t-95 -22v-140zM170 407
q-17 0 -27 11.5t-10 26.5q0 17 10 28t27 11q16 0 27 -11t11 -28q0 -15 -11 -26.5t-27 -11.5z" />
    <glyph glyph-name="fehfinalarabic" unicode="&#x641;" horiz-adv-x="855" arabic-form="final" 
d="M863 56v-57h-5q-43 0 -94 5.5t-91 15.5q-66 -18 -137 -19.5t-148 -1.5h-92.5t-88.5 3.5t-83.5 12.5t-78.5 27v293h56v-251q42 -12 91.5 -17.5t92.5 -8t72 -2.5h31h30.5t70.5 3q-13 22 -13 53v173q118 50 255 50v-270q26 -5 61.5 -7t65.5 -2h5zM531 112q0 -15 8 -28
t21 -20q30 3 59 7.5t56 12.5v192q-75 -6 -144 -30v-134zM595 415q-17 0 -28.5 11.5t-11.5 28.5q0 16 11.5 28t28.5 12t28 -12t11 -28q0 -17 -11 -28.5t-28 -11.5z" />
    <glyph glyph-name="qaffinalarabic" unicode="&#x642;" horiz-adv-x="716" arabic-form="final" 
d="M504 431q-18 0 -30 12.5t-12 29.5t12 29t30 12q17 0 28 -12t11 -29t-11 -29.5t-28 -12.5zM385 431q-16 0 -28.5 12.5t-12.5 29.5t12.5 29t28.5 12q18 0 30 -12t12 -29t-12 -29.5t-30 -12.5zM715 56v-56h-20q-29 0 -57.5 2.5t-57.5 6.5v-130q-48 -54 -117 -86t-149 -32
q-81 0 -149.5 32t-119.5 86v337h58v-314q42 -38 95.5 -60.5t115.5 -22.5q60 0 113 22.5t95 60.5v108q-21 -3 -43.5 -6.5t-46.5 -3.5t-45.5 9t-37.5 24.5t-25.5 37t-9.5 46.5v165q127 52 266 52v-113v-73t0.5 -43t0.5 -22v-9.5v-6.5q58 -11 114 -11h20zM425 58q25 1 49 3.5
t48 7.5v204q-78 -6 -147 -33v-123q0 -23 14 -40t36 -19z" />
    <glyph glyph-name="kaffinalarabic" unicode="&#x643;" horiz-adv-x="818" arabic-form="final" 
d="M322 340v36h30v3t-0.5 8t-0.5 17v31q26 9 50 13.5t54 4.5v-36q-21 0 -37 -2t-30 -7v-22q0 -10 10 -10h57v-36h-133zM823 56v-56h-34q-35 0 -62 19t-39 48q-68 -32 -142 -49.5t-153 -17.5q-94 0 -183 24t-164 69v129h55v-96q65 -34 139.5 -52t152.5 -18q77 0 149 18
t136 52v434h56v-448q0 -23 16 -39.5t39 -16.5h1h33z" />
    <glyph glyph-name="lamfinalarabic" unicode="&#x644;" horiz-adv-x="673" arabic-form="final" 
d="M678 55v-55h-18q-27 0 -54 2t-54 5v-120q-48 -52 -113 -82t-140 -30q-77 0 -142 30t-112 82v339h56v-317q38 -38 89 -58t109 -20q57 0 108 20t90 58v651h55v-495q26 -5 53.5 -7.5t54.5 -2.5h18z" />
    <glyph glyph-name="meemfinalarabic" unicode="&#x645;" horiz-adv-x="451" arabic-form="final" 
d="M455 55v-55h-1q-15 0 -38.5 4.5t-35.5 13.5v-18h-225q-24 -1 -40 -17t-16 -39v-168h-54v180q5 40 33.5 68t67.5 31q-17 20 -17 54v175q60 24 122 36t129 14v-279h74h1zM324 278q-36 -4 -70.5 -11t-66.5 -19v-139q1 -22 15.5 -37.5t37.5 -16.5h84v223z" />
    <glyph glyph-name="noonfinalarabic" unicode="&#x646;" horiz-adv-x="686" arabic-form="final" 
d="M301 419q-17 0 -28.5 11t-11.5 26q0 17 11.5 28.5t28.5 11.5t27.5 -11.5t10.5 -28.5q0 -15 -10.5 -26t-27.5 -11zM691 0q-31 0 -69 2.5t-67 7.5v-119q-47 -54 -111.5 -83t-142.5 -29q-77 0 -142.5 29t-113.5 83v340h57v-320q38 -36 89.5 -57t109.5 -21t108.5 21t90.5 57
v423h55v-267q29 -5 67 -8.5t69 -3.5v-55z" />
    <glyph glyph-name="hehfinalarabic" unicode="&#x647;" horiz-adv-x="398" arabic-form="final" 
d="M402 56v-56h-43q-26 0 -48.5 11t-38.5 30q-17 -25 -48 -36q-5 -2 -18 -3t-28 -2t-27 -1t-15 1q-19 4 -35.5 14.5t-28.5 25.5t-19 33t-7 38v174q60 24 124.5 37t132.5 13v-222q0 -24 17 -40.5t40 -16.5h42zM263 55q-8 13 -12.5 27t-4.5 31v163q-74 -8 -143 -30v-135
q1 -23 16.5 -38.5t39.5 -17.5h104z" />
    <glyph glyph-name="alefmaksurafinalarabic" unicode="&#x649;" horiz-adv-x="752" arabic-form="final" 
d="M759 58v-58h-65q-24 0 -45.5 9t-37 24.5t-24.5 36.5t-9 45v161q-52 -1 -102 -10.5t-98 -25.5v-127q0 -26 17.5 -44t42.5 -18h33q25 0 46.5 -9.5t37 -26t24.5 -38t9 -45.5v-61q-51 -56 -121 -88.5t-150 -32.5q-81 0 -151.5 32.5t-120.5 88.5v343h58v-319q43 -39 98 -62
t116 -23q62 0 117 23t97 62v37q0 26 -17.5 42.5t-43.5 17.5h-31q-25 0 -47 9.5t-38 26t-25 38t-9 46.5v171q60 24 125 37t133 14h58v-218q0 -23 17 -40.5t40 -17.5h66z" />
    <glyph glyph-name="yehfinalarabic" unicode="&#x64a;" horiz-adv-x="755" arabic-form="final" 
d="M263 -300q17 0 30 -12.5t13 -29.5t-13 -29.5t-30 -12.5t-29.5 12.5t-12.5 29.5t12.5 29.5t29.5 12.5zM759 58v-58h-65q-24 0 -45.5 9t-37 24.5t-24.5 36.5t-9 45v161q-52 -1 -102 -10.5t-98 -25.5v-127q0 -26 17.5 -44t42.5 -18h33q25 0 46.5 -9.5t37 -26t24.5 -38
t9 -45.5v-61q-51 -56 -121 -88.5t-150 -32.5q-81 0 -151.5 32.5t-120.5 88.5v343h58v-319q43 -39 98 -62t116 -23q62 0 117 23t97 62v37q0 26 -17.5 42.5t-43.5 17.5h-31q-25 0 -47 9.5t-38 26t-25 38t-9 46.5v171q60 24 125 37t133 14h58v-218q0 -23 17 -40.5t40 -17.5h66z
M381 -300q18 0 29.5 -12.5t11.5 -29.5t-11.5 -29.5t-29.5 -12.5q-17 0 -29 12.5t-12 29.5t12 29.5t29 12.5z" />
    <glyph glyph-name="yehhamzaaboveinitialarabic" unicode="&#x626;" horiz-adv-x="190" arabic-form="initial" 
d="M190 335v-314q-83 -21 -171 -21h-19v57h19q29 0 57 2.5t56 7.5v268h58zM105 471q0 -5 3 -7t6 -2h56v-37h-130v37h31q-1 1 -1.5 2.5t-0.5 7v16v28.5q25 10 48.5 15t52.5 5v-36q-21 0 -36 -2t-29 -7v-20z" />
    <glyph glyph-name="dadinitialarabic" unicode="&#x636;" horiz-adv-x="583" arabic-form="initial" 
d="M575 68q-5 -15 -16 -29t-24 -20q-30 -19 -63 -19h-232h-1q-34 0 -62 19q-38 -10 -84 -14.5t-88 -4.5h-5v56h5q29 0 62 2.5t61 7.5v268h55v-109q28 29 62 52t76 37q58 20 116 20h35q23 0 43.5 -9t35.5 -24t23.5 -35.5t8.5 -43.5v-108v-1q0 -26 -8 -45zM528 222
q0 23 -16.5 39t-39.5 16h-57q-39 -2 -76 -15q-51 -19 -90.5 -52.5t-65.5 -76.5v-77h345v166zM368 418q-17 0 -28.5 11t-11.5 28t11.5 28.5t28.5 11.5t28.5 -11.5t11.5 -28.5t-11.5 -28t-28.5 -11z" />
    <glyph glyph-name="alefmaksurainitialarabic" unicode="&#x6cc;" horiz-adv-x="190" arabic-form="initial" 
d="M190 335v-314q-83 -21 -171 -21h-19v57h19q29 0 57 2.5t56 7.5v268h58zM170 -117q0 -16 -11.5 -27.5t-28.5 -11.5t-28.5 11.5t-11.5 27.5q0 17 11.5 29t28.5 12t28.5 -12t11.5 -29zM55 -117q0 -16 -11.5 -27.5t-28.5 -11.5t-29 11.5t-12 27.5q0 17 12 29t29 12t28.5 -12
t11.5 -29z" />
    <glyph glyph-name="alefmaksuramedialarabic" unicode="&#x6cc;" horiz-adv-x="311" arabic-form="medial" 
d="M320 57v-57h-21q-38 0 -74 4t-72 12q-34 -8 -69.5 -12t-73.5 -4h-17v57h17q29 0 58 3t58 8v267h58v-267q28 -5 56.5 -8t58.5 -3h21zM171 -117q0 -16 -12 -28t-29 -12t-28 12t-11 28q0 17 11 29.5t28 12.5t29 -12.5t12 -29.5zM55 -117q0 -16 -12 -28t-28 -12q-17 0 -30 12
t-13 28q0 17 13 29.5t30 12.5q16 0 28 -12.5t12 -29.5z" />
    <glyph glyph-name="sadinitialarabic" unicode="&#x635;" horiz-adv-x="582" arabic-form="initial" 
d="M575 68q-5 -15 -16 -29t-24 -20q-30 -19 -63 -19h-232h-1q-34 0 -62 19q-38 -10 -84 -14.5t-88 -4.5h-5v56h5q29 0 62 2.5t61 7.5v269h55v-109q28 29 62 52t76 37q58 20 116 20h35q23 0 43.5 -9t35.5 -24t23.5 -35.5t8.5 -43.5v-109v-1q0 -26 -8 -45zM528 223
q0 23 -16.5 39t-39.5 16h-57q-39 -2 -76 -15q-51 -19 -90.5 -52.5t-65.5 -76.5v-78h345v167z" />
    <glyph glyph-name="pehinitialarabic" unicode="&#x67e;" horiz-adv-x="190" arabic-form="initial" 
d="M190 334v-313q-83 -21 -171 -21h-19v57h19q29 0 57 2.5t56 7.5v267h58zM-25 -110q0 17 12 29.5t29 12.5t29 -12.5t12 -29.5q0 -16 -12 -28t-29 -12t-29 12t-12 28zM91 -110q0 17 12 29.5t27 12.5q17 0 29.5 -12.5t12.5 -29.5q0 -16 -12.5 -28t-29.5 -12q-15 0 -27 12
t-12 28zM35 -185q0 17 11.5 29.5t26.5 12.5q19 0 31 -12.5t12 -29.5t-12 -29t-31 -12q-15 0 -26.5 12t-11.5 29z" />
    <glyph glyph-name="tchehinitialarabic" unicode="&#x686;" horiz-adv-x="462" arabic-form="initial" 
d="M246 -113q0 -18 -13 -30t-28 -12q-16 0 -28 12t-12 30q0 14 12 25.5t28 11.5q15 0 28 -11.5t13 -25.5zM349 -113q0 -18 -13 -30t-28 -12q-16 0 -28 12t-12 30q0 14 12 25.5t28 11.5q15 0 28 -11.5t13 -25.5zM297 -204q0 -18 -13 -30t-28 -12q-16 0 -28 12t-12 30
q0 14 12 25.5t28 11.5q15 0 28 -11.5t13 -25.5zM462 43q-17 -20 -38.5 -31.5t-51.5 -11.5h-376v55h396l-118 198q-5 11 -18.5 18t-29.5 7h-162v57h162q32 0 57 -15.5t40 -41.5z" />
    <glyph glyph-name="vehinitialarabic" unicode="&#x6a4;" horiz-adv-x="378" arabic-form="initial" 
d="M378 67v267q-70 0 -135.5 -13t-125.5 -38v-169q0 -29 13 -54q-21 -1 -43 -1.5t-41 -1t-31.5 -0.5h-14.5v-57h81.5t84.5 1.5t81 6t72 13.5q16 5 26 10.5t16 11t10 11.5t7 13zM175 114v129q70 25 145 31v-188q-26 -7 -57 -12t-60 -9q-28 17 -28 49zM341 454
q0 -16 -11.5 -28t-27.5 -12q-17 0 -28 12t-11 28q0 15 11 26.5t28 11.5q16 0 27.5 -11.5t11.5 -26.5zM230 454q0 -16 -11.5 -28t-25.5 -12q-16 0 -28 12t-12 28q0 15 12 26.5t28 11.5q14 0 25.5 -11.5t11.5 -26.5zM284 526q0 -17 -11 -28.5t-26 -11.5q-17 0 -29 11.5
t-12 28.5t12 28t29 11q15 0 26 -11t11 -28z" />
    <glyph glyph-name="pehmedialarabic" unicode="&#x67e;" horiz-adv-x="328" arabic-form="medial" 
d="M331 57v-57h-26q-73 0 -142 15q-68 -15 -143 -15h-24v57h24q29 0 58.5 2.5t56.5 7.5v267h57v-267q28 -5 56 -7.5t57 -2.5h26zM-21 -109q0 17 12 29t29 12t28.5 -12t11.5 -29t-11.5 -28.5t-28.5 -11.5t-29 11.5t-12 28.5zM94 -109q0 17 11.5 29t28.5 12t29 -12t12 -29
t-12 -28.5t-29 -11.5t-28.5 11.5t-11.5 28.5zM37 -184q0 17 12 28t29 11t28.5 -11t11.5 -28t-11.5 -29t-28.5 -12t-29 12t-12 29z" />
    <glyph glyph-name="tchehmedialarabic" unicode="&#x686;" horiz-adv-x="544" arabic-form="medial" 
d="M548 55v-55h-123v24q-15 -11 -31 -17.5t-36 -6.5h-362v55h379l-114 198q-7 11 -19 18.5t-27 7.5h-160v55h160q30 0 56 -15.5t40 -39.5l127 -224h110zM271 -112q0 -18 -13 -30t-28 -12q-16 0 -28 12t-12 30q0 14 12 25.5t28 11.5q15 0 28 -11.5t13 -25.5zM374 -112
q0 -18 -13 -30t-28 -12q-16 0 -28 12t-12 30q0 14 12 25.5t28 11.5q15 0 28 -10.5t13 -24.5v-2zM322 -203q0 -18 -13 -30t-28 -12q-16 0 -28 12t-12 30q0 14 12 25.5t28 11.5q15 0 28 -11.5t13 -25.5z" />
    <glyph glyph-name="vehmedialarabic" unicode="&#x6a4;" horiz-adv-x="503" arabic-form="medial" 
d="M479 56q-29 0 -56.5 2.5t-55.5 7.5v268q-69 0 -133.5 -13t-124.5 -38v-170q0 -29 13 -54q-21 -1 -43 -1.5t-40.5 -1t-31 -0.5h-14.5v-56h81t83.5 1.5t80 6t71.5 13.5q41 -11 84 -16t86 -5h30v56h-30zM166 113v130q34 12 70 20t74 11v-189q-26 -7 -56.5 -12t-59.5 -9
q-28 17 -28 49zM332 454q0 -16 -11.5 -28t-27.5 -12q-17 0 -28 12t-11 28q0 15 11 26.5t28 11.5q16 0 27.5 -11.5t11.5 -26.5zM221 454q0 -16 -11.5 -28t-25.5 -12q-16 0 -28 12t-12 28q0 15 12 26.5t28 11.5q14 0 25.5 -11.5t11.5 -26.5zM275 526q0 -17 -11 -28.5
t-26 -11.5q-17 0 -29 11.5t-12 28.5t12 28t29 11q15 0 26 -11t11 -28z" />
    <glyph glyph-name="pehfinalarabic" unicode="&#x67e;" horiz-adv-x="865" arabic-form="final" 
d="M872 57v-57h-21q-89 0 -170 21q-66 -18 -139 -19.5t-150 -1.5h-94t-90 3.5t-85 12.5t-79 27v292h57v-250q42 -12 92 -17.5t93.5 -8t73.5 -2.5h32h31t73.5 2.5t93.5 8t92 17.5v250h57v-268q26 -5 54.5 -7.5t57.5 -2.5h21zM294 -108q0 17 11.5 28.5t28.5 11.5t28.5 -11.5
t11.5 -28.5t-11.5 -29t-28.5 -12t-28.5 12t-11.5 29zM408 -108q0 17 11.5 28.5t28.5 11.5t29 -11.5t12 -28.5t-12 -29t-29 -12t-28.5 12t-11.5 29zM351 -185q0 17 11.5 28.5t28.5 11.5t28.5 -11.5t11.5 -28.5t-11.5 -28.5t-28.5 -11.5t-28.5 11.5t-11.5 28.5z" />
    <glyph glyph-name="tchehfinalarabic" unicode="&#x686;" horiz-adv-x="540" arabic-form="final" 
d="M539 55v-55h-64v24q-27 -24 -66 -24h-253q-22 -2 -39 -18t-16 -40v-80q47 -15 95 -24t102 -9v-54q-68 0 -131.5 13t-120.5 36v118q0 23 8.5 43.5t23.5 36t34.5 24.5t42.5 9h272l-116 196q-6 13 -19 21.5t-29 8.5h-161v54h161q31 0 57 -15.5t40 -38.5l130 -226h49z
M395 -97q0 -17 -13 -29t-27 -12q-16 0 -28 12t-12 29q0 14 12 25.5t28 11.5q14 0 27 -11.5t13 -25.5zM497 -97q0 -17 -13 -29t-28 -12t-27 12t-12 29q0 14 12 25.5t27 11.5t28 -11.5t13 -25.5zM445 -186q0 -18 -12.5 -30t-27.5 -12q-16 0 -28 12t-12 30q0 14 12 25t28 11
q15 0 27.5 -11t12.5 -25z" />
    <glyph glyph-name="vehfinalarabic" unicode="&#x6a4;" horiz-adv-x="858" arabic-form="final" 
d="M858 56q-30 0 -65.5 2t-61.5 7v269q-137 0 -255 -50v-172q0 -31 13 -53q-42 -3 -70.5 -3h-30.5h-31t-72 2.5t-92.5 8t-91.5 17.5v250h-56v-292q38 -18 78.5 -27t83.5 -12.5t88.5 -3.5h92.5q77 0 148 1.5t137 19.5q40 -10 91 -15.5t94 -5.5h5v57h-5zM531 112v133
q69 24 144 30v-191q-27 -8 -56 -12.5t-59 -7.5q-13 7 -21 20t-8 28zM690 454q0 -16 -11.5 -28t-27.5 -12q-17 0 -28 12t-11 28q0 15 11 26.5t28 11.5q16 0 27.5 -11.5t11.5 -26.5zM579 454q0 -16 -11.5 -28t-25.5 -12q-16 0 -28 12t-12 28q0 15 12 26.5t28 11.5
q14 0 25.5 -11.5t11.5 -26.5zM633 526q0 -17 -11 -28.5t-26 -11.5q-17 0 -29 11.5t-12 28.5t12 28t29 11q15 0 26 -11t11 -28z" />
    <glyph glyph-name="jehfinalarabic" unicode="&#x698;" horiz-adv-x="395" arabic-form="final" 
d="M381 55q-29 0 -57 3t-55 8v268q-14 0 -28.5 -0.5t-28.5 -1.5v-2v-447q0 -22 -15.5 -38.5t-40.5 -16.5h-98v-57h99q23 0 43.5 9t35.5 24.5t24 35.5t9 43v126q63 -11 131 -9v55h-19zM276 460q0 -17 -11.5 -28.5t-28.5 -11.5t-28.5 11.5t-11.5 28.5t11.5 29t28.5 12
t28.5 -12t11.5 -29zM162 460q0 -17 -11.5 -28.5t-28.5 -11.5t-29 11.5t-12 28.5t12 29t29 12t28.5 -12t11.5 -29zM219 537q0 -17 -11.5 -28.5t-28.5 -11.5t-28.5 11.5t-11.5 28.5t11.5 28.5t28.5 11.5t28.5 -11.5t11.5 -28.5z" />
    <glyph glyph-name="hamzaarabic" unicode="&#x621;" horiz-adv-x="236" arabic-form="isolated" 
d="M140 67q0 -7 4.5 -9.5t8.5 -2.5h83v-55h-191v55h45q-1 1 -1.5 3.5t-1 10t-0.5 22.5v42q37 14 71 22t78 8v-53q-31 0 -53.5 -2.5t-42.5 -10.5v-30v0z" />
    <glyph glyph-name="alefarabic" unicode="&#x627;" horiz-adv-x="142" arabic-form="isolated" 
d="M142 0h-54v560h54v-560z" />
    <glyph glyph-name="beharabic" unicode="&#x628;" horiz-adv-x="687" arabic-form="isolated" 
d="M364 -68q15 0 27 -11t12 -27t-12 -26.5t-27 -10.5q-16 0 -26.5 10.5t-10.5 26.5t10.5 27t26.5 11zM687 334v-293q-35 -17 -73 -25.5t-78.5 -12t-83 -3.5h-86.5h-86t-82.5 3.5t-78.5 12t-74 25.5v293h54v-254q39 -11 85 -16t86 -7t67 -2h29h28.5t67.5 2t86.5 7t86.5 16
v254h52z" />
    <glyph glyph-name="tehmarbutaarabic" unicode="&#x629;" horiz-adv-x="384" arabic-form="isolated" 
d="M336 335h-244q-33 -85 -43.5 -167t-0.5 -168h332q10 89 -1 171.5t-43 163.5zM100 56q-5 59 4 113.5t27 110.5h166q19 -62 25.5 -114.5t6.5 -109.5h-229zM304 454q0 -16 -11.5 -27.5t-27.5 -11.5q-17 0 -28.5 11.5t-11.5 27.5q0 17 11.5 28.5t28.5 11.5q16 0 27.5 -11.5
t11.5 -28.5zM192 454q0 -16 -11.5 -27.5t-28.5 -11.5t-28.5 11.5t-11.5 27.5q0 17 11.5 28.5t28.5 11.5t28.5 -11.5t11.5 -28.5z" />
    <glyph glyph-name="teharabic" unicode="&#x62a;" horiz-adv-x="720" arabic-form="isolated" 
d="M477 449q0 -15 -11.5 -26t-28.5 -11q-16 0 -27 11t-11 26q0 17 11 28.5t27 11.5q17 0 28.5 -11.5t11.5 -28.5zM366 449q0 -15 -11.5 -26t-27.5 -11q-17 0 -28.5 11t-11.5 26q0 17 11.5 28.5t28.5 11.5q16 0 27.5 -11.5t11.5 -28.5zM664 335v-252q-41 -11 -89.5 -17
t-90.5 -8.5t-71 -2.5h-31h-31t-71 2.5t-90.5 8.5t-89.5 17v252h-55v-294q37 -17 76.5 -25.5t82 -12t87 -3.5h91.5h90.5t87.5 3.5t83 12t77 25.5v294h-56z" />
    <glyph glyph-name="theharabic" unicode="&#x62b;" horiz-adv-x="712" arabic-form="isolated" 
d="M471 447q0 -16 -11.5 -28t-27.5 -12q-17 0 -28 12t-11 28q0 15 11 26.5t28 11.5q16 0 27.5 -11.5t11.5 -26.5zM360 447q0 -16 -11.5 -28t-25.5 -12q-16 0 -28 12t-12 28q0 15 12 26.5t28 11.5q14 0 25.5 -11.5t11.5 -26.5zM414 519q0 -17 -11 -28.5t-26 -11.5
q-17 0 -29 11.5t-12 28.5t12 28t29 11q15 0 26 -11t11 -28zM658 334v-251q-41 -12 -89 -17.5t-90 -8t-71 -2.5h-30h-30t-70 2.5t-90 8t-88 17.5v251h-55v-293q36 -17 75.5 -25.5t81.5 -12t86 -3.5h90h90.5t86.5 3.5t81.5 12t75.5 25.5v293h-54z" />
    <glyph glyph-name="jeemarabic" unicode="&#x62c;" horiz-adv-x="500" arabic-form="isolated" 
d="M500 47q-32 -47 -90 -47h-254q-20 -1 -36.5 -17t-15.5 -41v-82q46 -16 94 -24.5t101 -8.5v-54q-67 0 -131 12.5t-122 35.5v121q0 23 9 43.5t24 35.5t34.5 24.5t41.5 9.5h276q-26 43 -40.5 68t-25.5 43t-22 36.5t-29 50.5q-8 12 -20.5 19.5t-27.5 7.5h-161v55h161
q32 0 57 -15.5t39 -39.5zM397 -94q0 -18 -13 -30t-28 -12q-16 0 -28 12t-12 30q0 14 12 25.5t28 11.5q15 0 28 -11.5t13 -25.5z" />
    <glyph glyph-name="haharabic" unicode="&#x62d;" horiz-adv-x="512" arabic-form="isolated" 
d="M512 47q-32 -47 -92 -47h-262q-20 -1 -37 -18t-16 -43v-82q48 -18 97.5 -26.5t103.5 -8.5v-55q-69 0 -134.5 13t-125.5 36v123q0 24 9 45t24.5 37t35.5 25t42 9h284q-27 45 -42 69t-26.5 41.5t-22.5 35t-29 49.5q-8 14 -21 21.5t-28 7.5h-166v56h166q32 0 58 -15t40 -41z
" />
    <glyph glyph-name="khaharabic" unicode="&#x62e;" horiz-adv-x="502" arabic-form="isolated" 
d="M363 279q-14 25 -39 40.5t-57 15.5h-163v-56h163q16 0 28.5 -8t18.5 -19q18 -32 29 -50t22.5 -36t26 -42t40.5 -68h-276q-22 0 -42 -9.5t-35 -24.5t-24 -35.5t-9 -43.5v-122q59 -23 123 -36t131 -13v56q-103 0 -196 33v82q-1 23 15.5 39.5t38.5 17.5h254q58 0 90 47z
M226 453q0 -17 -12 -28.5t-28 -11.5q-15 0 -28 11.5t-13 28.5t13 27.5t28 10.5q16 0 28 -10.5t12 -27.5z" />
    <glyph glyph-name="dalarabic" unicode="&#x62f;" horiz-adv-x="414" arabic-form="isolated" 
d="M414 0h-288v57h232v50l-83 140q-16 30 -49 30h-85v58h85q32 0 58.5 -16.5t40.5 -41.5l89 -154v-56v-67z" />
    <glyph glyph-name="thalarabic" unicode="&#x630;" horiz-adv-x="414" arabic-form="isolated" 
d="M414 0h-288v57h232v50l-83 140q-16 30 -49 30h-85v58h85q32 0 58.5 -16.5t40.5 -41.5l89 -154v-56v-67zM184 427q-16 0 -28 11.5t-12 28.5t12 29t28 12q18 0 30 -12t12 -29t-12 -28.5t-30 -11.5z" />
    <glyph glyph-name="reharabic" unicode="&#x631;" horiz-adv-x="274" arabic-form="isolated" 
d="M274 9v-126q0 -23 -9 -43t-24 -35.5t-35.5 -24.5t-43.5 -9h-99v57h98q25 0 40.5 16.5t15.5 38.5v447v2q14 1 28.5 1.5t28.5 0.5v-325z" />
    <glyph glyph-name="zainarabic" unicode="&#x632;" horiz-adv-x="274" arabic-form="isolated" 
d="M274 9v-126q0 -23 -9 -43t-24 -35.5t-35.5 -24.5t-43.5 -9h-99v57h98q25 0 40.5 16.5t15.5 38.5v448v2q14 1 28.5 1.5t28.5 0.5v-326zM245 420q-17 0 -28 11.5t-11 28.5q0 16 11 28t28 12t29 -12t12 -28q0 -17 -12 -28.5t-29 -11.5z" />
    <glyph glyph-name="seenarabic" unicode="&#x633;" horiz-adv-x="951" arabic-form="isolated" 
d="M951 335v-224q0 -23 -9 -43t-24 -35t-35 -24t-43 -9h-32q-51 0 -83 38q-33 -38 -83 -38h-1h-31h-1q-14 0 -28.5 4t-26.5 10v-128q-48 -53 -113.5 -82.5t-140.5 -29.5q-76 0 -141.5 29.5t-113.5 82.5v340h55v-319q39 -36 90.5 -57.5t109.5 -21.5q57 0 108 21.5t89 57.5
v375h57v-227h144v254h55v-254h143v280h55z" />
    <glyph glyph-name="sheenarabic" unicode="&#x634;" horiz-adv-x="951" arabic-form="isolated" 
d="M951 335v-224q0 -23 -9 -43t-24 -35t-35 -24t-43 -9h-32q-51 0 -83 38q-33 -38 -83 -38h-1h-31h-1q-14 0 -28.5 4t-26.5 10v-128q-48 -53 -113.5 -82.5t-140.5 -29.5q-76 0 -141.5 29.5t-113.5 82.5v340h55v-319q39 -36 90.5 -57.5t109.5 -21.5q57 0 108 21.5t89 57.5
v375h57v-227h144v254h55v-254h143v280h55zM740 452q0 16 12 27t27 11q17 0 29 -11t12 -27q0 -17 -12 -28.5t-29 -11.5q-15 0 -27 11.5t-12 28.5zM668 412q-17 0 -28.5 11.5t-11.5 28.5q0 16 11.5 27t28.5 11t28 -11t11 -27q0 -17 -11 -28.5t-28 -11.5zM724 486
q-17 0 -28.5 11t-11.5 28t11.5 28.5t28.5 11.5q16 0 27.5 -11.5t11.5 -28.5t-11.5 -28t-27.5 -11z" />
    <glyph glyph-name="sadarabic" unicode="&#x635;" horiz-adv-x="1014" arabic-form="isolated" 
d="M1005 70q-14 -22 -43 -51q-29 -19 -68 -19h-246h-1q-14 0 -29 3.5t-28 10.5v-136q-51 -57 -121 -89t-152 -32t-151.5 32t-120.5 89v363h60v-342q42 -38 96 -60t116 -22q63 0 117 22t96 60v436h60v-117q60 68 146 99q60 18 121 18h38q25 0 46.5 -9t37.5 -25t25.5 -37.5
t9.5 -46.5v-98q0 -15 -2.5 -26.5t-6.5 -22.5zM954 57v160q0 25 -17.5 43t-42.5 18h-59q-20 -2 -40 -6.5t-42 -10.5q-53 -20 -94.5 -56t-68.5 -81v-67h364z" />
    <glyph glyph-name="dadarabic" unicode="&#x636;" horiz-adv-x="1014" arabic-form="isolated" 
d="M1005 70q-14 -22 -43 -51q-29 -19 -68 -19h-246h-1q-14 0 -29 3.5t-28 10.5v-136q-51 -57 -121 -89t-152 -32t-151.5 32t-120.5 89v363h60v-342q42 -38 96 -60t116 -22q63 0 117 22t96 60v435h60v-117q60 68 146 99q60 18 121 18h38q25 0 46.5 -9t37.5 -25t25.5 -37.5
t9.5 -46.5v-97q0 -15 -2.5 -26.5t-6.5 -22.5zM954 57v159q0 25 -17.5 43t-42.5 18h-59q-20 -2 -40 -6.5t-42 -10.5q-53 -20 -94.5 -56t-68.5 -81v-66h364zM773 437q-18 0 -30 12.5t-12 29.5q0 18 12 31t30 13q17 0 29.5 -13t12.5 -31q0 -17 -12.5 -29.5t-29.5 -12.5z" />
    <glyph glyph-name="taharabic" unicode="&#x637;" horiz-adv-x="579" arabic-form="isolated" 
d="M580 46q-16 -21 -39 -33.5t-51 -12.5h-445l18 56h38v504h56v-255q45 14 92.5 22t97.5 8q31 0 56.5 -15t39.5 -40zM510 56l-115 196q-14 24 -42 27q-103 0 -196 -32v-191h353z" />
    <glyph glyph-name="zaharabic" unicode="&#x638;" horiz-adv-x="580" arabic-form="isolated" 
d="M309 408q-16 0 -27.5 11t-11.5 28q0 16 11.5 27t27.5 11t27.5 -11t11.5 -27q0 -17 -11.5 -28t-27.5 -11zM580 46q-16 -21 -39 -33.5t-51 -12.5h-445l18 56h38v504h56v-255q45 14 92.5 22t97.5 8q31 0 56.5 -15t39.5 -40zM510 56l-115 196q-14 24 -42 27q-103 0 -196 -32
v-191h353z" />
    <glyph glyph-name="ainarabic" unicode="&#x639;" horiz-adv-x="292" arabic-form="isolated" 
d="M98 109q0 -23 16 -38.5t39 -15.5h109v-55h-109q-23 0 -39 -16.5t-16 -39.5v-78q47 -17 95 -25.5t99 -8.5v-53q-66 0 -128 12t-119 35v118q0 25 10 46.5t28 36.5q-18 15 -28 37t-10 45v177q57 23 119 35.5t128 12.5v-55q-51 0 -99 -8t-95 -22v-140z" />
    <glyph glyph-name="ghainarabic" unicode="&#x63a;" horiz-adv-x="292" arabic-form="isolated" 
d="M98 109q0 -23 16 -38.5t39 -15.5h109v-55h-109q-23 0 -39 -16.5t-16 -39.5v-78q47 -17 95 -25.5t99 -8.5v-53q-66 0 -128 12t-119 35v118q0 25 10 46.5t28 36.5q-18 15 -28 37t-10 45v177q57 23 119 35.5t128 12.5v-55q-51 0 -99 -8t-95 -22v-140zM170 407
q-17 0 -27 11.5t-10 26.5q0 17 10 28t27 11q16 0 27 -11t11 -28q0 -15 -11 -26.5t-27 -11.5z" />
    <glyph glyph-name="feharabic" unicode="&#x641;" horiz-adv-x="732" arabic-form="isolated" 
d="M732 65q-8 -19 -20 -26.5t-38 -18.5q-66 -18 -137 -19.5t-148 -1.5h-92.5t-88.5 3.5t-83.5 12.5t-78.5 27v293h56v-251q42 -12 91.5 -17.5t92.5 -8t72 -2.5h31h30.5t70.5 3q-13 22 -13 53v173q118 50 255 50v-270zM532 112q0 -15 8 -28t21 -20q30 3 59 7.5t56 12.5v192
q-75 -6 -144 -30v-134zM596 415q-17 0 -28.5 11.5t-11.5 28.5q0 16 11.5 28t28.5 12t28 -12t11 -28q0 -17 -11 -28.5t-28 -11.5z" />
    <glyph glyph-name="qafarabic" unicode="&#x642;" horiz-adv-x="580" arabic-form="isolated" 
d="M504 431q-18 0 -30 12.5t-12 29.5t12 29t30 12q17 0 28 -12t11 -29t-11 -29.5t-28 -12.5zM385 431q-16 0 -28.5 12.5t-12.5 29.5t12.5 29t28.5 12q18 0 30 -12t12 -29t-12 -29.5t-30 -12.5zM580 9v-130q-48 -54 -117 -86t-149 -32q-81 0 -149.5 32t-119.5 86v338h58v-315
q42 -38 95.5 -60.5t115.5 -22.5q60 0 113 22.5t95 60.5v108q-21 -3 -43.5 -6.5t-46.5 -3.5t-45.5 9t-37.5 24.5t-25.5 37t-9.5 46.5v166q127 52 266 52v-269v-57zM425 58q25 1 49 3.5t48 7.5v205q-78 -6 -147 -33v-124q0 -23 14 -40t36 -19z" />
    <glyph glyph-name="kafarabic" unicode="&#x643;" horiz-adv-x="776" arabic-form="isolated" 
d="M322 340v36h30v3t-0.5 8t-0.5 17v31q26 9 50 13.5t54 4.5v-36q-21 0 -37 -2t-30 -7v-22q0 -10 10 -10h57v-36h-133zM688 67q-68 -32 -142 -49.5t-153 -17.5q-94 0 -183 24t-164 69v129h55v-96q65 -34 139.5 -52t152.5 -18q77 0 149 18t136 52v434h56v-448
q0 -1 -9.5 -16.5t-36.5 -28.5z" />
    <glyph glyph-name="lamarabic" unicode="&#x644;" horiz-adv-x="552" arabic-form="isolated" 
d="M552 7v-120q-48 -52 -113 -82t-140 -30q-77 0 -142 30t-112 82v339h56v-317q38 -38 89 -58t109 -20q57 0 108 20t90 58v651h55v-495v-58z" />
    <glyph glyph-name="meemarabic" unicode="&#x645;" horiz-adv-x="379" arabic-form="isolated" 
d="M380 18v-18h-225q-24 -1 -40 -17t-16 -39v-168h-54v180q5 40 33.5 68t67.5 31q-17 20 -17 54v175q60 24 122 36t129 14v-279v-37zM324 278q-36 -4 -70.5 -11t-66.5 -19v-139q1 -22 15.5 -37.5t37.5 -16.5h84v223z" />
    <glyph glyph-name="noonarabic" unicode="&#x646;" horiz-adv-x="555" arabic-form="isolated" 
d="M301 419q-17 0 -28.5 11t-11.5 26q0 17 11.5 28.5t28.5 11.5t27.5 -11.5t10.5 -28.5q0 -15 -10.5 -26t-27.5 -11zM555 10v-119q-47 -54 -111.5 -83t-142.5 -29q-77 0 -142.5 29t-113.5 83v340h57v-320q38 -36 89.5 -57t109.5 -21t108.5 21t90.5 57v424h55v-268v-57z" />
    <glyph glyph-name="heharabic" unicode="&#x647;" horiz-adv-x="385" arabic-form="isolated" 
d="M336 335q32 -81 43 -163.5t1 -171.5h-332q-10 86 0.5 168t43.5 167h244zM329 56q0 57 -6.5 109.5t-25.5 114.5h-166q-18 -56 -27 -110.5t-4 -113.5h229z" />
    <glyph glyph-name="wawarabic" unicode="&#x648;" horiz-adv-x="378" arabic-form="isolated" 
d="M378 10v-125q0 -23 -9 -42.5t-24 -34.5t-35 -24t-43 -9h-97v55h96q23 0 39.5 16t16.5 39v154q-16 -17 -38 -28t-48 -11q-23 0 -43 8.5t-35 23.5t-23.5 35.5t-8.5 43.5v175q59 23 122 36t130 13v-270v-55zM322 55v24v199q-71 -3 -140 -29v-138q0 -23 15.5 -39.5
t38.5 -16.5h86z" />
    <glyph glyph-name="alefmaksuraarabic" unicode="&#x649;" horiz-adv-x="643" arabic-form="isolated" 
d="M433 113q0 -26 17.5 -44t42.5 -18h33q25 0 46.5 -9.5t37 -26t24.5 -38t9 -45.5v-61q-51 -56 -121 -88.5t-150 -32.5q-81 0 -151.5 32.5t-120.5 88.5v343h58v-319q43 -39 98 -62t116 -23q62 0 117 23t97 62v37q0 26 -17.5 42.5t-43.5 17.5h-31q-25 0 -47 9.5t-38 26
t-25 38t-9 46.5v171q62 25 129.5 38t138.5 13v-58q-55 0 -107 -9.5t-103 -26.5v-127z" />
    <glyph glyph-name="yeharabic" unicode="&#x64a;" horiz-adv-x="589" arabic-form="isolated" 
d="M379 113q0 -26 17.5 -44t42.5 -18h33q25 0 46.5 -9.5t37 -26t24.5 -38t9 -45.5v-61q-51 -56 -121 -88.5t-150 -32.5q-81 0 -151.5 32.5t-120.5 88.5v343h58v-319q43 -39 98 -62t116 -23q62 0 117 23t97 62v37q0 26 -17.5 42.5t-43.5 17.5h-31q-25 0 -47 9.5t-38 26
t-25 38t-9 46.5v171q62 25 129.5 38t138.5 13v-58q-55 0 -107 -9.5t-103 -26.5v-127zM382 -384q-17 0 -29 12.5t-12 29.5t12 29.5t29 12.5q18 0 29.5 -12.5t11.5 -29.5t-11.5 -29.5t-29.5 -12.5zM264 -384q-17 0 -29.5 12.5t-12.5 29.5t12.5 29.5t29.5 12.5t30 -12.5
t13 -29.5t-13 -29.5t-30 -12.5z" />
    <glyph glyph-name="fathatanarabic" unicode="&#xfe70;" arabic-form="isolated" 
d="M249 704l-173 -30l-30 24l169 29zM271 639l-173 -30l-30 25l169 29z" />
    <glyph glyph-name="dammatanarabic" unicode="&#xfe72;" arabic-form="isolated" 
d="M181 689q11 11 21.5 21t22.5 21q11 12 15 26.5t-9 28.5q-14 14 -36 13t-35 -15q-15 -13 -17 -35.5t13 -36.5zM102 613q-4 14 -8 26q-4 11 -8 20t-9 14q-5 4 -10.5 2t-10 -6.5t-7.5 -9.5t-3 -6q1 2 4 11.5t7.5 19.5t10.5 18t12 7q6 0 12.5 -11.5t12.5 -25.5t10.5 -27
t4.5 -14l42 40l-12.5 12.5l-12.5 12.5q-23 25 -22 53.5t24 51.5q25 25 54.5 26t53.5 -25q18 -19 18.5 -43t-20.5 -43l-110 -107z" />
    <glyph glyph-name="kasratanarabic" unicode="&#xfe74;" arabic-form="isolated" 
d="M160 -477l-151 -26l-26 21l147 25zM180 -526l-151 -26l-26 22l147 25z" />
    <glyph glyph-name="fathaarabic" unicode="&#xfe76;" arabic-form="isolated" 
d="M222 635l-151 -26l-26 21l148 25z" />
    <glyph glyph-name="dammaarabic" unicode="&#xfe78;" arabic-form="isolated" 
d="M46 613l60 58q-5 5 -12 12.5t-12 12.5q-23 25 -22.5 53.5t24.5 51.5q24 25 53.5 26t54.5 -25q18 -19 18.5 -43t-20.5 -43l-111 -107zM125 689q11 11 22 21t22 21q11 12 15 26.5t-9 28.5q-14 14 -36 13t-35 -15q-7 -6 -11.5 -15.5t-5 -19.5t2.5 -20t11 -17z" />
    <glyph glyph-name="kasraarabic" unicode="&#xfe7a;" arabic-form="isolated" 
d="M160 -477l-151 -26l-26 21l147 25z" />
    <glyph glyph-name="shaddaarabic" unicode="&#xfe7c;" arabic-form="isolated" 
d="M261 659q-8 -27 -26.5 -38.5t-35.5 -11.5q-13 0 -26 5.5t-22 18.5l-1 -1q-16 -20 -45 -23q-10 -1 -20.5 2.5t-19 11.5t-14 20.5t-5.5 30.5v56h29v-49q0 -46 32 -46q20 0 32 20v75h29v-49q0 -46 32 -46q9 0 18 5t15 15v75h28v-71z" />
    <glyph glyph-name="sukunarabic" unicode="&#xfe7e;" arabic-form="isolated" 
d="M204 679q0 -22 -8 -35.5t-20 -21t-26 -10.5t-26 -3t-25.5 3t-25.5 10.5t-19.5 21t-7.5 35.5t9 38t22 26.5t26 16t21 5.5t21.5 -5.5t26.5 -16t22.5 -26.5t9.5 -38zM178 679q0 14 -6.5 25.5t-15 20t-17.5 13t-14 4.5t-14 -4.5t-17 -13t-14 -20t-6 -25.5q0 -28 16 -36.5
t35 -8.5t36 8.5t17 36.5z" />
    <glyph glyph-name="peharabic" unicode="&#x67e;" horiz-adv-x="712" arabic-form="isolated" 
d="M285 -108q0 16 11.5 28t27.5 12q17 0 28 -12t11 -28q0 -15 -11 -26.5t-28 -11.5q-16 0 -27.5 11.5t-11.5 26.5zM396 -108q0 16 11.5 28t25.5 12q16 0 28 -12t12 -28q0 -15 -12 -26.5t-28 -11.5q-14 0 -25.5 11.5t-11.5 26.5zM342 -180q0 17 11 28.5t26 11.5
q17 0 29 -11.5t12 -28.5t-12 -28t-29 -11q-15 0 -26 11t-11 28zM712 334v-293q-36 -17 -75.5 -25.5t-81.5 -12t-86.5 -3.5h-90.5h-90t-86 3.5t-81.5 12t-75.5 25.5v293h55v-251q40 -12 88 -17.5t90 -8t70 -2.5h30h30t71 2.5t90 8t89 17.5v251h54z" />
    <glyph glyph-name="tcheharabic" unicode="&#x686;" horiz-adv-x="500" arabic-form="isolated" 
d="M500 47q-32 -47 -90 -47h-254q-20 -1 -36.5 -17t-15.5 -41v-82q46 -16 94 -24.5t101 -8.5v-54q-67 0 -131 12.5t-122 35.5v121q0 23 9 43.5t24 35.5t34.5 24.5t41.5 9.5h276q-26 43 -40.5 68t-25.5 43t-22 36.5t-29 50.5q-8 12 -20.5 19.5t-27.5 7.5h-161v55h161
q32 0 57 -15.5t39 -39.5zM397 -94q0 -18 -13 -30t-28 -12q-16 0 -28 12t-12 30q0 14 12 25.5t28 11.5q15 0 28 -11.5t13 -25.5zM500 -94q0 -18 -13 -30t-28 -12q-16 0 -28 12t-12 30q0 14 12 25.5t28 11.5q15 0 28 -11.5t13 -25.5zM448 -185q0 -18 -13 -30t-28 -12
q-16 0 -28 12t-12 30q0 14 12 25.5t28 11.5q15 0 28 -11.5t13 -25.5z" />
    <glyph glyph-name="veharabic" unicode="&#x6a4;" horiz-adv-x="730" arabic-form="isolated" 
d="M731 65v270q-137 0 -255 -50v-173q0 -31 13 -53q-42 -3 -70.5 -3h-30.5h-31t-72 2.5t-92.5 8t-91.5 17.5v251h-56v-293q38 -18 78.5 -27t83.5 -12.5t88.5 -3.5h92.5q77 0 148 1.5t137 19.5q26 11 38 18.5t20 26.5zM531 112v134q69 24 144 30v-192q-27 -8 -56 -12.5
t-59 -7.5q-13 7 -21 20t-8 28zM690 454q0 -16 -11.5 -28t-27.5 -12q-17 0 -28 12t-11 28q0 15 11 26.5t28 11.5q16 0 27.5 -11.5t11.5 -26.5zM579 454q0 -16 -11.5 -28t-25.5 -12q-16 0 -28 12t-12 28q0 15 12 26.5t28 11.5q14 0 25.5 -11.5t11.5 -26.5zM633 526
q0 -17 -11 -28.5t-26 -11.5q-17 0 -29 11.5t-12 28.5t12 28t29 11q15 0 26 -11t11 -28z" />
    <glyph glyph-name="jeharabic" unicode="&#x698;" horiz-adv-x="274" arabic-form="isolated" 
d="M274 334q-14 0 -28.5 -0.5t-28.5 -1.5v-2v-447q0 -22 -15.5 -38.5t-40.5 -16.5h-98v-57h99q23 0 43.5 9t35.5 24.5t24 35.5t9 43v126v325zM276 460q0 -17 -11.5 -28.5t-28.5 -11.5t-28.5 11.5t-11.5 28.5t11.5 29t28.5 12t28.5 -12t11.5 -29zM162 460q0 -17 -11.5 -28.5
t-28.5 -11.5t-29 11.5t-12 28.5t12 29t29 12t28.5 -12t11.5 -29zM219 537q0 -17 -11.5 -28.5t-28.5 -11.5t-28.5 11.5t-11.5 28.5t11.5 28.5t28.5 11.5t28.5 -11.5t11.5 -28.5z" />
    <glyph glyph-name="alefwaslafinal" unicode="&#x671;" horiz-adv-x="360" arabic-form="final" 
d="M68 629l2 2q1 -2 4 -3q4 -2 11 -2h9v85h17l-2 -36q13 33 39 44.5t49 11.5q13 0 26 -4t23.5 -11.5t17 -20t6.5 -28.5q0 -28 -17.5 -43.5t-46.5 -15.5h-131zM206 626q19 0 31 12t12 29q0 13 -5 22t-12.5 14.5t-16.5 8t-16 2.5q-27 0 -44.5 -9.5t-27.5 -23t-14.5 -29
t-5.5 -26.5h99zM337 57v-57h-26q-89 0 -167 21v539h54v-493q29 -5 56.5 -7.5t56.5 -2.5h26z" />
    <glyph glyph-name="alefwaslaisolated" unicode="&#x671;" horiz-adv-x="198" arabic-form="isolated" 
d="M68 629l2 2q1 -2 4 -3q4 -2 11 -2h9v85h17l-2 -36q13 33 39 44.5t49 11.5q13 0 26 -4t23.5 -11.5t17 -20t6.5 -28.5q0 -28 -17.5 -43.5t-46.5 -15.5h-131zM206 626q19 0 31 12t12 29q0 13 -5 22t-12.5 14.5t-16.5 8t-16 2.5q-27 0 -44.5 -9.5t-27.5 -23t-14.5 -29
t-5.5 -26.5h99zM144 0v560h54v-560h-54z" />
    <glyph glyph-name="wawfinalarabic" unicode="&#x648;" horiz-adv-x="509" arabic-form="final" 
d="M515 55v-55h-29q-58 0 -108 10v-125q0 -23 -9 -42.5t-24 -34.5t-35 -24t-43 -9h-97v55h96q23 0 39.5 16t16.5 39v154q-16 -17 -38 -28t-48 -11q-23 0 -43 8.5t-35 23.5t-23.5 35.5t-8.5 43.5v174q59 23 122 36t130 13v-269q26 -5 52.5 -7.5t55.5 -2.5h29zM322 55v24v196
q-71 -3 -140 -29v-135q0 -23 15.5 -39.5t38.5 -16.5h86z" />
    <glyph glyph-name=".notdef" horiz-adv-x="500" 
d="M63 0v750h375v-750h-375zM125 63h250v625h-250v-625z" />
    <glyph glyph-name=".null" 
 />
    <glyph glyph-name=".null" 
 />
    <glyph glyph-name="nonmarkingreturn" unicode="&#xd;" horiz-adv-x="333" 
 />
    <glyph glyph-name="space" unicode=" " horiz-adv-x="237" 
 />
    <glyph glyph-name="_4" horiz-adv-x="280" 
 />
    <glyph glyph-name="_13" horiz-adv-x="273" 
 />
    <glyph glyph-name="kashidaautoarabic" horiz-adv-x="174" 
d="M178 0h-182v54h182v-54z" />
    <glyph glyph-name="decimalseparatorarabic" unicode="&#x66b;" horiz-adv-x="250" 
d="M165 73l-65 -184h-47l39 184h73z" />
    <glyph glyph-name="thousandsseparatorarabic" unicode="&#x66c;" horiz-adv-x="250" 
d="M165 73l-65 -184h-47l39 184h73z" />
    <glyph glyph-name="nonbreakingspace" horiz-adv-x="623" 
 />
    <glyph glyph-name="guillemotleft" unicode="&#xab;" horiz-adv-x="500" 
d="M395 415l-84 -175l83 -175h-45l-95 175l95 175h46zM233 415l-84 -175l83 -175h-45l-95 175l95 175h46z" />
    <glyph glyph-name="guillemotright" unicode="&#xbb;" horiz-adv-x="503" 
d="M108 65l83 175l-82 175h45l95 -175l-95 -175h-46zM270 65l83 175l-82 175h45l95 -175l-95 -175h-46z" />
    <glyph glyph-name="divide" unicode="&#xf7;" horiz-adv-x="593" 
d="M72 253h449v-54h-449v54zM263 0v79h68v-79h-68zM263 372v79h68v-79h-68z" />
    <glyph glyph-name="exclam" unicode="!" horiz-adv-x="350" 
d="M150 154l-12 495h74l-12 -495h-50zM211 77v-77h-72v77h72z" />
    <glyph glyph-name="quotedbl" unicode="&#x22;" horiz-adv-x="323" 
d="M102 649h46v-203h-46v203zM187 649h46v-203h-46v203z" />
    <glyph glyph-name="dollar" unicode="$" horiz-adv-x="500" 
d="M271 40q23 2 46 10.5t41.5 23t30 36t11.5 48.5t-10.5 46t-27.5 32t-38 21.5t-42 16.5l-11 4v-238zM271 -61h-45v48q-37 1 -71 11t-60 31t-41.5 53t-15.5 76h63q0 -60 34 -86.5t91 -31.5v248q-18 7 -47.5 16.5t-58.5 28t-50 49.5t-21 81q0 36 15.5 67.5t41 55t57 37
t63.5 13.5v43h45v-43q33 0 64.5 -10.5t56.5 -30.5t41.5 -49.5t18.5 -67.5h-63q0 29 -11 49t-28 32t-38 18t-41 6v-247q35 -11 69.5 -23t61.5 -31.5t44 -49.5t17 -76q0 -44 -17 -75.5t-44 -52.5t-61.5 -31t-69.5 -10v-48zM226 582q-22 0 -42.5 -8.5t-36.5 -24t-25.5 -37
t-9.5 -48.5q0 -26 10 -45t26 -32t36.5 -22t41.5 -15v232z" />
    <glyph glyph-name="percentarabic" unicode="&#x66a;" horiz-adv-x="381" 
d="M278 649h58l-234 -735h-57zM251 41q0 20 14 34t34 14t34 -14t14 -34t-14 -34t-34 -14t-34 14t-14 34zM35 539q0 20 14 34t34 14t34 -14t14 -34t-14 -34t-34 -14t-34 14t-14 34z" />
    <glyph glyph-name="quotesingle" unicode="'" horiz-adv-x="250" 
d="M102 649h46v-203h-46v203z" />
    <glyph glyph-name="parenright" unicode=")" horiz-adv-x="250" 
d="M40 -86q15 40 29.5 85t25.5 92t17.5 95.5t6.5 94.5q0 88 -22 182.5t-57 185.5h45q17 -44 34 -89t31 -91t23 -93t9 -95t-9 -95t-23 -93t-31.5 -90.5t-33.5 -88.5h-45z" />
    <glyph glyph-name="parenleft" unicode="(" horiz-adv-x="250" 
d="M165 -86q-17 44 -34 88.5t-31 90.5t-23 93t-9 95t9 95t23 93t31 91t34 89h45q-35 -91 -57 -185.5t-22 -182.5q0 -46 6.5 -94.5t17.5 -95.5t25.5 -92t29.5 -85h-45z" />
    <glyph glyph-name="multiply" unicode="&#xd7;" horiz-adv-x="593" 
d="M105 5l-33 33l192 189l-192 190l33 34l193 -190l190 190l33 -34l-190 -190l190 -189l-33 -33l-190 189z" />
    <glyph glyph-name="plus" unicode="+" horiz-adv-x="593" 
d="M270 451h54v-198h197v-54h-197v-199h-54v199h-198v54h198v198z" />
    <glyph glyph-name="commaarabic" unicode="&#x60c;" horiz-adv-x="250" 
d="M79 0l65 184h47l-39 -184h-73z" />
    <glyph glyph-name="hyphen" unicode="-" horiz-adv-x="250" 
d="M12 267h226v-54h-226v54z" />
    <glyph glyph-name="period" unicode="." horiz-adv-x="250" 
d="M89 0v77h72v-77h-72z" />
    <glyph glyph-name="slash" unicode="/" horiz-adv-x="345" 
d="M296 649h58l-234 -735h-57z" />
    <glyph glyph-name="zeroarabic" unicode="&#x660;" horiz-adv-x="258" 
d="M176 190q0 -23 -16 -37.5t-36 -14.5t-35 14.5t-15 37.5q0 18 15 32.5t35 14.5t36 -14.5t16 -32.5z" />
    <glyph glyph-name="onearabic" unicode="&#x661;" horiz-adv-x="222" 
d="M151 51l-54 -51v560h54v-509z" />
    <glyph glyph-name="twoarabic" unicode="&#x662;" horiz-adv-x="489" 
d="M347 560q20 0 39.5 -1t38.5 -3v-41v-14q-19 2 -39 3.5t-40 1.5q-51 0 -99.5 -9t-95.5 -24v-136v-337h-54v336v168v9q115 47 248 47h2v0z" />
    <glyph glyph-name="threearabic" unicode="&#x663;" horiz-adv-x="642" 
d="M545 560v-169q0 -23 -9 -43t-24 -35t-35 -23.5t-42 -8.5h-32q-24 0 -46 10t-36 27q-15 -17 -36 -27t-47 -10h-32q-14 0 -28 4t-26 11v-296h-55v346v141v73h55v-73v-151h141v224h55v-224h142v224h55z" />
    <glyph glyph-name="fourarabic" unicode="&#x664;" horiz-adv-x="451" 
d="M152 363q0 -23 17 -39.5t40 -16.5h114v-57h-114q-23 0 -40 -17t-17 -41v-101q49 -17 99 -26.5t103 -9.5v-55q-69 0 -133 13t-124 36v143q0 26 10.5 48t29.5 38q-19 16 -29.5 38.5t-10.5 46.5v147q60 24 124 37t133 13v-57q-53 0 -103 -8.5t-99 -22.5v-109z" />
    <glyph glyph-name="fivearabic" unicode="&#x665;" horiz-adv-x="580" 
d="M304 471q38 0 71.5 -14.5t58.5 -39.5t39.5 -58.5t14.5 -71.5t-14.5 -71.5t-39.5 -58.5t-58.5 -39.5t-71.5 -14.5t-71.5 14.5t-58.5 39.5t-39.5 58.5t-14.5 71.5t14.5 71.5t39.5 58.5t58.5 39.5t71.5 14.5zM304 160q26 0 49 10t40.5 27t27.5 40.5t10 49.5t-10 49
t-27.5 40.5t-40.5 27.5t-49 10t-49.5 -10t-40.5 -27.5t-27 -40.5t-10 -49t10 -49.5t27 -40.5t40.5 -27t49.5 -10z" />
    <glyph glyph-name="sixarabic" unicode="&#x666;" horiz-adv-x="520" 
d="M177 560q133 0 248 -47v-9v-168v-336h-54v337v136q-47 15 -95.5 24t-99.5 9q-20 0 -40 -1.5t-39 -3.5v14v41q19 2 38.5 3t39.5 1h2z" />
    <glyph glyph-name="sevenarabic" unicode="&#x667;" horiz-adv-x="636" 
d="M176 560l146 -485l137 485h60l-167 -560h-61l-174 560h59z" />
    <glyph glyph-name="eightarabic" unicode="&#x668;" horiz-adv-x="636" 
d="M117 0l174 560h61l167 -560h-60l-137 485l-146 -485h-59z" />
    <glyph glyph-name="ninearabic" unicode="&#x669;" horiz-adv-x="464" 
d="M98 513q28 11 61.5 20t68.5 15t70 9t67 3v-44v-178v-338h-54v246q-5 -4 -10.5 -6.5t-10.5 -4.5q-4 -2 -20 -3t-34.5 -2t-33.5 -1t-18 1q-37 7 -61.5 37.5t-24.5 68.5v177zM327 282q-7 13 -11.5 26.5t-4.5 29.5v166q-18 -2 -38.5 -4.5t-42 -6t-42 -8t-36.5 -10.5v-139
q1 -22 16 -37t38 -17h121z" />
    <glyph glyph-name="colon" unicode=":" horiz-adv-x="250" 
d="M161 420v-77h-72v77h72zM161 77v-77h-72v77h72z" />
    <glyph glyph-name="semicolonarabic" unicode="&#x61b;" horiz-adv-x="250" 
d="M83 267l64 184h47l-38 -184h-73zM69 52q0 22 15 37.5t37 15.5t37.5 -15.5t15.5 -37.5t-15.5 -37t-37.5 -15t-37 15t-15 37z" />
    <glyph glyph-name="greater" unicode="&#x3e;" horiz-adv-x="410" 
d="M287 192l-234 234h69l234 -234l-234 -233h-69z" />
    <glyph glyph-name="equal" unicode="=" horiz-adv-x="593" 
d="M521 286h-449v54h449v-54zM521 111h-449v54h449v-54z" />
    <glyph glyph-name="less" unicode="&#x3c;" horiz-adv-x="410" 
d="M357 -41h-69l-234 233l234 234h69l-234 -234z" />
    <glyph glyph-name="questionarabic" unicode="&#x61f;" horiz-adv-x="449" 
d="M383 502q-55 0 -107 -9.5t-103 -26.5v-76q0 -26 17.5 -44t42.5 -18h33q25 0 46.5 -9.5t37 -26t24.5 -38t9 -45.5v-17v-26v-14h-57v23v17v17q0 26 -17.5 42.5t-43.5 17.5h-31q-25 0 -47 9.5t-38 26t-25 38t-9 46.5v120q62 25 129.5 38t138.5 13v-58zM306 49q0 20 14.5 35
t34.5 15t35 -15t15 -35t-15 -34.5t-35 -14.5t-34.5 14.5t-14.5 34.5z" />
    <glyph glyph-name="asteriskarabic" unicode="&#x66d;" horiz-adv-x="500" 
d="M447 245l-116 -92l51 -138l-17 -15l-113 94l-114 -94l-17 13l52 139l-117 93l9 21l138 -21l39 143h20l38 -143l138 20z" />
    <glyph glyph-name="bracketright" unicode="]" horiz-adv-x="250" 
d="M174 649v-735h-124v45h65v645h-65v45h124z" />
    <glyph glyph-name="backslash" unicode="\" horiz-adv-x="250" 
d="M-40 649h59l271 -649h-58z" />
    <glyph glyph-name="bracketleft" unicode="[" horiz-adv-x="250" 
d="M76 -86v735h124v-45h-65v-645h65v-45h-124z" />
    <glyph glyph-name="underscore" unicode="_" horiz-adv-x="449" 
d="M0 -111v50h449v-50h-449z" />
    <glyph glyph-name="tatweelarabic" unicode="&#x640;" horiz-adv-x="174" 
d="M178 0h-182v54h182v-54z" />
    <glyph glyph-name="braceright" unicode="}" horiz-adv-x="303" 
d="M248 219l-33 -8q-43 -10 -43 -65v-177q0 -63 -30 -97.5t-75 -34.5h-46v27l31 5q64 9 64 87v199q0 59 44 71l37 9l-34 10q-47 12 -47 75v196q0 79 -64 86l-31 6v27h46q45 0 75 -33.5t30 -99.5v-178q0 -53 43 -63l33 -8v-34z" />
    <glyph glyph-name="bar" unicode="|" horiz-adv-x="130" 
d="M44 -162v780h53v-780h-53z" />
    <glyph glyph-name="braceleft" unicode="{" horiz-adv-x="297" 
d="M242 -163h-48q-45 0 -72 33q-32 35 -32 99v177q0 55 -43 65l-32 8v34l32 8q43 10 43 63v178q0 66 29.5 99t74.5 33h48v-26l-31 -6q-65 -8 -65 -86v-198q0 -61 -45 -73l-37 -10l35 -8q47 -14 47 -76v-196q0 -77 65 -86l31 -5v-27z" />
    <glyph glyph-name="zero" unicode="0" horiz-adv-x="258" 
d="M161 256v-95l-76 -37v96z" />
    <glyph glyph-name="one" unicode="1" horiz-adv-x="248" 
d="M151 51l-54 -51v633h54v-582z" />
    <glyph glyph-name="two" unicode="2" horiz-adv-x="546" 
d="M97 475q0 40 13.5 70.5t37.5 50.5t56 30t70 10q66 0 112 -32t63 -89h-60q-15 31 -44.5 50.5t-68.5 19.5q-25 0 -47.5 -7.5t-40 -22t-27.5 -36t-10 -48.5v-471h-54v475z" />
    <glyph glyph-name="three" unicode="3" horiz-adv-x="695" 
d="M390 494q0 -6 -0.5 -14t-1.5 -13q16 -23 37 -34t41 -11q41 0 59.5 24.5t18.5 80.5v106h54v-124q0 -38 -12 -64.5t-31 -43.5t-42 -24.5t-44 -5.5q-61 6 -94 55q-18 -37 -51 -55t-65 -15q-77 6 -108 82v-438h-54v633h54v-83q0 -30 9.5 -56.5t24.5 -46t33.5 -30.5t36.5 -11
q45 0 63 25t18 81v121h54v-139z" />
    <glyph glyph-name="four" unicode="4" horiz-adv-x="539" 
d="M441 36q-26 -17 -59.5 -26.5t-71.5 -9.5q-44 0 -82.5 12t-67.5 35t-46 56.5t-17 77.5q0 34 11 63t29.5 51t43.5 36.5t53 20.5q-15 4 -33.5 14.5t-34 27t-26.5 39t-11 51.5q0 39 13 67.5t35.5 47t51.5 27t62 8.5q50 0 102 -19l-16 -42q-36 15 -75 15q-23 0 -44 -6
t-37.5 -18.5t-26 -31.5t-9.5 -45q0 -33 15 -55t38 -35t51 -18.5t54 -5.5h11v-47h-9q-32 0 -65.5 -7.5t-61.5 -24.5t-45.5 -44.5t-17.5 -67.5q0 -33 12.5 -58t34 -41t50 -24t59.5 -8q29 0 55.5 6.5t49.5 25.5z" />
    <glyph glyph-name="five" unicode="5" horiz-adv-x="606" 
d="M303 43q-10 0 -29 2.5t-41.5 11t-46.5 24.5t-43.5 42.5t-32 65t-12.5 92.5v11q1 54 22 98.5t51.5 76t65.5 48.5t66 17q30 0 65.5 -17t66 -48.5t51 -76t22.5 -98.5v-10q0 -54 -13 -92.5t-33 -65t-44 -42.5t-47 -24.5t-41.5 -11.5t-26.5 -3zM303 93q39 0 68 17t47.5 43.5
t27.5 58.5t9 61v9q-2 49 -18 86.5t-38.5 63t-48.5 38.5t-47 13q-22 0 -47.5 -13t-48 -38.5t-38.5 -63t-18 -86.5v-9q0 -29 9 -61t27.5 -58.5t47.5 -43.5t68 -17z" />
    <glyph glyph-name="six" unicode="6" horiz-adv-x="530" 
d="M129 583l-32 50h158q37 0 69.5 -10t56.5 -30t37.5 -50.5t13.5 -70.5v-472h-54v468q0 27 -10 48.5t-27 36.5t-39.5 22.5t-47.5 7.5h-125z" />
    <glyph glyph-name="seven" unicode="7" horiz-adv-x="636" 
d="M156 633l166 -558l157 558h60l-187 -633h-61l-194 633h59z" />
    <glyph glyph-name="eight" unicode="8" horiz-adv-x="636" 
d="M97 0l194 633h61l187 -633h-60l-157 558l-166 -558h-59z" />
    <glyph glyph-name="nine" unicode="9" horiz-adv-x="547" 
d="M261 313q44 0 70.5 17.5t41 45.5t19 63.5t4.5 71.5v15v57h-53q-29 0 -61 -3.5t-60 -18t-47 -43.5t-21 -79v-5q0 -14 5 -35t17 -40t32.5 -32.5t52.5 -13.5zM396 351q-12 -25 -31 -43q-17 -17 -44.5 -30t-67.5 -13q-30 0 -57.5 12.5t-49.5 34.5t-35 52.5t-13 67.5v4
q1 60 18.5 98.5t53.5 60.5t92 30t134 8h54v-633h-54v351z" />
    <glyph glyph-name="quotedblleft" unicode="&#x201c;" horiz-adv-x="500" 
d="M272 465l65 184h47l-39 -184h-73zM107 465l65 184h46l-38 -184h-73z" />
    <glyph glyph-name="quotedblright" unicode="&#x201d;" horiz-adv-x="500" 
d="M393 649l-65 -184h-47l39 184h73zM227 649l-64 -184h-47l39 184h72z" />
    <glyph glyph-name="hyphenminus" unicode="&#x2010;" horiz-adv-x="454" 
d="M454 192h-431v54h431v-54z" />
    <glyph glyph-name="delete" unicode="&#x2421;" horiz-adv-x="709" 
d="M674 57h-163v260h36v-229h127v-31zM479 57h-195v260h189v-31h-153v-79h143v-31h-143v-88h159v-31zM253 189q0 -108 -79 -127q-20 -5 -41 -5h-95v260h90q33 0 46 -4q79 -18 79 -124zM218 189q0 74 -46 92q-15 5 -44 5h-55v-198h56q43 0 63 18q26 28 26 83z" />
    <glyph glyph-name="nonbreakingspace" unicode="&#xa0;" horiz-adv-x="623" 
 />
    <glyph glyph-name="ornaterightparenthesis" unicode="&#xfd3f;" horiz-adv-x="250" 
d="M40 649h47q26 -24 46.5 -70.5t35 -100t22.5 -107t8 -90.5q0 -38 -8 -91.5t-22.5 -107t-35 -99.5t-46.5 -69h-47v56h25q19 19 33.5 59t24.5 86.5t15 91.5t5 74q0 28 -5 73.5t-15 92t-24.5 87t-33.5 60.5h-25v55z" />
    <glyph glyph-name="ornateleftparenthesis" unicode="&#xfd3e;" horiz-adv-x="250" 
d="M210 -86h-47q-26 24 -46.5 70.5t-35 100t-22.5 107t-8 90.5q0 38 8 91.5t22.5 107t35 99.5t46.5 69h47v-56h-25q-19 -19 -33.5 -59t-24.5 -86.5t-15 -91.5t-5 -74t5 -74t15 -91.5t24.5 -87.5t33.5 -60h25v-55z" />
    <glyph glyph-name="righttoleft" unicode="&#x200f;" horiz-adv-x="20" 
d="M20 0h-20v702h-78l38 -38l-14 -14l-60 61l60 61l14 -14l-36 -36h96v-722z" />
    <glyph glyph-name="lefttoright" unicode="&#x200e;" horiz-adv-x="20" 
d="M134 711l-60 -61l-14 14l38 38h-78v-702h-20v722h96l-36 36l14 14z" />
    <glyph glyph-name="zerojoin" unicode="&#x200d;" horiz-adv-x="20" 
d="M71 663l-14 -13l-37 37v-687h-20v687l-37 -37l-14 13l48 48l-48 47l14 14l47 -48l47 48l14 -14l-47 -47z" />
    <glyph glyph-name="zeronojoin" unicode="&#x200c;" horiz-adv-x="20" 
d="M20 0h-20v722h20v-722z" />
    <glyph glyph-name="extendedarabicindicdigitnine" unicode="&#x6f9;" horiz-adv-x="462" 
d="M98 513q28 11 61.5 20t68.5 15t70 9t67 3v-44v-178v-338h-54v246q-5 -4 -10.5 -6.5t-10.5 -4.5q-4 -2 -20 -3t-34.5 -2t-33.5 -1t-18 1q-37 7 -61.5 37.5t-24.5 68.5v177zM327 282q-7 13 -11.5 26.5t-4.5 29.5v166q-18 -2 -38.5 -4.5t-42 -6t-42 -8t-36.5 -10.5v-139
q1 -22 16 -37t38 -17h121z" />
    <glyph glyph-name="extendedarabicindicdigiteight" unicode="&#x6f8;" horiz-adv-x="636" 
d="M117 0l174 560h61l167 -560h-60l-137 485l-146 -485h-59z" />
    <glyph glyph-name="extendedarabicindicdigitseven" unicode="&#x6f7;" horiz-adv-x="636" 
d="M176 560l146 -485l137 485h60l-167 -560h-61l-174 560h59z" />
    <glyph glyph-name="extendedarabicindicdigitsix" unicode="&#x6f6;" horiz-adv-x="530" 
d="M177 560q133 0 248 -47v-9v-168v-336h-54v337v136q-47 15 -95.5 24t-99.5 9q-20 0 -40 -1.5t-39 -3.5v14v41q19 2 38.5 3t39.5 1h2z" />
    <glyph glyph-name="extendedarabicindicdigitfive" unicode="&#x6f5;" horiz-adv-x="606" 
d="M304 471q38 0 71.5 -14.5t58.5 -39.5t39.5 -58.5t14.5 -71.5t-14.5 -71.5t-39.5 -58.5t-58.5 -39.5t-71.5 -14.5t-71.5 14.5t-58.5 39.5t-39.5 58.5t-14.5 71.5t14.5 71.5t39.5 58.5t58.5 39.5t71.5 14.5zM304 160q26 0 49 10t40.5 27t27.5 40.5t10 49.5t-10 49
t-27.5 40.5t-40.5 27.5t-49 10t-49.5 -10t-40.5 -27.5t-27 -40.5t-10 -49t10 -49.5t27 -40.5t40.5 -27t49.5 -10z" />
    <glyph glyph-name="extendedarabicindicdigitfour" unicode="&#x6f4;" horiz-adv-x="451" 
d="M152 363q0 -23 17 -39.5t40 -16.5h114v-57h-114q-23 0 -40 -17t-17 -41v-101q49 -17 99 -26.5t103 -9.5v-55q-69 0 -133 13t-124 36v143q0 26 10.5 48t29.5 38q-19 16 -29.5 38.5t-10.5 46.5v147q60 24 124 37t133 13v-57q-53 0 -103 -8.5t-99 -22.5v-109z" />
    <glyph glyph-name="extendedarabicindicdigitthree" unicode="&#x6f3;" horiz-adv-x="642" 
d="M545 560v-169q0 -23 -9 -43t-24 -35t-35 -23.5t-42 -8.5h-32q-24 0 -46 10t-36 27q-15 -17 -36 -27t-47 -10h-32q-14 0 -28 4t-26 11v-296h-55v346v141v73h55v-73v-151h141v224h55v-224h142v224h55z" />
    <glyph glyph-name="extendedarabicindicdigittwo" unicode="&#x6f2;" horiz-adv-x="546" 
d="M347 560q20 0 39.5 -1t38.5 -3v-41v-14q-19 2 -39 3.5t-40 1.5q-51 0 -99.5 -9t-95.5 -24v-136v-337h-54v336v168v9q115 47 248 47h2v0z" />
    <glyph glyph-name="extendedarabicindicdigitone" unicode="&#x6f1;" horiz-adv-x="248" 
d="M151 51l-54 -51v560h54v-509z" />
    <glyph glyph-name="extendedarabicindicdigitzero" unicode="&#x6f0;" horiz-adv-x="258" 
d="M176 190q0 -23 -16 -37.5t-36 -14.5t-35 14.5t-15 37.5q0 18 15 32.5t35 14.5t36 -14.5t16 -32.5z" />
    <glyph glyph-name="superscriptalef" unicode="&#x670;" 
d="M23 714v204h44v-204h-44z" />
    <glyph glyph-name="maddaabove" unicode="&#x653;" 
d="M233 672q-8 -26 -31 -44.5t-53 -18.5q-16 0 -29 5t-24 13l-6 -18h-48l24 63h47h1v-1q5 -8 14.5 -13t20.5 -5q23 0 36 19h48z" />
    <glyph glyph-name="hamzaabove" unicode="&#x654;" 
d="M111 654q0 -5 3 -7t6 -2h56v-37h-130v37h31q-1 1 -1.5 2.5t-0.5 7v16v28.5q25 10 48.5 15t52.5 5v-36q-21 0 -36 -2t-29 -7v-20v0z" />
    <glyph glyph-name="hamzabelow" unicode="&#x655;" 
d="M111 -113q0 -5 3 -7t6 -2h56v-37h-130v37h31q-1 1 -1.5 2.5t-0.5 7v16v28.5q25 10 48.5 15t52.5 5v-36q-21 0 -36 -2t-29 -7v-20v0z" />
    <glyph glyph-name="zerowidthnobreakspace" unicode="&#xfeff;" 
 />
    <glyph glyph-name="_246" 
 />
    <glyph glyph-name="at" unicode="*" horiz-adv-x="453" 
d="M415 129l-30 -52l-145 102l17 -176h-61l18 176l-146 -102l-30 52l163 74l-163 74l30 52l146 -104l-18 177h61l-17 -177l145 104l30 -52l-163 -74z" />
    </font>
</defs>
</svg>
